<svg id="Ebene_1" data-name="Ebene 1" xmlns="http://www.w3.org/2000/svg" viewBox="0 0 39.68 39.68"><defs><style>.cls-1{fill:#ffcb00;}.cls-2{fill:#1d1d1b;}</style></defs><rect class="cls-1" width="39.68" height="39.68"/><path class="cls-2" d="M27,18.09h.58V16.4H26.49A2.22,2.22,0,0,0,24,18.87v.52l-1.08-.05V20.9l1.08,0v6.23h2.11V20.85l1.47,0V19.34l-1.47.05V19a.78.78,0,0,1,.89-.89M16,23l.43-1.32.92-3.07.9,3.07L18.66,23Zm4,4h2.37L18.65,16.4H16.09L12.3,27.08h2.36l.72-2.22h3.87Z"/><path class="cls-2" d="M36.22,7.58H34l-.29,2.19a3.48,3.48,0,0,1,.63,0c.91,0,1.3.42,1.31,1a1,1,0,0,1-1.08,1,2,2,0,0,1-1-.25l-.16.47a2.24,2.24,0,0,0,1.13.28,1.59,1.59,0,0,0,1.7-1.56,1.3,1.3,0,0,0-.65-1.16,1.91,1.91,0,0,0-1-.25,2.89,2.89,0,0,0-.37,0l.17-1.17h1.74ZM32.48,13a9,9,0,0,0,.66-1.7l-.68.07A10.72,10.72,0,0,1,32,13ZM30.1,8c.64,0,.93.6.93,1.38a.38.38,0,0,1-.06.22,1,1,0,0,1-.89.48.88.88,0,0,1-.88-1c0-.64.37-1.11.9-1.11M29,12.2a3,3,0,0,0,.57,0,2.31,2.31,0,0,0,1.32-.61,2.89,2.89,0,0,0,.78-2.14c0-1.16-.57-1.91-1.5-1.91a1.56,1.56,0,0,0-1.56,1.61,1.32,1.32,0,0,0,1.35,1.39A1.35,1.35,0,0,0,31,10h0a2,2,0,0,1-.6,1.21,1.78,1.78,0,0,1-.95.44,3.08,3.08,0,0,1-.5,0ZM22.79,7.41v4.72h.61V9.92h2.28v2.21h.62V7.41h-.62v2H23.4v-2ZM19.4,10.17a1.09,1.09,0,0,1,0-.25,1,1,0,0,1,.93-.76c.65,0,1,.58,1,1.26s-.38,1.31-1,1.31a1,1,0,0,1-.93-.72,2.11,2.11,0,0,1,0-.26Zm-.61,3.35h.61V11.68h0a1.2,1.2,0,0,0,1,.53A1.6,1.6,0,0,0,22,10.39a1.53,1.53,0,0,0-1.43-1.72,1.35,1.35,0,0,0-1.21.65h0l0-.58h-.55c0,.33,0,.68,0,1.11Z"/></svg>