<?xml version="1.0" encoding="UTF-8"?><svg xmlns="http://www.w3.org/2000/svg" viewBox="0 0 2046.07 2044.05"><defs><style>.cls-1{fill:#ffcb04;}.cls-2{fill:#1d1d1b;}</style></defs><g id="Farbcode"><rect class="cls-1" x="20.04" y="22.03" width="2000.31" height="2000.31"/></g><g id="Afo"><g><path class="cls-2" d="M635.77,824.06h121.73l201.87,539.84h-123.24l-40.83-120.22h-201.87l-42.34,120.22h-120.22l204.9-539.84Zm-11.34,331.16h139.87l-68.05-198.09h-1.51l-70.31,198.09Z"/><path class="cls-2" d="M1018.34,1044.84h-64.27v-71.83h64.27v-30.24c0-68.8,43.1-118.7,130.8-118.7,18.9,0,38.56,2.27,56.71,3.02v80.14c-12.85-1.51-25.71-2.27-39.32-2.27-28.73,0-40.83,12.1-40.83,44.61v23.44h74.09v71.83h-74.09v319.06h-107.36v-319.06Z"/><path class="cls-2" d="M1436.44,962.43c123.24,0,202.63,81.66,202.63,206.41s-79.39,205.65-202.63,205.65-201.87-81.66-201.87-205.65,79.39-206.41,201.87-206.41Zm0,331.16c73.34,0,95.26-62.75,95.26-124.75s-21.93-125.51-95.26-125.51-94.51,62.75-94.51,125.51,21.93,124.75,94.51,124.75Z"/></g><g><path class="cls-2" d="M876.33,518.55c0-21.88-.71-39.52-1.41-55.75h27.87l1.41,29.28h.71c12.7-20.82,32.81-33.17,60.69-33.17,41.28,0,72.33,34.93,72.33,86.8,0,61.39-37.4,91.74-77.62,91.74-22.58,0-42.34-9.88-52.57-26.82h-.71v92.79h-30.7v-184.88Zm30.7,45.52c0,4.59,.71,8.82,1.41,12.7,5.65,21.52,24.35,36.34,46.57,36.34,32.81,0,51.87-26.82,51.87-65.98,0-34.22-17.99-63.51-50.81-63.51-21.17,0-40.93,15.17-46.93,38.46-1.06,3.88-2.12,8.47-2.12,12.7v29.28Z"/><path class="cls-2" d="M1108.84,395.77v99.5h115.02v-99.5h31.05v237.81h-31.05v-111.49h-115.02v111.49h-30.7v-237.81h30.7Z"/><path class="cls-2" d="M1390.05,611.7c6.7,.71,14.47,0,25.05-1.06,17.99-2.47,34.93-9.88,47.98-22.23,15.17-13.76,26.11-33.87,30.34-61.04h-1.06c-12.7,15.52-31.05,24.7-53.98,24.7-41.28,0-67.74-31.05-67.74-70.21,0-43.4,31.4-81.5,78.33-81.5s75.86,38.11,75.86,96.67c0,50.45-16.94,85.74-39.52,107.61-17.64,17.29-41.99,27.87-66.68,30.7-11.29,1.76-21.17,2.12-28.58,1.76v-25.4Zm56.1-187.71c-26.11,0-44.81,23.29-44.81,55.75,0,28.58,17.29,48.69,44.1,48.69,20.82,0,37.05-10.23,45.16-23.99,1.76-2.82,2.82-6.35,2.82-11.29,0-39.16-14.47-69.15-46.93-69.15h-.35Z"/><path class="cls-2" d="M1543.17,676.97c7.41-20.82,16.94-58.57,20.82-84.33l34.58-3.53c-8.12,29.99-23.64,69.15-33.52,85.74l-21.88,2.12Z"/><path class="cls-2" d="M1753.45,430.34h-87.5l-8.82,58.92c5.29-.71,10.23-1.41,18.7-1.41,17.64,0,35.28,3.88,49.4,12.35,17.99,10.23,32.81,29.99,32.81,58.92,0,44.81-35.64,78.33-85.38,78.33-25.05,0-46.22-7.06-57.16-14.11l7.76-23.64c9.53,5.65,28.23,12.7,49.04,12.7,29.29,0,54.34-19.05,54.34-49.75-.35-29.64-20.11-50.81-65.98-50.81-13.05,0-23.29,1.41-31.75,2.47l14.82-110.08h109.73v26.11Z"/></g></g></svg>