<svg xmlns="http://www.w3.org/2000/svg" viewBox="0 0 2000.31 2000.31"><defs><style>.cls-1{fill:#ffcb04;}.cls-2{fill:#1d1d1b;}</style></defs><g id="Farbcode"><rect class="cls-1" width="2000.31" height="2000.31"/></g><g id="Afs"><path class="cls-2" d="M630.73,801H752.46l201.87,539.83H831.09l-40.83-120.21H588.39l-42.34,120.21H425.83ZM619.39,1132.2H759.26l-68-198.09H689.7Z"/><path class="cls-2" d="M1013.3,1021.81H949V950h64.26V919.74c0-68.8,43.1-118.7,130.8-118.7,18.9,0,38.56,2.27,56.71,3v80.15a331.55,331.55,0,0,0-39.32-2.27c-28.73,0-40.83,12.09-40.83,44.6V950h74.1v71.83h-74.1v319.06H1013.3Z"/><path class="cls-2" d="M1324.8,1213.85c.75,46.88,40.07,65.78,82.41,65.78,31,0,70.31-12.1,70.31-49.9,0-32.51-44.6-43.85-121.72-60.49-62-13.61-124-35.53-124-104.33,0-99.81,86.19-125.51,170.12-125.51,85.43,0,164.07,28.73,172.38,124.75H1472.23c-3-41.58-34.78-52.92-73.34-52.92-24.19,0-59.73,4.53-59.73,36.29,0,38.56,60.49,43.85,121.73,58.21,62.75,14.37,124,37,124,109.64,0,102.82-89.22,136.09-178.44,136.09-90.73,0-179.19-34-183.72-137.61Z"/><path class="cls-2" d="M926.29,478.52c0-21.87-.7-39.51-1.41-55.74h27.88l1.41,29.28h.7c12.71-20.81,32.82-33.16,60.69-33.16,41.28,0,72.33,34.93,72.33,86.79,0,61.39-37.4,91.74-77.62,91.74-22.58,0-42.34-9.88-52.57-26.82H957v92.8h-30.7ZM957,524a70.36,70.36,0,0,0,1.41,12.7c5.65,21.52,24.35,36.34,46.58,36.34,32.81,0,51.86-26.81,51.86-66,0-34.22-18-63.5-50.8-63.5-21.18,0-40.93,15.17-46.93,38.45A50.3,50.3,0,0,0,957,494.76Z"/><path class="cls-2" d="M1158.81,355.74v99.5h115v-99.5h31.05V593.55h-31.05V482.05h-115v111.5h-30.7V355.74Z"/><path class="cls-2" d="M1440,571.67c6.7.71,14.47,0,25-1.06,18-2.47,34.93-9.88,48-22.22,15.18-13.76,26.11-33.88,30.35-61h-1.06c-12.7,15.52-31,24.69-54,24.69-41.28,0-67.75-31-67.75-70.21,0-43.4,31.41-81.5,78.33-81.5s75.86,38.1,75.86,96.67c0,50.46-16.94,85.74-39.52,107.62-17.64,17.28-42,27.87-66.68,30.69a144.44,144.44,0,0,1-28.58,1.77Zm56.1-187.7c-26.11,0-44.81,23.28-44.81,55.74,0,28.58,17.29,48.69,44.1,48.69,20.82,0,37-10.23,45.17-24,1.76-2.82,2.82-6.35,2.82-11.29,0-39.16-14.47-69.15-46.93-69.15Z"/><path class="cls-2" d="M1593.13,637c7.41-20.82,16.94-58.57,20.82-84.33l34.58-3.53c-8.12,30-23.64,69.16-33.52,85.74Z"/><path class="cls-2" d="M1812.94,390.32h-87.5l-8.82,58.92a122,122,0,0,1,18.7-1.41c17.64,0,35.28,3.88,49.4,12.35,18,10.23,32.81,30,32.81,58.92,0,44.81-35.64,78.33-85.39,78.33-25.05,0-46.22-7.06-57.15-14.11l7.76-23.64c9.52,5.64,28.22,12.7,49,12.7,29.29,0,54.34-19.06,54.34-49.75-.36-29.64-20.11-50.81-66-50.81a237,237,0,0,0-31.76,2.47l14.82-110.08h109.73Z"/></g></svg>