<?xml version="1.0" encoding="utf-8"?>
<!-- Generator: Adobe Illustrator 26.0.2, SVG Export Plug-In . SVG Version: 6.00 Build 0)  -->
<svg version="1.1" xmlns="http://www.w3.org/2000/svg" xmlns:xlink="http://www.w3.org/1999/xlink" x="0px" y="0px"
	 viewBox="0 0 2000 2000" style="enable-background:new 0 0 2000 2000;" xml:space="preserve">
<style type="text/css">
	.st0{display:none;}
	.st1{display:inline;fill:#807454;}
	.st2{fill:#C53684;}
	.st3{display:inline;fill:#FF5800;}
	.st4{fill:#FFCB00;}
	.st5{display:none;fill:#ADAFAF;}
	.st6{display:none;fill:#00C7B2;}
	.st7{display:none;fill:#807454;}
	.st8{display:none;fill:#FF5800;}
	.st9{display:none;fill:#009EE2;}
	.st10{display:none;fill:#F30034;}
	.st11{display:none;fill:#FFCB04;}
	.st12{display:none;fill:#92D400;}
	.st13{display:inline;fill:#1D1D1B;}
	.st14{font-family:'HelveticaNeueLTStd-Bd';}
	.st15{font-size:756.0722px;}
	.st16{font-family:'MyriadPro-Regular';}
	.st17{font-size:352.8337px;}
	.st18{display:inline;}
	.st19{fill:#1D1D1B;}
	.st20{font-size:600px;}
	.st21{fill:#ADAFAF;}
	.st22{display:inline;fill:#E3032E;}
	.st23{fill:#A44DC4;}
	.st24{fill:#92D400;}
	.st25{fill:#EE6302;}
	.st26{fill:#FFFFFF;}
	.st27{font-size:484.3558px;}
	.st28{letter-spacing:21;}
	.st29{display:inline;fill:#FFFFFF;}
	.st30{font-size:352.8047px;}
	.st31{display:none;fill:#FFFFFF;}
	.st32{stroke:#FFFFFF;stroke-miterlimit:10;}
</style>
<g id="Farbcode_Gold" class="st0">
	<rect x="-0.2" y="0.1" class="st1" width="2000.2" height="2000.2"/>
	<rect x="-0.2" y="0.1" class="st2" width="2000.2" height="214.3"/>
	<rect x="-0.2" y="0.1" class="st3" width="2000.2" height="214.3"/>
	<rect x="-0.2" y="0.1" class="st4" width="2000.2" height="214.3"/>
</g>
<g id="Farbcode_1_">
	<rect class="st5" width="2000.3" height="2000.3"/>
	<rect class="st6" width="2000.3" height="2000.3"/>
	<rect class="st7" width="2000.3" height="2000.3"/>
	<rect class="st8" width="2000.3" height="2000.3"/>
	<rect class="st4" width="2000.3" height="2000.3"/>
	<rect class="st9" width="2000.3" height="2000.3"/>
	<rect class="st10" width="2000.3" height="2000.3"/>
	<rect x="-3" class="st11" width="2000.3" height="2000.3"/>
	<rect class="st12" width="2000.3" height="2000.3"/>
</g>
<g id="Vorlage_1_" class="st0">
	<text transform="matrix(1 0 0 1 454.1272 1341.873)" class="st13 st14 st15">Kfr</text>
	<text transform="matrix(1 0 0 1 827.5386 611.5474)" class="st13 st16 st17">pH ,</text>
</g>
<g id="Mf" class="st0">
	<text transform="matrix(1 0 0 1 458.1272 1340.873)" class="st13 st14 st15">Pw</text>
	<text transform="matrix(1 0 0 1 846.5386 611.5474)" class="st13 st16 st17">pH 4,5</text>
</g>
<g id="Dx" class="st0">
	<g class="st18">
		<path class="st19" d="M506.3,802h232.9c139.9,0,245,87.7,245,266.9c0,156.5-80.1,272.9-245,272.9H506.3V802z M625,1242.1h105.8
			c68.8,0,134.6-42.3,134.6-161.8c0-108.9-37.8-178.4-155.8-178.4H625V1242.1z"/>
		<path class="st19" d="M1155,1136.2L1026.5,951H1149l68.8,102.1l68-102.1h118.7L1276,1134l144.4,207.9h-122.5l-81.7-123.2
			l-81.7,123.2h-120.2L1155,1136.2z"/>
	</g>
</g>
<g id="Fal" class="st0">
	<g class="st18">
		<path class="st19" d="M506.3,802h379.5v99.8H625v124.8h226.1v92.2H625v223H506.3V802z"/>
		<path class="st19" d="M938.8,1071.2c6-100.6,96-130.8,183.7-130.8c77.9,0,171.6,17.4,171.6,111.1v203.4c0,35.5,3.8,71.1,13.6,86.9
			h-108.9c-3.8-12.1-6.8-25-7.6-37.8c-34,35.5-83.9,48.4-131.6,48.4c-74.1,0-133.1-37-133.1-117.2c0-88.5,66.5-109.6,133.1-118.7
			c65.8-9.8,127-7.6,127-51.4c0-46.1-31.8-52.9-69.6-52.9c-40.8,0-67.3,16.6-71.1,59H938.8z M1186.8,1150.6
			c-18.1,15.9-55.9,16.6-89.2,22.7c-33.3,6.8-63.5,18.1-63.5,57.5c0,40.1,31,49.9,65.8,49.9c83.9,0,86.9-66.5,86.9-90V1150.6z"/>
		<path class="st19" d="M1380.3,802h107.4v539.8h-107.4V802z"/>
	</g>
	<g class="st18">
		<path class="st19" d="M853.3,496.5c0-21.9-0.7-39.5-1.4-55.7h27.9l1.4,29.3h0.7c12.7-20.8,32.8-33.2,60.7-33.2
			c41.3,0,72.3,34.9,72.3,86.8c0,61.4-37.4,91.7-77.6,91.7c-22.6,0-42.3-9.9-52.6-26.8H884v92.8h-30.7V496.5z M884,542
			c0,4.6,0.7,8.8,1.4,12.7c5.6,21.5,24.3,36.3,46.6,36.3c32.8,0,51.9-26.8,51.9-66c0-34.2-18-63.5-50.8-63.5
			c-21.2,0-40.9,15.2-46.9,38.5c-1.1,3.9-2.1,8.5-2.1,12.7V542z"/>
		<path class="st19" d="M1085.8,373.7v99.5h115v-99.5h31v237.8h-31V500.1h-115v111.5h-30.7V373.7H1085.8z"/>
		<path class="st19" d="M1430.9,504.6v22.9h-87.1v-22.9H1430.9z"/>
		<path class="st19" d="M1609.8,494.4c0,78-28.9,121-79.7,121c-44.8,0-75.2-42-75.9-117.8c0-76.9,33.2-119.3,79.7-119.3
			C1582.2,378.3,1609.8,421.4,1609.8,494.4z M1485.2,497.9c0,59.6,18.3,93.5,46.6,93.5c31.8,0,46.9-37,46.9-95.6
			c0-56.5-14.5-93.5-46.6-93.5C1505,402.3,1485.2,435.5,1485.2,497.9z"/>
		<path class="st19" d="M1628.5,654.9c7.4-20.8,16.9-58.6,20.8-84.3l34.6-3.5c-8.1,30-23.6,69.2-33.5,85.7L1628.5,654.9z"/>
		<path class="st19" d="M1718.8,575.9c8.8,5.6,29.3,14.5,50.8,14.5c39.9,0,52.2-25.4,51.9-44.5c-0.4-32.1-29.3-45.9-59.3-45.9h-17.3
			v-23.3h17.3c22.6,0,51.2-11.6,51.2-38.8c0-18.3-11.6-34.6-40.2-34.6c-18.3,0-36,8.1-45.9,15.2l-8.1-22.6c12-8.8,35.3-17.6,60-17.6
			c45.2,0,65.6,26.8,65.6,54.7c0,23.6-14.1,43.8-42.3,54v0.7c28.2,5.6,51.2,26.8,51.2,58.9c0,36.7-28.6,68.8-83.6,68.8
			c-25.8,0-48.3-8.1-59.6-15.5L1718.8,575.9z"/>
	</g>
</g>
<g id="Fla" class="st0">
	<g class="st18">
		<path class="st19" d="M506.3,802h379.5v99.8H625v124.8h226.1v92.2H625v223H506.3V802z"/>
		<path class="st19" d="M946.3,802h107.4v539.8H946.3V802z"/>
		<path class="st19" d="M1133.8,1071.2c6-100.6,96-130.8,183.7-130.8c77.9,0,171.6,17.4,171.6,111.1v203.4
			c0,35.5,3.8,71.1,13.6,86.9h-108.9c-3.8-12.1-6.8-25-7.6-37.8c-34,35.5-83.9,48.4-131.6,48.4c-74.1,0-133.1-37-133.1-117.2
			c0-88.5,66.5-109.6,133.1-118.7c65.8-9.8,127-7.6,127-51.4c0-46.1-31.8-52.9-69.6-52.9c-40.8,0-67.3,16.6-71.1,59H1133.8z
			 M1381.8,1150.6c-18.1,15.9-55.9,16.6-89.2,22.7c-33.3,6.8-63.5,18.1-63.5,57.5c0,40.1,31,49.9,65.8,49.9
			c83.9,0,86.9-66.5,86.9-90V1150.6z"/>
	</g>
	<g class="st18">
		<path class="st19" d="M853.3,496.5c0-21.9-0.7-39.5-1.4-55.7h27.9l1.4,29.3h0.7c12.7-20.8,32.8-33.2,60.7-33.2
			c41.3,0,72.3,34.9,72.3,86.8c0,61.4-37.4,91.7-77.6,91.7c-22.6,0-42.3-9.9-52.6-26.8H884v92.8h-30.7V496.5z M884,542
			c0,4.6,0.7,8.8,1.4,12.7c5.6,21.5,24.3,36.3,46.6,36.3c32.8,0,51.9-26.8,51.9-66c0-34.2-18-63.5-50.8-63.5
			c-21.2,0-40.9,15.2-46.9,38.5c-1.1,3.9-2.1,8.5-2.1,12.7V542z"/>
		<path class="st19" d="M1085.8,373.7v99.5h115v-99.5h31v237.8h-31V500.1h-115v111.5h-30.7V373.7H1085.8z"/>
		<path class="st19" d="M1501.4,494.4c0,78-28.9,121-79.7,121c-44.8,0-75.2-42-75.9-117.8c0-76.9,33.2-119.3,79.7-119.3
			C1473.9,378.3,1501.4,421.4,1501.4,494.4z M1376.9,497.9c0,59.6,18.3,93.5,46.6,93.5c31.8,0,46.9-37,46.9-95.6
			c0-56.5-14.5-93.5-46.6-93.5C1396.6,402.3,1376.9,435.5,1376.9,497.9z"/>
		<path class="st19" d="M1520.1,654.9c7.4-20.8,16.9-58.6,20.8-84.3l34.6-3.5c-8.1,30-23.6,69.2-33.5,85.7L1520.1,654.9z"/>
		<path class="st19" d="M1755.5,494.4c0,78-28.9,121-79.7,121c-44.8,0-75.2-42-75.9-117.8c0-76.9,33.2-119.3,79.7-119.3
			C1727.9,378.3,1755.5,421.4,1755.5,494.4z M1630.9,497.9c0,59.6,18.3,93.5,46.6,93.5c31.8,0,46.9-37,46.9-95.6
			c0-56.5-14.5-93.5-46.6-93.5C1650.7,402.3,1630.9,435.5,1630.9,497.9z"/>
	</g>
</g>
<g id="Tdg" class="st0">
	<g class="st18">
		<path class="st19" d="M485.8,901.8H324V802h442.3v99.8H604.5v440H485.8V901.8z"/>
		<path class="st19" d="M1095.9,1292h-1.5c-25,42.3-68.8,60.5-118.7,60.5c-117.9,0-175.4-101.3-175.4-209.4
			c0-105.1,58.2-202.6,173.1-202.6c46.1,0,91.5,19.7,115.7,58.2h1.5V802H1198v539.8h-102.1V1292z M1002.1,1021.3
			c-70.3,0-94.5,60.5-94.5,124.8c0,61.2,28,125.5,94.5,125.5c71.1,0,92.2-62,92.2-126.3C1094.4,1081.8,1071.7,1021.3,1002.1,1021.3z
			"/>
		<path class="st19" d="M1654.6,1316.9c0,64.3-22.7,173.1-202.6,173.1c-77.1,0-167.1-36.3-172.4-125.5h106.6
			c9.8,40.1,42.3,53.7,80.1,53.7c59.7,0,86.9-40.8,86.2-96.8V1270h-1.5c-23.4,40.8-70.3,60.5-117.2,60.5
			c-117.2,0-167.1-89.2-167.1-196.6c0-101.3,58.2-193.6,167.8-193.6c51.4,0,90.7,17.4,116.4,62.8h1.5V951h102.1V1316.9z
			 M1552.6,1141.5c0-63.5-21.9-120.2-91.5-120.2c-60.5,0-86.9,52.9-86.9,111.1c0,56,21.2,117.2,86.9,117.2
			C1522.3,1249.6,1552.6,1197.5,1552.6,1141.5z"/>
	</g>
	<g class="st18">
		<path class="st19" d="M853.3,496.5c0-21.9-0.7-39.5-1.4-55.7h27.9l1.4,29.3h0.7c12.7-20.8,32.8-33.2,60.7-33.2
			c41.3,0,72.3,34.9,72.3,86.8c0,61.4-37.4,91.7-77.6,91.7c-22.6,0-42.3-9.9-52.6-26.8H884v92.8h-30.7V496.5z M884,542
			c0,4.6,0.7,8.8,1.4,12.7c5.6,21.5,24.3,36.3,46.6,36.3c32.8,0,51.9-26.8,51.9-66c0-34.2-18-63.5-50.8-63.5
			c-21.2,0-40.9,15.2-46.9,38.5c-1.1,3.9-2.1,8.5-2.1,12.7V542z"/>
		<path class="st19" d="M1085.8,373.7v99.5h115v-99.5h31v237.8h-31V500.1h-115v111.5h-30.7V373.7H1085.8z"/>
		<path class="st19" d="M1497.9,382.2v20.5l-99.9,208.9H1366l99.5-202.9V408h-112.2v-25.8H1497.9z"/>
		<path class="st19" d="M1520.1,654.9c7.4-20.8,16.9-58.6,20.8-84.3l34.6-3.5c-8.1,30-23.6,69.2-33.5,85.7L1520.1,654.9z"/>
		<path class="st19" d="M1755.5,494.4c0,78-28.9,121-79.7,121c-44.8,0-75.2-42-75.9-117.8c0-76.9,33.2-119.3,79.7-119.3
			C1727.9,378.3,1755.5,421.4,1755.5,494.4z M1630.9,497.9c0,59.6,18.3,93.5,46.6,93.5c31.8,0,46.9-37,46.9-95.6
			c0-56.5-14.5-93.5-46.6-93.5C1650.7,402.3,1630.9,435.5,1630.9,497.9z"/>
	</g>
</g>
<g id="Rrr_00000078025434915677224730000007018586406129851071_" class="st0">
	<g class="st18">
		<path class="st19" d="M459.3,802h291.1c96.8,0,158,67.3,158,148.9c0,63.5-25.7,111.1-85.4,135.3v1.5
			c58.2,15.1,74.9,71.8,78.6,126.3c2.3,34,1.5,97.5,22.7,127.8H805.6c-14.4-34-12.9-86.2-18.9-129.3c-8.3-56.7-30.2-81.7-90-81.7
			H578v210.9H459.3V802z M578,1046.2h130c52.9,0,81.7-22.7,81.7-77.1c0-52.2-28.7-74.9-81.7-74.9H578V1046.2z"/>
		<path class="st19" d="M993.8,951h102.1v72.6h1.5c19.7-49.1,72.6-83.2,124.8-83.2c7.6,0,16.6,1.5,23.4,3.8v99.8
			c-9.8-2.3-25.7-3.8-38.6-3.8c-78.6,0-105.8,56.7-105.8,125.5v176.2H993.8V951z"/>
		<path class="st19" d="M1287.9,951H1390v72.6h1.5c19.7-49.1,72.6-83.2,124.8-83.2c7.6,0,16.6,1.5,23.4,3.8v99.8
			c-9.8-2.3-25.7-3.8-38.6-3.8c-78.6,0-105.9,56.7-105.9,125.5v176.2h-107.4V951z"/>
	</g>
	<g class="st18">
		<path class="st19" d="M853.3,496.5c0-21.9-0.7-39.5-1.4-55.7h27.9l1.4,29.3h0.7c12.7-20.8,32.8-33.2,60.7-33.2
			c41.3,0,72.3,34.9,72.3,86.8c0,61.4-37.4,91.7-77.6,91.7c-22.6,0-42.3-9.9-52.6-26.8H884v92.8h-30.7V496.5z M884,542
			c0,4.6,0.7,8.8,1.4,12.7c5.6,21.5,24.3,36.3,46.6,36.3c32.8,0,51.9-26.8,51.9-66c0-34.2-18-63.5-50.8-63.5
			c-21.2,0-40.9,15.2-46.9,38.5c-1.1,3.9-2.1,8.5-2.1,12.7V542z"/>
		<path class="st19" d="M1085.8,373.7v99.5h115v-99.5h31v237.8h-31V500.1h-115v111.5h-30.7V373.7H1085.8z"/>
		<path class="st19" d="M1497.9,382.2v20.5l-99.9,208.9H1366l99.5-202.9V408h-112.2v-25.8H1497.9z"/>
		<path class="st19" d="M1520.1,654.9c7.4-20.8,16.9-58.6,20.8-84.3l34.6-3.5c-8.1,30-23.6,69.2-33.5,85.7L1520.1,654.9z"/>
		<path class="st19" d="M1739.9,408.3h-87.5l-8.8,58.9c5.3-0.7,10.2-1.4,18.7-1.4c17.6,0,35.3,3.9,49.4,12.3
			c18,10.2,32.8,30,32.8,58.9c0,44.8-35.6,78.3-85.4,78.3c-25.1,0-46.2-7.1-57.2-14.1l7.8-23.6c9.5,5.6,28.2,12.7,49,12.7
			c29.3,0,54.3-19.1,54.3-49.7c-0.4-29.6-20.1-50.8-66-50.8c-13.1,0-23.3,1.4-31.8,2.5l14.8-110.1h109.7V408.3z"/>
	</g>
</g>
<g id="Rkb_x2F_Rkr" class="st0">
	<text transform="matrix(1 0 0 1 126.1272 593.873)" class="st13 st14 st20">Rkb</text>
</g>
<g id="Rkb_x2F_Rkr_Kopie" class="st0">
	<text transform="matrix(1 0 0 1 855.1272 1844.873)" class="st13 st14 st20">Rkr</text>
	<g class="st18">
		<line x1="-0.5" y1="1999.5" x2="2000.5" y2="0.5"/>
		<g>
			<path d="M15.4,2015.4c4.6-4.6,9.2-9.2,13.8-13.8c13.2-13.2,26.4-26.4,39.6-39.6c20.9-20.9,41.8-41.7,62.6-62.6
				c27.6-27.6,55.2-55.2,82.9-82.8c33.4-33.4,66.9-66.8,100.3-100.2c38.3-38.3,76.6-76.5,114.9-114.8
				c42.5-42.4,84.9-84.9,127.4-127.3c45.3-45.2,90.6-90.5,135.9-135.7c47.4-47.3,94.7-94.7,142.1-142c48.5-48.5,97.1-97,145.6-145.4
				c48.8-48.7,97.5-97.4,146.3-146.1c48-48,96.1-96,144.1-144c46.4-46.4,92.8-92.7,139.2-139.1c43.8-43.8,87.7-87.6,131.5-131.4
				c40.4-40.3,80.7-80.6,121.1-120.9c35.9-35.9,71.8-71.8,107.8-107.7c30.6-30.5,61.1-61.1,91.7-91.6c24.3-24.3,48.6-48.5,72.9-72.8
				c17.1-17.1,34.3-34.2,51.4-51.3c8.9-8.9,17.8-17.7,26.6-26.6c1.1-1.1,2.2-2.2,3.3-3.3c20.5-20.5-11.3-52.3-31.8-31.8
				c-4.6,4.6-9.2,9.2-13.8,13.8c-13.2,13.2-26.4,26.4-39.6,39.6c-20.9,20.9-41.8,41.7-62.6,62.6c-27.6,27.6-55.2,55.2-82.9,82.8
				c-33.4,33.4-66.9,66.8-100.3,100.2c-38.3,38.3-76.6,76.5-114.9,114.8c-42.5,42.4-84.9,84.9-127.4,127.3
				c-45.3,45.2-90.6,90.5-135.9,135.7c-47.4,47.3-94.7,94.7-142.1,142c-48.5,48.5-97.1,97-145.6,145.4
				c-48.8,48.7-97.5,97.4-146.3,146.1c-48,48-96.1,96-144.1,144c-46.4,46.4-92.8,92.7-139.2,139.1c-43.8,43.8-87.7,87.6-131.5,131.4
				c-40.4,40.3-80.7,80.6-121.1,120.9c-35.9,35.9-71.8,71.8-107.8,107.7c-30.6,30.5-61.1,61.1-91.7,91.6
				c-24.3,24.3-48.6,48.5-72.9,72.8c-17.1,17.1-34.3,34.2-51.4,51.3c-8.9,8.9-17.8,17.7-26.6,26.6c-1.1,1.1-2.2,2.2-3.3,3.3
				C-36.9,2004.1-5.1,2035.9,15.4,2015.4L15.4,2015.4z"/>
		</g>
	</g>
</g>
<g id="Pdc" class="st0">
	<g class="st18">
		<path class="st19" d="M357.3,802h243.5c134.6,0,186.8,85.4,186.8,173.1c0,87.7-52.2,173.1-186.8,173.1H476v193.6H357.3V802z
			 M476,1056.1h92.2c55.2,0,104.3-12.1,104.3-80.9s-49.1-80.9-104.3-80.9H476V1056.1z"/>
		<path class="st19" d="M1129.2,1292h-1.5c-25,42.3-68.8,60.5-118.7,60.5c-117.9,0-175.4-101.3-175.4-209.4
			c0-105.1,58.2-202.6,173.1-202.6c46.1,0,91.5,19.7,115.7,58.2h1.5V802h107.4v539.8h-102.1V1292z M1035.5,1021.3
			c-70.3,0-94.5,60.5-94.5,124.8c0,61.2,28,125.5,94.5,125.5c71.1,0,92.2-62,92.2-126.3C1127.7,1081.8,1105,1021.3,1035.5,1021.3z"
			/>
		<path class="st19" d="M1578.3,1088.6c-6.8-43.9-34.8-67.3-79.4-67.3c-68.8,0-91.5,69.6-91.5,127c0,55.9,21.9,123.2,89.2,123.2
			c49.9,0,78.6-31.8,85.4-79.4h103.6c-13.6,103.6-85.4,160.3-188.3,160.3c-117.9,0-197.3-83.2-197.3-200.4
			c0-121.7,72.6-211.7,199.6-211.7c92.2,0,176.9,48.4,183.7,148.2H1578.3z"/>
	</g>
	<g class="st18">
		<path class="st19" d="M925.3,496.5c0-21.9-0.7-39.5-1.4-55.7h27.9l1.4,29.3h0.7c12.7-20.8,32.8-33.2,60.7-33.2
			c41.3,0,72.3,34.9,72.3,86.8c0,61.4-37.4,91.7-77.6,91.7c-22.6,0-42.3-9.9-52.6-26.8H956v92.8h-30.7V496.5z M956,542
			c0,4.6,0.7,8.8,1.4,12.7c5.6,21.5,24.3,36.3,46.6,36.3c32.8,0,51.9-26.8,51.9-66c0-34.2-18-63.5-50.8-63.5
			c-21.2,0-40.9,15.2-46.9,38.5c-1.1,3.9-2.1,8.5-2.1,12.7V542z"/>
		<path class="st19" d="M1157.8,373.7v99.5h115v-99.5h31v237.8h-31V500.1h-115v111.5h-30.7V373.7H1157.8z"/>
		<path class="st19" d="M1517,611.5v-62.5h-106.6v-20.5l102.3-146.4h33.5v142.5h32.1v24.3h-32.1v62.5H1517z M1517,524.8v-76.6
			c0-12,0.4-24,1.1-36h-1.1c-7.1,13.4-12.7,23.3-19.1,33.9l-56.1,78v0.7H1517z"/>
		<path class="st19" d="M1592.1,654.9c7.4-20.8,16.9-58.6,20.8-84.3l34.6-3.5c-8.1,30-23.6,69.2-33.5,85.7L1592.1,654.9z"/>
		<path class="st19" d="M1827.5,494.4c0,78-28.9,121-79.7,121c-44.8,0-75.2-42-75.9-117.8c0-76.9,33.2-119.3,79.7-119.3
			C1799.9,378.3,1827.5,421.4,1827.5,494.4z M1702.9,497.9c0,59.6,18.3,93.5,46.6,93.5c31.8,0,46.9-37,46.9-95.6
			c0-56.5-14.5-93.5-46.6-93.5C1722.7,402.3,1702.9,435.5,1702.9,497.9z"/>
	</g>
</g>
<g id="Pps" class="st0">
	<g class="st18">
		<path class="st19" d="M384.3,802h243.5c134.6,0,186.8,85.4,186.8,173.1c0,87.7-52.2,173.1-186.8,173.1H503v193.6H384.3V802z
			 M503,1056.1h92.2c55.2,0,104.3-12.1,104.3-80.9s-49.1-80.9-104.3-80.9H503V1056.1z"/>
		<path class="st19" d="M877.2,951h102.1v49.9h1.5c25.7-41.6,68-60.5,116.4-60.5c122.5,0,177.7,99,177.7,210.2
			c0,104.3-57.5,201.9-171.6,201.9c-46.9,0-91.5-20.4-117.2-59h-1.5v186H877.2V951z M1167.6,1147.6c0-62-25-126.3-93.8-126.3
			c-70.3,0-93,62.8-93,126.3c0,63.5,24.2,124,93.8,124C1144.9,1271.6,1167.6,1211.1,1167.6,1147.6z"/>
		<path class="st19" d="M1422.4,1214.9c0.8,46.9,40.1,65.8,82.4,65.8c31,0,70.3-12.1,70.3-49.9c0-32.5-44.6-43.9-121.7-60.5
			c-62-13.6-124-35.5-124-104.3c0-99.8,86.2-125.5,170.1-125.5c85.4,0,164.1,28.7,172.4,124.8h-102.1c-3-41.6-34.8-52.9-73.3-52.9
			c-24.2,0-59.7,4.5-59.7,36.3c0,38.6,60.5,43.9,121.7,58.2c62.8,14.4,124,37,124,109.6c0,102.8-89.2,136.1-178.4,136.1
			c-90.7,0-179.2-34-183.7-137.6H1422.4z"/>
	</g>
</g>
<g id="Pe" class="st0">
	<g class="st18">
		<path class="st19" d="M592.3,802h243.5c134.6,0,186.8,85.4,186.8,173.1c0,87.7-52.2,173.1-186.8,173.1H711v193.6H592.3V802z
			 M711,1056.1h92.2c55.2,0,104.3-12.1,104.3-80.9s-49.1-80.9-104.3-80.9H711V1056.1z"/>
		<path class="st19" d="M1173.7,1172.5c3,68,36.3,99,96,99c43.1,0,77.9-26.5,84.7-50.7h94.5c-30.2,92.2-94.5,131.6-183,131.6
			c-123.2,0-199.6-84.7-199.6-205.7c0-117.2,80.9-206.4,199.6-206.4c133.1,0,197.3,111.9,189.8,232.1H1173.7z M1348.4,1104.5
			c-9.8-54.4-33.3-83.2-85.4-83.2c-68,0-87.7,52.9-89.2,83.2H1348.4z"/>
	</g>
	<g class="st18">
		<path class="st19" d="M853.3,496.5c0-21.9-0.7-39.5-1.4-55.7h27.9l1.4,29.3h0.7c12.7-20.8,32.8-33.2,60.7-33.2
			c41.3,0,72.3,34.9,72.3,86.8c0,61.4-37.4,91.7-77.6,91.7c-22.6,0-42.3-9.9-52.6-26.8H884v92.8h-30.7V496.5z M884,542
			c0,4.6,0.7,8.8,1.4,12.7c5.6,21.5,24.3,36.3,46.6,36.3c32.8,0,51.9-26.8,51.9-66c0-34.2-18-63.5-50.8-63.5
			c-21.2,0-40.9,15.2-46.9,38.5c-1.1,3.9-2.1,8.5-2.1,12.7V542z"/>
		<path class="st19" d="M1085.8,373.7v99.5h115v-99.5h31v237.8h-31V500.1h-115v111.5h-30.7V373.7H1085.8z"/>
		<path class="st19" d="M1386.4,411.1h-0.7l-39.9,21.5l-6-23.6l50.1-26.8h26.5v229.3h-30V411.1z"/>
		<path class="st19" d="M1459.1,575.9c8.8,5.6,29.3,14.5,50.8,14.5c39.9,0,52.2-25.4,51.9-44.5c-0.4-32.1-29.3-45.9-59.3-45.9h-17.3
			v-23.3h17.3c22.6,0,51.2-11.6,51.2-38.8c0-18.3-11.6-34.6-40.2-34.6c-18.3,0-36,8.1-45.9,15.2l-8.1-22.6c12-8.8,35.3-17.6,60-17.6
			c45.2,0,65.6,26.8,65.6,54.7c0,23.6-14.1,43.8-42.3,54v0.7c28.2,5.6,51.2,26.8,51.2,58.9c0,36.7-28.6,68.8-83.6,68.8
			c-25.8,0-48.3-8.1-59.6-15.5L1459.1,575.9z"/>
		<path class="st19" d="M1612.9,654.9c7.4-20.8,16.9-58.6,20.8-84.3l34.6-3.5c-8.1,30-23.6,69.2-33.5,85.7L1612.9,654.9z"/>
		<path class="st19" d="M1848.3,494.4c0,78-28.9,121-79.7,121c-44.8,0-75.2-42-75.9-117.8c0-76.9,33.2-119.3,79.7-119.3
			C1820.7,378.3,1848.3,421.4,1848.3,494.4z M1723.7,497.9c0,59.6,18.3,93.5,46.6,93.5c31.8,0,46.9-37,46.9-95.6
			c0-56.5-14.5-93.5-46.6-93.5C1743.5,402.3,1723.7,435.5,1723.7,497.9z"/>
	</g>
</g>
<g id="Cb" class="st0">
	<g class="st18">
		<path class="st19" d="M925.2,983.5c-7.6-53.7-59-94.5-117.9-94.5c-106.6,0-146.7,90.7-146.7,185.2c0,90,40.1,180.7,146.7,180.7
			c72.6,0,113.4-49.9,122.5-121h114.9c-12.1,134.6-105.1,220.8-237.4,220.8c-167.1,0-265.4-124.8-265.4-280.5
			c0-160.3,98.3-285,265.4-285c118.7,0,218.5,69.6,232.9,194.3H925.2z"/>
		<path class="st19" d="M1114.2,802h107.4v196.6h1.5c26.5-40.1,74.9-58.2,123.2-58.2c77.9,0,161.8,62.8,161.8,205.7
			c0,143.7-83.9,206.4-161.8,206.4c-57.5,0-105.1-17.4-128.5-60.5h-1.5v49.9h-102.1V802z M1309.3,1021.3
			c-63.5,0-91.5,59.7-91.5,125.5c0,65,28,124.8,91.5,124.8c63.5,0,91.5-59.7,91.5-124.8C1400.8,1081,1372.8,1021.3,1309.3,1021.3z"
			/>
	</g>
</g>
<g id="Cg" class="st0">
	<g class="st18">
		<path class="st19" d="M897.2,983.5c-7.6-53.7-59-94.5-117.9-94.5c-106.6,0-146.7,90.7-146.7,185.2c0,90,40.1,180.7,146.7,180.7
			c72.6,0,113.4-49.9,122.5-121h114.9c-12.1,134.6-105.1,220.8-237.4,220.8c-167.1,0-265.4-124.8-265.4-280.5
			c0-160.3,98.3-285,265.4-285c118.7,0,218.5,69.6,232.9,194.3H897.2z"/>
		<path class="st19" d="M1462,1316.9c0,64.3-22.7,173.1-202.6,173.1c-77.1,0-167.1-36.3-172.4-125.5h106.6
			c9.8,40.1,42.3,53.7,80.1,53.7c59.7,0,86.9-40.8,86.2-96.8V1270h-1.5c-23.4,40.8-70.3,60.5-117.2,60.5
			c-117.2,0-167.1-89.2-167.1-196.6c0-101.3,58.2-193.6,167.8-193.6c51.4,0,90.7,17.4,116.4,62.8h1.5V951H1462V1316.9z
			 M1359.9,1141.5c0-63.5-21.9-120.2-91.5-120.2c-60.5,0-86.9,52.9-86.9,111.1c0,56,21.2,117.2,86.9,117.2
			C1329.7,1249.6,1359.9,1197.5,1359.9,1141.5z"/>
	</g>
</g>
<g id="Cy" class="st0">
	<g class="st18">
		<path class="st19" d="M943.2,983.5c-7.6-53.7-59-94.5-117.9-94.5c-106.6,0-146.7,90.7-146.7,185.2c0,90,40.1,180.7,146.7,180.7
			c72.6,0,113.4-49.9,122.5-121h114.9c-12.1,134.6-105.1,220.8-237.4,220.8c-167.1,0-265.4-124.8-265.4-280.5
			c0-160.3,98.3-285,265.4-285c118.7,0,218.5,69.6,232.9,194.3H943.2z"/>
		<path class="st19" d="M1325,1391c-23.4,62.8-60.5,88.5-134.6,88.5c-21.9,0-43.9-1.5-65.8-3.8v-88.5c20.4,1.5,41.6,4.5,62.8,3.8
			c37-3.8,49.1-42.3,37-73.3L1086.8,951h114.9l88.5,267.6h1.5l85.4-267.6h111.1L1325,1391z"/>
	</g>
</g>
<g id="SIO2" class="st0">
	<text transform="matrix(1 0 0 1 143.1272 1341.873)" class="st13 st14 st15">SIO2</text>
</g>
<g id="Npp" class="st0">
	<g class="st18">
		<path class="st19" d="M330.3,802h117.9l225.3,362.2h1.5V802h111.1v539.8H667.5L443,980.5h-1.5v361.4H330.3V802z"/>
		<path class="st19" d="M879.2,951h102.1v49.9h1.5c25.7-41.6,68-60.5,116.4-60.5c122.5,0,177.7,99,177.7,210.2
			c0,104.3-57.5,201.9-171.6,201.9c-46.9,0-91.5-20.4-117.2-59h-1.5v186H879.2V951z M1169.5,1147.6c0-62-25-126.3-93.8-126.3
			c-70.3,0-93,62.8-93,126.3c0,63.5,24.2,124,93.8,124C1146.9,1271.6,1169.5,1211.1,1169.5,1147.6z"/>
		<path class="st19" d="M1341.2,951h102.1v49.9h1.5c25.7-41.6,68-60.5,116.4-60.5c122.5,0,177.7,99,177.7,210.2
			c0,104.3-57.5,201.9-171.6,201.9c-46.9,0-91.5-20.4-117.2-59h-1.5v186h-107.4V951z M1631.5,1147.6c0-62-25-126.3-93.8-126.3
			c-70.3,0-93,62.8-93,126.3c0,63.5,24.2,124,93.8,124C1608.8,1271.6,1631.5,1211.1,1631.5,1147.6z"/>
	</g>
	<g class="st18">
		<path class="st19" d="M853.3,496.5c0-21.9-0.7-39.5-1.4-55.7h27.9l1.4,29.3h0.7c12.7-20.8,32.8-33.2,60.7-33.2
			c41.3,0,72.3,34.9,72.3,86.8c0,61.4-37.4,91.7-77.6,91.7c-22.6,0-42.3-9.9-52.6-26.8H884v92.8h-30.7V496.5z M884,542
			c0,4.6,0.7,8.8,1.4,12.7c5.6,21.5,24.3,36.3,46.6,36.3c32.8,0,51.9-26.8,51.9-66c0-34.2-18-63.5-50.8-63.5
			c-21.2,0-40.9,15.2-46.9,38.5c-1.1,3.9-2.1,8.5-2.1,12.7V542z"/>
		<path class="st19" d="M1085.8,373.7v99.5h115v-99.5h31v237.8h-31V500.1h-115v111.5h-30.7V373.7H1085.8z"/>
		<path class="st19" d="M1485.9,408.3h-87.5l-8.8,58.9c5.3-0.7,10.2-1.4,18.7-1.4c17.6,0,35.3,3.9,49.4,12.3
			c18,10.2,32.8,30,32.8,58.9c0,44.8-35.6,78.3-85.4,78.3c-25.1,0-46.2-7.1-57.2-14.1l7.8-23.6c9.5,5.6,28.2,12.7,49,12.7
			c29.3,0,54.3-19.1,54.3-49.7c-0.4-29.6-20.1-50.8-66-50.8c-13.1,0-23.3,1.4-31.8,2.5l14.8-110.1h109.7V408.3z"/>
		<path class="st19" d="M1520.1,654.9c7.4-20.8,16.9-58.6,20.8-84.3l34.6-3.5c-8.1,30-23.6,69.2-33.5,85.7L1520.1,654.9z"/>
		<path class="st19" d="M1755.5,494.4c0,78-28.9,121-79.7,121c-44.8,0-75.2-42-75.9-117.8c0-76.9,33.2-119.3,79.7-119.3
			C1727.9,378.3,1755.5,421.4,1755.5,494.4z M1630.9,497.9c0,59.6,18.3,93.5,46.6,93.5c31.8,0,46.9-37,46.9-95.6
			c0-56.5-14.5-93.5-46.6-93.5C1650.7,402.3,1630.9,435.5,1630.9,497.9z"/>
	</g>
</g>
<g id="Dos" class="st0">
	<g class="st18">
		<path class="st19" d="M320.3,802h232.9c139.9,0,245,87.7,245,266.9c0,156.5-80.1,272.9-245,272.9H320.3V802z M439,1242.1h105.8
			c68.8,0,134.6-42.3,134.6-161.8c0-108.9-37.8-178.4-155.8-178.4H439V1242.1z"/>
		<path class="st19" d="M1059,940.4c123.2,0,202.6,81.7,202.6,206.4c0,124-79.4,205.7-202.6,205.7c-122.5,0-201.9-81.7-201.9-205.7
			C857.1,1022.1,936.5,940.4,1059,940.4z M1059,1271.6c73.3,0,95.3-62.8,95.3-124.8c0-62.8-21.9-125.5-95.3-125.5
			c-72.6,0-94.5,62.8-94.5,125.5C964.5,1208.8,986.4,1271.6,1059,1271.6z"/>
		<path class="st19" d="M1414.3,1214.9c0.8,46.9,40.1,65.8,82.4,65.8c31,0,70.3-12.1,70.3-49.9c0-32.5-44.6-43.9-121.7-60.5
			c-62-13.6-124-35.5-124-104.3c0-99.8,86.2-125.5,170.1-125.5c85.4,0,164.1,28.7,172.4,124.8h-102.1c-3-41.6-34.8-52.9-73.3-52.9
			c-24.2,0-59.7,4.5-59.7,36.3c0,38.6,60.5,43.9,121.7,58.2c62.8,14.4,124,37,124,109.6c0,102.8-89.2,136.1-178.4,136.1
			c-90.7,0-179.2-34-183.7-137.6H1414.3z"/>
	</g>
</g>
<g id="Ddc" class="st0">
	<g class="st18">
		<path class="st19" d="M312.3,802h232.9c139.9,0,245,87.7,245,266.9c0,156.5-80.1,272.9-245,272.9H312.3V802z M431,1242.1h105.8
			c68.8,0,134.6-42.3,134.6-161.8c0-108.9-37.8-178.4-155.8-178.4H431V1242.1z"/>
		<path class="st19" d="M1140.2,1292h-1.5c-25,42.3-68.8,60.5-118.7,60.5c-117.9,0-175.4-101.3-175.4-209.4
			c0-105.1,58.2-202.6,173.1-202.6c46.1,0,91.5,19.7,115.7,58.2h1.5V802h107.4v539.8h-102.1V1292z M1046.4,1021.3
			c-70.3,0-94.5,60.5-94.5,124.8c0,61.2,28,125.5,94.5,125.5c71.1,0,92.2-62,92.2-126.3C1138.7,1081.8,1116,1021.3,1046.4,1021.3z"
			/>
		<path class="st19" d="M1589.3,1088.6c-6.8-43.9-34.8-67.3-79.4-67.3c-68.8,0-91.5,69.6-91.5,127c0,55.9,21.9,123.2,89.2,123.2
			c49.9,0,78.6-31.8,85.4-79.4h103.6c-13.6,103.6-85.4,160.3-188.3,160.3c-117.9,0-197.3-83.2-197.3-200.4
			c0-121.7,72.6-211.7,199.6-211.7c92.2,0,176.9,48.4,183.7,148.2H1589.3z"/>
	</g>
</g>
<g id="Ng" class="st0">
	<g class="st18">
		<path class="st19" d="M565.3,802h117.9l225.3,362.2h1.5V802h111.1v539.8H902.5L678,980.5h-1.5v361.4H565.3V802z"/>
		<path class="st19" d="M1490,1316.9c0,64.3-22.7,173.1-202.6,173.1c-77.1,0-167.1-36.3-172.4-125.5h106.6
			c9.8,40.1,42.3,53.7,80.1,53.7c59.7,0,86.9-40.8,86.2-96.8V1270h-1.5c-23.4,40.8-70.3,60.5-117.2,60.5
			c-117.2,0-167.1-89.2-167.1-196.6c0-101.3,58.2-193.6,167.8-193.6c51.4,0,90.7,17.4,116.4,62.8h1.5V951H1490V1316.9z
			 M1387.9,1141.5c0-63.5-21.9-120.2-91.5-120.2c-60.5,0-86.9,52.9-86.9,111.1c0,56,21.2,117.2,86.9,117.2
			C1357.7,1249.6,1387.9,1197.5,1387.9,1141.5z"/>
	</g>
</g>
<g id="Kfsp" class="st0">
	<g class="st18">
		<path class="st19" d="M204.3,802H323v223.8L533.9,802h148.2l-210.9,213.2l231.4,326.6H553.6L391,1099.2l-68,68.8v173.9H204.3V802z
			"/>
		<path class="st19" d="M762.3,1022.8H698V951h64.3v-30.2c0-68.8,43.1-118.7,130.8-118.7c18.9,0,38.6,2.3,56.7,3v80.1
			c-12.9-1.5-25.7-2.3-39.3-2.3c-28.7,0-40.8,12.1-40.8,44.6V951h74.1v71.8h-74.1v319.1H762.3V1022.8z"/>
		<path class="st19" d="M1073.8,1214.9c0.8,46.9,40.1,65.8,82.4,65.8c31,0,70.3-12.1,70.3-49.9c0-32.5-44.6-43.9-121.7-60.5
			c-62-13.6-124-35.5-124-104.3c0-99.8,86.2-125.5,170.1-125.5c85.4,0,164.1,28.7,172.4,124.8h-102.1c-3-41.6-34.8-52.9-73.3-52.9
			c-24.2,0-59.7,4.5-59.7,36.3c0,38.6,60.5,43.9,121.7,58.2c62.8,14.4,124,37,124,109.6c0,102.8-89.2,136.1-178.4,136.1
			c-90.7,0-179.2-34-183.7-137.6H1073.8z"/>
		<path class="st19" d="M1396.6,951h102.1v49.9h1.5c25.7-41.6,68-60.5,116.4-60.5c122.5,0,177.7,99,177.7,210.2
			c0,104.3-57.5,201.9-171.6,201.9c-46.9,0-91.5-20.4-117.2-59h-1.5v186h-107.4V951z M1686.9,1147.6c0-62-25-126.3-93.8-126.3
			c-70.3,0-93,62.8-93,126.3c0,63.5,24.2,124,93.8,124C1664.2,1271.6,1686.9,1211.1,1686.9,1147.6z"/>
	</g>
	<g class="st18">
		<path class="st19" d="M1016.3,496.5c0-21.9-0.7-39.5-1.4-55.7h27.9l1.4,29.3h0.7c12.7-20.8,32.8-33.2,60.7-33.2
			c41.3,0,72.3,34.9,72.3,86.8c0,61.4-37.4,91.7-77.6,91.7c-22.6,0-42.3-9.9-52.6-26.8h-0.7v92.8h-30.7V496.5z M1047,542
			c0,4.6,0.7,8.8,1.4,12.7c5.6,21.5,24.3,36.3,46.6,36.3c32.8,0,51.9-26.8,51.9-66c0-34.2-18-63.5-50.8-63.5
			c-21.2,0-40.9,15.2-46.9,38.5c-1.1,3.9-2.1,8.5-2.1,12.7V542z"/>
		<path class="st19" d="M1248.8,373.7v99.5h115v-99.5h31v237.8h-31V500.1h-115v111.5h-30.7V373.7H1248.8z"/>
		<path class="st19" d="M1549.4,411.1h-0.7l-39.9,21.5l-6-23.6l50.1-26.8h26.5v229.3h-30V411.1z"/>
		<path class="st19" d="M1617.2,654.9c7.4-20.8,16.9-58.6,20.8-84.3l34.6-3.5c-8.1,30-23.6,69.2-33.5,85.7L1617.2,654.9z"/>
		<path class="st19" d="M1796,611.5v-62.5h-106.6v-20.5l102.3-146.4h33.5v142.5h32.1v24.3h-32.1v62.5H1796z M1796,524.8v-76.6
			c0-12,0.4-24,1.1-36h-1.1c-7.1,13.4-12.7,23.3-19.1,33.9l-56.1,78v0.7H1796z"/>
	</g>
</g>
<g id="Gs_1_" class="st0">
	<text transform="matrix(1 0 0 1 513.1272 1341.873)" class="st13 st14 st15">Gs</text>
	<text transform="matrix(1 0 0 1 827.5386 611.5474)" class="st13 st16 st17">pH 2,</text>
</g>
<g id="Nms" class="st0">
	<text transform="matrix(1 0 0 1 170.1272 1341.873)" class="st13 st14 st15">Nms</text>
	<text transform="matrix(1 0 0 1 900.5386 611.5474)" class="st13 st16 st17">pH 5,</text>
</g>
<g id="Idr" class="st0">
	<g class="st18">
		<path class="st19" d="M546.3,802H665v539.8H546.3V802z"/>
		<path class="st19" d="M1037,1292h-1.5c-25,42.3-68.8,60.5-118.7,60.5c-117.9,0-175.4-101.3-175.4-209.4
			c0-105.1,58.2-202.6,173.1-202.6c46.1,0,91.5,19.7,115.7,58.2h1.5V802h107.4v539.8H1037V1292z M943.2,1021.3
			c-70.3,0-94.5,60.5-94.5,124.8c0,61.2,28,125.5,94.5,125.5c71.1,0,92.2-62,92.2-126.3C1035.5,1081.8,1012.8,1021.3,943.2,1021.3z"
			/>
		<path class="st19" d="M1220,951H1322v72.6h1.5c19.7-49.1,72.6-83.2,124.8-83.2c7.6,0,16.6,1.5,23.4,3.8v99.8
			c-9.8-2.3-25.7-3.8-38.6-3.8c-78.6,0-105.9,56.7-105.9,125.5v176.2H1220V951z"/>
	</g>
	<g class="st18">
		<path class="st19" d="M926.3,496.5c0-21.9-0.7-39.5-1.4-55.7h27.9l1.4,29.3h0.7c12.7-20.8,32.8-33.2,60.7-33.2
			c41.3,0,72.3,34.9,72.3,86.8c0,61.4-37.4,91.7-77.6,91.7c-22.6,0-42.3-9.9-52.6-26.8H957v92.8h-30.7V496.5z M957,542
			c0,4.6,0.7,8.8,1.4,12.7c5.6,21.5,24.3,36.3,46.6,36.3c32.8,0,51.9-26.8,51.9-66c0-34.2-18-63.5-50.8-63.5
			c-21.2,0-40.9,15.2-46.9,38.5c-1.1,3.9-2.1,8.5-2.1,12.7V542z"/>
		<path class="st19" d="M1158.8,373.7v99.5h115v-99.5h31v237.8h-31V500.1h-115v111.5h-30.7V373.7H1158.8z"/>
		<path class="st19" d="M1489.4,411.1h-0.7l-39.9,21.5l-6-23.6l50.1-26.8h26.5v229.3h-30V411.1z"/>
		<path class="st19" d="M1755.4,494.4c0,78-28.9,121-79.7,121c-44.8,0-75.2-42-75.9-117.8c0-76.9,33.2-119.3,79.7-119.3
			C1727.9,378.3,1755.4,421.4,1755.4,494.4z M1630.9,497.9c0,59.6,18.3,93.5,46.6,93.5c31.8,0,46.9-37,46.9-95.6
			c0-56.5-14.5-93.5-46.6-93.5C1650.6,402.3,1630.9,435.5,1630.9,497.9z"/>
	</g>
</g>
<g id="Twv" class="st0">
	<g class="st18">
		<path class="st19" d="M449.8,901.8H288V802h442.3v99.8H568.5v440H449.8V901.8z"/>
		<path class="st19" d="M1227.7,1341.9h-110.4l-69.6-262.4h-1.5l-66.5,262.4H868.6L744.6,951H858l71.8,265.4h1.5l65-265.4h104.3
			l66.5,264.6h1.5l71.8-264.6H1351L1227.7,1341.9z"/>
		<path class="st19" d="M1612.6,1341.9h-119.5L1359.3,951H1472l82.4,266.9h1.5l82.4-266.9h106.6L1612.6,1341.9z"/>
	</g>
	<g class="st18">
		<path class="st19" d="M1133.3,496.5c0-21.9-0.7-39.5-1.4-55.7h27.9l1.4,29.3h0.7c12.7-20.8,32.8-33.2,60.7-33.2
			c41.3,0,72.3,34.9,72.3,86.8c0,61.4-37.4,91.7-77.6,91.7c-22.6,0-42.3-9.9-52.6-26.8h-0.7v92.8h-30.7V496.5z M1164,542
			c0,4.6,0.7,8.8,1.4,12.7c5.6,21.5,24.3,36.3,46.6,36.3c32.8,0,51.9-26.8,51.9-66c0-34.2-18-63.5-50.8-63.5
			c-21.2,0-40.9,15.2-46.9,38.5c-1.1,3.9-2.1,8.5-2.1,12.7V542z"/>
		<path class="st19" d="M1365.8,373.7v99.5h115v-99.5h31v237.8h-31V500.1h-115v111.5h-30.7V373.7H1365.8z"/>
		<path class="st19" d="M1671.4,490.9c-25.4-12-36.3-31.8-36.3-51.5c0-36.3,30.7-61,70.9-61c44.5,0,66.7,27.9,66.7,56.5
			c0,19.4-9.5,40.2-37.8,53.6v1.1c28.6,11.3,46.2,31.4,46.2,59.3c0,39.9-34.2,66.7-78,66.7c-48,0-76.9-28.6-76.9-62.1
			c0-28.9,17.3-49.4,45.5-61.4L1671.4,490.9z M1749.7,551.9c0-27.9-19.4-41.3-50.5-50.1c-26.8,7.8-41.3,25.4-41.3,47.3
			c-1.1,23.3,16.6,43.8,45.9,43.8C1731.7,592.8,1749.7,575.2,1749.7,551.9z M1664.3,437.2c0,22.9,17.3,35.3,43.8,42.3
			c19.8-6.7,34.9-20.8,34.9-41.6c0-18.3-10.9-37.4-38.8-37.4C1678.4,400.6,1664.3,417.5,1664.3,437.2z"/>
	</g>
</g>
<g id="Afs" class="st0">
	<g class="st18">
		<path class="st19" d="M630.7,801h121.7l201.9,539.8H831.1l-40.8-120.2H588.4l-42.3,120.2H425.8L630.7,801z M619.4,1132.2h139.9
			l-68-198.1h-1.5L619.4,1132.2z"/>
		<path class="st19" d="M1013.3,1021.8H949V950h64.3v-30.2c0-68.8,43.1-118.7,130.8-118.7c18.9,0,38.6,2.3,56.7,3v80.1
			c-12.9-1.5-25.7-2.3-39.3-2.3c-28.7,0-40.8,12.1-40.8,44.6V950h74.1v71.8h-74.1v319.1h-107.4V1021.8z"/>
		<path class="st19" d="M1324.8,1213.9c0.8,46.9,40.1,65.8,82.4,65.8c31,0,70.3-12.1,70.3-49.9c0-32.5-44.6-43.9-121.7-60.5
			c-62-13.6-124-35.5-124-104.3c0-99.8,86.2-125.5,170.1-125.5c85.4,0,164.1,28.7,172.4,124.8h-102.1c-3-41.6-34.8-52.9-73.3-52.9
			c-24.2,0-59.7,4.5-59.7,36.3c0,38.6,60.5,43.9,121.7,58.2c62.8,14.4,124,37,124,109.6c0,102.8-89.2,136.1-178.4,136.1
			c-90.7,0-179.2-34-183.7-137.6H1324.8z"/>
	</g>
	<g class="st18">
		<path class="st19" d="M926.3,478.5c0-21.9-0.7-39.5-1.4-55.7h27.9l1.4,29.3h0.7c12.7-20.8,32.8-33.2,60.7-33.2
			c41.3,0,72.3,34.9,72.3,86.8c0,61.4-37.4,91.7-77.6,91.7c-22.6,0-42.3-9.9-52.6-26.8H957v92.8h-30.7V478.5z M957,524
			c0,4.6,0.7,8.8,1.4,12.7c5.6,21.5,24.3,36.3,46.6,36.3c32.8,0,51.9-26.8,51.9-66c0-34.2-18-63.5-50.8-63.5
			c-21.2,0-40.9,15.2-46.9,38.5c-1.1,3.9-2.1,8.5-2.1,12.7V524z"/>
		<path class="st19" d="M1158.8,355.7v99.5h115v-99.5h31v237.8h-31V482.1h-115v111.5h-30.7V355.7H1158.8z"/>
		<path class="st19" d="M1440,571.7c6.7,0.7,14.5,0,25.1-1.1c18-2.5,34.9-9.9,48-22.2c15.2-13.8,26.1-33.9,30.3-61h-1.1
			c-12.7,15.5-31,24.7-54,24.7c-41.3,0-67.7-31-67.7-70.2c0-43.4,31.4-81.5,78.3-81.5c46.9,0,75.9,38.1,75.9,96.7
			c0,50.5-16.9,85.7-39.5,107.6c-17.6,17.3-42,27.9-66.7,30.7c-11.3,1.8-21.2,2.1-28.6,1.8V571.7z M1496.1,384
			c-26.1,0-44.8,23.3-44.8,55.7c0,28.6,17.3,48.7,44.1,48.7c20.8,0,37-10.2,45.2-24c1.8-2.8,2.8-6.4,2.8-11.3
			c0-39.2-14.5-69.2-46.9-69.2H1496.1z"/>
		<path class="st19" d="M1593.1,636.9c7.4-20.8,16.9-58.6,20.8-84.3l34.6-3.5c-8.1,30-23.6,69.2-33.5,85.7L1593.1,636.9z"/>
		<path class="st19" d="M1812.9,390.3h-87.5l-8.8,58.9c5.3-0.7,10.2-1.4,18.7-1.4c17.6,0,35.3,3.9,49.4,12.3
			c18,10.2,32.8,30,32.8,58.9c0,44.8-35.6,78.3-85.4,78.3c-25.1,0-46.2-7.1-57.2-14.1l7.8-23.6c9.5,5.6,28.2,12.7,49,12.7
			c29.3,0,54.3-19.1,54.3-49.7c-0.4-29.6-20.1-50.8-66-50.8c-13.1,0-23.3,1.4-31.8,2.5l14.8-110.1h109.7V390.3z"/>
	</g>
</g>
<g id="Afx" class="st0">
	<g class="st18">
		<path class="st19" d="M630.7,801h121.7l201.9,539.8H831.1l-40.8-120.2H588.4l-42.3,120.2H425.8L630.7,801z M619.4,1132.2h139.9
			l-68-198.1h-1.5L619.4,1132.2z"/>
		<path class="st19" d="M1013.3,1021.8H949V950h64.3v-30.2c0-68.8,43.1-118.7,130.8-118.7c18.9,0,38.6,2.3,56.7,3v80.1
			c-12.9-1.5-25.7-2.3-39.3-2.3c-28.7,0-40.8,12.1-40.8,44.6V950h74.1v71.8h-74.1v319.1h-107.4V1021.8z"/>
		<path class="st19" d="M1341.4,1135.2L1212.9,950h122.5l68.8,102.1l68-102.1h118.7l-128.5,183l144.4,207.9h-122.5l-81.7-123.2
			l-81.7,123.2h-120.2L1341.4,1135.2z"/>
	</g>
	<g class="st18">
		<path class="st19" d="M926.3,478.5c0-21.9-0.7-39.5-1.4-55.7h27.9l1.4,29.3h0.7c12.7-20.8,32.8-33.2,60.7-33.2
			c41.3,0,72.3,34.9,72.3,86.8c0,61.4-37.4,91.7-77.6,91.7c-22.6,0-42.3-9.9-52.6-26.8H957v92.8h-30.7V478.5z M957,524
			c0,4.6,0.7,8.8,1.4,12.7c5.6,21.5,24.3,36.3,46.6,36.3c32.8,0,51.9-26.8,51.9-66c0-34.2-18-63.5-50.8-63.5
			c-21.2,0-40.9,15.2-46.9,38.5c-1.1,3.9-2.1,8.5-2.1,12.7V524z"/>
		<path class="st19" d="M1158.8,355.7v99.5h115v-99.5h31v237.8h-31V482.1h-115v111.5h-30.7V355.7H1158.8z"/>
		<path class="st19" d="M1440,571.7c6.7,0.7,14.5,0,25.1-1.1c18-2.5,34.9-9.9,48-22.2c15.2-13.8,26.1-33.9,30.3-61h-1.1
			c-12.7,15.5-31,24.7-54,24.7c-41.3,0-67.7-31-67.7-70.2c0-43.4,31.4-81.5,78.3-81.5c46.9,0,75.9,38.1,75.9,96.7
			c0,50.5-16.9,85.7-39.5,107.6c-17.6,17.3-42,27.9-66.7,30.7c-11.3,1.8-21.2,2.1-28.6,1.8V571.7z M1496.1,384
			c-26.1,0-44.8,23.3-44.8,55.7c0,28.6,17.3,48.7,44.1,48.7c20.8,0,37-10.2,45.2-24c1.8-2.8,2.8-6.4,2.8-11.3
			c0-39.2-14.5-69.2-46.9-69.2H1496.1z"/>
		<path class="st19" d="M1593.1,636.9c7.4-20.8,16.9-58.6,20.8-84.3l34.6-3.5c-8.1,30-23.6,69.2-33.5,85.7L1593.1,636.9z"/>
		<path class="st19" d="M1812.9,390.3h-87.5l-8.8,58.9c5.3-0.7,10.2-1.4,18.7-1.4c17.6,0,35.3,3.9,49.4,12.3
			c18,10.2,32.8,30,32.8,58.9c0,44.8-35.6,78.3-85.4,78.3c-25.1,0-46.2-7.1-57.2-14.1l7.8-23.6c9.5,5.6,28.2,12.7,49,12.7
			c29.3,0,54.3-19.1,54.3-49.7c-0.4-29.6-20.1-50.8-66-50.8c-13.1,0-23.3,1.4-31.8,2.5l14.8-110.1h109.7V390.3z"/>
	</g>
</g>
<g id="Asc" class="st0">
	<text transform="matrix(1 0 0 1 332.1272 1341.873)" class="st13 st14 st15">Asc</text>
</g>
<g id="Pss" class="st0">
	<text transform="matrix(1 0 0 1 332.1272 1341.873)" class="st13 st14 st15">Pss</text>
</g>
<g id="Eu" class="st0">
	<text transform="matrix(1 0 0 1 531.1272 1341.873)" class="st13 st14 st15">Eu</text>
</g>
<g id="Pwe" class="st0">
	<text transform="matrix(1 0 0 1 234.1272 1341.873)" class="st13 st14 st15">Pwe</text>
	<text transform="matrix(1 0 0 1 1027.5386 611.5474)" class="st13 st16 st17">pH 4</text>
</g>
<g id="Gs" class="st0">
	<text transform="matrix(1 0 0 1 528.1272 1341.873)" class="st13 st14 st15">Gs</text>
	<text transform="matrix(1 0 0 1 827.5386 611.5474)" class="st13 st16 st17">pH 2,</text>
</g>
<g id="Maske" class="st0">
	<text transform="matrix(1 0 0 1 658.1272 1341.873)" class="st13 st14 st15">Zi</text>
</g>
<g id="Gc" class="st0">
	<text transform="matrix(1 0 0 1 518.1272 1341.873)" class="st13 st14 st15">Gc</text>
</g>
<g id="Cls" class="st0">
	<text transform="matrix(1 0 0 1 430.1272 1341.873)" class="st13 st14 st15">Cls</text>
</g>
<g id="Ls" class="st0">
	<text transform="matrix(1 0 0 1 626.1272 1341.873)" class="st13 st14 st15">Ls</text>
</g>
<g id="Mp" class="st0">
	<text transform="matrix(1 0 0 1 478.1272 1341.873)" class="st13 st14 st15">Mp</text>
</g>
<g id="Gsf" class="st0">
	<text transform="matrix(1 0 0 1 398.1272 1341.873)" class="st13 st14 st15">Gsf</text>
</g>
<g id="Pb" class="st0">
	<text transform="matrix(1 0 0 1 535.1272 1341.873)" class="st13 st14 st15">Pb</text>
	<text transform="matrix(1 0 0 1 827.5386 611.5474)" class="st13 st16 st17">pH ,9</text>
</g>
<g id="Pan" class="st0">
	<text transform="matrix(1 0 0 1 355.1272 1341.873)" class="st13 st14 st15">Pan</text>
	<text transform="matrix(1 0 0 1 827.5386 611.5474)" class="st13 st16 st17">pH ,9</text>
</g>
<g id="Fb" class="st0">
	<text transform="matrix(1 0 0 1 535.1272 1341.873)" class="st13 st14 st15">Fb</text>
	<text transform="matrix(1 0 0 1 827.5386 611.5474)" class="st13 st16 st17">pH 7,5</text>
</g>
<g id="Rfs" class="st0">
	<text transform="matrix(1 0 0 1 454.1272 1341.873)" class="st13 st14 st15">Rfs</text>
	<text transform="matrix(1 0 0 1 827.5386 611.5474)" class="st19 st16 st17">pH ,</text>
</g>
<g id="Gv" class="st0">
	<text transform="matrix(1 0 0 1 454.1272 1341.873)" class="st13 st14 st15">Gv</text>
	<text transform="matrix(1 0 0 1 827.5386 611.5474)" class="st13 st16 st17">pH 4,5</text>
</g>
<g id="Hgt" class="st0">
	<text transform="matrix(1 0 0 1 338.1272 1341.873)" class="st13 st14 st15">Hgt</text>
	<text transform="matrix(1 0 0 1 827.5386 611.5474)" class="st13 st16 st17">pH 4,5</text>
</g>
<g id="Mdc" class="st0">
	<text transform="matrix(1 0 0 1 214.1272 1341.873)" class="st13 st14 st15">Mdc</text>
	<text transform="matrix(1 0 0 1 1182.5386 611.5474)" class="st13 st16 st17">pH 5</text>
</g>
<g id="Hd" class="st0">
	<text transform="matrix(1 0 0 1 487.1272 1341.873)" class="st13 st14 st15">Hd</text>
	<text transform="matrix(1 0 0 1 952.5386 611.5474)" class="st13 st16 st17">pH 4,5</text>
</g>
<g id="Td" class="st0">
	<text transform="matrix(1 0 0 1 525.1272 1325.873)" class="st13 st14 st15">Td</text>
	<text transform="matrix(1 0 0 1 1110.5386 611.5474)" class="st13 st16 st17">pH 7</text>
</g>
<g id="Ncp" class="st0">
	<text transform="matrix(1 0 0 1 270.1272 1325.873)" class="st13 st14 st15">Ncp</text>
	<text transform="matrix(1 0 0 1 966.5386 611.5474)" class="st13 st16 st17">pH 3,7</text>
</g>
<g id="Nmp" class="st0">
	<text transform="matrix(1 0 0 1 166.1272 1325.873)" class="st13 st14 st15">Nmp</text>
	<text transform="matrix(1 0 0 1 1158.5386 611.5474)" class="st13 st16 st17">pH 5</text>
</g>
<g id="Gol" class="st0">
	<text transform="matrix(1 0 0 1 390.1272 1341.873)" class="st13 st14 st15">Gol</text>
	<text transform="matrix(1 0 0 1 827.5386 611.5474)" class="st19 st16 st17">pH ,</text>
</g>
<g id="Mwc" class="st0">
	<text transform="matrix(1 0 0 1 126.1272 1341.873)" class="st13 st14 st15">Mwc</text>
	<text transform="matrix(1 0 0 1 827.5386 611.5474)" class="st19 st16 st17">pH ,</text>
	<text transform="matrix(1 0 0 1 951.2856 611.2555)" class="st13 st16 st17">pH 5,5</text>
</g>
<g id="Sfn" class="st0">
	<text transform="matrix(1 0 0 1 406.1272 1341.873)" class="st13 st14 st15">Sfn</text>
	<text transform="matrix(1 0 0 1 951.5386 611.5474)" class="st13 st16 st17">pH 2</text>
</g>
<g id="Wpc" class="st0">
	<text transform="matrix(1 0 0 1 186.1272 1341.873)" class="st13 st14 st15">Wpc</text>
	<text transform="matrix(1 0 0 1 791.5386 611.5474)" class="st13 st16 st17">pH 12,4</text>
</g>
<g id="Fkv" class="st0">
	<text transform="matrix(1 0 0 1 358.1272 1341.873)" class="st13 st14 st15">Fkv</text>
	<text transform="matrix(1 0 0 1 1133.5386 611.5474)" class="st13 st16 st17">pH 0</text>
</g>
<g id="Qa" class="st0">
	<text transform="matrix(1 0 0 1 474.1272 1341.873)" class="st13 st14 st15">Qa</text>
	<text transform="matrix(1 0 0 1 738.5386 611.5474)" class="st13 st16 st17">pH -0,6</text>
</g>
<g id="Fa" class="st0">
	<text transform="matrix(1 0 0 1 474.1272 1341.873)" class="st13 st14 st15">Fa</text>
	<text transform="matrix(1 0 0 1 1000.5386 611.5474)" class="st13 st16 st17">pH 0</text>
</g>
<g id="Rrr" class="st0">
	<text transform="matrix(1 0 0 1 426.1272 1341.873)" class="st13 st14 st15">Rrr</text>
	<text transform="matrix(1 0 0 1 852.5386 611.5474)" class="st13 st16 st17">pH 5,5</text>
</g>
<g id="Awh" class="st0">
	<text transform="matrix(1 0 0 1 242.1272 1341.873)" class="st13 st14 st15">Awh</text>
	<text transform="matrix(1 0 0 1 999.5386 611.5474)" class="st13 st16 st17">pH 14</text>
</g>
<g id="Po" class="st0">
	<text transform="matrix(1 0 0 1 541.1272 1341.873)" class="st13 st14 st15">Po</text>
	<text transform="matrix(1 0 0 1 1000.5386 611.5474)" class="st13 st16 st17">pH 7</text>
</g>
<g id="Coc" class="st0">
	<text transform="matrix(1 0 0 1 256.1272 1341.873)" class="st13 st14 st15">Coc</text>
	<text transform="matrix(1 0 0 1 962.5386 611.5474)" class="st13 st16 st17">pH 14</text>
</g>
<g id="Tr" class="st0">
	<text transform="matrix(1 0 0 1 604.0092 1368.9768)" class="st13 st14 st15">Tr</text>
	<text transform="matrix(1 0 0 1 762.4205 638.6511)" class="st13 st16 st17">pH 13,5</text>
</g>
<g id="Kcr" class="st0">
	<text transform="matrix(1 0 0 1 362.0092 1368.9768)" class="st18 st14 st15">Kcr</text>
	<text transform="matrix(1 0 0 1 762.4205 638.6511)" class="st19 st16 st17">pH 13,5</text>
</g>
<g id="Kcd" class="st0">
	<g class="st18">
		<path d="M357.2,829.1h118.7v223.8l210.9-223.8H835l-210.9,213.2L855.4,1369H706.5l-162.6-242.7l-68,68.8V1369H357.2V829.1z"/>
		<path d="M1157.8,1115.7c-6.8-43.9-34.8-67.3-79.4-67.3c-68.8,0-91.5,69.6-91.5,127c0,55.9,21.9,123.2,89.2,123.2
			c49.9,0,78.6-31.8,85.4-79.4h103.6c-13.6,103.6-85.4,160.3-188.3,160.3c-117.9,0-197.3-83.2-197.3-200.4
			c0-121.7,72.6-211.7,199.6-211.7c92.2,0,176.9,48.4,183.7,148.2H1157.8z"/>
		<path d="M1604.7,1319.1h-1.5c-25,42.3-68.8,60.5-118.7,60.5c-117.9,0-175.4-101.3-175.4-209.4c0-105.1,58.2-202.6,173.1-202.6
			c46.1,0,91.5,19.7,115.7,58.2h1.5V829.1h107.4V1369h-102.1V1319.1z M1510.9,1048.4c-70.3,0-94.5,60.5-94.5,124.8
			c0,61.2,28,125.5,94.5,125.5c71.1,0,92.2-62,92.2-126.3C1603.2,1108.9,1580.5,1048.4,1510.9,1048.4z"/>
	</g>
	<text transform="matrix(1 0 0 1 762.4205 638.6511)" class="st19 st16 st17">pH 13,5</text>
</g>
<g id="Fu" class="st0">
	<text transform="matrix(1 0 0 1 558.0092 1368.9768)" class="st18 st14 st15">Fu</text>
	<text transform="matrix(1 0 0 1 762.4205 638.6511)" class="st19 st16 st17">pH 13,5</text>
</g>
<g id="Dt" class="st0">
	<g class="st18">
		<path d="M610.2,829.1H843c139.9,0,245,87.7,245,266.9c0,156.5-80.1,272.9-245,272.9H610.2V829.1z M728.9,1269.2h105.9
			c68.8,0,134.6-42.3,134.6-161.8c0-108.9-37.8-178.4-155.8-178.4h-84.7V1269.2z"/>
		<path d="M1295.2,978.1h78.6v71.8h-78.6v193.6c0,36.3,9.1,45.4,45.4,45.4c11.3,0,21.9-0.8,33.3-3v83.9c-18.1,3-41.6,3.8-62.8,3.8
			c-65.8,0-123.2-15.1-123.2-93v-230.6h-65v-71.8h65V860.9h107.4V978.1z"/>
	</g>
	<text transform="matrix(1 0 0 1 762.4205 638.6511)" class="st19 st16 st17">pH 13,5</text>
</g>
<g id="Do" class="st0">
	<g class="st18">
		<path d="M564.2,829.1H797c139.9,0,245,87.7,245,266.9c0,156.5-80.1,272.9-245,272.9H564.2V829.1z M682.9,1269.2h105.9
			c68.8,0,134.6-42.3,134.6-161.8c0-108.9-37.8-178.4-155.8-178.4h-84.7V1269.2z"/>
		<path d="M1302.9,967.5c123.2,0,202.6,81.7,202.6,206.4c0,124-79.4,205.7-202.6,205.7c-122.5,0-201.9-81.7-201.9-205.7
			C1101,1049.2,1180.4,967.5,1302.9,967.5z M1302.9,1298.7c73.3,0,95.3-62.8,95.3-124.8c0-62.8-21.9-125.5-95.3-125.5
			c-72.6,0-94.5,62.8-94.5,125.5C1208.3,1235.9,1230.3,1298.7,1302.9,1298.7z"/>
	</g>
	<text transform="matrix(1 0 0 1 762.4205 638.6511)" class="st19 st16 st17">pH 13,5</text>
</g>
<g id="Farbcode" class="st0">
	<rect x="-0.2" y="0.1" class="st18" width="2000.2" height="2000.2"/>
	<rect x="-0.2" y="0.1" class="st21" width="2000.2" height="214.3"/>
	<rect x="-0.2" y="0.1" class="st22" width="2000.2" height="214.3"/>
	<rect x="-0.2" y="0.1" class="st23" width="2000.2" height="214.3"/>
	<rect x="-0.2" y="0.1" class="st4" width="2000.2" height="214.3"/>
	<rect x="-0.2" y="0.1" class="st24" width="2000.2" height="214.3"/>
	<rect x="-0.2" y="0.1" class="st23" width="2000.2" height="122.9"/>
	<rect x="-0.2" y="0.1" class="st25" width="2000.2" height="122.9"/>
	<rect x="-0.4" y="123" class="st24" width="2000.2" height="90.9"/>
</g>
<g id="Vorlage" class="st0">
	<g class="st18">
		<text id="H9_2_" transform="matrix(1 0 0 1 214.5637 1322.9348)" class="st26 st14 st15">H9</text>
		<text id="_x30_1" transform="matrix(1 0 0 1 1206.5645 1453.0156)" class="st26 st14 st27 st28">01</text>
	</g>
	<text transform="matrix(1 0 0 1 1427.9297 1870.3574)" class="st29 st16 st30">,</text>
	<text transform="matrix(1 0 0 1 1427.9297 611.5151)" class="st29 st16 st30">9,0</text>
</g>
<g id="Afx_neu">
	<g>
		<g>
			<path d="M630.2,797.1h121.7l201.9,539.8H830.5l-40.8-120.2H587.8l-42.3,120.2H425.3L630.2,797.1z M618.8,1128.3h139.9l-68-198.1
				h-1.5L618.8,1128.3z"/>
			<path d="M1012.7,1017.9h-64.3V946h64.3v-30.2c0-68.8,43.1-118.7,130.8-118.7c18.9,0,38.6,2.3,56.7,3v80.1
				c-12.9-1.5-25.7-2.3-39.3-2.3c-28.7,0-40.8,12.1-40.8,44.6V946h74.1v71.8h-74.1v319.1h-107.4V1017.9z"/>
			<path d="M1340.9,1131.3L1212.3,946h122.5l68.8,102.1l68-102.1h118.7l-128.5,183l144.4,207.9h-122.5l-81.7-123.2l-81.7,123.2
				h-120.2L1340.9,1131.3z"/>
		</g>
	</g>
	<g>
		<path d="M925.7,478.5c0-21.9-0.7-39.5-1.4-55.7h27.9l1.4,29.3h0.7c12.7-20.8,32.8-33.2,60.7-33.2c41.3,0,72.3,34.9,72.3,86.8
			c0,61.4-37.4,91.7-77.6,91.7c-22.6,0-42.3-9.9-52.6-26.8h-0.7v92.8h-30.7V478.5z M956.4,524c0,4.6,0.7,8.8,1.4,12.7
			c5.6,21.5,24.3,36.3,46.6,36.3c32.8,0,51.9-26.8,51.9-66c0-34.2-18-63.5-50.8-63.5c-21.2,0-40.9,15.2-46.9,38.5
			c-1.1,3.9-2.1,8.5-2.1,12.7V524z"/>
		<path d="M1158.2,355.7v99.5h115v-99.5h31v237.8h-31V482h-115v111.5h-30.7V355.7H1158.2z"/>
		<path d="M1463.7,472.9c-25.4-12-36.3-31.8-36.3-51.5c0-36.3,30.7-61,70.9-61c44.5,0,66.7,27.9,66.7,56.4
			c0,19.4-9.5,40.2-37.7,53.6v1.1c28.6,11.3,46.2,31.4,46.2,59.3c0,39.9-34.2,66.7-78,66.7c-48,0-76.9-28.6-76.9-62.1
			c0-28.9,17.3-49.4,45.5-61.4L1463.7,472.9z M1542,533.9c0-27.9-19.4-41.3-50.5-50.1c-26.8,7.8-41.3,25.4-41.3,47.3
			c-1.1,23.3,16.6,43.7,45.9,43.7C1524,574.8,1542,557.2,1542,533.9z M1456.6,419.2c0,22.9,17.3,35.3,43.7,42.3
			c19.8-6.7,34.9-20.8,34.9-41.6c0-18.3-10.9-37.4-38.8-37.4C1470.8,382.5,1456.6,399.5,1456.6,419.2z"/>
		<path d="M1592.5,636.9c7.4-20.8,16.9-58.6,20.8-84.3l34.6-3.5c-8.1,30-23.6,69.1-33.5,85.7L1592.5,636.9z"/>
		<path d="M1812.3,390.3h-87.5l-8.8,58.9c5.3-0.7,10.2-1.4,18.7-1.4c17.6,0,35.3,3.9,49.4,12.3c18,10.2,32.8,30,32.8,58.9
			c0,44.8-35.6,78.3-85.4,78.3c-25,0-46.2-7.1-57.2-14.1l7.8-23.6c9.5,5.6,28.2,12.7,49,12.7c29.3,0,54.3-19.1,54.3-49.7
			c-0.4-29.6-20.1-50.8-66-50.8c-13.1,0-23.3,1.4-31.8,2.5l14.8-110.1h109.7V390.3z"/>
	</g>
</g>
<g id="Fa_neu" class="st0">
	<g class="st18">
		<g>
			<path d="M527.7,797.1h379.5v99.8H646.4v124.8h226.1v92.2H646.4v223H527.7V797.1z"/>
			<path d="M960.2,1066.3c6-100.6,96-130.8,183.7-130.8c77.9,0,171.6,17.4,171.6,111.1V1250c0,35.5,3.8,71.1,13.6,86.9h-108.9
				c-3.8-12.1-6.8-25-7.6-37.8c-34,35.5-83.9,48.4-131.6,48.4c-74.1,0-133.1-37-133.1-117.2c0-88.5,66.5-109.6,133.1-118.7
				c65.8-9.8,127-7.6,127-51.4c0-46.1-31.8-52.9-69.6-52.9c-40.8,0-67.3,16.6-71.1,59H960.2z M1208.2,1145.6
				c-18.1,15.9-55.9,16.6-89.2,22.7c-33.3,6.8-63.5,18.1-63.5,57.5c0,40.1,31,49.9,65.8,49.9c83.9,0,86.9-66.5,86.9-90V1145.6z"/>
		</g>
	</g>
	<text transform="matrix(1 0 0 1 1427.9297 1870.3574)" class="st26 st16 st30">,</text>
	<g class="st18">
		<path d="M926.7,496.5c0-21.9-0.7-39.5-1.4-55.7h27.9l1.4,29.3h0.7c12.7-20.8,32.8-33.2,60.7-33.2c41.3,0,72.3,34.9,72.3,86.8
			c0,61.4-37.4,91.7-77.6,91.7c-22.6,0-42.3-9.9-52.6-26.8h-0.7v92.8h-30.7V496.5z M957.4,542c0,4.6,0.7,8.8,1.4,12.7
			c5.6,21.5,24.3,36.3,46.6,36.3c32.8,0,51.9-26.8,51.9-66c0-34.2-18-63.5-50.8-63.5c-21.2,0-40.9,15.2-46.9,38.5
			c-1.1,3.9-2.1,8.5-2.1,12.7V542z"/>
		<path d="M1159.2,373.7v99.5h115v-99.5h31v237.8h-31V500h-115v111.5h-30.7V373.7H1159.2z"/>
		<path d="M1489.7,411.1h-0.7l-39.9,21.5l-6-23.6l50.1-26.8h26.5v229.3h-30V411.1z"/>
		<path d="M1593.5,654.9c7.4-20.8,16.9-58.6,20.8-84.3l34.6-3.5c-8.1,30-23.6,69.1-33.5,85.7L1593.5,654.9z"/>
		<path d="M1828.8,494.4c0,78-28.9,121-79.7,121c-44.8,0-75.1-42-75.9-117.8c0-76.9,33.2-119.2,79.7-119.2
			C1801.3,378.3,1828.8,421.4,1828.8,494.4z M1704.2,497.9c0,59.6,18.3,93.5,46.6,93.5c31.8,0,46.9-37,46.9-95.6
			c0-56.4-14.5-93.5-46.6-93.5C1724,402.3,1704.2,435.5,1704.2,497.9z"/>
	</g>
</g>
<g id="Dcb" class="st0">
	<g class="st18">
		<g>
			<path d="M310.7,792.1h232.9c139.9,0,245,87.7,245,266.9c0,156.5-80.1,272.9-245,272.9H310.7V792.1z M429.4,1232.1h105.8
				c68.8,0,134.6-42.3,134.6-161.8c0-108.9-37.8-178.4-155.8-178.4h-84.7V1232.1z"/>
			<path d="M1125.8,1078.7c-6.8-43.9-34.8-67.3-79.4-67.3c-68.8,0-91.5,69.6-91.5,127c0,55.9,21.9,123.2,89.2,123.2
				c49.9,0,78.6-31.8,85.4-79.4h103.6c-13.6,103.6-85.4,160.3-188.3,160.3c-117.9,0-197.3-83.2-197.3-200.4
				c0-121.7,72.6-211.7,199.6-211.7c92.2,0,176.9,48.4,183.7,148.2H1125.8z"/>
			<path d="M1293.6,792.1H1401v196.6h1.5c26.5-40.1,74.9-58.2,123.2-58.2c77.9,0,161.8,62.8,161.8,205.7
				c0,143.7-83.9,206.4-161.8,206.4c-57.5,0-105.1-17.4-128.5-60.5h-1.5v49.9h-102.1V792.1z M1488.7,1011.4
				c-63.5,0-91.5,59.7-91.5,125.5c0,65,28,124.8,91.5,124.8c63.5,0,91.5-59.7,91.5-124.8C1580.2,1071.1,1552.2,1011.4,1488.7,1011.4
				z"/>
		</g>
		
			<text id="_x30_1_00000018952222112545965980000017395854263190742408_" transform="matrix(1 0 0 1 1250.5645 1462.0156)" class="st31 st14 st27 st28">01</text>
	</g>
	<text transform="matrix(1 0 0 1 1427.9297 1870.3574)" class="st26 st16 st30">,</text>
	<text transform="matrix(1 0 0 1 1427.9297 611.5151)" class="st26 st16 st30">9,0</text>
</g>
<g id="Dtr" class="st0">
	<g>
		<g class="st18">
			<path class="st32" d="M447.7,801.1h232.9c139.9,0,245,87.7,245,266.9c0,156.5-80.1,272.9-245,272.9H447.7V801.1z M566.4,1241.1
				h105.8c68.8,0,134.6-42.3,134.6-161.8c0-108.9-37.8-178.4-155.8-178.4h-84.7V1241.1z"/>
			<path class="st32" d="M1132.7,950h78.6v71.8h-78.6v193.6c0,36.3,9.1,45.4,45.4,45.4c11.3,0,21.9-0.8,33.3-3v83.9
				c-18.1,3-41.6,3.8-62.8,3.8c-65.8,0-123.2-15.1-123.2-93v-230.6h-65V950h65V832.9h107.4V950z"/>
			<path class="st32" d="M1262.8,950h102.1v72.6h1.5c19.7-49.1,72.6-83.2,124.8-83.2c7.6,0,16.6,1.5,23.4,3.8v99.8
				c-9.8-2.3-25.7-3.8-38.6-3.8c-78.6,0-105.9,56.7-105.9,125.5v176.2h-107.4V950z"/>
		</g>
	</g>
	<text transform="matrix(1 0 0 1 1427.9297 1870.3574)" class="st26 st16 st30">,</text>
	<text transform="matrix(1 0 0 1 1427.9297 611.5151)" class="st26 st16 st30">9,0</text>
</g>
<g id="H9.02" class="st0">
	<g class="st18">
		<g>
			<path class="st26" d="M266.7,783.1h118.7v207.2h218.5V783.1h118.7v539.8H603.9v-232.9H385.4v232.9H266.7V783.1z"/>
			<path class="st26" d="M901.8,1186.8c6.8,35.5,34,65.8,71.1,65.8c77.9,0,98.3-102.1,101.3-161l-1.5-1.5c-29.5,41.6-68,59-119.5,59
				c-45.4,0-91.5-21.2-121.7-54.4c-28-32.5-40.8-76.4-40.8-117.9c0-108.1,74.9-193.6,185.2-193.6c160.3,0,203.4,139.9,203.4,273.7
				c0,129.3-57.5,276.7-207.9,276.7c-91.5,0-159.5-53.7-171.6-146.7H901.8z M1064.4,969.8c0-49.1-31.8-98.3-85.4-98.3
				c-51.4,0-80.9,49.1-80.9,96.8c0,49.9,25.7,99.8,80.9,99.8C1036.4,1068.1,1064.4,1022,1064.4,969.8z"/>
		</g>
		<g>
			<path class="st26" d="M1340.7,1107.2c67.8,0,125,42.6,125,174.9c0,135.1-57.2,177.8-125,177.8c-66.8,0-124-42.6-124-177.8
				C1216.7,1149.8,1273.9,1107.2,1340.7,1107.2z M1340.7,1403.1c56.2,0,56.2-82.8,56.2-121.1c0-35.4,0-118.2-56.2-118.2
				c-55.2,0-55.2,82.8-55.2,118.2C1285.5,1320.3,1285.5,1403.1,1340.7,1403.1z"/>
			<path class="st26" d="M1515.1,1244.3c-2.4-77.5,41.7-137.1,123-137.1c62,0,116.2,39.7,116.2,106.1c0,50.9-27.1,79-60.5,102.7
				c-33.4,23.7-73.1,43.1-97.8,78h160.3v59.1h-249c0.5-78.5,48.4-111.9,107-151.6c30-20.3,70.7-41.2,71.2-82.8
				c0-32-21.3-52.3-50.9-52.3c-40.7,0-53.8,42.1-53.8,78H1515.1z"/>
		</g>
	</g>
	<g class="st18">
		<path class="st26" d="M1574.7,1662.9c-6.3-0.4-14.5,0-23.3,1.4c-48.7,8.1-74.4,43.7-79.7,81.5h1.1c10.9-14.5,30-26.5,55.4-26.5
			c40.6,0,69.1,29.3,69.1,74.1c0,42-28.6,80.8-76.2,80.8c-49,0-81.1-38.1-81.1-97.7c0-45.2,16.2-80.8,38.8-103.4
			c19.1-18.7,44.5-30.3,73.4-33.9c9.2-1.4,16.9-1.8,22.6-1.8V1662.9z M1521.4,1850.2c26.5,0,44.5-22.2,44.5-55
			c0-32.8-18.7-52.6-47.3-52.6c-18.7,0-36,11.6-44.5,28.2c-2.1,3.5-3.5,8.1-3.5,13.8c0.7,37.8,18,65.6,50.5,65.6H1521.4z"/>
		<path class="st26" d="M1614.9,1913.8c7.4-20.8,16.9-58.6,20.8-84.3l34.6-3.5c-8.1,30-23.6,69.1-33.5,85.7L1614.9,1913.8z"/>
		<path class="st26" d="M1850.2,1753.2c0,78-28.9,121-79.7,121c-44.8,0-75.1-42-75.9-117.8c0-76.9,33.2-119.2,79.7-119.2
			C1822.7,1637.2,1850.2,1680.2,1850.2,1753.2z M1725.7,1756.8c0,59.6,18.3,93.5,46.6,93.5c31.8,0,46.9-37,46.9-95.6
			c0-56.4-14.5-93.5-46.6-93.5C1745.4,1661.1,1725.7,1694.3,1725.7,1756.8z"/>
	</g>
	<g class="st18">
		<path class="st26" d="M1461.8,589.6c6.7,0.7,14.5,0,25-1.1c18-2.5,34.9-9.9,48-22.2c15.2-13.8,26.1-33.9,30.3-61h-1.1
			c-12.7,15.5-31,24.7-54,24.7c-41.3,0-67.7-31-67.7-70.2c0-43.4,31.4-81.5,78.3-81.5s75.9,38.1,75.9,96.7
			c0,50.5-16.9,85.7-39.5,107.6c-17.6,17.3-42,27.9-66.7,30.7c-11.3,1.8-21.2,2.1-28.6,1.8V589.6z M1517.9,402
			c-26.1,0-44.8,23.3-44.8,55.7c0,28.6,17.3,48.7,44.1,48.7c20.8,0,37-10.2,45.2-24c1.8-2.8,2.8-6.4,2.8-11.3
			c0-39.2-14.5-69.1-46.9-69.1H1517.9z"/>
		<path class="st26" d="M1614.9,654.9c7.4-20.8,16.9-58.6,20.8-84.3l34.6-3.5c-8.1,30-23.6,69.1-33.5,85.7L1614.9,654.9z"/>
		<path class="st26" d="M1850.2,494.4c0,78-28.9,121-79.7,121c-44.8,0-75.1-42-75.9-117.8c0-76.9,33.2-119.2,79.7-119.2
			C1822.7,378.3,1850.2,421.4,1850.2,494.4z M1725.7,497.9c0,59.6,18.3,93.5,46.6,93.5c31.8,0,46.9-37,46.9-95.6
			c0-56.4-14.5-93.5-46.6-93.5C1745.4,402.3,1725.7,435.5,1725.7,497.9z"/>
	</g>
</g>
<g id="P2.03" class="st0">
	<g class="st18">
		<g>
			<path class="st26" d="M266.7,783.1h243.5c134.6,0,186.8,85.4,186.8,173.1c0,87.7-52.2,173.1-186.8,173.1H385.4v193.6H266.7V783.1
				z M385.4,1037.1h92.2c55.2,0,104.3-12.1,104.3-80.9c0-68.8-49.1-80.9-104.3-80.9h-92.2V1037.1z"/>
			<path class="st26" d="M746.8,997.1c-3.8-121,65-214,192-214c96.8,0,181.5,62,181.5,165.6c0,79.4-42.3,123.2-94.5,160.3
				s-114.2,67.3-152.7,121.7h250.3v92.2H734.7c0.8-122.5,75.6-174.7,167.1-236.7c46.9-31.8,110.4-64.3,111.1-129.3
				c0-49.9-33.3-81.7-79.4-81.7c-63.5,0-83.9,65.8-83.9,121.7H746.8z"/>
		</g>
		<g>
			<path class="st26" d="M1340.7,1107.2c67.8,0,125,42.6,125,174.9c0,135.1-57.2,177.8-125,177.8c-66.8,0-124-42.6-124-177.8
				C1216.7,1149.8,1273.9,1107.2,1340.7,1107.2z M1340.7,1403.1c56.2,0,56.2-82.8,56.2-121.1c0-35.4,0-118.2-56.2-118.2
				c-55.2,0-55.2,82.8-55.2,118.2C1285.5,1320.3,1285.5,1403.1,1340.7,1403.1z"/>
			<path class="st26" d="M1607.6,1251c29.5,2.4,72.2-3.4,72.2-42.1c0-28.6-22.8-45-48-45c-34.4,0-52.8,25.7-52.3,60.5h-65.4
				c2.4-69.3,47.5-117.2,117.2-117.2c54.2,0,113.8,33.4,113.8,94c0,32-16,60.5-47.5,69.3v1c37.3,8.2,60.1,39.2,60.1,77
				c0,71.2-59.6,111.4-125.9,111.4c-76,0-127.4-45.5-125.9-123.5h65.4c1.5,36.8,19.9,66.8,59.6,66.8c31,0,55.2-21.3,55.2-53.3
				c0-51.3-45-50.4-78.5-50.4V1251z"/>
		</g>
	</g>
	<g class="st18">
		<path class="st26" d="M1461.8,1848.5c6.7,0.7,14.5,0,25-1.1c18-2.5,34.9-9.9,48-22.2c15.2-13.8,26.1-33.9,30.3-61h-1.1
			c-12.7,15.5-31,24.7-54,24.7c-41.3,0-67.7-31-67.7-70.2c0-43.4,31.4-81.5,78.3-81.5s75.9,38.1,75.9,96.7
			c0,50.5-16.9,85.7-39.5,107.6c-17.6,17.3-42,27.9-66.7,30.7c-11.3,1.8-21.2,2.1-28.6,1.8V1848.5z M1517.9,1660.8
			c-26.1,0-44.8,23.3-44.8,55.7c0,28.6,17.3,48.7,44.1,48.7c20.8,0,37-10.2,45.2-24c1.8-2.8,2.8-6.4,2.8-11.3
			c0-39.2-14.5-69.1-46.9-69.1H1517.9z"/>
		<path class="st26" d="M1614.9,1913.8c7.4-20.8,16.9-58.6,20.8-84.3l34.6-3.5c-8.1,30-23.6,69.1-33.5,85.7L1614.9,1913.8z"/>
		<path class="st26" d="M1705.2,1834.7c8.8,5.6,29.3,14.5,50.8,14.5c39.9,0,52.2-25.4,51.9-44.5c-0.4-32.1-29.3-45.9-59.3-45.9
			h-17.3v-23.3h17.3c22.6,0,51.2-11.6,51.2-38.8c0-18.3-11.6-34.6-40.2-34.6c-18.3,0-36,8.1-45.9,15.2l-8.1-22.6
			c12-8.8,35.3-17.6,60-17.6c45.2,0,65.6,26.8,65.6,54.7c0,23.6-14.1,43.7-42.3,54v0.7c28.2,5.6,51.2,26.8,51.2,58.9
			c0,36.7-28.6,68.8-83.6,68.8c-25.8,0-48.3-8.1-59.6-15.5L1705.2,1834.7z"/>
	</g>
	<g class="st18">
		<path class="st26" d="M1443.8,611.5v-19.1l24.3-23.6c58.6-55.7,85-85.4,85.4-120c0-23.3-11.3-44.8-45.5-44.8
			c-20.8,0-38.1,10.6-48.7,19.4l-9.9-21.9c15.9-13.4,38.5-23.3,64.9-23.3c49.4,0,70.2,33.9,70.2,66.7c0,42.3-30.7,76.6-79,123.1
			l-18.3,16.9v0.7h103v25.8H1443.8z"/>
		<path class="st26" d="M1614.9,654.9c7.4-20.8,16.9-58.6,20.8-84.3l34.6-3.5c-8.1,30-23.6,69.1-33.5,85.7L1614.9,654.9z"/>
		<path class="st26" d="M1850.2,494.4c0,78-28.9,121-79.7,121c-44.8,0-75.1-42-75.9-117.8c0-76.9,33.2-119.2,79.7-119.2
			C1822.7,378.3,1850.2,421.4,1850.2,494.4z M1725.7,497.9c0,59.6,18.3,93.5,46.6,93.5c31.8,0,46.9-37,46.9-95.6
			c0-56.4-14.5-93.5-46.6-93.5C1745.4,402.3,1725.7,435.5,1725.7,497.9z"/>
	</g>
</g>
<g id="C0.02" class="st0">
	<g class="st18">
		<g>
			<path class="st26" d="M626.6,964.6c-7.6-53.7-59-94.5-117.9-94.5C402.1,870,362,960.8,362,1055.3c0,90,40.1,180.7,146.7,180.7
				c72.6,0,113.4-49.9,122.5-121h114.9C734,1249.6,641,1335.8,508.7,1335.8c-167.1,0-265.4-124.8-265.4-280.5
				c0-160.3,98.3-285,265.4-285c118.7,0,218.5,69.6,232.9,194.3H626.6z"/>
			<path class="st26" d="M984.2,783.1c105.8,0,195.1,66.5,195.1,272.9c0,210.9-89.2,277.5-195.1,277.5
				c-104.3,0-193.6-66.5-193.6-277.5C790.7,849.6,879.9,783.1,984.2,783.1z M984.2,1245.1c87.7,0,87.7-129.3,87.7-189
				c0-55.2,0-184.5-87.7-184.5c-86.2,0-86.2,129.3-86.2,184.5C898.1,1115.8,898.1,1245.1,984.2,1245.1z"/>
		</g>
		<g>
			<path class="st26" d="M1340.7,1107.2c67.8,0,125,42.6,125,174.9c0,135.1-57.2,177.8-125,177.8c-66.8,0-124-42.6-124-177.8
				C1216.7,1149.8,1273.9,1107.2,1340.7,1107.2z M1340.7,1403.1c56.2,0,56.2-82.8,56.2-121.1c0-35.4,0-118.2-56.2-118.2
				c-55.2,0-55.2,82.8-55.2,118.2C1285.5,1320.3,1285.5,1403.1,1340.7,1403.1z"/>
			<path class="st26" d="M1515.1,1244.3c-2.4-77.5,41.7-137.1,123-137.1c62,0,116.2,39.7,116.2,106.1c0,50.9-27.1,79-60.5,102.7
				c-33.4,23.7-73.1,43.1-97.8,78h160.3v59.1h-249c0.5-78.5,48.4-111.9,107-151.6c30-20.3,70.7-41.2,71.2-82.8
				c0-32-21.3-52.3-50.9-52.3c-40.7,0-53.8,42.1-53.8,78H1515.1z"/>
		</g>
	</g>
	<g class="st18">
		<path class="st26" d="M1461.8,1848.5c6.7,0.7,14.5,0,25-1.1c18-2.5,34.9-9.9,48-22.2c15.2-13.8,26.1-33.9,30.3-61h-1.1
			c-12.7,15.5-31,24.7-54,24.7c-41.3,0-67.7-31-67.7-70.2c0-43.4,31.4-81.5,78.3-81.5s75.9,38.1,75.9,96.7
			c0,50.5-16.9,85.7-39.5,107.6c-17.6,17.3-42,27.9-66.7,30.7c-11.3,1.8-21.2,2.1-28.6,1.8V1848.5z M1517.9,1660.8
			c-26.1,0-44.8,23.3-44.8,55.7c0,28.6,17.3,48.7,44.1,48.7c20.8,0,37-10.2,45.2-24c1.8-2.8,2.8-6.4,2.8-11.3
			c0-39.2-14.5-69.1-46.9-69.1H1517.9z"/>
		<path class="st26" d="M1614.9,1913.8c7.4-20.8,16.9-58.6,20.8-84.3l34.6-3.5c-8.1,30-23.6,69.1-33.5,85.7L1614.9,1913.8z"/>
		<path class="st26" d="M1715.8,1848.5c6.7,0.7,14.5,0,25-1.1c18-2.5,34.9-9.9,48-22.2c15.2-13.8,26.1-33.9,30.3-61h-1.1
			c-12.7,15.5-31,24.7-54,24.7c-41.3,0-67.7-31-67.7-70.2c0-43.4,31.4-81.5,78.3-81.5s75.9,38.1,75.9,96.7
			c0,50.5-16.9,85.7-39.5,107.6c-17.6,17.3-42,27.9-66.7,30.7c-11.3,1.8-21.2,2.1-28.6,1.8V1848.5z M1771.9,1660.8
			c-26.1,0-44.8,23.3-44.8,55.7c0,28.6,17.3,48.7,44.1,48.7c20.8,0,37-10.2,45.2-24c1.8-2.8,2.8-6.4,2.8-11.3
			c0-39.2-14.5-69.1-46.9-69.1H1771.9z"/>
	</g>
	<g class="st18">
		<path class="st26" d="M1596.2,494.4c0,78-28.9,121-79.7,121c-44.8,0-75.1-42-75.9-117.8c0-76.9,33.2-119.2,79.7-119.2
			C1568.7,378.3,1596.2,421.4,1596.2,494.4z M1471.7,497.9c0,59.6,18.3,93.5,46.6,93.5c31.8,0,46.9-37,46.9-95.6
			c0-56.4-14.5-93.5-46.6-93.5C1491.4,402.3,1471.7,435.5,1471.7,497.9z"/>
		<path class="st26" d="M1614.9,654.9c7.4-20.8,16.9-58.6,20.8-84.3l34.6-3.5c-8.1,30-23.6,69.1-33.5,85.7L1614.9,654.9z"/>
		<path class="st26" d="M1850.2,494.4c0,78-28.9,121-79.7,121c-44.8,0-75.1-42-75.9-117.8c0-76.9,33.2-119.2,79.7-119.2
			C1822.7,378.3,1850.2,421.4,1850.2,494.4z M1725.7,497.9c0,59.6,18.3,93.5,46.6,93.5c31.8,0,46.9-37,46.9-95.6
			c0-56.4-14.5-93.5-46.6-93.5C1745.4,402.3,1725.7,435.5,1725.7,497.9z"/>
	</g>
</g>
<g id="H8.02" class="st0">
	<g class="st18">
		<g>
			<path class="st26" d="M266.7,783.1h118.7v207.2h218.5V783.1h118.7v539.8H603.9v-232.9H385.4v232.9H266.7V783.1z"/>
			<path class="st26" d="M985.8,783.1c131.6,0,176.9,90.7,176.9,142.1c0,52.2-27.2,94.5-77.1,111.1v1.5c62.8,14.4,99,62.8,99,129.3
				c0,111.1-99.8,166.3-198.1,166.3c-102.1,0-201.1-51.4-201.1-165.6c0-67.3,37.8-114.9,99.8-130v-1.5
				c-51.4-14.4-77.9-56.7-77.9-108.9C807.3,832.2,899.6,783.1,985.8,783.1z M986.5,1252.6c51.4,0,90.7-36.3,90.7-89.2
				c0-50.7-40.8-84.7-90.7-84.7c-52.2,0-93.8,29.5-93.8,83.9C892.8,1217.1,935.1,1252.6,986.5,1252.6z M985.8,1006.9
				c43.9,0,79.4-24.2,79.4-69.6c0-27.2-12.9-73.3-79.4-73.3c-43.1,0-80.9,26.5-80.9,73.3C904.9,983.5,942.7,1006.9,985.8,1006.9z"/>
		</g>
		<g>
			<path class="st26" d="M1340.7,1107.2c67.8,0,125,42.6,125,174.9c0,135.1-57.2,177.8-125,177.8c-66.8,0-124-42.6-124-177.8
				C1216.7,1149.8,1273.9,1107.2,1340.7,1107.2z M1340.7,1403.1c56.2,0,56.2-82.8,56.2-121.1c0-35.4,0-118.2-56.2-118.2
				c-55.2,0-55.2,82.8-55.2,118.2C1285.5,1320.3,1285.5,1403.1,1340.7,1403.1z"/>
			<path class="st26" d="M1515.1,1244.3c-2.4-77.5,41.7-137.1,123-137.1c62,0,116.2,39.7,116.2,106.1c0,50.9-27.1,79-60.5,102.7
				c-33.4,23.7-73.1,43.1-97.8,78h160.3v59.1h-249c0.5-78.5,48.4-111.9,107-151.6c30-20.3,70.7-41.2,71.2-82.8
				c0-32-21.3-52.3-50.9-52.3c-40.7,0-53.8,42.1-53.8,78H1515.1z"/>
		</g>
	</g>
	<g class="st18">
		<path class="st26" d="M1571.2,1667.1h-87.5l-8.8,58.9c5.3-0.7,10.2-1.4,18.7-1.4c17.6,0,35.3,3.9,49.4,12.3
			c18,10.2,32.8,30,32.8,58.9c0,44.8-35.6,78.3-85.4,78.3c-25,0-46.2-7.1-57.2-14.1l7.8-23.6c9.5,5.6,28.2,12.7,49,12.7
			c29.3,0,54.3-19.1,54.3-49.7c-0.4-29.6-20.1-50.8-66-50.8c-13.1,0-23.3,1.4-31.8,2.5l14.8-110.1h109.7V1667.1z"/>
		<path class="st26" d="M1596.2,1913.8c7.4-20.8,16.9-58.6,20.8-84.3l34.6-3.5c-8.1,30-23.6,69.1-33.5,85.7L1596.2,1913.8z"/>
		<path class="st26" d="M1831.5,1753.2c0,78-28.9,121-79.7,121c-44.8,0-75.1-42-75.9-117.8c0-76.9,33.2-119.2,79.7-119.2
			C1804,1637.2,1831.5,1680.2,1831.5,1753.2z M1707,1756.8c0,59.6,18.3,93.5,46.6,93.5c31.8,0,46.9-37,46.9-95.6
			c0-56.4-14.5-93.5-46.6-93.5C1726.7,1661.1,1707,1694.3,1707,1756.8z"/>
	</g>
	<g class="st18">
		<path class="st26" d="M1486.1,490.9c-25.4-12-36.3-31.8-36.3-51.5c0-36.3,30.7-61,70.9-61c44.5,0,66.7,27.9,66.7,56.4
			c0,19.4-9.5,40.2-37.7,53.6v1.1c28.6,11.3,46.2,31.4,46.2,59.3c0,39.9-34.2,66.7-78,66.7c-48,0-76.9-28.6-76.9-62.1
			c0-28.9,17.3-49.4,45.5-61.4L1486.1,490.9z M1564.5,551.9c0-27.9-19.4-41.3-50.5-50.1c-26.8,7.8-41.3,25.4-41.3,47.3
			c-1.1,23.3,16.6,43.7,45.9,43.7C1546.5,592.8,1564.5,575.2,1564.5,551.9z M1479.1,437.2c0,22.9,17.3,35.3,43.7,42.3
			c19.8-6.7,34.9-20.8,34.9-41.6c0-18.3-10.9-37.4-38.8-37.4C1493.2,400.5,1479.1,417.5,1479.1,437.2z"/>
		<path class="st26" d="M1614.9,654.9c7.4-20.8,16.9-58.6,20.8-84.3l34.6-3.5c-8.1,30-23.6,69.1-33.5,85.7L1614.9,654.9z"/>
		<path class="st26" d="M1834.7,408.3h-87.5l-8.8,58.9c5.3-0.7,10.2-1.4,18.7-1.4c17.6,0,35.3,3.9,49.4,12.3
			c18,10.2,32.8,30,32.8,58.9c0,44.8-35.6,78.3-85.4,78.3c-25,0-46.2-7.1-57.2-14.1l7.8-23.6c9.5,5.6,28.2,12.7,49,12.7
			c29.3,0,54.3-19.1,54.3-49.7c-0.4-29.6-20.1-50.8-66-50.8c-13.1,0-23.3,1.4-31.8,2.5l14.8-110.1h109.7V408.3z"/>
	</g>
</g>
<g id="Hlp_1" class="st0">
	<g class="st18">
		<g>
			<path class="st26" d="M266.7,783.1h118.7v207.2h218.5V783.1h118.7v539.8H603.9v-232.9H385.4v232.9H266.7V783.1z"/>
			<path class="st26" d="M818.7,783.1H926v539.8H818.7V783.1z"/>
			<path class="st26" d="M1010.7,932h102.1v49.9h1.5c25.7-41.6,68-60.5,116.4-60.5c122.5,0,177.7,99,177.7,210.2
				c0,104.3-57.5,201.9-171.6,201.9c-46.9,0-91.5-20.4-117.2-59h-1.5v186h-107.4V932z M1301,1128.6c0-62-25-126.3-93.8-126.3
				c-70.3,0-93,62.8-93,126.3c0,63.5,24.2,124,93.8,124C1278.4,1252.6,1301,1192.1,1301,1128.6z"/>
			<path class="st26" d="M1728.2,1322.9h-107.4V979.7h-133.1v-80.9c74.9,1.5,143.7-24.2,155-105.1h85.4V1322.9z"/>
		</g>
	</g>
	<g class="st18">
		<path class="st26" d="M1571.2,1667.1h-87.5l-8.8,58.9c5.3-0.7,10.2-1.4,18.7-1.4c17.6,0,35.3,3.9,49.4,12.3
			c18,10.2,32.8,30,32.8,58.9c0,44.8-35.6,78.3-85.4,78.3c-25,0-46.2-7.1-57.2-14.1l7.8-23.6c9.5,5.6,28.2,12.7,49,12.7
			c29.3,0,54.3-19.1,54.3-49.7c-0.4-29.6-20.1-50.8-66-50.8c-13.1,0-23.3,1.4-31.8,2.5l14.8-110.1h109.7V1667.1z"/>
		<path class="st26" d="M1596.2,1913.8c7.4-20.8,16.9-58.6,20.8-84.3l34.6-3.5c-8.1,30-23.6,69.1-33.5,85.7L1596.2,1913.8z"/>
		<path class="st26" d="M1831.5,1753.2c0,78-28.9,121-79.7,121c-44.8,0-75.1-42-75.9-117.8c0-76.9,33.2-119.2,79.7-119.2
			C1804,1637.2,1831.5,1680.2,1831.5,1753.2z M1707,1756.8c0,59.6,18.3,93.5,46.6,93.5c31.8,0,46.9-37,46.9-95.6
			c0-56.4-14.5-93.5-46.6-93.5C1726.7,1661.1,1707,1694.3,1707,1756.8z"/>
	</g>
	<g class="st18">
		<path class="st26" d="M1461.8,587.6c6.7,0.7,14.5,0,25-1.1c18-2.5,34.9-9.9,48-22.2c15.2-13.8,26.1-33.9,30.3-61h-1.1
			c-12.7,15.5-31,24.7-54,24.7c-41.3,0-67.7-31-67.7-70.2c0-43.4,31.4-81.5,78.3-81.5s75.9,38.1,75.9,96.7
			c0,50.5-16.9,85.7-39.5,107.6c-17.6,17.3-42,27.9-66.7,30.7c-11.3,1.8-21.2,2.1-28.6,1.8V587.6z M1517.9,400
			c-26.1,0-44.8,23.3-44.8,55.7c0,28.6,17.3,48.7,44.1,48.7c20.8,0,37-10.2,45.2-24c1.8-2.8,2.8-6.4,2.8-11.3
			c0-39.2-14.5-69.1-46.9-69.1H1517.9z"/>
		<path class="st26" d="M1614.9,652.9c7.4-20.8,16.9-58.6,20.8-84.3l34.6-3.5c-8.1,30-23.6,69.1-33.5,85.7L1614.9,652.9z"/>
		<path class="st26" d="M1850.2,492.4c0,78-28.9,121-79.7,121c-44.8,0-75.1-42-75.9-117.8c0-76.9,33.2-119.2,79.7-119.2
			C1822.7,376.3,1850.2,419.4,1850.2,492.4z M1725.7,495.9c0,59.6,18.3,93.5,46.6,93.5c31.8,0,46.9-37,46.9-95.6
			c0-56.4-14.5-93.5-46.6-93.5C1745.4,400.3,1725.7,433.5,1725.7,495.9z"/>
	</g>
</g>
<g id="H7.01" class="st0">
	<g class="st18">
		<text id="H9_1_" transform="matrix(1 0 0 1 214.5637 1322.9348)" class="st26 st14 st15">H7</text>
		<text id="_x30_1_6_" transform="matrix(1 0 0 1 1206.5645 1453.0156)" class="st26 st14 st27 st28">01</text>
	</g>
	<text transform="matrix(1 0 0 1 1427.9297 1870.3574)" class="st29 st16 st30">3,</text>
	<text transform="matrix(1 0 0 1 1427.9297 611.5151)" class="st29 st16 st30">7,5</text>
</g>
<g id="P3.01" class="st0">
	<g class="st18">
		<text id="H9_5_" transform="matrix(1 0 0 1 214.5637 1322.9348)" class="st26 st14 st15">P3</text>
		<text id="_x30_1_5_" transform="matrix(1 0 0 1 1206.5645 1453.0156)" class="st26 st14 st27 st28">01</text>
	</g>
	<text transform="matrix(1 0 0 1 1427.9297 1870.3574)" class="st29 st16 st30">9,5</text>
	<text transform="matrix(1 0 0 1 1427.9297 611.5151)" class="st29 st16 st30">3,2</text>
</g>
<g id="P2.02" class="st0">
	<g class="st18">
		<g>
			<path class="st26" d="M266.7,783.1h243.5c134.6,0,186.8,85.4,186.8,173.1c0,87.7-52.2,173.1-186.8,173.1H385.4v193.6H266.7V783.1
				z M385.4,1037.1h92.2c55.2,0,104.3-12.1,104.3-80.9c0-68.8-49.1-80.9-104.3-80.9h-92.2V1037.1z"/>
			<path class="st26" d="M746.8,997.1c-3.8-121,65-214,192-214c96.8,0,181.5,62,181.5,165.6c0,79.4-42.3,123.2-94.5,160.3
				s-114.2,67.3-152.7,121.7h250.3v92.2H734.7c0.8-122.5,75.6-174.7,167.1-236.7c46.9-31.8,110.4-64.3,111.1-129.3
				c0-49.9-33.3-81.7-79.4-81.7c-63.5,0-83.9,65.8-83.9,121.7H746.8z"/>
		</g>
		<g>
			<path class="st26" d="M1340.7,1107.2c67.8,0,125,42.6,125,174.9c0,135.1-57.2,177.8-125,177.8c-66.8,0-124-42.6-124-177.8
				C1216.7,1149.8,1273.9,1107.2,1340.7,1107.2z M1340.7,1403.1c56.2,0,56.2-82.8,56.2-121.1c0-35.4,0-118.2-56.2-118.2
				c-55.2,0-55.2,82.8-55.2,118.2C1285.5,1320.3,1285.5,1403.1,1340.7,1403.1z"/>
			<path class="st26" d="M1515.1,1244.3c-2.4-77.5,41.7-137.1,123-137.1c62,0,116.2,39.7,116.2,106.1c0,50.9-27.1,79-60.5,102.7
				c-33.4,23.7-73.1,43.1-97.8,78h160.3v59.1h-249c0.5-78.5,48.4-111.9,107-151.6c30-20.3,70.7-41.2,71.2-82.8
				c0-32-21.3-52.3-50.9-52.3c-40.7,0-53.8,42.1-53.8,78H1515.1z"/>
		</g>
	</g>
	<g class="st18">
		<path class="st26" d="M1461.8,1848.5c6.7,0.7,14.5,0,25-1.1c18-2.5,34.9-9.9,48-22.2c15.2-13.8,26.1-33.9,30.3-61h-1.1
			c-12.7,15.5-31,24.7-54,24.7c-41.3,0-67.7-31-67.7-70.2c0-43.4,31.4-81.5,78.3-81.5s75.9,38.1,75.9,96.7
			c0,50.5-16.9,85.7-39.5,107.6c-17.6,17.3-42,27.9-66.7,30.7c-11.3,1.8-21.2,2.1-28.6,1.8V1848.5z M1517.9,1660.8
			c-26.1,0-44.8,23.3-44.8,55.7c0,28.6,17.3,48.7,44.1,48.7c20.8,0,37-10.2,45.2-24c1.8-2.8,2.8-6.4,2.8-11.3
			c0-39.2-14.5-69.1-46.9-69.1H1517.9z"/>
		<path class="st26" d="M1614.9,1913.8c7.4-20.8,16.9-58.6,20.8-84.3l34.6-3.5c-8.1,30-23.6,69.1-33.5,85.7L1614.9,1913.8z"/>
		<path class="st26" d="M1834.7,1667.1h-87.5l-8.8,58.9c5.3-0.7,10.2-1.4,18.7-1.4c17.6,0,35.3,3.9,49.4,12.3
			c18,10.2,32.8,30,32.8,58.9c0,44.8-35.6,78.3-85.4,78.3c-25,0-46.2-7.1-57.2-14.1l7.8-23.6c9.5,5.6,28.2,12.7,49,12.7
			c29.3,0,54.3-19.1,54.3-49.7c-0.4-29.6-20.1-50.8-66-50.8c-13.1,0-23.3,1.4-31.8,2.5L1725,1641h109.7V1667.1z"/>
	</g>
	<g class="st18">
		<path class="st26" d="M1443.8,611.5v-19.1l24.3-23.6c58.6-55.7,85-85.4,85.4-120c0-23.3-11.3-44.8-45.5-44.8
			c-20.8,0-38.1,10.6-48.7,19.4l-9.9-21.9c15.9-13.4,38.5-23.3,64.9-23.3c49.4,0,70.2,33.9,70.2,66.7c0,42.3-30.7,76.6-79,123.1
			l-18.3,16.9v0.7h103v25.8H1443.8z"/>
		<path class="st26" d="M1614.9,654.9c7.4-20.8,16.9-58.6,20.8-84.3l34.6-3.5c-8.1,30-23.6,69.1-33.5,85.7L1614.9,654.9z"/>
		<path class="st26" d="M1834.7,408.3h-87.5l-8.8,58.9c5.3-0.7,10.2-1.4,18.7-1.4c17.6,0,35.3,3.9,49.4,12.3
			c18,10.2,32.8,30,32.8,58.9c0,44.8-35.6,78.3-85.4,78.3c-25,0-46.2-7.1-57.2-14.1l7.8-23.6c9.5,5.6,28.2,12.7,49,12.7
			c29.3,0,54.3-19.1,54.3-49.7c-0.4-29.6-20.1-50.8-66-50.8c-13.1,0-23.3,1.4-31.8,2.5l14.8-110.1h109.7V408.3z"/>
	</g>
</g>
<g id="P6.01" class="st0">
	<g class="st18">
		<text id="P6" transform="matrix(1 0 0 1 214.5637 1322.9348)" class="st26 st14 st15">P6</text>
		<text id="_x30_1_2_" transform="matrix(1 0 0 1 1206.5645 1453.0156)" class="st26 st14 st27 st28">01</text>
	</g>
	<text transform="matrix(1 0 0 1 1427.9297 1870.3574)" class="st29 st16 st30">8,</text>
	<text transform="matrix(1 0 0 1 1427.9297 611.5151)" class="st29 st16 st30">6,0</text>
</g>
<g id="F6.01" class="st0">
	<g class="st18">
		<text id="P6_7_" transform="matrix(1 0 0 1 214.5637 1322.9348)" class="st26 st14 st15">F6</text>
		<text id="_x30_1_12_" transform="matrix(1 0 0 1 1206.5645 1453.0156)" class="st26 st14 st27 st28">01</text>
	</g>
	<text transform="matrix(1 0 0 1 1427.9297 1870.3574)" class="st29 st16 st30">7,</text>
	<text transform="matrix(1 0 0 1 1427.9297 611.5151)" class="st29 st16 st30">6,0</text>
</g>
<g id="F5.01" class="st0">
	<g class="st18">
		<g>
			<path class="st26" d="M266.7,783.1h379.5v99.8H385.4v124.8h226.1v92.2H385.4v223H266.7V783.1z"/>
			<path class="st26" d="M1040.9,882.1H822.4l-21.2,120.2l1.5,1.5c28.7-29.5,62-40.8,103.6-40.8c104.3,0,163.3,80.9,163.3,179.9
				c0,108.9-90,192.8-196.6,190.5c-102.8,0-195.1-56.7-196.6-167.8h107.4c5.3,46.9,40.1,79.4,86.9,79.4c55.9,0,91.5-49.1,91.5-102.1
				c0-55.2-34-99-91.5-99c-38.6,0-59.7,13.6-80.9,42.3h-96.8l52.2-292.6h295.6V882.1z"/>
		</g>
		<g>
			<path class="st26" d="M1340.7,1107.2c67.8,0,125,42.6,125,174.9c0,135.1-57.2,177.8-125,177.8c-66.8,0-124-42.6-124-177.8
				C1216.7,1149.8,1273.9,1107.2,1340.7,1107.2z M1340.7,1403.1c56.2,0,56.2-82.8,56.2-121.1c0-35.4,0-118.2-56.2-118.2
				c-55.2,0-55.2,82.8-55.2,118.2C1285.5,1320.3,1285.5,1403.1,1340.7,1403.1z"/>
			<path class="st26" d="M1687,1453h-68.8v-219.9H1533v-51.8c48,1,92-15.5,99.3-67.3h54.7V1453z"/>
		</g>
	</g>
	<g class="st18">
		<path class="st26" d="M1592.7,1641v20.5l-99.8,208.9h-32.1l99.5-202.9v-0.7H1448V1641H1592.7z"/>
		<path class="st26" d="M1614.9,1913.8c7.4-20.8,16.9-58.6,20.8-84.3l34.6-3.5c-8.1,30-23.6,69.1-33.5,85.7L1614.9,1913.8z"/>
		<path class="st26" d="M1850.2,1753.2c0,78-28.9,121-79.7,121c-44.8,0-75.1-42-75.9-117.8c0-76.9,33.2-119.2,79.7-119.2
			C1822.7,1637.2,1850.2,1680.2,1850.2,1753.2z M1725.7,1756.8c0,59.6,18.3,93.5,46.6,93.5c31.8,0,46.9-37,46.9-95.6
			c0-56.4-14.5-93.5-46.6-93.5C1745.4,1661.1,1725.7,1694.3,1725.7,1756.8z"/>
	</g>
	<g class="st18">
		<path class="st26" d="M1580.7,408.3h-87.5l-8.8,58.9c5.3-0.7,10.2-1.4,18.7-1.4c17.6,0,35.3,3.9,49.4,12.3
			c18,10.2,32.8,30,32.8,58.9c0,44.8-35.6,78.3-85.4,78.3c-25,0-46.2-7.1-57.2-14.1l7.8-23.6c9.5,5.6,28.2,12.7,49,12.7
			c29.3,0,54.3-19.1,54.3-49.7c-0.4-29.6-20.1-50.8-66-50.8c-13.1,0-23.3,1.4-31.8,2.5l14.8-110.1h109.7V408.3z"/>
		<path class="st26" d="M1614.9,654.9c7.4-20.8,16.9-58.6,20.8-84.3l34.6-3.5c-8.1,30-23.6,69.1-33.5,85.7L1614.9,654.9z"/>
		<path class="st26" d="M1850.2,494.4c0,78-28.9,121-79.7,121c-44.8,0-75.1-42-75.9-117.8c0-76.9,33.2-119.2,79.7-119.2
			C1822.7,378.3,1850.2,421.4,1850.2,494.4z M1725.7,497.9c0,59.6,18.3,93.5,46.6,93.5c31.8,0,46.9-37,46.9-95.6
			c0-56.4-14.5-93.5-46.6-93.5C1745.4,402.3,1725.7,435.5,1725.7,497.9z"/>
	</g>
</g>
<g id="Hlp_2" class="st0">
	<g class="st18">
		<g>
			<path class="st26" d="M266.7,783.1h118.7v207.2h218.5V783.1h118.7v539.8H603.9v-232.9H385.4v232.9H266.7V783.1z"/>
			<path class="st26" d="M818.7,783.1H926v539.8H818.7V783.1z"/>
			<path class="st26" d="M1010.7,932h102.1v49.9h1.5c25.7-41.6,68-60.5,116.4-60.5c122.5,0,177.7,99,177.7,210.2
				c0,104.3-57.5,201.9-171.6,201.9c-46.9,0-91.5-20.4-117.2-59h-1.5v186h-107.4V932z M1301,1128.6c0-62-25-126.3-93.8-126.3
				c-70.3,0-93,62.8-93,126.3c0,63.5,24.2,124,93.8,124C1278.4,1252.6,1301,1192.1,1301,1128.6z"/>
			<path class="st26" d="M1459.8,997.1c-3.8-121,65-214,192-214c96.8,0,181.5,62,181.5,165.6c0,79.4-42.3,123.2-94.5,160.3
				s-114.2,67.3-152.7,121.7h250.3v92.2h-388.6c0.8-122.5,75.6-174.7,167.1-236.7c46.9-31.8,110.4-64.3,111.1-129.3
				c0-49.9-33.3-81.7-79.4-81.7c-63.5,0-83.9,65.8-83.9,121.7H1459.8z"/>
		</g>
	</g>
	<g class="st18">
		<path class="st26" d="M1486.1,1749.7c-25.4-12-36.3-31.8-36.3-51.5c0-36.3,30.7-61,70.9-61c44.5,0,66.7,27.9,66.7,56.4
			c0,19.4-9.5,40.2-37.7,53.6v1.1c28.6,11.3,46.2,31.4,46.2,59.3c0,39.9-34.2,66.7-78,66.7c-48,0-76.9-28.6-76.9-62.1
			c0-28.9,17.3-49.4,45.5-61.4L1486.1,1749.7z M1564.5,1810.7c0-27.9-19.4-41.3-50.5-50.1c-26.8,7.8-41.3,25.4-41.3,47.3
			c-1.1,23.3,16.6,43.7,45.9,43.7C1546.5,1851.7,1564.5,1834,1564.5,1810.7z M1479.1,1696.1c0,22.9,17.3,35.3,43.7,42.3
			c19.8-6.7,34.9-20.8,34.9-41.6c0-18.3-10.9-37.4-38.8-37.4C1493.2,1659.4,1479.1,1676.3,1479.1,1696.1z"/>
		<path class="st26" d="M1614.9,1913.8c7.4-20.8,16.9-58.6,20.8-84.3l34.6-3.5c-8.1,30-23.6,69.1-33.5,85.7L1614.9,1913.8z"/>
		<path class="st26" d="M1850.2,1753.2c0,78-28.9,121-79.7,121c-44.8,0-75.1-42-75.9-117.8c0-76.9,33.2-119.2,79.7-119.2
			C1822.7,1637.2,1850.2,1680.2,1850.2,1753.2z M1725.7,1756.8c0,59.6,18.3,93.5,46.6,93.5c31.8,0,46.9-37,46.9-95.6
			c0-56.4-14.5-93.5-46.6-93.5C1745.4,1661.1,1725.7,1694.3,1725.7,1756.8z"/>
	</g>
	<g class="st18">
		<path class="st26" d="M1574.7,404.1c-6.3-0.4-14.5,0-23.3,1.4c-48.7,8.1-74.4,43.7-79.7,81.5h1.1c10.9-14.5,30-26.5,55.4-26.5
			c40.6,0,69.1,29.3,69.1,74.1c0,42-28.6,80.8-76.2,80.8c-49,0-81.1-38.1-81.1-97.7c0-45.2,16.2-80.8,38.8-103.4
			c19.1-18.7,44.5-30.3,73.4-33.9c9.2-1.4,16.9-1.8,22.6-1.8V404.1z M1521.4,591.4c26.5,0,44.5-22.2,44.5-55
			c0-32.8-18.7-52.6-47.3-52.6c-18.7,0-36,11.6-44.5,28.2c-2.1,3.5-3.5,8.1-3.5,13.8c0.7,37.7,18,65.6,50.5,65.6H1521.4z"/>
		<path class="st26" d="M1614.9,654.9c7.4-20.8,16.9-58.6,20.8-84.3l34.6-3.5c-8.1,30-23.6,69.1-33.5,85.7L1614.9,654.9z"/>
		<path class="st26" d="M1850.2,494.4c0,78-28.9,121-79.7,121c-44.8,0-75.1-42-75.9-117.8c0-76.9,33.2-119.2,79.7-119.2
			C1822.7,378.3,1850.2,421.4,1850.2,494.4z M1725.7,497.9c0,59.6,18.3,93.5,46.6,93.5c31.8,0,46.9-37,46.9-95.6
			c0-56.4-14.5-93.5-46.6-93.5C1745.4,402.3,1725.7,435.5,1725.7,497.9z"/>
	</g>
</g>
<g id="S0.02" class="st0">
	<g class="st18">
		<g>
			<path class="st26" d="M347.6,1143.7c0,71.8,55.9,99.8,119.5,99.8c41.6,0,105.1-12.1,105.1-67.3c0-58.2-80.9-68-160.3-89.2
				c-80.1-21.2-161-52.2-161-153.5c0-110.4,104.3-163.3,201.9-163.3c112.7,0,216.2,49.1,216.2,173.9H554
				c-3.8-65-49.9-81.7-106.6-81.7c-37.8,0-81.7,15.9-81.7,61.2c0,41.6,25.7,46.9,161,81.7c39.3,9.8,160.3,34.8,160.3,157.3
				c0,99-77.9,173.1-224.6,173.1c-119.5,0-231.4-59-229.8-192H347.6z"/>
			<path class="st26" d="M914.7,783.1c105.8,0,195.1,66.5,195.1,272.9c0,210.9-89.2,277.5-195.1,277.5
				c-104.3,0-193.6-66.5-193.6-277.5C721.1,849.6,810.3,783.1,914.7,783.1z M914.7,1245.1c87.7,0,87.7-129.3,87.7-189
				c0-55.2,0-184.5-87.7-184.5c-86.2,0-86.2,129.3-86.2,184.5C828.5,1115.8,828.5,1245.1,914.7,1245.1z"/>
		</g>
		<g>
			<path class="st26" d="M1340.7,1107.2c67.8,0,125,42.6,125,174.9c0,135.1-57.2,177.8-125,177.8c-66.8,0-124-42.6-124-177.8
				C1216.7,1149.8,1273.9,1107.2,1340.7,1107.2z M1340.7,1403.1c56.2,0,56.2-82.8,56.2-121.1c0-35.4,0-118.2-56.2-118.2
				c-55.2,0-55.2,82.8-55.2,118.2C1285.5,1320.3,1285.5,1403.1,1340.7,1403.1z"/>
			<path class="st26" d="M1515.1,1244.3c-2.4-77.5,41.7-137.1,123-137.1c62,0,116.2,39.7,116.2,106.1c0,50.9-27.1,79-60.5,102.7
				c-33.4,23.7-73.1,43.1-97.8,78h160.3v59.1h-249c0.5-78.5,48.4-111.9,107-151.6c30-20.3,70.7-41.2,71.2-82.8
				c0-32-21.3-52.3-50.9-52.3c-40.7,0-53.8,42.1-53.8,78H1515.1z"/>
		</g>
	</g>
	<g class="st18">
		<path class="st26" d="M1461.8,1848.5c6.7,0.7,14.5,0,25-1.1c18-2.5,34.9-9.9,48-22.2c15.2-13.8,26.1-33.9,30.3-61h-1.1
			c-12.7,15.5-31,24.7-54,24.7c-41.3,0-67.7-31-67.7-70.2c0-43.4,31.4-81.5,78.3-81.5s75.9,38.1,75.9,96.7
			c0,50.5-16.9,85.7-39.5,107.6c-17.6,17.3-42,27.9-66.7,30.7c-11.3,1.8-21.2,2.1-28.6,1.8V1848.5z M1517.9,1660.8
			c-26.1,0-44.8,23.3-44.8,55.7c0,28.6,17.3,48.7,44.1,48.7c20.8,0,37-10.2,45.2-24c1.8-2.8,2.8-6.4,2.8-11.3
			c0-39.2-14.5-69.1-46.9-69.1H1517.9z"/>
		<path class="st26" d="M1614.9,1913.8c7.4-20.8,16.9-58.6,20.8-84.3l34.6-3.5c-8.1,30-23.6,69.1-33.5,85.7L1614.9,1913.8z"/>
		<path class="st26" d="M1715.8,1848.5c6.7,0.7,14.5,0,25-1.1c18-2.5,34.9-9.9,48-22.2c15.2-13.8,26.1-33.9,30.3-61h-1.1
			c-12.7,15.5-31,24.7-54,24.7c-41.3,0-67.7-31-67.7-70.2c0-43.4,31.4-81.5,78.3-81.5s75.9,38.1,75.9,96.7
			c0,50.5-16.9,85.7-39.5,107.6c-17.6,17.3-42,27.9-66.7,30.7c-11.3,1.8-21.2,2.1-28.6,1.8V1848.5z M1771.9,1660.8
			c-26.1,0-44.8,23.3-44.8,55.7c0,28.6,17.3,48.7,44.1,48.7c20.8,0,37-10.2,45.2-24c1.8-2.8,2.8-6.4,2.8-11.3
			c0-39.2-14.5-69.1-46.9-69.1H1771.9z"/>
	</g>
	<g class="st18">
		<path class="st26" d="M1590.2,494.4c0,78-28.9,121-79.7,121c-44.8,0-75.1-42-75.9-117.8c0-76.9,33.2-119.2,79.7-119.2
			C1562.7,378.3,1590.2,421.4,1590.2,494.4z M1465.7,497.9c0,59.6,18.3,93.5,46.6,93.5c31.8,0,46.9-37,46.9-95.6
			c0-56.4-14.5-93.5-46.6-93.5C1485.4,402.3,1465.7,435.5,1465.7,497.9z"/>
		<path class="st26" d="M1608.9,654.9c7.4-20.8,16.9-58.6,20.8-84.3l34.6-3.5c-8.1,30-23.6,69.1-33.5,85.7L1608.9,654.9z"/>
		<path class="st26" d="M1844.2,494.4c0,78-28.9,121-79.7,121c-44.8,0-75.1-42-75.9-117.8c0-76.9,33.2-119.2,79.7-119.2
			C1816.7,378.3,1844.2,421.4,1844.2,494.4z M1719.7,497.9c0,59.6,18.3,93.5,46.6,93.5c31.8,0,46.9-37,46.9-95.6
			c0-56.4-14.5-93.5-46.6-93.5C1739.4,402.3,1719.7,435.5,1719.7,497.9z"/>
	</g>
</g>
<g id="W0.01" class="st0">
	<g class="st18">
		<g>
			<path class="st26" d="M752.9,1322.9H634.9l-91.5-367.5h-1.5l-90,367.5H331.7L188.8,783.1h118.7l85.4,367.5h1.5l93.8-367.5h111.1
				l92.2,372h1.5l88.5-372H898L752.9,1322.9z"/>
			<path class="st26" d="M1109.7,783.1c105.8,0,195.1,66.5,195.1,272.9c0,210.9-89.2,277.5-195.1,277.5
				c-104.3,0-193.6-66.5-193.6-277.5C916.2,849.6,1005.4,783.1,1109.7,783.1z M1109.7,1245.1c87.7,0,87.7-129.3,87.7-189
				c0-55.2,0-184.5-87.7-184.5c-86.2,0-86.2,129.3-86.2,184.5C1023.5,1115.8,1023.5,1245.1,1109.7,1245.1z"/>
		</g>
		<g>
			<path class="st26" d="M1468.7,1107.2c67.8,0,125,42.6,125,174.9c0,135.1-57.2,177.8-125,177.8c-66.8,0-124-42.6-124-177.8
				C1344.7,1149.8,1401.9,1107.2,1468.7,1107.2z M1468.7,1403.1c56.2,0,56.2-82.8,56.2-121.1c0-35.4,0-118.2-56.2-118.2
				c-55.2,0-55.2,82.8-55.2,118.2C1413.5,1320.3,1413.5,1403.1,1468.7,1403.1z"/>
			<path class="st26" d="M1815,1453h-68.8v-219.9H1661v-51.8c48,1,92-15.5,99.3-67.3h54.7V1453z"/>
		</g>
	</g>
	<g class="st18">
		<path class="st26" d="M1461.8,1848.5c6.7,0.7,14.5,0,25-1.1c18-2.5,34.9-9.9,48-22.2c15.2-13.8,26.1-33.9,30.3-61h-1.1
			c-12.7,15.5-31,24.7-54,24.7c-41.3,0-67.7-31-67.7-70.2c0-43.4,31.4-81.5,78.3-81.5s75.9,38.1,75.9,96.7
			c0,50.5-16.9,85.7-39.5,107.6c-17.6,17.3-42,27.9-66.7,30.7c-11.3,1.8-21.2,2.1-28.6,1.8V1848.5z M1517.9,1660.8
			c-26.1,0-44.8,23.3-44.8,55.7c0,28.6,17.3,48.7,44.1,48.7c20.8,0,37-10.2,45.2-24c1.8-2.8,2.8-6.4,2.8-11.3
			c0-39.2-14.5-69.1-46.9-69.1H1517.9z"/>
		<path class="st26" d="M1614.9,1913.8c7.4-20.8,16.9-58.6,20.8-84.3l34.6-3.5c-8.1,30-23.6,69.1-33.5,85.7L1614.9,1913.8z"/>
		<path class="st26" d="M1715.8,1848.5c6.7,0.7,14.5,0,25-1.1c18-2.5,34.9-9.9,48-22.2c15.2-13.8,26.1-33.9,30.3-61h-1.1
			c-12.7,15.5-31,24.7-54,24.7c-41.3,0-67.7-31-67.7-70.2c0-43.4,31.4-81.5,78.3-81.5s75.9,38.1,75.9,96.7
			c0,50.5-16.9,85.7-39.5,107.6c-17.6,17.3-42,27.9-66.7,30.7c-11.3,1.8-21.2,2.1-28.6,1.8V1848.5z M1771.9,1660.8
			c-26.1,0-44.8,23.3-44.8,55.7c0,28.6,17.3,48.7,44.1,48.7c20.8,0,37-10.2,45.2-24c1.8-2.8,2.8-6.4,2.8-11.3
			c0-39.2-14.5-69.1-46.9-69.1H1771.9z"/>
	</g>
	<g class="st18">
		<path class="st26" d="M1599.2,494.4c0,78-28.9,121-79.7,121c-44.8,0-75.1-42-75.9-117.8c0-76.9,33.2-119.2,79.7-119.2
			C1571.7,378.3,1599.2,421.4,1599.2,494.4z M1474.7,497.9c0,59.6,18.3,93.5,46.6,93.5c31.8,0,46.9-37,46.9-95.6
			c0-56.4-14.5-93.5-46.6-93.5C1494.4,402.3,1474.7,435.5,1474.7,497.9z"/>
		<path class="st26" d="M1617.9,654.9c7.4-20.8,16.9-58.6,20.8-84.3l34.6-3.5c-8.1,30-23.6,69.1-33.5,85.7L1617.9,654.9z"/>
		<path class="st26" d="M1853.2,494.4c0,78-28.9,121-79.7,121c-44.8,0-75.1-42-75.9-117.8c0-76.9,33.2-119.2,79.7-119.2
			C1825.7,378.3,1853.2,421.4,1853.2,494.4z M1728.7,497.9c0,59.6,18.3,93.5,46.6,93.5c31.8,0,46.9-37,46.9-95.6
			c0-56.4-14.5-93.5-46.6-93.5C1748.4,402.3,1728.7,435.5,1728.7,497.9z"/>
	</g>
</g>
<g id="C0.01" class="st0">
	<g class="st18">
		<g>
			<path class="st26" d="M626.6,964.6c-7.6-53.7-59-94.5-117.9-94.5C402.1,870,362,960.8,362,1055.3c0,90,40.1,180.7,146.7,180.7
				c72.6,0,113.4-49.9,122.5-121h114.9C734,1249.6,641,1335.8,508.7,1335.8c-167.1,0-265.4-124.8-265.4-280.5
				c0-160.3,98.3-285,265.4-285c118.7,0,218.5,69.6,232.9,194.3H626.6z"/>
			<path class="st26" d="M984.2,783.1c105.8,0,195.1,66.5,195.1,272.9c0,210.9-89.2,277.5-195.1,277.5
				c-104.3,0-193.6-66.5-193.6-277.5C790.7,849.6,879.9,783.1,984.2,783.1z M984.2,1245.1c87.7,0,87.7-129.3,87.7-189
				c0-55.2,0-184.5-87.7-184.5c-86.2,0-86.2,129.3-86.2,184.5C898.1,1115.8,898.1,1245.1,984.2,1245.1z"/>
		</g>
		<g>
			<path class="st26" d="M1340.7,1107.2c67.8,0,125,42.6,125,174.9c0,135.1-57.2,177.8-125,177.8c-66.8,0-124-42.6-124-177.8
				C1216.7,1149.8,1273.9,1107.2,1340.7,1107.2z M1340.7,1403.1c56.2,0,56.2-82.8,56.2-121.1c0-35.4,0-118.2-56.2-118.2
				c-55.2,0-55.2,82.8-55.2,118.2C1285.5,1320.3,1285.5,1403.1,1340.7,1403.1z"/>
			<path class="st26" d="M1687,1453h-68.8v-219.9H1533v-51.8c48,1,92-15.5,99.3-67.3h54.7V1453z"/>
		</g>
	</g>
	<g class="st18">
		<path class="st26" d="M1461.8,1848.5c6.7,0.7,14.5,0,25-1.1c18-2.5,34.9-9.9,48-22.2c15.2-13.8,26.1-33.9,30.3-61h-1.1
			c-12.7,15.5-31,24.7-54,24.7c-41.3,0-67.7-31-67.7-70.2c0-43.4,31.4-81.5,78.3-81.5s75.9,38.1,75.9,96.7
			c0,50.5-16.9,85.7-39.5,107.6c-17.6,17.3-42,27.9-66.7,30.7c-11.3,1.8-21.2,2.1-28.6,1.8V1848.5z M1517.9,1660.8
			c-26.1,0-44.8,23.3-44.8,55.7c0,28.6,17.3,48.7,44.1,48.7c20.8,0,37-10.2,45.2-24c1.8-2.8,2.8-6.4,2.8-11.3
			c0-39.2-14.5-69.1-46.9-69.1H1517.9z"/>
		<path class="st26" d="M1614.9,1913.8c7.4-20.8,16.9-58.6,20.8-84.3l34.6-3.5c-8.1,30-23.6,69.1-33.5,85.7L1614.9,1913.8z"/>
		<path class="st26" d="M1715.8,1848.5c6.7,0.7,14.5,0,25-1.1c18-2.5,34.9-9.9,48-22.2c15.2-13.8,26.1-33.9,30.3-61h-1.1
			c-12.7,15.5-31,24.7-54,24.7c-41.3,0-67.7-31-67.7-70.2c0-43.4,31.4-81.5,78.3-81.5s75.9,38.1,75.9,96.7
			c0,50.5-16.9,85.7-39.5,107.6c-17.6,17.3-42,27.9-66.7,30.7c-11.3,1.8-21.2,2.1-28.6,1.8V1848.5z M1771.9,1660.8
			c-26.1,0-44.8,23.3-44.8,55.7c0,28.6,17.3,48.7,44.1,48.7c20.8,0,37-10.2,45.2-24c1.8-2.8,2.8-6.4,2.8-11.3
			c0-39.2-14.5-69.1-46.9-69.1H1771.9z"/>
	</g>
	<g class="st18">
		<path class="st26" d="M1594.2,494.4c0,78-28.9,121-79.7,121c-44.8,0-75.1-42-75.9-117.8c0-76.9,33.2-119.2,79.7-119.2
			C1566.7,378.3,1594.2,421.4,1594.2,494.4z M1469.7,497.9c0,59.6,18.3,93.5,46.6,93.5c31.8,0,46.9-37,46.9-95.6
			c0-56.4-14.5-93.5-46.6-93.5C1489.4,402.3,1469.7,435.5,1469.7,497.9z"/>
		<path class="st26" d="M1612.9,654.9c7.4-20.8,16.9-58.6,20.8-84.3l34.6-3.5c-8.1,30-23.6,69.1-33.5,85.7L1612.9,654.9z"/>
		<path class="st26" d="M1848.2,494.4c0,78-28.9,121-79.7,121c-44.8,0-75.1-42-75.9-117.8c0-76.9,33.2-119.2,79.7-119.2
			C1820.7,378.3,1848.2,421.4,1848.2,494.4z M1723.7,497.9c0,59.6,18.3,93.5,46.6,93.5c31.8,0,46.9-37,46.9-95.6
			c0-56.4-14.5-93.5-46.6-93.5C1743.5,402.3,1723.7,435.5,1723.7,497.9z"/>
	</g>
</g>
<g id="Qf" class="st0">
	<g class="st18">
		<g>
			<path class="st26" d="M1084.8,1373.6l-76.4-69.6c-35.5,20.4-80.1,31.8-130.8,31.8c-167.1,0-265.4-124.8-265.4-280.5
				c0-160.3,98.3-285,265.4-285c167.1,0,265.4,124.8,265.4,285c0,77.9-25,147.4-70.3,198.8l67.3,61.2L1084.8,1373.6z M929.8,1123.3
				l61.2,55.9c19.7-27.2,33.3-68,33.3-124c0-94.5-40.1-185.2-146.7-185.2C771.1,870,731,960.8,731,1055.3
				c0,90,40.1,180.7,146.7,180.7c17.4,0,39.3,0,47.6-7.6l-50.7-46.1L929.8,1123.3z"/>
			<path class="st26" d="M1236.1,1003.9h-64.3V932h64.3v-30.2c0-68.8,43.1-118.7,130.8-118.7c18.9,0,38.6,2.3,56.7,3v80.1
				c-12.9-1.5-25.7-2.3-39.3-2.3c-28.7,0-40.8,12.1-40.8,44.6V932h74.1v71.8h-74.1v319.1h-107.4V1003.9z"/>
		</g>
	</g>
</g>
<g id="Qs" class="st0">
	<g class="st18">
		<g>
			<path class="st26" d="M1031.8,1373.6l-76.4-69.6c-35.5,20.4-80.1,31.8-130.8,31.8c-167.1,0-265.4-124.8-265.4-280.5
				c0-160.3,98.3-285,265.4-285s265.4,124.8,265.4,285c0,77.9-25,147.4-70.3,198.8l67.3,61.2L1031.8,1373.6z M876.8,1123.3
				l61.2,55.9c19.7-27.2,33.3-68,33.3-124c0-94.5-40.1-185.2-146.7-185.2C718.1,870,678,960.8,678,1055.3
				c0,90,40.1,180.7,146.7,180.7c17.4,0,39.3,0,47.6-7.6l-50.7-46.1L876.8,1123.3z"/>
			<path class="st26" d="M1242.8,1195.9c0.8,46.9,40.1,65.8,82.4,65.8c31,0,70.3-12.1,70.3-49.9c0-32.5-44.6-43.9-121.7-60.5
				c-62-13.6-124-35.5-124-104.3c0-99.8,86.2-125.5,170.1-125.5c85.4,0,164.1,28.7,172.4,124.8h-102.1c-3-41.6-34.8-52.9-73.3-52.9
				c-24.2,0-59.7,4.5-59.7,36.3c0,38.6,60.5,43.9,121.7,58.2c62.8,14.4,124,37,124,109.6c0,102.8-89.2,136.1-178.4,136.1
				c-90.7,0-179.2-34-183.7-137.6H1242.8z"/>
		</g>
	</g>
</g>
<g id="Wf" class="st0">
	<g class="st18">
		<g>
			<path class="st26" d="M1096.9,1322.9H978.9l-91.5-367.5h-1.5l-90,367.5H675.7L532.8,783.1h118.7l85.4,367.5h1.5l93.8-367.5h111.1
				l92.2,372h1.5l88.5-372H1242L1096.9,1322.9z"/>
			<path class="st26" d="M1308.6,1003.9h-64.3V932h64.3v-30.2c0-68.8,43.1-118.7,130.8-118.7c18.9,0,38.6,2.3,56.7,3v80.1
				c-12.9-1.5-25.7-2.3-39.3-2.3c-28.7,0-40.8,12.1-40.8,44.6V932h74.1v71.8h-74.1v319.1h-107.4V1003.9z"/>
		</g>
	</g>
</g>
<g id="Fse" class="st0">
	<g class="st18">
		<g>
			<path class="st26" d="M420.7,783.1h379.5v99.8H539.4v124.8h226.1v92.2H539.4v223H420.7V783.1z"/>
			<path class="st26" d="M940.9,1195.9c0.8,46.9,40.1,65.8,82.4,65.8c31,0,70.3-12.1,70.3-49.9c0-32.5-44.6-43.9-121.7-60.5
				c-62-13.6-124-35.5-124-104.3c0-99.8,86.2-125.5,170.1-125.5c85.4,0,164.1,28.7,172.4,124.8h-102.1c-3-41.6-34.8-52.9-73.3-52.9
				c-24.2,0-59.7,4.5-59.7,36.3c0,38.6,60.5,43.9,121.7,58.2c62.8,14.4,124,37,124,109.6c0,102.8-89.2,136.1-178.4,136.1
				c-90.7,0-179.2-34-183.7-137.6H940.9z"/>
			<path class="st26" d="M1352.2,1153.6c3,68,36.3,99,96,99c43.1,0,77.9-26.5,84.7-50.7h94.5c-30.2,92.2-94.5,131.6-183,131.6
				c-123.2,0-199.6-84.7-199.6-205.7c0-117.2,80.9-206.4,199.6-206.4c133.1,0,197.3,111.9,189.8,232.1H1352.2z M1526.8,1085.5
				c-9.8-54.4-33.3-83.2-85.4-83.2c-68,0-87.7,52.9-89.2,83.2H1526.8z"/>
		</g>
	</g>
</g>
<g id="S0.01" class="st0">
	<g class="st18">
		<g>
			<path class="st26" d="M347.6,1143.7c0,71.8,55.9,99.8,119.5,99.8c41.6,0,105.1-12.1,105.1-67.3c0-58.2-80.9-68-160.3-89.2
				c-80.1-21.2-161-52.2-161-153.5c0-110.4,104.3-163.3,201.9-163.3c112.7,0,216.2,49.1,216.2,173.9H554
				c-3.8-65-49.9-81.7-106.6-81.7c-37.8,0-81.7,15.9-81.7,61.2c0,41.6,25.7,46.9,161,81.7c39.3,9.8,160.3,34.8,160.3,157.3
				c0,99-77.9,173.1-224.6,173.1c-119.5,0-231.4-59-229.8-192H347.6z"/>
			<path class="st26" d="M914.7,783.1c105.8,0,195.1,66.5,195.1,272.9c0,210.9-89.2,277.5-195.1,277.5
				c-104.3,0-193.6-66.5-193.6-277.5C721.1,849.6,810.3,783.1,914.7,783.1z M914.7,1245.1c87.7,0,87.7-129.3,87.7-189
				c0-55.2,0-184.5-87.7-184.5c-86.2,0-86.2,129.3-86.2,184.5C828.5,1115.8,828.5,1245.1,914.7,1245.1z"/>
		</g>
		<g>
			<path class="st26" d="M1340.7,1107.2c67.8,0,125,42.6,125,174.9c0,135.1-57.2,177.8-125,177.8c-66.8,0-124-42.6-124-177.8
				C1216.7,1149.8,1273.9,1107.2,1340.7,1107.2z M1340.7,1403.1c56.2,0,56.2-82.8,56.2-121.1c0-35.4,0-118.2-56.2-118.2
				c-55.2,0-55.2,82.8-55.2,118.2C1285.5,1320.3,1285.5,1403.1,1340.7,1403.1z"/>
			<path class="st26" d="M1687,1453h-68.8v-219.9H1533v-51.8c48,1,92-15.5,99.3-67.3h54.7V1453z"/>
		</g>
	</g>
	<g class="st18">
		<path class="st26" d="M1461.8,1848.5c6.7,0.7,14.5,0,25-1.1c18-2.5,34.9-9.9,48-22.2c15.2-13.8,26.1-33.9,30.3-61h-1.1
			c-12.7,15.5-31,24.7-54,24.7c-41.3,0-67.7-31-67.7-70.2c0-43.4,31.4-81.5,78.3-81.5s75.9,38.1,75.9,96.7
			c0,50.5-16.9,85.7-39.5,107.6c-17.6,17.3-42,27.9-66.7,30.7c-11.3,1.8-21.2,2.1-28.6,1.8V1848.5z M1517.9,1660.8
			c-26.1,0-44.8,23.3-44.8,55.7c0,28.6,17.3,48.7,44.1,48.7c20.8,0,37-10.2,45.2-24c1.8-2.8,2.8-6.4,2.8-11.3
			c0-39.2-14.5-69.1-46.9-69.1H1517.9z"/>
		<path class="st26" d="M1614.9,1913.8c7.4-20.8,16.9-58.6,20.8-84.3l34.6-3.5c-8.1,30-23.6,69.1-33.5,85.7L1614.9,1913.8z"/>
		<path class="st26" d="M1697.8,1870.4v-19.1l24.3-23.6c58.6-55.7,85-85.4,85.4-120c0-23.3-11.3-44.8-45.5-44.8
			c-20.8,0-38.1,10.6-48.7,19.4l-9.9-21.9c15.9-13.4,38.5-23.3,64.9-23.3c49.4,0,70.2,33.9,70.2,66.7c0,42.3-30.7,76.6-79,123.1
			l-18.3,16.9v0.7h103v25.8H1697.8z"/>
	</g>
	<g class="st18">
		<path class="st26" d="M1596.2,494.4c0,78-28.9,121-79.7,121c-44.8,0-75.1-42-75.9-117.8c0-76.9,33.2-119.2,79.7-119.2
			C1568.7,378.3,1596.2,421.4,1596.2,494.4z M1471.7,497.9c0,59.6,18.3,93.5,46.6,93.5c31.8,0,46.9-37,46.9-95.6
			c0-56.4-14.5-93.5-46.6-93.5C1491.4,402.3,1471.7,435.5,1471.7,497.9z"/>
		<path class="st26" d="M1614.9,654.9c7.4-20.8,16.9-58.6,20.8-84.3l34.6-3.5c-8.1,30-23.6,69.1-33.5,85.7L1614.9,654.9z"/>
		<path class="st26" d="M1850.2,494.4c0,78-28.9,121-79.7,121c-44.8,0-75.1-42-75.9-117.8c0-76.9,33.2-119.2,79.7-119.2
			C1822.7,378.3,1850.2,421.4,1850.2,494.4z M1725.7,497.9c0,59.6,18.3,93.5,46.6,93.5c31.8,0,46.9-37,46.9-95.6
			c0-56.4-14.5-93.5-46.6-93.5C1745.4,402.3,1725.7,435.5,1725.7,497.9z"/>
	</g>
</g>
<g id="_x31_K" class="st0">
	<g class="st18">
		<g>
			<path class="st26" d="M809.9,1322.9H702.6V979.7H569.5v-80.9c74.9,1.5,143.7-24.2,155-105.1h85.4V1322.9z"/>
			<path class="st26" d="M986.1,783.1h118.7v223.8l210.9-223.8h148.2L1253,996.3l231.4,326.6h-148.9l-162.6-242.7l-68,68.8v173.9
				H986.1V783.1z"/>
		</g>
	</g>
	<g class="st18">
		<path class="st26" d="M1461.8,1848.5c6.7,0.7,14.5,0,25-1.1c18-2.5,34.9-9.9,48-22.2c15.2-13.8,26.1-33.9,30.3-61h-1.1
			c-12.7,15.5-31,24.7-54,24.7c-41.3,0-67.7-31-67.7-70.2c0-43.4,31.4-81.5,78.3-81.5s75.9,38.1,75.9,96.7
			c0,50.5-16.9,85.7-39.5,107.6c-17.6,17.3-42,27.9-66.7,30.7c-11.3,1.8-21.2,2.1-28.6,1.8V1848.5z M1517.9,1660.8
			c-26.1,0-44.8,23.3-44.8,55.7c0,28.6,17.3,48.7,44.1,48.7c20.8,0,37-10.2,45.2-24c1.8-2.8,2.8-6.4,2.8-11.3
			c0-39.2-14.5-69.1-46.9-69.1H1517.9z"/>
		<path class="st26" d="M1614.9,1913.8c7.4-20.8,16.9-58.6,20.8-84.3l34.6-3.5c-8.1,30-23.6,69.1-33.5,85.7L1614.9,1913.8z"/>
		<path class="st26" d="M1715.8,1848.5c6.7,0.7,14.5,0,25-1.1c18-2.5,34.9-9.9,48-22.2c15.2-13.8,26.1-33.9,30.3-61h-1.1
			c-12.7,15.5-31,24.7-54,24.7c-41.3,0-67.7-31-67.7-70.2c0-43.4,31.4-81.5,78.3-81.5s75.9,38.1,75.9,96.7
			c0,50.5-16.9,85.7-39.5,107.6c-17.6,17.3-42,27.9-66.7,30.7c-11.3,1.8-21.2,2.1-28.6,1.8V1848.5z M1771.9,1660.8
			c-26.1,0-44.8,23.3-44.8,55.7c0,28.6,17.3,48.7,44.1,48.7c20.8,0,37-10.2,45.2-24c1.8-2.8,2.8-6.4,2.8-11.3
			c0-39.2-14.5-69.1-46.9-69.1H1771.9z"/>
	</g>
	<g class="st18">
		<path class="st26" d="M1596.2,494.4c0,78-28.9,121-79.7,121c-44.8,0-75.1-42-75.9-117.8c0-76.9,33.2-119.2,79.7-119.2
			C1568.7,378.3,1596.2,421.4,1596.2,494.4z M1471.7,497.9c0,59.6,18.3,93.5,46.6,93.5c31.8,0,46.9-37,46.9-95.6
			c0-56.4-14.5-93.5-46.6-93.5C1491.4,402.3,1471.7,435.5,1471.7,497.9z"/>
		<path class="st26" d="M1614.9,654.9c7.4-20.8,16.9-58.6,20.8-84.3l34.6-3.5c-8.1,30-23.6,69.1-33.5,85.7L1614.9,654.9z"/>
		<path class="st26" d="M1850.2,494.4c0,78-28.9,121-79.7,121c-44.8,0-75.1-42-75.9-117.8c0-76.9,33.2-119.2,79.7-119.2
			C1822.7,378.3,1850.2,421.4,1850.2,494.4z M1725.7,497.9c0,59.6,18.3,93.5,46.6,93.5c31.8,0,46.9-37,46.9-95.6
			c0-56.4-14.5-93.5-46.6-93.5C1745.4,402.3,1725.7,435.5,1725.7,497.9z"/>
	</g>
</g>
<g id="M3.02" class="st0">
	<g class="st18">
		<text id="H9_4_" transform="matrix(1 0 0 1 132.5637 1322.9348)" class="st26 st14 st15">M3</text>
		<text id="_x30_1_1_" transform="matrix(1 0 0 1 1269.5645 1453.0156)" class="st26 st14 st27 st28">02</text>
	</g>
	<text transform="matrix(1 0 0 1 1427.9297 1870.3574)" class="st29 st16 st30">9,</text>
	<text transform="matrix(1 0 0 1 1427.9297 611.5151)" class="st29 st16 st30">3,2</text>
</g>
<g id="M2.01" class="st0">
	<g class="st18">
		<g>
			<path class="st26" d="M184.7,783.1h167.1l126.3,371.2h1.5l119.5-371.2h167.1v539.8H655V940.4h-1.5l-132.3,382.6h-91.5
				L297.4,944.1h-1.5v378.8H184.7V783.1z"/>
			<path class="st26" d="M846.3,997.1c-3.8-121,65-214,192-214c96.8,0,181.5,62,181.5,165.6c0,79.4-42.3,123.2-94.5,160.3
				s-114.2,67.3-152.7,121.7h250.3v92.2H834.2c0.8-122.5,75.6-174.7,167.1-236.7c46.9-31.8,110.4-64.3,111.1-129.3
				c0-49.9-33.3-81.7-79.4-81.7c-63.5,0-83.9,65.8-83.9,121.7H846.3z"/>
		</g>
		<g>
			<path class="st26" d="M1403.7,1107.2c67.8,0,125,42.6,125,174.9c0,135.1-57.2,177.8-125,177.8c-66.8,0-124-42.6-124-177.8
				C1279.7,1149.8,1336.9,1107.2,1403.7,1107.2z M1403.7,1403.1c56.2,0,56.2-82.8,56.2-121.1c0-35.4,0-118.2-56.2-118.2
				c-55.2,0-55.2,82.8-55.2,118.2C1348.5,1320.3,1348.5,1403.1,1403.7,1403.1z"/>
			<path class="st26" d="M1750,1453h-68.8v-219.9H1596v-51.8c48,1,92-15.5,99.3-67.3h54.7V1453z"/>
		</g>
	</g>
	<g class="st18">
		<path class="st26" d="M1461.8,1848.5c6.7,0.7,14.5,0,25-1.1c18-2.5,34.9-9.9,48-22.2c15.2-13.8,26.1-33.9,30.3-61h-1.1
			c-12.7,15.5-31,24.7-54,24.7c-41.3,0-67.7-31-67.7-70.2c0-43.4,31.4-81.5,78.3-81.5s75.9,38.1,75.9,96.7
			c0,50.5-16.9,85.7-39.5,107.6c-17.6,17.3-42,27.9-66.7,30.7c-11.3,1.8-21.2,2.1-28.6,1.8V1848.5z M1517.9,1660.8
			c-26.1,0-44.8,23.3-44.8,55.7c0,28.6,17.3,48.7,44.1,48.7c20.8,0,37-10.2,45.2-24c1.8-2.8,2.8-6.4,2.8-11.3
			c0-39.2-14.5-69.1-46.9-69.1H1517.9z"/>
		<path class="st26" d="M1614.9,1913.8c7.4-20.8,16.9-58.6,20.8-84.3l34.6-3.5c-8.1,30-23.6,69.1-33.5,85.7L1614.9,1913.8z"/>
		<path class="st26" d="M1850.2,1753.2c0,78-28.9,121-79.7,121c-44.8,0-75.1-42-75.9-117.8c0-76.9,33.2-119.2,79.7-119.2
			C1822.7,1637.2,1850.2,1680.2,1850.2,1753.2z M1725.7,1756.8c0,59.6,18.3,93.5,46.6,93.5c31.8,0,46.9-37,46.9-95.6
			c0-56.4-14.5-93.5-46.6-93.5C1745.4,1661.1,1725.7,1694.3,1725.7,1756.8z"/>
	</g>
	<g class="st18">
		<path class="st26" d="M1443.8,611.5v-19.1l24.3-23.6c58.6-55.7,85-85.4,85.4-120c0-23.3-11.3-44.8-45.5-44.8
			c-20.8,0-38.1,10.6-48.7,19.4l-9.9-21.9c15.9-13.4,38.5-23.3,64.9-23.3c49.4,0,70.2,33.9,70.2,66.7c0,42.3-30.7,76.6-79,123.1
			l-18.3,16.9v0.7h103v25.8H1443.8z"/>
		<path class="st26" d="M1614.9,654.9c7.4-20.8,16.9-58.6,20.8-84.3l34.6-3.5c-8.1,30-23.6,69.1-33.5,85.7L1614.9,654.9z"/>
		<path class="st26" d="M1834.7,408.3h-87.5l-8.8,58.9c5.3-0.7,10.2-1.4,18.7-1.4c17.6,0,35.3,3.9,49.4,12.3
			c18,10.2,32.8,30,32.8,58.9c0,44.8-35.6,78.3-85.4,78.3c-25,0-46.2-7.1-57.2-14.1l7.8-23.6c9.5,5.6,28.2,12.7,49,12.7
			c29.3,0,54.3-19.1,54.3-49.7c-0.4-29.6-20.1-50.8-66-50.8c-13.1,0-23.3,1.4-31.8,2.5l14.8-110.1h109.7V408.3z"/>
	</g>
</g>
</svg>
