<svg id="Ebene_1" data-name="Ebene 1" xmlns="http://www.w3.org/2000/svg" viewBox="0 0 39.68 39.68"><defs><style>.cls-1{fill:#ffcb00;}.cls-2{fill:#1d1d1b;}</style></defs><rect class="cls-1" width="39.68" height="39.68"/><path class="cls-2" d="M25.32,27.36c2.09,0,3.44-.94,3.44-2.57,0-1.2-.72-1.91-2.26-2.22l-1.67-.35c-.56-.12-.87-.38-.87-.78s.45-.83,1.15-.83a1.35,1.35,0,0,1,1.48,1.08l1.9-.07c-.2-1.51-1.47-2.47-3.35-2.47S22,20.14,22,21.69c0,1.19.73,2,2.24,2.27l1.53.3c.71.14,1,.36,1,.78,0,.59-.61.86-1.4.86-1,0-1.53-.44-1.65-1.2l-1.93.07c.19,1.65,1.39,2.59,3.5,2.59M14.45,23l.43-1.32.92-3.07.9,3.07L17.13,23Zm4,4h2.37L17.12,16.4H14.55L10.77,27.08h2.36l.72-2.22h3.87Z"/><path class="cls-2" d="M34.77,8c.64,0,.93.6.93,1.38a.34.34,0,0,1-.06.22,1,1,0,0,1-.89.48.88.88,0,0,1-.88-1c0-.64.37-1.11.9-1.11M33.65,12.2a2.91,2.91,0,0,0,.56,0,2.34,2.34,0,0,0,1.33-.61,2.89,2.89,0,0,0,.78-2.14c0-1.16-.57-1.91-1.5-1.91a1.56,1.56,0,0,0-1.56,1.61,1.33,1.33,0,0,0,1.35,1.4A1.36,1.36,0,0,0,35.68,10h0a2,2,0,0,1-.6,1.21,1.77,1.77,0,0,1-1,.44,3,3,0,0,1-.49,0ZM27.46,7.42v4.71h.61V9.92h2.28v2.21H31V7.42h-.62v2H28.07v-2Zm-3.4,2.75a1.11,1.11,0,0,1,.05-.25A1,1,0,0,1,25,9.16c.65,0,1,.58,1,1.26s-.38,1.31-1,1.31a1,1,0,0,1-.93-.72,1.86,1.86,0,0,1,0-.26Zm-.6,3.35h.6V11.68h0a1.19,1.19,0,0,0,1,.53,1.6,1.6,0,0,0,1.54-1.82,1.53,1.53,0,0,0-1.43-1.72A1.32,1.32,0,0,0,24,9.33h0l0-.58h-.55c0,.32,0,.67,0,1.1Z"/></svg>