<svg id="Ebene_1" data-name="Ebene 1" xmlns="http://www.w3.org/2000/svg" viewBox="0 0 39.68 39.68"><defs><style>.cls-1{fill:#009fda;}.cls-2{fill:#1d1d1b;}</style></defs><rect class="cls-1" width="39.68" height="39.68"/><path class="cls-2" d="M29.39,27.33A3.35,3.35,0,0,0,33,24.41H30.9a1.49,1.49,0,0,1-1.48,1.28c-1.08,0-1.71-.87-1.71-2.45s.63-2.45,1.71-2.45A1.45,1.45,0,0,1,30.9,22H33a3.32,3.32,0,0,0-3.58-2.89c-2.3,0-3.72,1.6-3.72,4.09s1.42,4.09,3.72,4.09m-8.18,0c2.09,0,3.44-.94,3.44-2.58,0-1.2-.72-1.9-2.26-2.22l-1.67-.34c-.56-.12-.87-.38-.87-.78s.45-.83,1.15-.83a1.35,1.35,0,0,1,1.48,1.08l1.9-.07c-.2-1.52-1.47-2.47-3.35-2.47s-3.14,1-3.14,2.54c0,1.19.73,2,2.24,2.27l1.53.3c.71.13,1,.36,1,.78,0,.59-.61.86-1.4.86-1,0-1.53-.44-1.65-1.21l-1.93.08c.19,1.65,1.39,2.59,3.5,2.59M10.34,23l.43-1.32.92-3.07.9,3.07L13,23Zm4,4H16.7L13,16.4H10.44L6.66,27.08H9l.72-2.22h3.87Z"/></svg>