<svg id="Ebene_1" data-name="Ebene 1" xmlns="http://www.w3.org/2000/svg" viewBox="0 0 39.68 39.69"><defs><style>.cls-1{fill:#ffcb00;}.cls-2{fill:#1d1d1b;}</style></defs><rect class="cls-1" width="39.68" height="39.69"/><path class="cls-2" d="M28.39,19.34l-.85,3.44-.36,1.95-.36-2L26,19.34H24.07l-.87,3.44-.36,1.95-.36-1.95-.85-3.44H19.41l2.29,7.74h2l1.11-4.3.2-1,.18,1,1.11,4.3h2l2.29-7.74ZM12.9,23l.43-1.32.92-3.07.9,3.07L15.58,23Zm4,4h2.37L15.57,16.4H13L9.22,27.08h2.36l.72-2.22h3.87Z"/><path class="cls-2" d="M34.81,8a.7.7,0,0,1,.77.74.89.89,0,0,1-.69.82c-.53-.14-.87-.38-.87-.84A.72.72,0,0,1,34.81,8m0,3.81a.84.84,0,0,1-.91-.87,1,1,0,0,1,.82-.93c.62.17,1,.44,1,1a.82.82,0,0,1-.91.81m0,.45a1.4,1.4,0,0,0,1.55-1.32,1.26,1.26,0,0,0-.92-1.18v0a1.16,1.16,0,0,0,.75-1.06,1.18,1.18,0,0,0-1.33-1.12,1.27,1.27,0,0,0-1.4,1.21,1.12,1.12,0,0,0,.72,1v0A1.31,1.31,0,0,0,33.26,11c0,.66.58,1.23,1.53,1.23m-7.3-4.79v4.71h.61V9.92h2.28v2.21H31V7.42h-.61v2H28.1v-2Zm-3.4,2.75a1.09,1.09,0,0,1,0-.25,1,1,0,0,1,.94-.76c.65,0,1,.58,1,1.26s-.37,1.31-1,1.31a1,1,0,0,1-.93-.72,1.86,1.86,0,0,1,0-.26Zm-.61,3.35h.61V11.68h0a1.19,1.19,0,0,0,1,.53,1.6,1.6,0,0,0,1.54-1.82,1.53,1.53,0,0,0-1.43-1.72,1.32,1.32,0,0,0-1.21.66h0l0-.58h-.55c0,.32,0,.67,0,1.1Z"/></svg>