<svg id="Ebene_1" data-name="Ebene 1" xmlns="http://www.w3.org/2000/svg" viewBox="0 0 39.69 39.68"><defs><style>.cls-1{fill:#f40034;}.cls-2{fill:#1d1d1b;}</style></defs><rect class="cls-1" width="39.69" height="39.68"/><path class="cls-2" d="M31.74,19.12a2.42,2.42,0,0,0-2.22,1.23v-4H27.4V27.05h2.12V22.91c0-1.15.61-1.89,1.51-1.89.75,0,1.13.51,1.13,1.32v4.71h2.11V21.86a2.44,2.44,0,0,0-2.53-2.74m-7.68.19-.86,3.44-.36,1.95-.36-2-.87-3.41H19.74l-.87,3.44-.36,1.95-.36-1.95-.86-3.44H15.07l2.3,7.74h2l1.11-4.3.19-1,.18,1L22,27.05h2l2.3-7.74ZM8.56,23,9,21.68l.91-3.07.9,3.07L11.25,23Zm4,4.05h2.37L11.23,16.37H8.67L4.89,27.05H7.24L8,24.83h3.87Z"/><path class="cls-2" d="M33.77,10.38h0l1.12-1.55.38-.67h0c0,.24,0,.47,0,.71v1.52Zm2.08,1.72V10.86h.63v-.48h-.63V7.55h-.67l-2,2.91v.4h2.12V12.1Zm-4,0h.59V7.55H32l-1,.54.12.46.79-.42h0ZM25.31,7.39V12.1h.6V9.89H28.2V12.1h.61V7.39H28.2v2H25.91v-2Zm-3.4,2.75a1.09,1.09,0,0,1,0-.25,1,1,0,0,1,.93-.76c.65,0,1,.58,1,1.26s-.38,1.31-1,1.31a1,1,0,0,1-.92-.72,1,1,0,0,1,0-.25Zm-.61,3.35h.61V11.65h0a1.22,1.22,0,0,0,1,.53,1.6,1.6,0,0,0,1.54-1.82,1.54,1.54,0,0,0-1.44-1.72,1.31,1.31,0,0,0-1.2.66h0l0-.58h-.56c0,.32,0,.67,0,1.1Z"/></svg>