<svg id="Ebene_1" data-name="Ebene 1" xmlns="http://www.w3.org/2000/svg" viewBox="0 0 39.68 39.68"><defs><style>.cls-1{fill:#009fda;}.cls-2{fill:#1d1d1b;}</style></defs><rect class="cls-1" width="39.68" height="39.68"/><path class="cls-2" d="M25,27.36c2.08,0,3.43-.94,3.43-2.57,0-1.2-.72-1.91-2.26-2.22l-1.67-.35c-.55-.12-.87-.38-.87-.78s.45-.83,1.16-.83a1.34,1.34,0,0,1,1.47,1.08l1.9-.07c-.19-1.51-1.46-2.47-3.34-2.47s-3.15,1-3.15,2.54c0,1.19.73,2,2.25,2.27l1.53.3c.71.14,1,.36,1,.78,0,.59-.6.86-1.4.86-1,0-1.53-.44-1.65-1.2l-1.93.07c.2,1.65,1.39,2.59,3.51,2.59m-8.72-2.15H13.91V22.32H16.4c1,0,1.61.51,1.61,1.42s-.53,1.47-1.72,1.47m0-7c1,0,1.42.46,1.42,1.14s-.42,1.19-1.51,1.19H13.91V18.2Zm1.85,3.08A2.23,2.23,0,0,0,19.85,19c0-1.63-1.26-2.61-3.2-2.61h-5V27.08h5c2.33,0,3.5-1.44,3.5-3.13a2.56,2.56,0,0,0-2.07-2.67"/></svg>