<svg xmlns="http://www.w3.org/2000/svg" viewBox="0 0 2000.2 2000.15"><defs><style>.cls-1{fill:#adafaf;}.cls-2{fill:#fff;}</style></defs><g id="Farbcode"><rect width="2000.15" height="2000.15"/><rect class="cls-1" width="2000.2" height="214.3"/></g><g id="C0.02"><path class="cls-2" d="M626.62,964.56c-7.56-53.68-59-94.51-117.94-94.51C402.07,870.05,362,960.78,362,1055.29c0,90,40.07,180.7,146.68,180.7,72.58,0,113.41-49.91,122.48-121H746.08C734,1249.6,641,1335.79,508.68,1335.79c-167.1,0-265.39-124.75-265.39-280.5,0-160.29,98.29-285,265.39-285,118.7,0,218.5,69.55,232.87,194.31Z" transform="translate(0.2 -0.14)"/><path class="cls-2" d="M984.24,783.1c105.85,0,195.07,66.53,195.07,272.94,0,211-89.22,277.48-195.07,277.48-104.33,0-193.55-66.53-193.55-277.48C790.69,849.63,879.91,783.1,984.24,783.1Zm0,462c87.71,0,87.71-129.29,87.71-189,0-55.19,0-184.48-87.71-184.48-86.19,0-86.19,129.29-86.19,184.48C898.05,1115.77,898.05,1245.06,984.24,1245.06Z" transform="translate(0.2 -0.14)"/><path class="cls-2" d="M1340.73,1107.18c67.81,0,125,42.63,125,174.86,0,135.13-57.16,177.76-125,177.76-66.84,0-124-42.63-124-177.76C1216.74,1149.81,1273.89,1107.18,1340.73,1107.18Zm0,296c56.19,0,56.19-82.83,56.19-121.09,0-35.36,0-118.19-56.19-118.19-55.22,0-55.22,82.83-55.22,118.19C1285.51,1320.3,1285.51,1403.13,1340.73,1403.13Z" transform="translate(0.2 -0.14)"/><path class="cls-2" d="M1515.1,1244.26c-2.42-77.5,41.65-137.08,123-137.08,62,0,116.24,39.72,116.24,106.08,0,50.86-27.12,79-60.54,102.68s-73.14,43.11-97.84,78h160.32V1453h-249c.48-78.47,48.44-111.89,107-151.61,30-20.34,70.72-41.17,71.2-82.82,0-32-21.31-52.32-50.85-52.32-40.69,0-53.77,42.14-53.77,78Z" transform="translate(0.2 -0.14)"/><path class="cls-2" d="M1461.8,1848.48c6.7.71,14.46,0,25-1,18-2.47,34.92-9.88,48-22.23,15.17-13.76,26.1-33.87,30.34-61h-1.06c-12.7,15.52-31,24.69-54,24.69-41.28,0-67.74-31-67.74-70.21,0-43.39,31.4-81.49,78.33-81.49s75.85,38.1,75.85,96.66c0,50.45-16.94,85.73-39.52,107.61-17.64,17.28-42,27.87-66.67,30.69a144.44,144.44,0,0,1-28.58,1.77Zm56.09-187.69c-26.1,0-44.8,23.29-44.8,55.75,0,28.57,17.29,48.68,44.1,48.68,20.81,0,37-10.23,45.16-24,1.76-2.82,2.82-6.35,2.82-11.29,0-39.16-14.47-69.15-46.92-69.15Z" transform="translate(0.2 -0.14)"/><path class="cls-2" d="M1614.91,1913.75c7.41-20.81,16.93-58.56,20.82-84.32l34.57-3.52c-8.11,30-23.64,69.14-33.52,85.72Z" transform="translate(0.2 -0.14)"/><path class="cls-2" d="M1715.81,1848.48c6.7.71,14.46,0,25-1,18-2.47,34.92-9.88,48-22.23,15.17-13.76,26.1-33.87,30.34-61h-1.06c-12.7,15.52-31,24.69-54,24.69-41.28,0-67.74-31-67.74-70.21,0-43.39,31.4-81.49,78.32-81.49s75.86,38.1,75.86,96.66c0,50.45-16.94,85.73-39.52,107.61-17.64,17.28-42,27.87-66.68,30.69a144.35,144.35,0,0,1-28.57,1.77Zm56.09-187.69c-26.11,0-44.8,23.29-44.8,55.75,0,28.57,17.28,48.68,44.1,48.68,20.81,0,37-10.23,45.15-24,1.77-2.82,2.83-6.35,2.83-11.29,0-39.16-14.47-69.15-46.93-69.15Z" transform="translate(0.2 -0.14)"/><path class="cls-2" d="M1596.21,494.39c0,78-28.92,121-79.73,121-44.8,0-75.14-42-75.85-117.84,0-76.91,33.16-119.24,79.73-119.24C1568.7,378.32,1596.21,421.36,1596.21,494.39Zm-124.53,3.52c0,59.63,18.34,93.5,46.57,93.5,31.75,0,46.92-37,46.92-95.61,0-56.45-14.47-93.49-46.57-93.49C1491.43,402.31,1471.68,435.47,1471.68,497.91Z" transform="translate(0.2 -0.14)"/><path class="cls-2" d="M1614.91,654.91c7.41-20.82,16.93-58.57,20.82-84.32l34.57-3.53c-8.11,30-23.64,69.15-33.52,85.73Z" transform="translate(0.2 -0.14)"/><path class="cls-2" d="M1850.22,494.39c0,78-28.93,121-79.73,121-44.8,0-75.15-42-75.85-117.84,0-76.91,33.16-119.24,79.73-119.24C1822.71,378.32,1850.22,421.36,1850.22,494.39Zm-124.53,3.52c0,59.63,18.34,93.5,46.56,93.5,31.76,0,46.93-37,46.93-95.61,0-56.45-14.47-93.49-46.57-93.49C1745.44,402.31,1725.69,435.47,1725.69,497.91Z" transform="translate(0.2 -0.14)"/></g></svg>