<?xml version="1.0" encoding="UTF-8"?><svg xmlns="http://www.w3.org/2000/svg" viewBox="0 0 2000 2000"><defs><style>.cls-1,.cls-2,.cls-3{stroke-width:0px;}.cls-2{fill:#adafaf;}.cls-3{fill:#fff;}</style></defs><g id="Farbcode"><rect class="cls-1" x="-.2" y=".14" width="2000.15" height="2000.15"/><rect class="cls-2" x="-.2" y=".14" width="2000.2" height="214.3"/></g><g id="Cb0.01"><path class="cls-3" d="m439.62,964.56c-7.56-53.68-58.97-94.51-117.95-94.51-106.61,0-146.68,90.73-146.68,185.24s40.07,180.7,146.68,180.7c72.58,0,113.41-49.9,122.48-120.97h114.92c-12.1,134.58-105.09,220.77-237.41,220.77-167.09,0-265.38-124.75-265.38-280.5s98.29-285.04,265.38-285.04c118.7,0,218.51,69.56,232.87,194.31h-114.92Z"/><path class="cls-3" d="m628.64,783.1h107.36v196.58h1.51c26.46-40.07,74.85-58.22,123.24-58.22,77.88,0,161.8,62.75,161.8,205.65s-83.92,206.41-161.8,206.41c-57.46,0-105.09-17.39-128.53-60.49h-1.51v49.9h-102.07v-539.84Zm195.07,219.26c-63.51,0-91.48,59.73-91.48,125.51s27.97,124.75,91.48,124.75,91.49-59.73,91.49-124.75-27.97-125.51-91.49-125.51Z"/><path class="cls-3" d="m1259.2,783.1c105.85,0,195.07,66.53,195.07,272.94s-89.22,277.48-195.07,277.48-193.55-66.53-193.55-277.48,89.22-272.94,193.55-272.94Zm0,461.96c87.7,0,87.7-129.29,87.7-189.02,0-55.19,0-184.48-87.7-184.48s-86.19,129.29-86.19,184.48c0,59.73,0,189.02,86.19,189.02Z"/><path class="cls-3" d="m1601.73,1107.18c67.81,0,124.96,42.62,124.96,174.85s-57.16,177.76-124.96,177.76-124-42.62-124-177.76,57.15-174.85,124-174.85Zm0,295.94c56.19,0,56.19-82.83,56.19-121.09,0-35.36,0-118.18-56.19-118.18s-55.22,82.83-55.22,118.18c0,38.26,0,121.09,55.22,121.09Z"/><path class="cls-3" d="m1948.05,1453.02h-68.78v-219.9h-85.25v-51.83c47.95.97,92.03-15.5,99.29-67.33h54.73v339.05Z"/><path class="cls-3" d="m1461.8,1848.48c6.7.71,14.46,0,25.05-1.06,17.99-2.47,34.93-9.88,47.98-22.23,15.17-13.76,26.11-33.87,30.34-61.03h-1.06c-12.7,15.52-31.05,24.7-53.98,24.7-41.28,0-67.74-31.05-67.74-70.21,0-43.39,31.4-81.5,78.32-81.5s75.85,38.1,75.85,96.67c0,50.45-16.93,85.73-39.51,107.6-17.64,17.29-41.98,27.87-66.68,30.69-11.29,1.76-21.17,2.12-28.58,1.76v-25.4Zm56.09-187.69c-26.11,0-44.81,23.29-44.81,55.74,0,28.58,17.29,48.69,44.1,48.69,20.82,0,37.04-10.23,45.16-23.99,1.76-2.82,2.82-6.35,2.82-11.29,0-39.16-14.46-69.15-46.92-69.15h-.35Z"/><path class="cls-3" d="m1614.91,1913.75c7.41-20.82,16.93-58.56,20.81-84.32l34.57-3.53c-8.11,29.99-23.64,69.15-33.52,85.73l-21.87,2.12Z"/><path class="cls-3" d="m1715.81,1848.48c6.7.71,14.46,0,25.05-1.06,17.99-2.47,34.93-9.88,47.98-22.23,15.17-13.76,26.11-33.87,30.34-61.03h-1.06c-12.7,15.52-31.05,24.7-53.98,24.7-41.28,0-67.74-31.05-67.74-70.21,0-43.39,31.4-81.5,78.32-81.5s75.85,38.1,75.85,96.67c0,50.45-16.93,85.73-39.51,107.6-17.64,17.29-41.98,27.87-66.68,30.69-11.29,1.76-21.17,2.12-28.58,1.76v-25.4Zm56.1-187.69c-26.11,0-44.81,23.29-44.81,55.74,0,28.58,17.29,48.69,44.1,48.69,20.82,0,37.04-10.23,45.16-23.99,1.76-2.82,2.82-6.35,2.82-11.29,0-39.16-14.46-69.15-46.92-69.15h-.35Z"/><path class="cls-3" d="m1596.21,494.39c0,77.97-28.93,121.01-79.73,121.01-44.81,0-75.15-41.98-75.85-117.83,0-76.91,33.16-119.25,79.73-119.25s75.85,43.04,75.85,116.07Zm-124.54,3.53c0,59.62,18.35,93.49,46.57,93.49,31.75,0,46.92-37.04,46.92-95.61s-14.46-93.49-46.57-93.49c-27.17,0-46.92,33.16-46.92,95.61Z"/><path class="cls-3" d="m1614.91,654.91c7.41-20.81,16.93-58.56,20.81-84.32l34.57-3.53c-8.11,29.99-23.64,69.15-33.52,85.73l-21.87,2.12Z"/><path class="cls-3" d="m1850.22,494.39c0,77.97-28.93,121.01-79.73,121.01-44.81,0-75.15-41.98-75.85-117.83,0-76.91,33.16-119.25,79.73-119.25s75.85,43.04,75.85,116.07Zm-124.54,3.53c0,59.62,18.35,93.49,46.57,93.49,31.75,0,46.92-37.04,46.92-95.61s-14.46-93.49-46.57-93.49c-27.17,0-46.92,33.16-46.92,95.61Z"/></g></svg>