<?xml version="1.0" encoding="UTF-8"?><svg xmlns="http://www.w3.org/2000/svg" viewBox="0 0 2000 2000"><defs><style>.cls-1{fill:#ffcb04;}.cls-1,.cls-2{stroke-width:0px;}.cls-2{fill:#1d1d1b;}</style></defs><g id="Farbcode"><rect class="cls-1" x="-3" width="2000.31" height="2000.31"/></g><g id="Ces"><path class="cls-2" d="m717.19,983.49c-7.56-53.68-58.97-94.51-117.95-94.51-106.61,0-146.68,90.73-146.68,185.24s40.07,180.7,146.68,180.7c72.58,0,113.41-49.9,122.48-120.97h114.92c-12.1,134.58-105.09,220.77-237.41,220.77-167.09,0-265.38-124.75-265.38-280.5s98.29-285.04,265.38-285.04c118.7,0,218.51,69.56,232.87,194.31h-114.92Z"/><path class="cls-2" d="m994.66,1172.51c3.02,68.05,36.29,99.05,96.02,99.05,43.1,0,77.88-26.46,84.68-50.66h94.51c-30.24,92.24-94.51,131.56-182.97,131.56-123.24,0-199.6-84.68-199.6-205.65s80.9-206.41,199.6-206.41c133.07,0,197.33,111.9,189.77,232.11h-282.02Zm174.65-68.05c-9.83-54.44-33.27-83.17-85.44-83.17-68.05,0-87.7,52.93-89.22,83.17h174.65Z"/><path class="cls-2" d="m1423.35,1214.85c.76,46.88,40.07,65.78,82.41,65.78,31,0,70.31-12.1,70.31-49.9,0-32.51-44.61-43.85-121.73-60.49-62-13.61-124-35.54-124-104.34,0-99.8,86.19-125.51,170.12-125.51s164.07,28.73,172.38,124.75h-102.07c-3.02-41.58-34.78-52.92-73.34-52.92-24.19,0-59.73,4.54-59.73,36.29,0,38.56,60.49,43.85,121.73,58.22,62.75,14.37,124,37.05,124,109.63,0,102.83-89.22,136.09-178.43,136.09s-179.19-34.02-183.73-137.61h102.07Z"/><path class="cls-2" d="m853.29,496.52c0-21.88-.71-39.52-1.41-55.75h27.87l1.41,29.28h.71c12.7-20.82,32.81-33.17,60.69-33.17,41.28,0,72.33,34.93,72.33,86.8,0,61.39-37.4,91.74-77.62,91.74-22.58,0-42.34-9.88-52.57-26.82h-.71v92.79h-30.7v-184.88Zm30.7,45.52c0,4.59.71,8.82,1.41,12.7,5.65,21.52,24.35,36.34,46.57,36.34,32.81,0,51.87-26.82,51.87-65.98,0-34.22-17.99-63.51-50.81-63.51-21.17,0-40.93,15.17-46.93,38.46-1.06,3.88-2.12,8.47-2.12,12.7v29.28Z"/><path class="cls-2" d="m1085.81,373.74v99.5h115.02v-99.5h31.05v237.81h-31.05v-111.49h-115.02v111.49h-30.7v-237.81h30.7Z"/><path class="cls-2" d="m1479.91,404.08c-6.35-.35-14.47,0-23.29,1.41-48.69,8.12-74.45,43.75-79.74,81.5h1.06c10.94-14.47,29.99-26.46,55.39-26.46,40.58,0,69.16,29.28,69.16,74.09,0,41.99-28.58,80.8-76.21,80.8s-81.15-38.11-81.15-97.73c0-45.16,16.23-80.8,38.81-103.38,19.05-18.7,44.46-30.34,73.39-33.87,9.17-1.41,16.94-1.76,22.58-1.76v25.4Zm-53.28,187.35c26.46,0,44.46-22.23,44.46-55.04s-18.7-52.57-47.28-52.57c-18.7,0-35.99,11.64-44.46,28.23-2.12,3.53-3.53,8.11-3.53,13.76.71,37.75,17.99,65.63,50.45,65.63h.35Z"/><path class="cls-2" d="m1520.13,654.95c7.41-20.82,16.94-58.57,20.82-84.33l34.58-3.53c-8.12,29.99-23.64,69.15-33.52,85.74l-21.88,2.12Z"/><path class="cls-2" d="m1755.47,494.41c0,77.98-28.93,121.02-79.74,121.02-44.81,0-75.15-41.99-75.86-117.85,0-76.92,33.17-119.26,79.74-119.26s75.86,43.04,75.86,116.08Zm-124.55,3.53c0,59.63,18.35,93.5,46.57,93.5,31.75,0,46.93-37.05,46.93-95.62s-14.47-93.5-46.57-93.5c-27.17,0-46.93,33.17-46.93,95.62Z"/></g></svg>