<svg id="Ebene_1" data-name="Ebene 1" xmlns="http://www.w3.org/2000/svg" viewBox="0 0 39.68 39.69"><defs><style>.cls-1{fill:#009fda;}.cls-2{fill:#1d1d1b;}</style></defs><rect class="cls-1" width="39.68" height="39.69"/><path class="cls-2" d="M27.09,27.36c2.08,0,3.43-.94,3.43-2.58,0-1.2-.72-1.9-2.26-2.22l-1.67-.34c-.55-.12-.87-.38-.87-.78s.45-.83,1.16-.83a1.35,1.35,0,0,1,1.47,1.08l1.9-.07c-.19-1.52-1.47-2.47-3.34-2.47s-3.15,1-3.15,2.54c0,1.19.73,2,2.25,2.27l1.53.3c.7.13,1,.36,1,.78,0,.59-.6.86-1.4.86-1,0-1.53-.44-1.65-1.21l-1.93.08c.19,1.65,1.39,2.59,3.51,2.59m-7.16-.28h2.12V16.4H19.93Zm-5.8.34c2.59,0,4.33-1.39,4.51-3.84h-2.1a2.14,2.14,0,0,1-2.28,1.93c-1.86,0-2.88-1.52-2.88-3.77s1-3.66,2.88-3.66a2.1,2.1,0,0,1,2.28,1.86h2.12c-.2-2.34-1.89-3.78-4.5-3.78-2.85,0-5,2.13-5,5.58s2.12,5.68,5,5.68"/></svg>