<svg id="Ebene_1" data-name="Ebene 1" xmlns="http://www.w3.org/2000/svg" viewBox="0 0 39.68 39.68"><defs><style>.cls-1{fill:#00c7b2;}.cls-2{fill:#1d1d1b;}</style></defs><rect class="cls-1" width="39.68" height="39.68"/><path class="cls-2" d="M29.29,25.48c-1,0-1.74-.9-1.74-2.3s.72-2.28,1.74-2.28S31,21.77,31,23.18s-.72,2.3-1.74,2.3m.62-6.33a2.69,2.69,0,0,0-2.42,1.2l-.07-1H25.54v10.8h2.12V26.36a2.56,2.56,0,0,0,2.08,1c2,0,3.33-1.66,3.33-4.15s-1.41-4-3.16-4m-9.23,8.21c2.09,0,3.44-.94,3.44-2.57,0-1.2-.72-1.91-2.27-2.22l-1.66-.35c-.56-.12-.87-.38-.87-.78s.45-.83,1.15-.83a1.34,1.34,0,0,1,1.47,1.08l1.91-.07c-.2-1.51-1.47-2.47-3.35-2.47s-3.15,1-3.15,2.54c0,1.19.74,2,2.25,2.27l1.53.3c.71.14,1,.36,1,.78,0,.59-.6.86-1.39.86-1,0-1.53-.44-1.65-1.2l-1.94.07c.2,1.65,1.4,2.59,3.51,2.59m-9,.06c2.59,0,4.33-1.39,4.51-3.83h-2.1a2.14,2.14,0,0,1-2.28,1.92c-1.86,0-2.88-1.52-2.88-3.77s1-3.66,2.88-3.66a2.1,2.1,0,0,1,2.28,1.86h2.12c-.2-2.34-1.89-3.78-4.5-3.78-2.85,0-5,2.13-5,5.58s2.12,5.68,5,5.68"/></svg>