<svg id="Ebene_1" data-name="Ebene 1" xmlns="http://www.w3.org/2000/svg" viewBox="0 0 39.69 39.68"><defs><style>.cls-1{fill:#92d400;}.cls-2{fill:#1d1d1b;}</style></defs><rect class="cls-1" width="39.69" height="39.68"/><path class="cls-2" d="M29.91,20.77l1.44,0V19.26l-1.44,0V16.87H27.8v2.42l-1.05,0v1.55l1.05,0v4.05c0,1.56.62,2.17,2.17,2.17h1.38V25.3h-.7c-.53,0-.74-.21-.74-.73Zm-7.34,6.51c2.08,0,3.43-1,3.43-2.58,0-1.2-.72-1.91-2.26-2.22l-1.67-.35c-.56-.12-.87-.37-.87-.78s.45-.82,1.16-.82a1.34,1.34,0,0,1,1.47,1.08l1.9-.08c-.2-1.51-1.47-2.47-3.34-2.47s-3.15,1-3.15,2.55c0,1.18.73,2,2.24,2.26l1.54.3c.7.14,1,.36,1,.79s-.6.85-1.4.85c-1,0-1.53-.43-1.65-1.2l-1.93.07c.19,1.65,1.39,2.6,3.51,2.6m-9,.06c2.59,0,4.33-1.4,4.51-3.84h-2.1a2.14,2.14,0,0,1-2.28,1.92c-1.86,0-2.88-1.52-2.88-3.77s1-3.66,2.88-3.66a2.11,2.11,0,0,1,2.28,1.86h2.12c-.2-2.34-1.89-3.77-4.5-3.77-2.85,0-5,2.12-5,5.57s2.11,5.69,5,5.69"/><path class="cls-2" d="M33.49,11.82a2.45,2.45,0,0,0,1.19.3c1.08,0,1.66-.63,1.66-1.36a1.19,1.19,0,0,0-1-1.17h0a1.16,1.16,0,0,0,.84-1.08c0-.55-.41-1.08-1.31-1.08a2.24,2.24,0,0,0-1.19.35l.17.45a1.69,1.69,0,0,1,.91-.3c.57,0,.8.32.8.68,0,.54-.57.77-1,.77h-.34v.46h.34c.6,0,1.17.28,1.18.91a.9.9,0,0,1-1,.89,2.06,2.06,0,0,1-1-.29Zm-1.27.23h.59V7.5h-.52L31.3,8l.12.47.79-.43h0ZM25.65,7.33v4.72h.61V9.83h2.28v2.22h.61V7.33h-.61v2H26.26v-2Zm-3.4,2.76a.93.93,0,0,1,0-.25,1,1,0,0,1,.94-.77c.65,0,1,.58,1,1.26s-.37,1.31-1,1.31a.94.94,0,0,1-.92-.72,1.9,1.9,0,0,1,0-.25Zm-.61,3.34h.61V11.59h0a1.17,1.17,0,0,0,1,.53,1.6,1.6,0,0,0,1.54-1.82,1.54,1.54,0,0,0-1.44-1.72,1.33,1.33,0,0,0-1.2.66h0l0-.58h-.55c0,.32,0,.67,0,1.11Z"/></svg>