<svg id="Ebene_1" data-name="Ebene 1" xmlns="http://www.w3.org/2000/svg" viewBox="0 0 39.68 39.68"><defs><style>.cls-1{fill:#9b9b9b;}.cls-2{fill:#1d1d1b;}</style></defs><rect class="cls-1" width="39.68" height="39.68"/><path class="cls-2" d="M26.54,19.34l-.7,2.33L25.09,25l-.8-3.37-.64-2.33H21.41L24,27.08h2.16l2.55-7.74ZM16.28,27.42c2.59,0,4.33-1.39,4.51-3.83h-2.1a2.14,2.14,0,0,1-2.28,1.92c-1.86,0-2.88-1.52-2.88-3.77s1-3.66,2.88-3.66a2.1,2.1,0,0,1,2.28,1.86h2.12c-.2-2.34-1.89-3.78-4.5-3.78-2.85,0-5,2.13-5,5.58s2.11,5.68,5,5.68"/></svg>