<svg id="Ebene_1" data-name="Ebene 1" xmlns="http://www.w3.org/2000/svg" viewBox="0 0 39.69 39.68"><defs><style>.cls-1{fill:#c53684;}.cls-2{fill:#1d1d1b;}</style></defs><rect class="cls-1" width="39.69" height="39.68"/><path class="cls-2" d="M24.55,25.75c-.78,0-1.21-.38-1.21-.93s.36-.85,1-1l2-.42V24a1.65,1.65,0,0,1-1.77,1.76m4.1,1.33a3.16,3.16,0,0,1-.3-1.62V22c0-1.91-1.13-2.88-3.35-2.88s-3.15.79-3.3,2.49l1.94,0c.1-.72.51-1,1.38-1s1.3.27,1.3.84v.57l-2.7.54c-1.56.31-2.35,1.11-2.35,2.34A2.38,2.38,0,0,0,24,27.3a3,3,0,0,0,2.39-1c0,.27.1.51.16.78ZM15.36,25.21H13.63v-7h1.43c2.43,0,3.13,1.08,3.13,3.54s-.7,3.47-2.83,3.47m0-8.81H11.41V27.08h4.23c3.26,0,4.77-2.07,4.77-5.34S18.9,16.4,15.34,16.4"/></svg>