<svg id="Ebene_1" data-name="Ebene 1" xmlns="http://www.w3.org/2000/svg" viewBox="0 0 39.69 39.68"><defs><style>.cls-1{fill:#c53684;}.cls-2{fill:#1d1d1b;}</style></defs><rect class="cls-1" width="39.69" height="39.68"/><path class="cls-2" d="M32.36,19.15a2.38,2.38,0,0,0-2.28,1.39,2.21,2.21,0,0,0-2.22-1.39,2.3,2.3,0,0,0-2.1,1.18l0-1H23.66v7.74h2.11V22.94c0-1.16.56-1.89,1.38-1.89s1,.58,1,1.27v4.76H30.3V22.94c0-1.16.56-1.89,1.38-1.89s1,.58,1,1.27v4.76h2.11V21.9c0-1.62-.86-2.75-2.47-2.75m-14.3,6.6c-.78,0-1.21-.38-1.21-.93s.36-.85,1-1l2-.42V24a1.66,1.66,0,0,1-1.78,1.76m4.1,1.33a3.16,3.16,0,0,1-.3-1.62V22c0-1.91-1.13-2.88-3.35-2.88s-3.15.79-3.29,2.49l1.93,0c.1-.72.51-1,1.38-1s1.31.27,1.31.84v.57l-2.71.54c-1.56.31-2.35,1.11-2.35,2.34a2.38,2.38,0,0,0,2.68,2.35,3,3,0,0,0,2.39-1c0,.27.11.51.17.78ZM8.87,25.21H7.14v-7H8.57c2.43,0,3.14,1.08,3.14,3.54S11,25.21,8.87,25.21m0-8.81H4.93V27.08H9.15c3.26,0,4.77-2.07,4.77-5.34S12.41,16.4,8.86,16.4"/></svg>