<svg id="Ebene_1" data-name="Ebene 1" xmlns="http://www.w3.org/2000/svg" viewBox="0 0 39.69 39.69"><defs><style>.cls-1{fill:#c53684;}.cls-2{fill:#1d1d1b;}</style></defs><rect class="cls-1" width="39.69" height="39.69"/><path class="cls-2" d="M25.27,25.48c-1,0-1.74-.9-1.74-2.3s.72-2.28,1.74-2.28S27,21.77,27,23.18s-.72,2.3-1.74,2.3m.62-6.33a2.72,2.72,0,0,0-2.25,1V16.4H21.52V27.08H23.4l.07-1a2.54,2.54,0,0,0,2.25,1.21c2,0,3.33-1.66,3.33-4.15s-1.41-4-3.16-4m-10.8,6.06H13.36v-7h1.43c2.43,0,3.13,1.08,3.13,3.54s-.7,3.47-2.83,3.47m0-8.81H11.14V27.08h4.23c3.26,0,4.77-2.07,4.77-5.34s-1.51-5.34-5.07-5.34"/></svg>