<svg id="Ebene_1" data-name="Ebene 1" xmlns="http://www.w3.org/2000/svg" viewBox="0 0 39.69 39.68"><defs><style>.cls-1{fill:#c53684;}.cls-2{fill:#1d1d1b;}</style></defs><rect class="cls-1" width="39.69" height="39.68"/><path class="cls-2" d="M25.17,27.33a3.36,3.36,0,0,0,3.59-2.92H26.69a1.5,1.5,0,0,1-1.49,1.28c-1.08,0-1.71-.87-1.71-2.45s.63-2.45,1.71-2.45A1.46,1.46,0,0,1,26.69,22h2.07a3.33,3.33,0,0,0-3.59-2.89c-2.29,0-3.71,1.6-3.71,4.09s1.42,4.09,3.71,4.09m-9.75-2.12H13.7v-7h1.42c2.44,0,3.14,1.08,3.14,3.54s-.7,3.47-2.84,3.47m0-8.81H11.48V27.08h4.23c3.26,0,4.77-2.07,4.77-5.34S19,16.4,15.41,16.4"/></svg>