<svg xmlns="http://www.w3.org/2000/svg" viewBox="0 0 2000.31 2000.31"><defs><style>.cls-1{fill:#c53684;}</style></defs><g id="Farbcode"><rect class="cls-1" width="2000.31" height="2000.31"/></g><g id="Dcb"><path d="M310.73,792.1H543.6c139.88,0,245,87.7,245,266.89,0,156.51-80.14,272.94-245,272.94H310.73Zm118.71,440H535.29c68.8,0,134.58-42.34,134.58-161.8,0-108.87-37.81-178.43-155.75-178.43H429.44Z"/><path d="M1125.78,1078.65c-6.81-43.85-34.78-67.29-79.39-67.29-68.8,0-91.49,69.56-91.49,127,0,55.95,21.93,123.24,89.22,123.24,49.9,0,78.63-31.76,85.44-79.39h103.58c-13.61,103.58-85.44,160.29-188.26,160.29-118,0-197.34-83.17-197.34-200.36,0-121.73,72.58-211.7,199.61-211.7,92.24,0,176.92,48.39,183.72,148.19Z"/><path d="M1293.62,792.1H1401V988.68h1.51c26.46-40.07,74.85-58.22,123.24-58.22,77.88,0,161.8,62.75,161.8,205.65,0,143.66-83.92,206.41-161.8,206.41-57.46,0-105.09-17.39-128.53-60.49h-1.51v49.9H1293.62Zm195.06,219.26c-63.51,0-91.48,59.73-91.48,125.51,0,65,28,124.75,91.48,124.75s91.49-59.73,91.49-124.75C1580.17,1071.09,1552.19,1011.36,1488.68,1011.36Z"/></g></svg>