<svg id="Ebene_1" data-name="Ebene 1" xmlns="http://www.w3.org/2000/svg" viewBox="0 0 39.69 39.68"><defs><style>.cls-1{fill:#c53684;}.cls-2{fill:#1d1d1b;}</style></defs><rect class="cls-1" width="39.69" height="39.68"/><path class="cls-2" d="M29.27,27.36c2.09,0,3.43-.94,3.43-2.57,0-1.21-.71-1.91-2.26-2.23l-1.66-.34c-.56-.12-.88-.38-.88-.78s.45-.83,1.16-.83a1.34,1.34,0,0,1,1.47,1.08l1.9-.07c-.19-1.52-1.46-2.47-3.34-2.47s-3.15,1-3.15,2.54c0,1.19.73,2,2.25,2.27l1.53.3c.71.13,1,.36,1,.78,0,.59-.6.86-1.39.86-1,0-1.54-.44-1.66-1.2l-1.93.07c.2,1.65,1.4,2.59,3.51,2.59m-8.15,0a3.37,3.37,0,0,0,3.59-2.92H22.64a1.5,1.5,0,0,1-1.49,1.28c-1.08,0-1.71-.87-1.71-2.45s.63-2.45,1.71-2.45A1.46,1.46,0,0,1,22.64,22h2.07a3.33,3.33,0,0,0-3.59-2.89c-2.29,0-3.71,1.6-3.71,4.09s1.42,4.09,3.71,4.09m-9.74-2.12H9.65v-7h1.43c2.43,0,3.13,1.08,3.13,3.54s-.7,3.47-2.83,3.47m0-8.81H7.43V27.08h4.23c3.26,0,4.77-2.07,4.77-5.34s-1.51-5.34-5.07-5.34"/></svg>