<svg xmlns="http://www.w3.org/2000/svg" viewBox="0 0 2000.31 2000.31"><defs><style>.cls-1{fill:#c53684;}.cls-2{fill:#1d1d1b;}</style></defs><g id="Farbcode"><rect class="cls-1" width="2000.31" height="2000.31"/></g><g id="Ddc"><path class="cls-2" d="M312.3,802H545.17c139.87,0,245,87.7,245,266.89,0,156.51-80.14,272.94-245,272.94H312.3Zm118.7,440H536.85c68.8,0,134.58-42.34,134.58-161.8,0-108.87-37.8-178.43-155.75-178.43H431Z"/><path class="cls-2" d="M1140.19,1292h-1.51c-25,42.34-68.8,60.49-118.7,60.49-118,0-175.41-101.32-175.41-209.43,0-105.1,58.22-202.63,173.14-202.63,46.12,0,91.49,19.66,115.68,58.22h1.51V802h107.36v539.83H1140.19Zm-93.75-270.67c-70.31,0-94.51,60.48-94.51,124.75,0,61.24,28,125.51,94.51,125.51,71.07,0,92.24-62,92.24-126.27C1138.68,1081.78,1116,1021.3,1046.44,1021.3Z"/><path class="cls-2" d="M1589.29,1088.59c-6.8-43.85-34.77-67.29-79.38-67.29-68.81,0-91.49,69.56-91.49,127,0,56,21.93,123.24,89.22,123.24,49.9,0,78.63-31.76,85.44-79.39h103.58c-13.61,103.58-85.44,160.29-188.27,160.29-117.94,0-197.33-83.17-197.33-200.36,0-121.73,72.58-211.7,199.6-211.7,92.24,0,176.92,48.39,183.73,148.19Z"/></g></svg>