<svg id="Ebene_1" data-name="Ebene 1" xmlns="http://www.w3.org/2000/svg" viewBox="0 0 39.69 39.68"><defs><style>.cls-1{fill:#c53684;}.cls-2{fill:#1d1d1b;}</style></defs><rect class="cls-1" width="39.69" height="39.68"/><path class="cls-2" d="M26.85,18.09h.59V16.4H26.33a2.22,2.22,0,0,0-2.47,2.48v.51l-1.08-.05V20.9l1.08,0v6.23H26V20.85l1.47,0V19.34L26,19.39V19a.77.77,0,0,1,.88-.89M17,25.21H15.29v-7h1.42c2.44,0,3.14,1.08,3.14,3.54s-.7,3.47-2.84,3.47m0-8.81H13.07V27.08H17.3c3.26,0,4.77-2.07,4.77-5.34S20.56,16.4,17,16.4"/></svg>