<svg id="Ebene_1" data-name="Ebene 1" xmlns="http://www.w3.org/2000/svg" viewBox="0 0 39.69 39.69"><defs><style>.cls-1{fill:#c53684;}.cls-2{fill:#1d1d1b;}</style></defs><rect class="cls-1" width="39.69" height="39.69"/><path class="cls-2" d="M26,19.15a2.42,2.42,0,0,0-2.22,1.23v-4H21.64V27.08h2.11V22.94c0-1.16.61-1.89,1.51-1.89s1.13.51,1.13,1.32v4.71H28.5V21.89A2.43,2.43,0,0,0,26,19.15M15.2,25.21H13.47v-7H14.9c2.43,0,3.14,1.08,3.14,3.54s-.71,3.47-2.84,3.47m0-8.81H11.26V27.08h4.22c3.26,0,4.77-2.07,4.77-5.34s-1.51-5.34-5.06-5.34"/></svg>