<svg xmlns="http://www.w3.org/2000/svg" viewBox="0 0 2000.31 2000.31"><defs><style>.cls-1{fill:#c53684;}.cls-2{fill:#1d1d1b;}</style></defs><g id="Farbcode"><rect class="cls-1" width="2000.31" height="2000.31"/></g><g id="Dos"><path class="cls-2" d="M320.3,802H553.17c139.87,0,245,87.7,245,266.89,0,156.51-80.14,272.94-245,272.94H320.3Zm118.7,440H544.85c68.8,0,134.58-42.34,134.58-161.8,0-108.87-37.8-178.43-155.75-178.43H439Z"/><path class="cls-2" d="M1059,940.4c123.24,0,202.62,81.65,202.62,206.41,0,124-79.38,205.65-202.62,205.65-122.49,0-201.87-81.66-201.87-205.65C857.11,1022.05,936.49,940.4,1059,940.4Zm0,331.16c73.34,0,95.26-62.76,95.26-124.75,0-62.76-21.92-125.51-95.26-125.51-72.59,0-94.51,62.75-94.51,125.51C964.47,1208.8,986.39,1271.56,1059,1271.56Z"/><path class="cls-2" d="M1414.33,1214.85c.75,46.88,40.07,65.78,82.41,65.78,31,0,70.31-12.1,70.31-49.9,0-32.51-44.61-43.85-121.73-60.49-62-13.61-124-35.53-124-104.33,0-99.81,86.19-125.51,170.11-125.51,85.44,0,164.07,28.73,172.39,124.75H1561.76c-3-41.58-34.78-52.92-73.34-52.92-24.19,0-59.73,4.53-59.73,36.29,0,38.56,60.49,43.85,121.73,58.21,62.75,14.37,124,37,124,109.64,0,102.82-89.21,136.09-178.43,136.09-90.73,0-179.19-34-183.73-137.61Z"/></g></svg>