<svg xmlns="http://www.w3.org/2000/svg" viewBox="0 0 2000.31 2000.31"><defs><style>.cls-1{fill:#c53684;}</style></defs><g id="Farbcode"><rect class="cls-1" width="2000.31" height="2000.31"/></g><g id="Dt"><path d="M610.18,829.14H843.05c139.87,0,245,87.71,245,266.89,0,156.51-80.15,273-245,273H610.18Zm118.7,440H834.73c68.8,0,134.58-42.34,134.58-161.79,0-108.88-37.8-178.44-155.75-178.44H728.88Z"/><path d="M1295.18,978.09h78.63v71.82h-78.63v193.56c0,36.29,9.07,45.36,45.36,45.36a165,165,0,0,0,33.27-3v83.92c-18.15,3-41.58,3.78-62.75,3.78-65.78,0-123.24-15.12-123.24-93V1049.91h-65V978.09h65V860.9h107.36Z"/></g></svg>