<svg xmlns="http://www.w3.org/2000/svg" viewBox="0 0 2000.31 2000.31"><defs><style>.cls-1{fill:#c53684;}.cls-2{stroke:#fff;stroke-miterlimit:10;}</style></defs><g id="Farbcode"><rect class="cls-1" width="2000.31" height="2000.31"/></g><g id="Dtr"><path class="cls-2" d="M447.73,801.1H680.6c139.88,0,245,87.7,245,266.89,0,156.51-80.14,272.94-245,272.94H447.73Zm118.71,440H672.29c68.8,0,134.58-42.34,134.58-161.8,0-108.87-37.81-178.43-155.75-178.43H566.44Z"/><path class="cls-2" d="M1132.73,950.05h78.63v71.82h-78.63v193.56c0,36.29,9.08,45.36,45.37,45.36a164.88,164.88,0,0,0,33.26-3v83.92c-18.14,3-41.58,3.78-62.75,3.78-65.78,0-123.24-15.12-123.24-93v-230.6h-65V950.05h65V832.85h107.36Z"/><path class="cls-2" d="M1262.77,950.05h102.07v72.58h1.51c19.66-49.15,72.58-83.17,124.75-83.17a80,80,0,0,1,23.44,3.78V1043c-9.83-2.27-25.71-3.78-38.56-3.78-78.63,0-105.85,56.71-105.85,125.51v176.16H1262.77Z"/></g></svg>