<svg id="Ebene_1" data-name="Ebene 1" xmlns="http://www.w3.org/2000/svg" viewBox="0 0 39.68 39.68"><defs><style>.cls-1{fill:#ff5800;}.cls-2{fill:#1d1d1b;}</style></defs><rect class="cls-1" width="39.68" height="39.68"/><path class="cls-2" d="M32,19.15a2.38,2.38,0,0,0-2.28,1.39,2.21,2.21,0,0,0-2.22-1.39,2.3,2.3,0,0,0-2.1,1.18l0-1H23.34v7.74h2.11V22.94c0-1.16.56-1.89,1.38-1.89s1,.58,1,1.27v4.76H30V22.94c0-1.16.56-1.89,1.38-1.89s1,.58,1,1.27v4.76h2.11V21.9c0-1.61-.87-2.75-2.47-2.75m-12.62.19v4.14c0,1.16-.61,1.89-1.51,1.89s-1.13-.51-1.13-1.32V19.34H14.67v5.19a2.44,2.44,0,0,0,2.53,2.74A2.44,2.44,0,0,0,19.44,26l0,1h2.07V19.34Zm-12,5.87V22.49h5v-1.9h-5V18.27H13V16.4H5.25V27.08h7.92V25.21Z"/></svg>