<svg id="Ebene_1" data-name="Ebene 1" xmlns="http://www.w3.org/2000/svg" viewBox="0 0 39.68 39.69"><defs><style>.cls-1{fill:#ff5800;}.cls-2{fill:#1d1d1b;}</style></defs><rect class="cls-1" width="39.68" height="39.69"/><path class="cls-2" d="M30.42,19.34l-.7,2.33L29,25l-.8-3.37-.64-2.33H25.29l2.55,7.74H30l2.55-7.74Zm-8.36,0v4.14c0,1.16-.62,1.89-1.52,1.89-.75,0-1.13-.51-1.13-1.32V19.34H17.3v5.19a2.44,2.44,0,0,0,2.53,2.74A2.44,2.44,0,0,0,22.07,26l0,1h2.07V19.34Zm-12,5.87V22.49h5v-1.9h-5V18.27h5.55V16.4H7.88V27.08H15.8V25.21Z"/></svg>