<svg id="Ebene_1" data-name="Ebene 1" xmlns="http://www.w3.org/2000/svg" viewBox="0 0 39.68 39.69"><defs><style>.cls-1{fill:#020a0a;}.cls-2{fill:#fff;}.cls-3{fill:#ffcb00;}</style></defs><rect class="cls-1" width="39.68" height="39.69"/><path class="cls-2" d="M32.11,29.7H33.6V23.3H32.21v.14c0,.66-.55,1-1.24,1h-.45v1.12h1.59Zm-5.24-1.12c-.75,0-1.16-.57-1.16-2s.41-2,1.16-2,1.16.56,1.16,2-.41,2-1.16,2m0,1.36c1.83,0,2.79-1.27,2.79-3.43s-1-3.36-2.79-3.36-2.79,1.24-2.79,3.36,1,3.43,2.79,3.43m-7.95-4.46a1.93,1.93,0,0,1-2-2,1.87,1.87,0,0,1,2-1.94,1.89,1.89,0,0,1,2,2,1.86,1.86,0,0,1-1.92,2m.41-5.69a3.36,3.36,0,0,0-2.79,1.33c.07-2.28.9-3.19,2.26-3.19a1.68,1.68,0,0,1,1.74,1.18h2.13c-.24-1.77-1.66-2.95-3.87-2.95-2.8,0-4.41,2-4.41,5.73A6.15,6.15,0,0,0,15.62,26a4.3,4.3,0,0,0,3.32,1.38,3.8,3.8,0,0,0,4.12-3.82,3.54,3.54,0,0,0-3.73-3.72M13.7,18.38v-2H6.16V27.08H8.37V22.65H13v-2H8.37v-2.3Z"/><path class="cls-2" d="M34.8,33c.64,0,.93.74.93,1.86s-.3,1.9-.93,1.9-.93-.68-.93-1.86.39-1.9.93-1.9m0-.47c-.93,0-1.58.84-1.58,2.36s.61,2.34,1.5,2.34,1.58-.85,1.58-2.4-.54-2.3-1.5-2.3m-2.73,5.44a8.76,8.76,0,0,0,.66-1.7l-.68.07A11.15,11.15,0,0,1,31.67,38ZM29,32.56v.51h2.22l-2,4h.63l2-4.14v-.4Z"/><path class="cls-2" d="M34.8,8c.64,0,.93.74.93,1.86s-.3,1.89-.93,1.89-.93-.67-.93-1.85S34.26,8,34.8,8m0-.47c-.93,0-1.58.83-1.58,2.36s.61,2.34,1.5,2.34,1.58-.85,1.58-2.4-.54-2.3-1.5-2.3M32.11,13a9,9,0,0,0,.66-1.7l-.68.07A10.72,10.72,0,0,1,31.67,13Zm-2.3-1.22c-.64,0-1-.55-1-1.3a.54.54,0,0,1,.07-.27,1,1,0,0,1,.88-.56.92.92,0,0,1,.94,1c0,.65-.36,1.09-.89,1.09m1.07-4.22a2.74,2.74,0,0,0-.45,0A2.48,2.48,0,0,0,29,8.22a2.85,2.85,0,0,0-.77,2c0,1.18.64,1.94,1.61,1.94a1.52,1.52,0,0,0,1.51-1.6,1.39,1.39,0,0,0-2.47-.95h0A1.86,1.86,0,0,1,30.41,8a2.64,2.64,0,0,1,.47,0Z"/><rect class="cls-3" width="39.68" height="4.25"/></svg>