<svg id="Ebene_1" data-name="Ebene 1" xmlns="http://www.w3.org/2000/svg" viewBox="0 0 39.69 39.68"><defs><style>.cls-1{fill:#f40034;}.cls-2{fill:#1d1d1b;}</style></defs><rect class="cls-1" width="39.69" height="39.68"/><path class="cls-2" d="M24.34,25.55c-1,0-1.74-.9-1.74-2.29S23.32,21,24.34,21s1.74.87,1.74,2.28-.72,2.29-1.74,2.29M25,19.22a2.7,2.7,0,0,0-2.25,1V16.48H20.59V27.16h1.88l.07-1a2.54,2.54,0,0,0,2.25,1.21c1.95,0,3.33-1.66,3.33-4.15s-1.41-4-3.16-4m-5.34-.76v-2H12.07V27.16h2.22V22.73h4.65v-2H14.29V18.46Z"/><path class="cls-2" d="M36.22,7.66H34l-.29,2.18a4.87,4.87,0,0,1,.63-.05c.91,0,1.3.42,1.31,1a1,1,0,0,1-1.08,1,2,2,0,0,1-1-.25l-.16.47a2.25,2.25,0,0,0,1.14.28,1.58,1.58,0,0,0,1.69-1.56,1.33,1.33,0,0,0-.65-1.17,2,2,0,0,0-1-.24,1.77,1.77,0,0,0-.37,0l.17-1.17h1.74ZM32.48,13a8.39,8.39,0,0,0,.66-1.7l-.68.07A10.72,10.72,0,0,1,32,13.07ZM29.05,7.66v.51h2.23l-2,4h.63l2-4.14V7.66Zm-5.52-.17v4.72h.61V10h2.28v2.21H27V7.49h-.61v2H24.14v-2Zm-3.4,2.76a1.09,1.09,0,0,1,0-.25,1,1,0,0,1,.94-.77c.65,0,1,.59,1,1.26s-.37,1.31-1,1.31a.94.94,0,0,1-.92-.72,1.71,1.71,0,0,1,0-.25Zm-.61,3.35h.61V11.76h0a1.19,1.19,0,0,0,1,.53,1.6,1.6,0,0,0,1.54-1.82,1.54,1.54,0,0,0-1.44-1.72,1.33,1.33,0,0,0-1.2.65h0l0-.58H19.5c0,.32,0,.67,0,1.11Z"/></svg>