<svg id="Ebene_1" data-name="Ebene 1" xmlns="http://www.w3.org/2000/svg" viewBox="0 0 39.69 39.69"><defs><style>.cls-1{fill:#f40034;}.cls-2{fill:#1d1d1b;}</style></defs><rect class="cls-1" width="39.69" height="39.69"/><path class="cls-2" d="M27.19,27.16h2.12V16.48H27.19Zm-4.9.25a3.35,3.35,0,0,0,3.58-2.92H23.8a1.49,1.49,0,0,1-1.48,1.27c-1.08,0-1.71-.87-1.71-2.44s.63-2.45,1.71-2.45a1.45,1.45,0,0,1,1.48,1.25h2.07a3.32,3.32,0,0,0-3.58-2.9c-2.3,0-3.72,1.61-3.72,4.1s1.42,4.09,3.72,4.09M18,18.46v-2H10.45V27.16h2.22V22.73h4.65v-2H12.67V18.46Z"/><path class="cls-2" d="M36.39,12.21V11.7h-2v0l.35-.33c1-.93,1.57-1.61,1.57-2.45a1.28,1.28,0,0,0-1.39-1.32A2,2,0,0,0,33.61,8l.19.44a1.52,1.52,0,0,1,1-.39.8.8,0,0,1,.89.89c0,.69-.53,1.28-1.69,2.38l-.48.47v.38ZM32.57,13a8.39,8.39,0,0,0,.66-1.7l-.68.07a10.72,10.72,0,0,1-.42,1.67Zm-2.34-5c.63,0,.92.73.92,1.85s-.3,1.9-.93,1.9-.93-.67-.93-1.86.4-1.89.94-1.89m0-.48c-.92,0-1.58.84-1.58,2.37s.61,2.34,1.5,2.34,1.58-.86,1.58-2.41-.54-2.3-1.5-2.3m-5.71,3.06h3.08v-.42H24.55ZM18.83,7.49v4.72h.61V10h2.28v2.21h.61V7.49h-.61v2H19.44v-2Zm-3.4,2.76a1,1,0,0,1,0-.25,1,1,0,0,1,.94-.77c.65,0,1,.58,1,1.26s-.37,1.31-1,1.31a.94.94,0,0,1-.92-.72,1.71,1.71,0,0,1,0-.25Zm-.61,3.34h.61V11.75h0a1.17,1.17,0,0,0,1,.54A1.61,1.61,0,0,0,18,10.47a1.54,1.54,0,0,0-1.44-1.73,1.33,1.33,0,0,0-1.2.66h0l0-.58H14.8c0,.32,0,.67,0,1.11Z"/></svg>