<svg id="Ebene_1" data-name="Ebene 1" xmlns="http://www.w3.org/2000/svg" viewBox="0 0 39.69 39.69"><defs><style>.cls-1{fill:#f40034;}.cls-2{fill:#1d1d1b;}</style></defs><rect class="cls-1" width="39.69" height="39.69"/><path class="cls-2" d="M24.15,20.66a1.69,1.69,0,0,1,1.71,1.71H22.42a1.71,1.71,0,0,1,1.73-1.71m3.9,2.79c0-2.71-1.68-4.33-4-4.33a3.74,3.74,0,0,0-3.81,4,3.87,3.87,0,0,0,4,4.17,3.42,3.42,0,0,0,3.55-2.5l-2.1-.15a1.46,1.46,0,0,1-1.5,1,1.77,1.77,0,0,1-1.81-1.86h5.61Zm-8.36-5.1v-2H12.15V27.05h2.22V22.63H19v-2H14.37v-2.3Z"/><path class="cls-2" d="M36.39,12.1v-.51h-2l.35-.34c1-.92,1.57-1.6,1.57-2.44a1.28,1.28,0,0,0-1.39-1.32,1.91,1.91,0,0,0-1.28.46l.19.43a1.57,1.57,0,0,1,1-.38.8.8,0,0,1,.89.89c0,.68-.53,1.27-1.69,2.38l-.48.47v.37Zm-3.82.82a8.16,8.16,0,0,0,.66-1.7l-.68.07A10.72,10.72,0,0,1,32.13,13ZM30.23,8c.63,0,.92.74.92,1.86s-.3,1.9-.93,1.9-.93-.68-.93-1.86.4-1.9.94-1.9m0-.47c-.92,0-1.58.84-1.58,2.36s.61,2.34,1.5,2.34,1.58-.85,1.58-2.4-.54-2.3-1.5-2.3m-5.71,3.06h3.08v-.42H24.55ZM18.83,7.39V12.1h.61V9.89h2.28V12.1h.61V7.39h-.61v2H19.44v-2Zm-3.4,2.75a1.09,1.09,0,0,1,0-.25,1,1,0,0,1,.94-.76c.65,0,1,.58,1,1.26s-.37,1.31-1,1.31a1,1,0,0,1-.92-.72,1.9,1.9,0,0,1,0-.25Zm-.61,3.35h.61V11.65h0a1.19,1.19,0,0,0,1,.53A1.6,1.6,0,0,0,18,10.36a1.54,1.54,0,0,0-1.44-1.72,1.31,1.31,0,0,0-1.2.66h0l0-.58H14.8c0,.32,0,.67,0,1.1Z"/></svg>