<svg id="Ebene_1" data-name="Ebene 1" xmlns="http://www.w3.org/2000/svg" viewBox="0 0 39.68 39.68"><defs><style>.cls-1{fill:#f40034;}.cls-2{fill:#1d1d1b;}</style></defs><rect class="cls-1" width="39.68" height="39.68"/><path class="cls-2" d="M25.7,27.05h2.5l-3.07-4.69,3-3.05H25.49l-2.63,2.93V16.37H20.75V27.05h2.11V24.49l.78-.8Zm-5.93-8.7v-2H12.23V27.05h2.22V22.63H19.1v-2H14.45v-2.3Z"/><path class="cls-2" d="M34.8,8c.64,0,.93.74.93,1.86s-.3,1.9-.93,1.9-.93-.68-.93-1.86S34.26,8,34.8,8m0-.47c-.93,0-1.58.84-1.58,2.36s.61,2.34,1.5,2.34,1.58-.85,1.58-2.4-.54-2.3-1.5-2.3m-7.35-.09V12.1h.61V9.89h2.28V12.1H31V7.39h-.61v2H28.1v-2Zm-3.4,2.75a1.09,1.09,0,0,1,0-.25,1,1,0,0,1,.94-.76c.65,0,1,.58,1,1.26s-.37,1.31-1,1.31a1,1,0,0,1-.93-.72,1.9,1.9,0,0,1,0-.25Zm-.61,3.35h.61V11.65h0a1.19,1.19,0,0,0,1,.53,1.6,1.6,0,0,0,1.54-1.82,1.53,1.53,0,0,0-1.43-1.72,1.32,1.32,0,0,0-1.21.66h0l0-.58h-.55c0,.32,0,.67,0,1.1Z"/></svg>