<svg id="Ebene_1" data-name="Ebene 1" xmlns="http://www.w3.org/2000/svg" viewBox="0 0 39.68 39.68"><defs><style>.cls-1{fill:#f40034;}.cls-2{fill:#1d1d1b;}</style></defs><rect class="cls-1" width="39.68" height="39.68"/><path class="cls-2" d="M29.93,19.31l-.7,2.33L28.48,25l-.8-3.37L27,19.31H24.8l2.55,7.74h2.16l2.55-7.74Zm-8.09,7.74h2.51l-3.08-4.69,3-3.05H21.63L19,22.24V16.37H16.9V27.05H19V24.49l.78-.8Zm-5.92-8.7v-2H8.38V27.05h2.21V22.63h4.65v-2H10.59v-2.3Z"/><path class="cls-2" d="M34.8,8c.64,0,.93.74.93,1.86s-.3,1.9-.93,1.9-.93-.68-.93-1.86S34.26,8,34.8,8m0-.47c-.93,0-1.58.84-1.58,2.36s.61,2.34,1.5,2.34,1.58-.85,1.58-2.4-.54-2.3-1.5-2.3m-7.35-.09V12.1h.61V9.89h2.28V12.1H31V7.39h-.61v2H28.1v-2Zm-3.4,2.76a1.09,1.09,0,0,1,0-.26,1,1,0,0,1,.94-.76c.65,0,1,.58,1,1.26s-.37,1.31-1,1.31a.94.94,0,0,1-.93-.72,1.9,1.9,0,0,1,0-.25Zm-.61,3.34h.61V11.65h0a1.17,1.17,0,0,0,1,.53,1.6,1.6,0,0,0,1.54-1.82,1.53,1.53,0,0,0-1.43-1.72,1.32,1.32,0,0,0-1.21.66h0l0-.58h-.55c0,.32,0,.67,0,1.1Z"/></svg>