<svg id="Ebene_1" data-name="Ebene 1" xmlns="http://www.w3.org/2000/svg" viewBox="0 0 39.68 39.69"><defs><style>.cls-1{fill:#f40034;}.cls-2{fill:#1d1d1b;}</style></defs><rect class="cls-1" width="39.68" height="39.69"/><path class="cls-2" d="M26.3,25.45c-1,0-1.74-.9-1.74-2.3s.72-2.28,1.74-2.28S28,21.74,28,23.15s-.72,2.3-1.74,2.3m.62-6.33a2.74,2.74,0,0,0-2.26,1V16.37H22.55V27.05h1.87l.08-1a2.54,2.54,0,0,0,2.25,1.22c1.95,0,3.33-1.67,3.33-4.16s-1.41-4-3.16-4m-8.28,7.93h2.11V16.37H18.64Zm-1-8.7v-2H10.12V27.05h2.21V22.63H17v-2H12.33v-2.3Z"/><path class="cls-2" d="M34.8,8c.64,0,.93.74.93,1.86s-.3,1.9-.93,1.9-.93-.68-.93-1.86S34.26,8,34.8,8m0-.47c-.93,0-1.58.84-1.58,2.36s.61,2.34,1.5,2.34,1.58-.85,1.58-2.4-.54-2.3-1.5-2.3m-7.35-.09V12.1h.61V9.89h2.28V12.1H31V7.39h-.61v2H28.1v-2Zm-3.4,2.75a1.09,1.09,0,0,1,0-.25,1,1,0,0,1,.94-.76c.65,0,1,.58,1,1.26s-.37,1.31-1,1.31a1,1,0,0,1-.93-.72,1.9,1.9,0,0,1,0-.25Zm-.61,3.35h.61V11.65h0a1.19,1.19,0,0,0,1,.53,1.6,1.6,0,0,0,1.54-1.82,1.53,1.53,0,0,0-1.43-1.72,1.32,1.32,0,0,0-1.21.66h0l0-.58h-.55c0,.32,0,.67,0,1.1Z"/></svg>