<svg xmlns="http://www.w3.org/2000/svg" viewBox="0 0 2000.2 2000.15"><defs><style>.cls-1{fill:#adafaf;}.cls-2{fill:#fff;}</style></defs><g id="Farbcode"><rect width="2000.15" height="2000.15"/><rect class="cls-1" width="2000.2" height="214.3"/></g><g id="Fse"><path class="cls-2" d="M420.73,783.1H800.28v99.8H539.44v124.75H765.5v92.24H539.44v223H420.73Z" transform="translate(0.2 -0.14)"/><path class="cls-2" d="M940.9,1195.91c.76,46.88,40.07,65.78,82.41,65.78,31,0,70.32-12.09,70.32-49.9,0-32.51-44.61-43.85-121.73-60.48-62-13.61-124-35.54-124-104.34,0-99.8,86.2-125.51,170.12-125.51,85.44,0,164.07,28.73,172.39,124.75H1088.34c-3-41.58-34.78-52.92-73.34-52.92-24.2,0-59.73,4.53-59.73,36.29,0,38.56,60.48,43.85,121.72,58.22,62.76,14.36,124,37,124,109.63,0,102.82-89.22,136.09-178.43,136.09-90.73,0-179.19-34-183.73-137.61Z" transform="translate(0.2 -0.14)"/><path class="cls-2" d="M1352.19,1153.57c3,68,36.3,99,96,99,43.09,0,77.87-26.46,84.68-50.66h94.51c-30.25,92.24-94.51,131.56-183,131.56-123.24,0-199.61-84.68-199.61-205.65,0-117.19,80.9-206.41,199.61-206.41,133.06,0,197.33,111.9,189.77,232.11Zm174.66-68c-9.83-54.44-33.27-83.17-85.44-83.17-68,0-87.7,52.93-89.22,83.17Z" transform="translate(0.2 -0.14)"/><text x="0.2" y="-0.14"/></g></svg>