<svg height="40" viewBox="0 0 56 40" width="56" xmlns="http://www.w3.org/2000/svg" xmlns:xlink="http://www.w3.org/1999/xlink"><defs><rect id="a" height="40" rx="4" width="56"/><mask id="b" fill="#fff"><use fill="#fff" fill-rule="evenodd" xlink:href="#a"/></mask></defs><g fill="none" fill-rule="evenodd"><use fill="#fff" xlink:href="#a"/><path d="m0 0h56v40h-56z" fill="#0a17a7" mask="url(#b)"/><path d="m58.5649384-3.83289246 2.9823621 4.42153372-18.895601 12.74446624 13.3483005.0002258v13.3333334l-13.3483005-.0005592 18.895601 12.7452512-2.9823621 4.4215338-23.8992389-16.120785.0009672 14.9545592h-13.3333334l-.0006338-14.9535592-23.8976379 16.119785-2.98236215-4.4215338 18.89500005-12.7452512-13.3476995.0005592v-13.3333334l13.3476995-.0002258-18.89500005-12.74446624 2.98236215-4.42153372 23.8976379 16.11899996.0006338-14.95277417h13.3333334l-.0009672 14.95377417z" fill="#fff" mask="url(#b)"/><g stroke="#db1f35" stroke-linecap="round" stroke-width="1.333333"><path d="m37.335938 12.664388 25.330729-16.664388" mask="url(#b)"/><path d="m40.025553 42.700684 22.707683-15.305664" mask="url(#b)" transform="matrix(1 0 0 -1 0 70.095704)"/><path d="m16.011068 12.620931-23.686035-15.962891" mask="url(#b)"/><path d="m18.580078 44.620931-26.255045-17.411133" mask="url(#b)" transform="matrix(1 0 0 -1 0 71.83073)"/></g><path d="m0 24h24v16h8v-16h24v-8h-24v-16h-8v16h-24z" fill="#e6273e" mask="url(#b)"/></g></svg>