<svg id="Ebene_1" data-name="Ebene 1" xmlns="http://www.w3.org/2000/svg" viewBox="0 0 39.68 39.69"><defs><style>.cls-1{fill:#009fda;}.cls-2{fill:#1d1d1b;}</style></defs><rect class="cls-1" width="39.68" height="39.69"/><path class="cls-2" d="M25.51,27.34a3.37,3.37,0,0,0,3.59-2.92H27a1.5,1.5,0,0,1-1.49,1.27c-1.08,0-1.71-.87-1.71-2.44s.63-2.45,1.71-2.45A1.45,1.45,0,0,1,27,22.05H29.1a3.34,3.34,0,0,0-3.59-2.9c-2.29,0-3.72,1.6-3.72,4.1s1.43,4.09,3.72,4.09m-5.19-6H15.87v1.86H18.4a2.51,2.51,0,0,1-2.61,2.34c-1.84,0-2.88-1.51-2.88-3.76s1-3.67,2.88-3.67a2.13,2.13,0,0,1,2.28,1.84l2.18-.14c-.36-2.23-1.94-3.6-4.58-3.6-2.85,0-5,2.11-5,5.57s2.16,5.57,4.86,5.57a3.44,3.44,0,0,0,3-1.39l.34,1.15h1.44Z"/></svg>