<?xml version="1.0" encoding="UTF-8"?><svg xmlns="http://www.w3.org/2000/svg" viewBox="0 0 2046.07 2044.05"><defs><style>.cls-1{fill:#ffcb00;}.cls-2{fill:#1d1d1b;}</style></defs><g id="Farbcode"><rect class="cls-1" x="23.04" y="22.03" width="2000.31" height="2000.31"/></g><g id="Gfx"><path class="cls-2" d="m860.47,1302.66c-41.58,53.68-96.02,74.1-148.19,74.1-167.09,0-265.38-124.75-265.38-280.5s98.29-285.04,265.38-285.04c110.39,0,214.73,68.05,227.58,190.53h-113.41c-13.61-59.73-58.22-90.73-114.17-90.73-106.61,0-146.68,90.73-146.68,185.24s40.07,180.7,146.68,180.7c77.12,0,121.73-41.58,128.53-116.44h-119.46v-88.46h226.82v291.84h-75.61l-12.1-61.24Z"/><path class="cls-2" d="m1056.28,1044.84h-64.27v-71.83h64.27v-30.24c0-68.8,43.1-118.7,130.8-118.7,18.9,0,38.56,2.27,56.71,3.02v80.14c-12.85-1.51-25.71-2.27-39.32-2.27-28.73,0-40.83,12.1-40.83,44.61v23.44h74.09v71.83h-74.09v319.06h-107.36v-319.06Z"/><path class="cls-2" d="m1384.41,1158.25l-128.53-185.24h122.48l68.8,102.07,68.05-102.07h118.7l-128.53,182.97,144.41,207.92h-122.48l-81.66-123.24-81.66,123.24h-120.22l140.63-205.65Z"/><path class="cls-2" d="m931.33,518.55c0-21.88-.71-39.52-1.41-55.75h27.87l1.41,29.28h.71c12.7-20.82,32.81-33.17,60.69-33.17,41.28,0,72.33,34.93,72.33,86.8,0,61.39-37.4,91.74-77.62,91.74-22.58,0-42.34-9.88-52.57-26.82h-.71v92.79h-30.7v-184.88Zm30.7,45.52c0,4.59.71,8.82,1.41,12.7,5.65,21.52,24.35,36.34,46.57,36.34,32.81,0,51.87-26.82,51.87-65.98,0-34.22-17.99-63.51-50.81-63.51-21.17,0-40.93,15.17-46.93,38.46-1.06,3.88-2.12,8.47-2.12,12.7v29.28Z"/><path class="cls-2" d="m1163.84,395.77v99.5h115.02v-99.5h31.05v237.81h-31.05v-111.49h-115.02v111.49h-30.7v-237.81h30.7Z"/><path class="cls-2" d="m1469.39,512.91c-25.4-12-36.34-31.75-36.34-51.51,0-36.34,30.7-61.04,70.92-61.04,44.46,0,66.68,27.87,66.68,56.45,0,19.41-9.53,40.22-37.75,53.63v1.06c28.58,11.29,46.22,31.4,46.22,59.27,0,39.87-34.22,66.69-77.97,66.69-47.99,0-76.92-28.58-76.92-62.1,0-28.93,17.29-49.4,45.51-61.39l-.35-1.06Zm78.33,61.04c0-27.87-19.41-41.28-50.46-50.1-26.81,7.76-41.28,25.4-41.28,47.28-1.06,23.29,16.58,43.75,45.87,43.75s45.87-17.64,45.87-40.93Zm-85.38-114.67c0,22.93,17.29,35.28,43.75,42.34,19.76-6.7,34.93-20.82,34.93-41.63,0-18.35-10.94-37.4-38.81-37.4-25.76,0-39.87,16.94-39.87,36.69Z"/><path class="cls-2" d="m1598.17,676.97c7.41-20.82,16.94-58.57,20.82-84.33l34.58-3.53c-8.12,29.99-23.64,69.15-33.52,85.74l-21.88,2.12Z"/><path class="cls-2" d="m1833.5,516.44c0,77.98-28.93,121.02-79.74,121.02-44.81,0-75.15-41.99-75.86-117.85,0-76.92,33.17-119.26,79.74-119.26s75.86,43.04,75.86,116.08Zm-124.55,3.53c0,59.63,18.35,93.5,46.57,93.5,31.75,0,46.93-37.05,46.93-95.62s-14.47-93.5-46.57-93.5c-27.17,0-46.93,33.17-46.93,95.62Z"/></g></svg>