<svg id="Ebene_1" data-name="Ebene 1" xmlns="http://www.w3.org/2000/svg" viewBox="0 0 39.68 39.68"><defs><style>.cls-1{fill:#9b9b9b;}.cls-2{fill:#1d1d1b;}</style></defs><rect class="cls-1" width="39.68" height="39.68"/><path class="cls-2" d="M29.29,25.28c-1,0-1.75-.84-1.75-2.22s.72-2.22,1.75-2.22S31,21.71,31,23.06s-.72,2.22-1.74,2.22m1.87-5.94-.07,1a2.58,2.58,0,0,0-2.27-1.15c-1.91,0-3.31,1.45-3.31,3.91s1.37,4,3.31,4a2.6,2.6,0,0,0,2.1-.95V27.2c0,1-.39,1.55-1.62,1.55-.92,0-1.44-.32-1.56-1H25.79c.15,1.62,1.33,2.61,3.56,2.61S33,29.21,33,27.17V19.34Zm-8.43,7.74h2.5l-3.07-4.7,3-3H22.52l-2.63,2.92V16.4H17.78V27.08h2.11V24.51l.78-.79ZM15.9,21.31H11.45v1.85H14a2.53,2.53,0,0,1-2.61,2.35c-1.85,0-2.89-1.52-2.89-3.77s1-3.66,2.89-3.66a2.13,2.13,0,0,1,2.28,1.83l2.17-.14c-.36-2.23-1.93-3.59-4.57-3.59-2.86,0-5,2.11-5,5.56s2.15,5.58,4.86,5.58a3.46,3.46,0,0,0,3-1.39l.35,1.15H15.9Z"/></svg>