<svg id="Ebene_1" data-name="Ebene 1" xmlns="http://www.w3.org/2000/svg" viewBox="0 0 39.68 39.69"><defs><style>.cls-1{fill:#9b9b9b;}.cls-2{fill:#1d1d1b;}</style></defs><rect class="cls-1" width="39.68" height="39.69"/><path class="cls-2" d="M31.2,19.34l-.71,2.33L29.74,25,29,21.67l-.65-2.33H26.07l2.55,7.74h2.16l2.55-7.74Zm-8.09,7.74h2.51l-3.08-4.69,3-3.05H22.9l-2.62,2.93V16.4H18.16V27.08h2.12V24.52l.78-.8Zm-6.82-5.77H11.83v1.85h2.54a2.52,2.52,0,0,1-2.61,2.35c-1.85,0-2.88-1.52-2.88-3.77s1-3.66,2.88-3.66A2.13,2.13,0,0,1,14,19.91l2.17-.13c-.36-2.24-1.93-3.6-4.57-3.6-2.85,0-5,2.11-5,5.56s2.16,5.58,4.86,5.58a3.44,3.44,0,0,0,3-1.39l.35,1.15h1.44Z"/></svg>