<svg id="Ebene_1" data-name="Ebene 1" xmlns="http://www.w3.org/2000/svg" viewBox="0 0 39.68 39.68"><defs><style>.cls-1{fill:#009fda;}.cls-2{fill:#1d1d1b;}</style></defs><rect class="cls-1" width="39.68" height="39.68"/><path class="cls-2" d="M26.85,25.42c-.78,0-1.22-.38-1.22-.93s.36-.84,1-1l2-.42v.57a1.66,1.66,0,0,1-1.77,1.76m4.09,1.33a3.27,3.27,0,0,1-.3-1.62V21.71c0-1.9-1.12-2.88-3.34-2.88s-3.15.8-3.3,2.49l1.93,0c.11-.72.51-1,1.38-1s1.31.27,1.31.84v.57l-2.7.54c-1.56.32-2.36,1.11-2.36,2.34A2.39,2.39,0,0,0,26.25,27a3,3,0,0,0,2.38-1c.05.27.11.51.17.78Zm-10.77,0h2.12V16.07H20.17ZM18.3,21H13.84v1.86h2.54a2.52,2.52,0,0,1-2.61,2.34c-1.85,0-2.88-1.52-2.88-3.77s1-3.66,2.88-3.66a2.13,2.13,0,0,1,2.28,1.83l2.17-.13c-.36-2.24-1.93-3.6-4.57-3.6-2.85,0-5,2.11-5,5.56S10.83,27,13.53,27a3.44,3.44,0,0,0,3-1.39l.35,1.15H18.3Z"/></svg>