<svg id="Ebene_1" data-name="Ebene 1" xmlns="http://www.w3.org/2000/svg" viewBox="0 0 39.69 39.69"><defs><style>.cls-1{fill:#ff5800;}.cls-2{fill:#1d1d1b;}</style></defs><rect class="cls-1" width="39.69" height="39.69"/><path class="cls-2" d="M28.79,27.08H30.9V16.4H28.79Zm-5.32-1.39c-1.19,0-1.93-1-1.93-2.45s.74-2.45,1.93-2.45,1.92,1,1.92,2.45-.74,2.45-1.92,2.45m0,1.64a3.9,3.9,0,0,0,4-4.09,4,4,0,1,0-7.92,0,3.89,3.89,0,0,0,4,4.09m-5.43-6H13.58v1.85h2.54a2.53,2.53,0,0,1-2.61,2.35c-1.85,0-2.89-1.52-2.89-3.77s1-3.66,2.89-3.66a2.13,2.13,0,0,1,2.28,1.83L18,19.77c-.36-2.23-1.93-3.59-4.57-3.59-2.85,0-5,2.11-5,5.56s2.16,5.58,4.86,5.58a3.46,3.46,0,0,0,3-1.39l.35,1.15H18Z"/></svg>