<svg id="Ebene_1" data-name="Ebene 1" xmlns="http://www.w3.org/2000/svg" viewBox="0 0 39.69 39.68"><defs><style>.cls-1{fill:#92d400;}.cls-2{fill:#1d1d1b;}</style></defs><rect class="cls-1" width="39.69" height="39.68"/><path class="cls-2" d="M25.5,27.28c2.08,0,3.43-1,3.43-2.58,0-1.2-.72-1.91-2.26-2.22L25,22.13c-.55-.12-.87-.37-.87-.78s.45-.82,1.16-.82a1.34,1.34,0,0,1,1.47,1.08l1.9-.08c-.19-1.51-1.47-2.47-3.34-2.47s-3.15,1-3.15,2.55c0,1.18.73,2,2.25,2.26l1.53.3c.7.14,1,.37,1,.79,0,.58-.6.85-1.4.85-1,0-1.53-.43-1.65-1.2L22,24.69c.19,1.64,1.39,2.59,3.51,2.59m-5.12-6.06H15.93v1.86h2.53a2.51,2.51,0,0,1-2.61,2.34C14,25.42,13,23.9,13,21.66S14,18,15.85,18a2.12,2.12,0,0,1,2.28,1.83l2.18-.13c-.36-2.24-1.94-3.6-4.58-3.6-2.85,0-5,2.11-5,5.57s2.16,5.57,4.86,5.57a3.44,3.44,0,0,0,3-1.39L18.94,27h1.44Z"/><path class="cls-2" d="M36.22,7.5H34l-.29,2.18a4.87,4.87,0,0,1,.63,0c.91,0,1.3.42,1.31,1a1,1,0,0,1-1.08,1,2,2,0,0,1-1-.25l-.16.46a2.25,2.25,0,0,0,1.14.28,1.58,1.58,0,0,0,1.69-1.55,1.31,1.31,0,0,0-.65-1.17,1.9,1.9,0,0,0-1-.24,1.77,1.77,0,0,0-.37,0L34.48,8h1.74Zm-3.74,5.37a8.39,8.39,0,0,0,.66-1.7l-.68.07A10.72,10.72,0,0,1,32,12.91Zm-.76-.82v-.51h-2v0l.35-.33c1-.93,1.57-1.61,1.57-2.45a1.28,1.28,0,0,0-1.39-1.32,2,2,0,0,0-1.28.46l.19.44a1.52,1.52,0,0,1,1-.39.81.81,0,0,1,.9.89c0,.69-.54,1.28-1.7,2.38l-.48.47v.38Zm-4.15,0h.6V7.5h-.53l-1,.53.12.47.79-.43h0ZM21,7.33v4.72h.61V9.84h2.28v2.21h.62V7.33h-.62v2H21.61v-2Zm-3.4,2.76a.92.92,0,0,1,0-.25,1,1,0,0,1,.93-.77c.65,0,1,.58,1,1.26s-.38,1.31-1,1.31a1,1,0,0,1-.93-.72,1.9,1.9,0,0,1,0-.25ZM17,13.43h.6V11.59h0a1.17,1.17,0,0,0,1,.53A1.6,1.6,0,0,0,20.2,10.3a1.53,1.53,0,0,0-1.43-1.72,1.34,1.34,0,0,0-1.21.66h0l0-.58H17c0,.32,0,.67,0,1.11Z"/></svg>