<svg id="Ebene_1" data-name="Ebene 1" xmlns="http://www.w3.org/2000/svg" viewBox="0 0 39.69 39.69"><defs><style>.cls-1{fill:#92d400;}.cls-2{fill:#1d1d1b;}</style></defs><rect class="cls-1" width="39.69" height="39.69"/><path class="cls-2" d="M29.66,25.39c-1,0-1.74-.9-1.74-2.3s.72-2.28,1.74-2.28,1.74.87,1.74,2.28-.72,2.3-1.74,2.3m.62-6.33A2.74,2.74,0,0,0,28,20V16.32H25.91V27h1.87l.08-1a2.54,2.54,0,0,0,2.25,1.22c2,0,3.33-1.66,3.33-4.16s-1.41-4-3.16-4m-9.23,8.22c2.09,0,3.43-1,3.43-2.58,0-1.2-.71-1.91-2.26-2.22l-1.67-.35c-.55-.12-.87-.37-.87-.78s.45-.82,1.16-.82a1.33,1.33,0,0,1,1.47,1.08l1.9-.08C24,20,22.75,19.06,20.87,19.06s-3.15,1-3.15,2.55c0,1.18.74,2,2.25,2.26l1.53.3c.71.14,1,.37,1,.79,0,.58-.6.85-1.39.85-1,0-1.54-.43-1.66-1.2l-1.93.08c.2,1.64,1.4,2.59,3.51,2.59m-5.12-6.06H11.48v1.86H14a2.52,2.52,0,0,1-2.61,2.34c-1.85,0-2.89-1.52-2.89-3.76S9.54,18,11.41,18a2.13,2.13,0,0,1,2.28,1.83l2.17-.13c-.36-2.24-1.93-3.6-4.57-3.6-2.86,0-5,2.11-5,5.57s2.15,5.57,4.86,5.57a3.44,3.44,0,0,0,3-1.39L14.5,27h1.43Z"/><path class="cls-2" d="M36.22,7.63H34l-.29,2.19a4.87,4.87,0,0,1,.63-.05c.91,0,1.3.42,1.31,1a1,1,0,0,1-1.08,1,2,2,0,0,1-1-.25l-.16.47a2.25,2.25,0,0,0,1.14.28,1.58,1.58,0,0,0,1.69-1.55,1.3,1.3,0,0,0-.65-1.17,1.91,1.91,0,0,0-1-.25,2.89,2.89,0,0,0-.37,0l.17-1.17h1.74ZM32.48,13a8.16,8.16,0,0,0,.66-1.7l-.68.07A10.72,10.72,0,0,1,32,13ZM30.1,8c.64,0,.93.6.93,1.38a.42.42,0,0,1-.05.22,1.05,1.05,0,0,1-.9.48.88.88,0,0,1-.88-1c0-.64.37-1.11.9-1.11M29,12.25a3,3,0,0,0,.57,0,2.31,2.31,0,0,0,1.32-.61,2.89,2.89,0,0,0,.78-2.14c0-1.16-.57-1.91-1.5-1.91A1.55,1.55,0,0,0,28.6,9.17a1.32,1.32,0,0,0,1.34,1.4A1.36,1.36,0,0,0,31,10.08h0a2,2,0,0,1-.6,1.21,1.78,1.78,0,0,1-.95.44,3.08,3.08,0,0,1-.5,0ZM22.79,7.47v4.71h.61V10h2.28v2.21h.62V7.47h-.62v2H23.4v-2ZM19.4,10.22a1.09,1.09,0,0,1,0-.25,1,1,0,0,1,.93-.76c.65,0,1,.58,1,1.26s-.38,1.31-1,1.31a1,1,0,0,1-.93-.72,2,2,0,0,1,0-.26Zm-.61,3.35h.61V11.73h0a1.2,1.2,0,0,0,1,.53A1.6,1.6,0,0,0,22,10.44a1.53,1.53,0,0,0-1.43-1.72,1.34,1.34,0,0,0-1.21.66h0l0-.58h-.55c0,.32,0,.67,0,1.1Z"/></svg>