<svg id="Ebene_1" data-name="Ebene 1" xmlns="http://www.w3.org/2000/svg" viewBox="0 0 39.68 39.69"><defs><style>.cls-1{fill:#ffcb00;}.cls-2{fill:#1d1d1b;}</style></defs><rect class="cls-1" width="39.68" height="39.69"/><path class="cls-2" d="M31.24,18.09h.59V16.4H30.72a2.22,2.22,0,0,0-2.48,2.47v.52l-1.08-.05V20.9l1.08,0v6.23h2.12V20.85l1.47,0V19.34l-1.47.05V19a.77.77,0,0,1,.88-.89M23,27.36c2.08,0,3.43-.94,3.43-2.57,0-1.21-.72-1.91-2.26-2.23l-1.67-.34c-.55-.12-.87-.38-.87-.78s.45-.83,1.16-.83a1.35,1.35,0,0,1,1.47,1.08l1.9-.07c-.19-1.52-1.47-2.47-3.34-2.47s-3.15,1-3.15,2.54c0,1.19.73,2,2.25,2.27l1.53.3c.7.13,1,.36,1,.78,0,.59-.6.86-1.4.86-1,0-1.53-.44-1.65-1.2l-1.93.07c.19,1.65,1.39,2.59,3.51,2.59m-5.12-6.05H13.41v1.85h2.53a2.52,2.52,0,0,1-2.61,2.35c-1.84,0-2.88-1.52-2.88-3.77s1-3.66,2.88-3.66a2.12,2.12,0,0,1,2.28,1.83l2.18-.14c-.36-2.23-1.94-3.59-4.58-3.59-2.85,0-5,2.11-5,5.56s2.16,5.58,4.86,5.58a3.47,3.47,0,0,0,3-1.39l.34,1.15h1.44Z"/><path class="cls-2" d="M36.22,7.58H34l-.29,2.19a3.56,3.56,0,0,1,.63,0c.91,0,1.3.42,1.31,1a1,1,0,0,1-1.08,1,2.06,2.06,0,0,1-1-.25l-.16.47a2.25,2.25,0,0,0,1.14.28,1.58,1.58,0,0,0,1.69-1.56,1.3,1.3,0,0,0-.65-1.16,1.91,1.91,0,0,0-1-.25,2.89,2.89,0,0,0-.37,0l.17-1.17h1.74ZM32.48,13a9,9,0,0,0,.67-1.7l-.69.07A10.72,10.72,0,0,1,32,13ZM29.05,7.58v.51h2.23v0l-2,4h.63l2-4.14V7.58Zm-5.52-.17v4.72h.61V9.92h2.28v2.21H27V7.41h-.61v2H24.14v-2Zm-3.4,2.76a1.09,1.09,0,0,1,0-.25,1,1,0,0,1,.94-.76c.65,0,1,.58,1,1.26s-.37,1.31-1,1.31a1,1,0,0,1-.93-.72,2.06,2.06,0,0,1,0-.26Zm-.61,3.35h.61V11.68h0a1.19,1.19,0,0,0,1,.53,1.6,1.6,0,0,0,1.54-1.82A1.53,1.53,0,0,0,21.3,8.67a1.33,1.33,0,0,0-1.21.65h0l0-.58H19.5c0,.33,0,.68,0,1.11Z"/></svg>