<svg id="Ebene_1" data-name="Ebene 1" xmlns="http://www.w3.org/2000/svg" viewBox="0 0 39.68 39.69"><defs><style>.cls-1{fill:#00c7b2;}.cls-2{fill:#1d1d1b;}</style></defs><rect class="cls-1" width="39.68" height="39.69"/><path class="cls-2" d="M31.53,18.09h.58V16.4H31a2.22,2.22,0,0,0-2.47,2.48v.51l-1.08-.05V20.9l1.08,0v6.23h2.11V20.85l1.47,0V19.34l-1.47.05V19a.78.78,0,0,1,.89-.89m-7.32,1.25v4.14c0,1.16-.62,1.89-1.52,1.89s-1.12-.51-1.12-1.32V19.34H19.45v5.19A2.44,2.44,0,0,0,22,27.27,2.42,2.42,0,0,0,24.22,26l0,1h2.07V19.34Zm-6.63,2H13.12v1.85h2.54a2.52,2.52,0,0,1-2.61,2.35c-1.85,0-2.88-1.52-2.88-3.77s1-3.66,2.88-3.66a2.13,2.13,0,0,1,2.28,1.83l2.17-.13c-.36-2.24-1.93-3.6-4.57-3.6-2.85,0-5,2.11-5,5.56s2.16,5.58,4.86,5.58a3.44,3.44,0,0,0,3-1.39l.35,1.15h1.44Z"/></svg>