<svg id="Ebene_1" data-name="Ebene 1" xmlns="http://www.w3.org/2000/svg" viewBox="0 0 39.68 39.68"><defs><style>.cls-1{fill:#020a0a;}.cls-2{fill:#fff;}.cls-3{fill:#f40034;}</style></defs><rect class="cls-1" width="39.68" height="39.68"/><path class="cls-2" d="M33.09,29.7h1.5V23.3h-1.4v.14c0,.66-.55,1-1.24,1H31.5v1.12h1.59Zm-5.24-1.12c-.75,0-1.15-.57-1.15-2s.4-2,1.15-2,1.16.56,1.16,2-.41,2-1.16,2m0,1.36c1.83,0,2.79-1.27,2.79-3.43s-1-3.36-2.79-3.36-2.79,1.24-2.79,3.36,1,3.43,2.79,3.43M17.37,27.08h2.49c.16-3.51,1.18-5.85,3.81-8.84V16.4H15.75v2h5.38a13.6,13.6,0,0,0-3.76,8.69M11.56,16.4v4.13H7.39V16.4H5.17V27.08H7.39V22.5h4.17v4.58h2.22V16.4Z"/><path class="cls-2" d="M34.8,33c.64,0,.93.74.93,1.86s-.3,1.9-.93,1.9-.93-.68-.93-1.86.39-1.9.93-1.9m0-.47c-.93,0-1.58.84-1.58,2.36s.61,2.34,1.5,2.34,1.58-.85,1.58-2.4-.54-2.3-1.5-2.3m-2.73,5.44a8.76,8.76,0,0,0,.66-1.7l-.68.07A11.15,11.15,0,0,1,31.67,38Zm-3.66-1.05a2.33,2.33,0,0,0,1.19.31c1.08,0,1.66-.63,1.66-1.36a1.19,1.19,0,0,0-1-1.17v0a1.14,1.14,0,0,0,.84-1.07c0-.55-.4-1.08-1.31-1.08a2.15,2.15,0,0,0-1.19.35l.17.45A1.7,1.7,0,0,1,29.7,33c.57,0,.8.33.8.69,0,.54-.57.77-1,.77h-.34v.46h.34c.6,0,1.17.28,1.18.91a.9.9,0,0,1-1,.89,2.06,2.06,0,0,1-1-.29Z"/><path class="cls-2" d="M36.22,7.58H34l-.29,2.19a3.48,3.48,0,0,1,.63,0c.91,0,1.3.42,1.31,1a1,1,0,0,1-1.08,1,2.07,2.07,0,0,1-1-.25l-.15.47a2.24,2.24,0,0,0,1.13.28,1.58,1.58,0,0,0,1.7-1.55,1.3,1.3,0,0,0-.65-1.17,1.91,1.91,0,0,0-1-.25,2.89,2.89,0,0,0-.37,0l.17-1.17h1.74ZM32.48,13a9,9,0,0,0,.66-1.7l-.68.07A10.72,10.72,0,0,1,32,13ZM29.05,7.58v.51h2.22v0l-2,4h.63l2-4.14V7.58Z"/><rect class="cls-3" width="39.68" height="4.25"/></svg>