<svg xmlns="http://www.w3.org/2000/svg" viewBox="0 0 2000.2 2000.15"><defs><style>.cls-1{fill:#e3032e;}.cls-2{fill:#fff;}</style></defs><g id="Farbcode"><rect width="2000.15" height="2000.15"/><rect class="cls-1" width="2000.2" height="214.3"/></g><g id="H9.02"><path class="cls-2" d="M266.73,783.1H385.44V990.26h218.5V783.1h118.7v539.83H603.94V1090.06H385.44v232.87H266.73Z" transform="translate(0.2 -0.14)"/><path class="cls-2" d="M901.83,1186.84c6.81,35.54,34,65.78,71.07,65.78,77.88,0,98.29-102.07,101.32-161l-1.52-1.52c-29.48,41.59-68,59-119.45,59-45.37,0-91.49-21.17-121.73-54.44-28-32.51-40.83-76.36-40.83-117.95,0-108.11,74.85-193.55,185.24-193.55,160.28,0,203.38,139.87,203.38,273.7,0,129.28-57.46,276.72-207.92,276.72-91.48,0-159.53-53.68-171.63-146.68Zm162.56-217c0-49.15-31.76-98.29-85.44-98.29-51.41,0-80.9,49.14-80.9,96.78,0,49.9,25.71,99.8,80.9,99.8C1036.41,1068.14,1064.39,1022,1064.39,969.85Z" transform="translate(0.2 -0.14)"/><path class="cls-2" d="M1340.73,1107.18c67.81,0,125,42.63,125,174.86,0,135.13-57.16,177.76-125,177.76-66.84,0-124-42.63-124-177.76C1216.74,1149.81,1273.89,1107.18,1340.73,1107.18Zm0,296c56.19,0,56.19-82.83,56.19-121.09,0-35.36,0-118.19-56.19-118.19-55.22,0-55.22,82.83-55.22,118.19C1285.51,1320.3,1285.51,1403.13,1340.73,1403.13Z" transform="translate(0.2 -0.14)"/><path class="cls-2" d="M1515.1,1244.26c-2.42-77.5,41.65-137.08,123-137.08,62,0,116.24,39.72,116.24,106.08,0,50.86-27.12,79-60.54,102.68s-73.14,43.11-97.84,78h160.32V1453h-249c.48-78.47,48.44-111.89,107-151.61,30-20.34,70.72-41.17,71.2-82.82,0-32-21.31-52.32-50.85-52.32-40.69,0-53.77,42.14-53.77,78Z" transform="translate(0.2 -0.14)"/><path class="cls-2" d="M1574.69,1662.91a112.33,112.33,0,0,0-23.28,1.41c-48.69,8.12-74.44,43.75-79.73,81.5h1.06c10.93-14.47,30-26.46,55.38-26.46,40.58,0,69.15,29.28,69.15,74.09,0,42-28.57,80.79-76.2,80.79-49,0-81.15-38.1-81.15-97.73,0-45.16,16.23-80.79,38.81-103.37,19-18.7,44.46-30.34,73.39-33.87a149,149,0,0,1,22.57-1.76Zm-53.27,187.34c26.46,0,44.45-22.23,44.45-55s-18.69-52.57-47.27-52.57c-18.7,0-36,11.65-44.45,28.23a26.39,26.39,0,0,0-3.53,13.76c.7,37.75,18,65.62,50.45,65.62Z" transform="translate(0.2 -0.14)"/><path class="cls-2" d="M1614.91,1913.75c7.41-20.81,16.93-58.56,20.82-84.32l34.57-3.52c-8.11,30-23.64,69.14-33.52,85.72Z" transform="translate(0.2 -0.14)"/><path class="cls-2" d="M1850.22,1753.23c0,78-28.93,121-79.73,121-44.8,0-75.15-42-75.85-117.84,0-76.91,33.16-119.24,79.73-119.24C1822.71,1637.16,1850.22,1680.2,1850.22,1753.23Zm-124.53,3.53c0,59.62,18.34,93.49,46.56,93.49,31.76,0,46.93-37,46.93-95.61,0-56.45-14.47-93.49-46.57-93.49C1745.44,1661.15,1725.69,1694.31,1725.69,1756.76Z" transform="translate(0.2 -0.14)"/><path class="cls-2" d="M1461.8,589.64c6.7.71,14.46,0,25-1.06,18-2.47,34.92-9.87,48-22.22,15.17-13.76,26.1-33.87,30.34-61h-1.06c-12.7,15.53-31,24.7-54,24.7-41.28,0-67.74-31-67.74-70.21,0-43.39,31.4-81.49,78.33-81.49s75.85,38.1,75.85,96.66c0,50.45-16.94,85.73-39.52,107.61-17.64,17.28-42,27.87-66.67,30.69A144.33,144.33,0,0,1,1461.8,615ZM1517.89,402c-26.1,0-44.8,23.29-44.8,55.74,0,28.58,17.29,48.69,44.1,48.69,20.81,0,37-10.23,45.16-24,1.76-2.82,2.82-6.35,2.82-11.29,0-39.16-14.47-69.15-46.92-69.15Z" transform="translate(0.2 -0.14)"/><path class="cls-2" d="M1614.91,654.91c7.41-20.82,16.93-58.57,20.82-84.32l34.57-3.53c-8.11,30-23.64,69.15-33.52,85.73Z" transform="translate(0.2 -0.14)"/><path class="cls-2" d="M1850.22,494.39c0,78-28.93,121-79.73,121-44.8,0-75.15-42-75.85-117.84,0-76.91,33.16-119.24,79.73-119.24C1822.71,378.32,1850.22,421.36,1850.22,494.39Zm-124.53,3.52c0,59.63,18.34,93.5,46.56,93.5,31.76,0,46.93-37,46.93-95.61,0-56.45-14.47-93.49-46.57-93.49C1745.44,402.31,1725.69,435.47,1725.69,497.91Z" transform="translate(0.2 -0.14)"/></g></svg>