<svg id="Ebene_1" data-name="Ebene 1" xmlns="http://www.w3.org/2000/svg" viewBox="0 0 39.68 39.68"><defs><style>.cls-1{fill:#807454;}.cls-2{fill:#c53684;}.cls-3{fill:#1d1d1b;}</style></defs><rect class="cls-1" width="39.68" height="39.68"/><rect class="cls-2" width="39.68" height="4.25"/><path class="cls-3" d="M24.93,25.48c-1,0-1.74-.87-1.74-2.3s.72-2.28,1.74-2.28,1.75.88,1.75,2.28-.72,2.3-1.75,2.3m1.64-9.08v3.72a2.72,2.72,0,0,0-2.25-1c-1.76,0-3.16,1.49-3.16,4s1.37,4.15,3.32,4.15a2.56,2.56,0,0,0,2.26-1.21l.07,1h1.87V16.4Zm-9.1,0v4.13H13.29V16.4H11.08V27.08h2.21V22.5h4.18v4.58h2.21V16.4Z"/><path class="cls-3" d="M36.22,7.58H34l-.29,2.19a4.87,4.87,0,0,1,.63,0c.91,0,1.3.42,1.31,1a1,1,0,0,1-1.08,1,2,2,0,0,1-1-.25l-.16.47a2.24,2.24,0,0,0,1.13.28,1.58,1.58,0,0,0,1.7-1.55,1.3,1.3,0,0,0-.65-1.17,1.91,1.91,0,0,0-1-.25,2.89,2.89,0,0,0-.37,0l.17-1.17h1.74ZM32.48,13a8.76,8.76,0,0,0,.66-1.7l-.68.07A10.72,10.72,0,0,1,32,13Zm-3.37-2.54h0l1.11-1.55c.13-.21.23-.41.38-.67h0c0,.24,0,.47,0,.71v1.52Zm2.07,1.72V10.89h.63v-.48h-.63V7.58h-.67l-2,2.91v.4H30.6v1.24ZM22.89,7.42v4.71h.61V9.92h2.28v2.21h.62V7.42h-.62v2H23.5v-2Zm-3.4,2.75a1.11,1.11,0,0,1,.05-.25,1,1,0,0,1,.93-.76c.65,0,1,.58,1,1.26s-.38,1.31-1,1.31a1,1,0,0,1-.93-.72,1.86,1.86,0,0,1,0-.26Zm-.6,3.35h.6V11.68h0a1.19,1.19,0,0,0,1,.53,1.6,1.6,0,0,0,1.54-1.82,1.53,1.53,0,0,0-1.43-1.72,1.32,1.32,0,0,0-1.21.66h0l0-.58h-.55c0,.32,0,.67,0,1.1Z"/></svg>