<svg xmlns="http://www.w3.org/2000/svg" viewBox="0 0 2000.52 2000.31"><defs><style>.cls-1{fill:#adafaf;}.cls-2{fill:#fff;}</style></defs><g id="Farbcode"><rect class="cls-1" x="0.2" width="2000.31" height="2000.31"/></g><g id="Farbcode-2" data-name="Farbcode"><rect y="0.14" width="2000.15" height="2000.15"/></g><g id="Hlp_1" data-name="Hlp 1"><path class="cls-2" d="M266.73,783.1H385.44V990.26h218.5V783.1h118.7v539.83H603.94V1090.06H385.44v232.87H266.73Z" transform="translate(0.2)"/><path class="cls-2" d="M818.66,783.1H926v539.83H818.66Z" transform="translate(0.2)"/><path class="cls-2" d="M1010.7,932.05h102.07V982h1.52c25.7-41.59,68-60.49,116.43-60.49,122.48,0,177.68,99,177.68,210.19,0,104.34-57.46,201.87-171.63,201.87-46.88,0-91.49-20.41-117.19-59h-1.51v186H1010.7ZM1301,1128.62c0-62-25-126.26-93.76-126.26-70.31,0-93,62.75-93,126.26s24.19,124,93.75,124C1278.35,1252.62,1301,1192.13,1301,1128.62Z" transform="translate(0.2)"/><path class="cls-2" d="M1728.21,1322.93H1620.85V979.68H1487.78v-80.9c74.85,1.51,143.65-24.2,155-105.1h85.44Z" transform="translate(0.2)"/><path class="cls-2" d="M1571.17,1667.15h-87.5l-8.82,58.91a123.33,123.33,0,0,1,18.7-1.41c17.64,0,35.28,3.88,49.39,12.35,18,10.23,32.81,30,32.81,58.92,0,44.8-35.63,78.32-85.37,78.32-25.05,0-46.22-7.06-57.16-14.11l7.76-23.64c9.53,5.64,28.23,12.7,49,12.7,29.28,0,54.33-19,54.33-49.74-.35-29.64-20.11-50.81-66-50.81a236.87,236.87,0,0,0-31.75,2.47L1461.45,1641h109.72Z" transform="translate(0.2)"/><path class="cls-2" d="M1596.21,1913.75c7.41-20.81,16.94-58.56,20.82-84.32l34.57-3.52c-8.11,30-23.63,69.14-33.51,85.72Z" transform="translate(0.2)"/><path class="cls-2" d="M1831.53,1753.23c0,78-28.93,121-79.74,121-44.8,0-75.14-42-75.85-117.84,0-76.91,33.17-119.24,79.74-119.24C1804,1637.16,1831.53,1680.2,1831.53,1753.23ZM1707,1756.76c0,59.62,18.34,93.49,46.57,93.49,31.75,0,46.92-37,46.92-95.61,0-56.45-14.46-93.49-46.57-93.49C1726.75,1661.15,1707,1694.31,1707,1756.76Z" transform="translate(0.2)"/><path class="cls-2" d="M1461.8,587.64c6.7.71,14.46,0,25-1.06,18-2.47,34.92-9.87,48-22.22,15.17-13.76,26.1-33.87,30.34-61h-1.06c-12.7,15.53-31,24.7-54,24.7-41.28,0-67.74-31-67.74-70.21,0-43.39,31.4-81.49,78.33-81.49s75.85,38.1,75.85,96.66c0,50.45-16.94,85.73-39.52,107.61-17.64,17.28-42,27.87-66.67,30.69A144.33,144.33,0,0,1,1461.8,613ZM1517.89,400c-26.1,0-44.8,23.29-44.8,55.74,0,28.58,17.29,48.69,44.1,48.69,20.81,0,37-10.23,45.16-24,1.76-2.82,2.82-6.35,2.82-11.29,0-39.16-14.47-69.15-46.92-69.15Z" transform="translate(0.2)"/><path class="cls-2" d="M1614.91,652.91c7.41-20.82,16.93-58.57,20.82-84.32l34.57-3.53c-8.11,30-23.64,69.15-33.52,85.73Z" transform="translate(0.2)"/><path class="cls-2" d="M1850.22,492.39c0,78-28.93,121-79.73,121-44.8,0-75.15-42-75.85-117.84,0-76.91,33.16-119.24,79.73-119.24C1822.71,376.32,1850.22,419.36,1850.22,492.39Zm-124.53,3.52c0,59.63,18.34,93.5,46.56,93.5,31.76,0,46.93-37,46.93-95.61,0-56.45-14.47-93.49-46.57-93.49C1745.44,400.31,1725.69,433.47,1725.69,495.91Z" transform="translate(0.2)"/></g></svg>