<svg xmlns="http://www.w3.org/2000/svg" viewBox="0 0 2000.52 2000.31"><defs><style>.cls-1{fill:#adafaf;}.cls-2{fill:#fff;}</style></defs><g id="Farbcode"><rect class="cls-1" x="0.2" width="2000.31" height="2000.31"/></g><g id="Farbcode-2" data-name="Farbcode"><rect y="0.14" width="2000.15" height="2000.15"/></g><g id="Hlp_2" data-name="Hlp 2"><path class="cls-2" d="M266.73,783.1H385.44V990.26h218.5V783.1h118.7v539.83H603.94V1090.06H385.44v232.87H266.73Z" transform="translate(0.2)"/><path class="cls-2" d="M818.66,783.1H926v539.83H818.66Z" transform="translate(0.2)"/><path class="cls-2" d="M1010.7,932.05h102.07V982h1.52c25.7-41.59,68-60.49,116.43-60.49,122.48,0,177.68,99,177.68,210.19,0,104.34-57.46,201.87-171.63,201.87-46.88,0-91.49-20.41-117.19-59h-1.51v186H1010.7ZM1301,1128.62c0-62-25-126.26-93.76-126.26-70.31,0-93,62.75-93,126.26s24.19,124,93.75,124C1278.35,1252.62,1301,1192.13,1301,1128.62Z" transform="translate(0.2)"/><path class="cls-2" d="M1459.8,997.07c-3.78-121,65-214,192-214,96.77,0,181.45,62,181.45,165.58,0,79.39-42.34,123.24-94.51,160.29s-114.16,67.29-152.72,121.72h250.26v92.24H1447.71c.75-122.48,75.6-174.65,167.09-236.65,46.88-31.75,110.39-64.26,111.14-129.28,0-49.91-33.27-81.66-79.39-81.66-63.51,0-83.92,65.78-83.92,121.73Z" transform="translate(0.2)"/><path class="cls-2" d="M1486.14,1749.7c-25.4-12-36.34-31.75-36.34-51.51,0-36.34,30.7-61,70.92-61,44.45,0,66.67,27.87,66.67,56.45,0,19.4-9.52,40.21-37.74,53.62v1.06c28.57,11.29,46.21,31.4,46.21,59.27,0,39.87-34.22,66.68-78,66.68-48,0-76.91-28.58-76.91-62.09,0-28.93,17.29-49.4,45.51-61.39Zm78.32,61c0-27.87-19.4-41.27-50.45-50.09-26.81,7.76-41.27,25.4-41.27,47.27-1.06,23.29,16.58,43.75,45.86,43.75C1546.47,1851.66,1564.46,1834,1564.46,1810.73Zm-85.37-114.65c0,22.93,17.28,35.27,43.74,42.33,19.76-6.7,34.93-20.81,34.93-41.63,0-18.34-10.94-37.4-38.81-37.4C1493.2,1659.38,1479.09,1676.32,1479.09,1696.08Z" transform="translate(0.2)"/><path class="cls-2" d="M1614.91,1913.75c7.41-20.81,16.93-58.56,20.82-84.32l34.57-3.52c-8.11,30-23.64,69.14-33.52,85.72Z" transform="translate(0.2)"/><path class="cls-2" d="M1850.22,1753.23c0,78-28.93,121-79.73,121-44.8,0-75.15-42-75.85-117.84,0-76.91,33.16-119.24,79.73-119.24C1822.71,1637.16,1850.22,1680.2,1850.22,1753.23Zm-124.53,3.53c0,59.62,18.34,93.49,46.56,93.49,31.76,0,46.93-37,46.93-95.61,0-56.45-14.47-93.49-46.57-93.49C1745.44,1661.15,1725.69,1694.31,1725.69,1756.76Z" transform="translate(0.2)"/><path class="cls-2" d="M1574.69,404.07a112.33,112.33,0,0,0-23.28,1.41c-48.69,8.12-74.44,43.75-79.73,81.5h1.06c10.93-14.47,30-26.46,55.38-26.46,40.58,0,69.15,29.28,69.15,74.08,0,42-28.57,80.8-76.2,80.8-49,0-81.15-38.11-81.15-97.73,0-45.16,16.23-80.79,38.81-103.37,19-18.7,44.46-30.34,73.39-33.87a149,149,0,0,1,22.57-1.76Zm-53.27,187.34c26.46,0,44.45-22.23,44.45-55s-18.69-52.57-47.27-52.57c-18.7,0-36,11.64-44.45,28.23a26.36,26.36,0,0,0-3.53,13.76c.7,37.74,18,65.62,50.45,65.62Z" transform="translate(0.2)"/><path class="cls-2" d="M1614.91,654.91c7.41-20.82,16.93-58.57,20.82-84.32l34.57-3.53c-8.11,30-23.64,69.15-33.52,85.73Z" transform="translate(0.2)"/><path class="cls-2" d="M1850.22,494.39c0,78-28.93,121-79.73,121-44.8,0-75.15-42-75.85-117.84,0-76.91,33.16-119.24,79.73-119.24C1822.71,378.32,1850.22,421.36,1850.22,494.39Zm-124.53,3.52c0,59.63,18.34,93.5,46.56,93.5,31.76,0,46.93-37,46.93-95.61,0-56.45-14.47-93.49-46.57-93.49C1745.44,402.31,1725.69,435.47,1725.69,497.91Z" transform="translate(0.2)"/></g></svg>