<?xml version="1.0" encoding="UTF-8"?><svg xmlns="http://www.w3.org/2000/svg" viewBox="0 0 2000 2000"><defs><style>.cls-1{fill:#adafaf;}.cls-1,.cls-2{stroke-width:0px;}.cls-2{fill:#1d1d1b;}</style></defs><g id="Farbcode"><rect class="cls-1" width="2000.31" height="2000.31"/></g><g id="Hpc"><path class="cls-2" d="m339.3,802.04h118.7v207.16h218.5v-207.16h118.7v539.84h-118.7v-232.87h-218.5v232.87h-118.7v-539.84Z"/><path class="cls-2" d="m888.2,950.98h102.07v49.9h1.51c25.71-41.58,68.05-60.49,116.43-60.49,122.48,0,177.68,99.04,177.68,210.19,0,104.34-57.46,201.87-171.63,201.87-46.88,0-91.48-20.41-117.19-58.97h-1.51v185.99h-107.36v-528.5Zm290.33,196.58c0-62-24.95-126.26-93.75-126.26s-93,62.75-93,126.26,24.19,124,93.75,124,93-60.49,93-124Z"/><path class="cls-2" d="m1616.29,1088.59c-6.8-43.85-34.78-67.29-79.39-67.29-68.8,0-91.49,69.56-91.49,127.02s21.93,123.24,89.22,123.24c49.9,0,78.63-31.76,85.44-79.39h103.58c-13.61,103.58-85.44,160.29-188.26,160.29-117.95,0-197.33-83.17-197.33-200.36s72.58-211.7,199.6-211.7c92.24,0,176.92,48.39,183.73,148.19h-105.09Z"/></g></svg>