<svg id="Ebene_1" data-name="Ebene 1" xmlns="http://www.w3.org/2000/svg" viewBox="0 0 39.68 39.69"><defs><style>.cls-1{fill:#f40034;}.cls-2{fill:#1d1d1b;}</style></defs><rect class="cls-1" width="39.68" height="39.69"/><path class="cls-2" d="M27,18.77a1.84,1.84,0,0,0-1.75,1.31l0-1H23.19v7.74H25.3V23c0-1.51.63-2.24,1.92-2.24a3.25,3.25,0,0,1,.44,0V18.88a2,2,0,0,0-.68-.11M19.09,16.1v4.13H14.92V16.1H12.7V26.78h2.22V22.2h4.17v4.58h2.22V16.1Z"/><path class="cls-2" d="M36.39,11.83v-.51h-2l.35-.34c1-.92,1.57-1.6,1.57-2.44a1.28,1.28,0,0,0-1.39-1.32,1.91,1.91,0,0,0-1.28.46l.19.43a1.57,1.57,0,0,1,1-.38.8.8,0,0,1,.89.89c0,.68-.53,1.27-1.69,2.38l-.48.47v.37Zm-3.82.82a8.16,8.16,0,0,0,.66-1.7l-.68.07a10.72,10.72,0,0,1-.42,1.67Zm-2.34-5c.63,0,.92.74.92,1.86s-.3,1.89-.93,1.89-.93-.67-.93-1.85.4-1.9.94-1.9m0-.47c-.92,0-1.58.84-1.58,2.36s.61,2.34,1.5,2.34,1.58-.85,1.58-2.4-.54-2.3-1.5-2.3m-5.71,3.05h3.08V9.85H24.55ZM18.83,7.12v4.71h.61V9.62h2.28v2.21h.61V7.12h-.61v2H19.44v-2Zm-3.4,2.75a1.09,1.09,0,0,1,0-.25,1,1,0,0,1,.94-.76c.65,0,1,.58,1,1.26s-.37,1.31-1,1.31a1,1,0,0,1-.92-.72,1.86,1.86,0,0,1,0-.26Zm-.61,3.35h.61V11.38h0a1.19,1.19,0,0,0,1,.53A1.6,1.6,0,0,0,18,10.09a1.54,1.54,0,0,0-1.44-1.72,1.31,1.31,0,0,0-1.2.66h0l0-.58H14.8c0,.32,0,.67,0,1.1Z"/></svg>