<svg id="Ebene_1" data-name="Ebene 1" xmlns="http://www.w3.org/2000/svg" viewBox="0 0 39.68 39.68"><defs><style>.cls-1{fill:#f40034;}.cls-2{fill:#1d1d1b;}</style></defs><rect class="cls-1" width="39.68" height="39.68"/><path class="cls-2" d="M31.07,19.12a2.38,2.38,0,0,0-2.28,1.39,2.21,2.21,0,0,0-2.22-1.39,2.3,2.3,0,0,0-2.1,1.18l0-1H22.37v7.74h2.11V22.91c0-1.15.56-1.89,1.39-1.89s1,.59,1,1.28v4.75H29V22.91c0-1.15.56-1.89,1.39-1.89s1,.59,1,1.28v4.75h2.11V21.88c0-1.62-.86-2.76-2.47-2.76M20.49,19a1.84,1.84,0,0,0-1.75,1.31l0-1H16.7v7.74h2.11V23.29c0-1.5.63-2.24,1.92-2.24.15,0,.29,0,.44,0V19.15a2,2,0,0,0-.68-.11m-7.88-2.67V20.5H8.43V16.37H6.22V27.05H8.43V22.48h4.18v4.57h2.21V16.37Z"/><path class="cls-2" d="M34.8,8c.64,0,.93.74.93,1.86s-.3,1.9-.93,1.9-.93-.68-.93-1.86S34.26,8,34.8,8m0-.47c-.93,0-1.58.84-1.58,2.36s.61,2.34,1.5,2.34,1.58-.85,1.58-2.4-.54-2.3-1.5-2.3m-7.93-.09V12.1h.6V9.89H29.8V12.1h.61V7.39H29.8v2H27.51v-2Zm-3.4,2.75a1.09,1.09,0,0,1,0-.25,1,1,0,0,1,.93-.76c.66,0,1,.58,1,1.26s-.38,1.31-1,1.31a1,1,0,0,1-.92-.72,1,1,0,0,1,0-.25Zm-.61,3.35h.61V11.65h0a1.22,1.22,0,0,0,1.05.53,1.6,1.6,0,0,0,1.54-1.82,1.54,1.54,0,0,0-1.44-1.72,1.31,1.31,0,0,0-1.2.66h0l0-.58h-.56c0,.32,0,.67,0,1.1Z"/></svg>