<?xml version="1.0" encoding="UTF-8"?>
<svg xmlns="http://www.w3.org/2000/svg" id="Ebene_2" data-name="Ebene 2" viewBox="0 0 139.72 139.72">
  <defs>
    <style>
      .cls-1 {
        fill: #1d1d1b;
      }
    </style>
  </defs>
  <g id="Ebene_1-2" data-name="Ebene 1">
    <g id="icon_industrie">
      <path class="cls-1" d="M139.72,139.72H0V0h139.72v139.72ZM5.6,134.12h128.52V5.6H5.6v128.52Z"></path>
      <path class="cls-1" d="M120.9,118.77h-7.85v-41.82h0v-11.16c0-2.11-1.72-3.83-3.83-3.83h-1.92s-40.14,0-40.14,0h-.02v-6.83h0c0-1.41-1.1-2.55-2.45-2.55-.21,0-.41.04-.61.09h0s-6.66,1.8-6.66,1.8l-.83-35.51c-.05-2.05-1.69-3.65-3.74-3.65h-7.8c-2.04,0-3.69,1.6-3.74,3.65l-.93,40.13-3.02.82-.56-22.99c-.05-2.03-1.68-3.62-3.71-3.62h-5.85c-2.03,0-3.66,1.59-3.71,3.62l-.66,26.92-4.69,1.27v5.74l43.39-11.79h.03s0,.02,0,.02v59.67H18.2v5.54h102.71c1.53,0,2.77-1.24,2.77-2.77s-1.24-2.77-2.77-2.77ZM28.45,62.34l.57-23.51h2.31l.55,22.57-3.43.93ZM45.96,57.59l.85-36.74h4.3l.82,35.12-5.97,1.62ZM107.52,67.52v51.25h-40.37v-51.27h40.37v.02Z"></path>
      <g>
        <path class="cls-1" d="M96.98,111.77c-1.53,0-2.76-1.24-2.76-2.76v-25.01c0-1.53,1.24-2.76,2.76-2.76s2.76,1.24,2.76,2.76v25.01c0,1.53-1.24,2.76-2.76,2.76Z"></path>
        <path class="cls-1" d="M87.33,111.77c-1.53,0-2.76-1.24-2.76-2.76v-25.01c0-1.53,1.24-2.76,2.76-2.76s2.76,1.24,2.76,2.76v25.01c0,1.53-1.24,2.76-2.76,2.76Z"></path>
        <path class="cls-1" d="M77.69,111.77c-1.53,0-2.76-1.24-2.76-2.76v-25.01c0-1.53,1.24-2.76,2.76-2.76s2.76,1.24,2.76,2.76v25.01c0,1.53-1.24,2.76-2.76,2.76Z"></path>
      </g>
      <g>
        <path class="cls-1" d="M52.39,90.75h-25.01c-1.53,0-2.76-1.24-2.76-2.76s1.24-2.76,2.76-2.76h25.01c1.53,0,2.76,1.24,2.76,2.76s-1.24,2.76-2.76,2.76Z"></path>
        <path class="cls-1" d="M52.39,100.4h-25.01c-1.53,0-2.76-1.24-2.76-2.76s1.24-2.76,2.76-2.76h25.01c1.53,0,2.76,1.24,2.76,2.76s-1.24,2.76-2.76,2.76Z"></path>
      </g>
    </g>
  </g>
</svg>
