<?xml version="1.0" encoding="UTF-8"?>
<svg xmlns="http://www.w3.org/2000/svg" id="Ebene_2" data-name="Ebene 2" viewBox="0 0 139.72 139.72">
  <defs>
    <style>
      .cls-1 {
        fill: #1d1d1b;
      }
    </style>
  </defs>
  <g id="Ebene_1-2" data-name="Ebene 1">
    <g id="icon_marine">
      <path class="cls-1" d="M139.72,139.72H0V0h139.72v139.72ZM5.6,134.12h128.52V5.6H5.6v128.52Z"></path>
      <path class="cls-1" d="M121.18,68.26l-41.76,4.13-23.57-22.96c-.69-.67-1.68-.94-2.61-.72l-36.55,8.86v5.76l36.37-8.82,6.9,6.72-20.22,3.43c-1.52.26-2.55,1.71-2.29,3.23.23,1.37,1.42,2.33,2.76,2.33.16,0,.31-.01.47-.04l24.25-4.12,7.22,7.03-55.45,5.49v5.63l98.29-9.73-24.34,29.49-73.95,1.01v5.6l75.32-1.02c.82-.01,1.6-.38,2.12-1.02l29.49-35.73c.72-.88.84-2.1.31-3.1-.53-1-1.62-1.59-2.75-1.47Z"></path>
    </g>
  </g>
</svg>
