<?xml version="1.0" encoding="UTF-8"?>
<svg xmlns="http://www.w3.org/2000/svg" id="Ebene_2" data-name="Ebene 2" viewBox="0 0 139.72 139.72">
  <defs>
    <style>
      .cls-1 {
        fill: #1d1d1b;
      }
    </style>
  </defs>
  <g id="Ebene_1-2" data-name="Ebene 1">
    <g id="icon_colourlock">
      <path class="cls-1" d="M105.08,90.03c-.62-.22-1.31-.46-1.56-.57-7.81-3.51-9.76-10.09-10.03-14.98-.52-9.59,4.94-19.98,12.98-24.7.19-.11.55-.27.91-.42,3.71-1.62,5.02-3.74,3.9-6.33l-.14-.33-13.8-17.51-.55-.27c-2.55-1.27-4.68.18-5.82.95-.28.19-.57.39-.74.47-8.3,3.85-18.32-.72-23.21-7.36-.09-.13-.16-.29-.24-.45-.49-.94-1.3-2.52-3.18-3.03l-.35-.1h-21.08l-.35.1c-1.88.51-2.69,2.09-3.18,3.03-.08.16-.15.32-.24.44-3.87,5.26-11.75,10.14-19.92,8.44-.09-.02-.18-.05-.27-.07v5.59c10.23,1.7,19.87-4.26,24.62-10.7.29-.4.51-.81.69-1.18.02-.04.05-.1.08-.15h18.22c.03.05.05.1.08.15.19.37.4.78.7,1.18,6.12,8.31,18.69,14.32,29.96,9.09.58-.27,1.08-.61,1.52-.91.08-.05.17-.11.26-.17l11.03,13.99c-.06.02-.11.05-.16.07-.5.22-1.02.45-1.49.72-9.71,5.7-16.31,18.21-15.69,29.74.49,9.08,5.2,16.07,13.27,19.7.46.21,1.13.44,1.99.74.56.2,1.47.52,2.23.82-.37.71-.88,1.52-1.12,1.92-.21.34-.4.64-.53.87-3.42,5.96-6.18,10.47-8.72,14.19-.16.24-.33.51-.51.8-.17.27-.43.71-.66,1-.39-.21-.95-.54-1.37-.78-.98-.58-1.99-1.17-2.89-1.52-10.86-4.29-23.44-2.28-32.83,5.23-.63.5-1.16,1.02-1.68,1.51-.76.74-1.39,1.34-2.12,1.7h-.79c-.73-.36-1.35-.96-2.12-1.7-.51-.5-1.05-1.01-1.68-1.51-8.65-6.92-20.06-9.15-30.32-6.09v5.8c8.93-3.29,19.19-1.56,26.88,4.59.43.34.85.75,1.29,1.17,1.15,1.11,2.45,2.37,4.46,3.09l.45.16h2.84l.45-.16c2.01-.72,3.32-1.98,4.46-3.09.44-.43.86-.83,1.29-1.17,7.86-6.28,18.35-7.97,27.37-4.41.5.2,1.36.7,2.12,1.15,1.34.79,2.21,1.28,3.05,1.51,3.65.98,5.61-2.23,6.45-3.6.13-.21.25-.4.37-.58,2.61-3.84,5.45-8.46,8.94-14.55.11-.19.26-.43.43-.7,1.43-2.3,3.2-5.16,1.98-7.51-.72-1.37-2.2-2-5.94-3.31Z"></path>
      <path class="cls-1" d="M52.43,94.3c-4.93,0-10.11-2.08-13.68-7.37-5.45-8.08-1.95-15.43.86-21.33,2.76-5.8,6.19-11.32,9.5-16.66l1.21-1.96c.35-.57.9-.99,1.54-1.19l.2-.06c1.27-.39,2.63.19,3.24,1.37.36.7.83,1.4,1.32,2.15.25.38.5.77.75,1.15,4.81,7.67,9.53,15.72,11.56,22.65,2.73,9.33-2.52,16.55-8.94,19.56-2.25,1.06-4.87,1.67-7.56,1.67ZM52.79,53.45c-2.91,4.71-5.85,9.56-8.21,14.51-3.09,6.48-4.71,10.78-1.27,15.89,3.72,5.52,9.89,5.88,14.34,3.79,3.98-1.87,7.94-6.4,6-13.04-1.83-6.25-6.3-13.86-10.87-21.15Z"></path>
      <path class="cls-1" d="M139.72,139.72H0V0h139.72v139.72ZM5.6,134.12h128.52V5.6H5.6v128.52Z"></path>
    </g>
  </g>
</svg>
