<?xml version="1.0" encoding="UTF-8"?>
<svg xmlns="http://www.w3.org/2000/svg" id="Ebene_2" data-name="Ebene 2" viewBox="0 0 139.72 139.72">
  <defs>
    <style>
      .cls-1 {
        fill: #1d1d1b;
      }
    </style>
  </defs>
  <g id="Ebene_1-2" data-name="Ebene 1">
    <g id="icon_automotive">
      <path class="cls-1" d="M139.72,139.72H0V0h139.72v139.72ZM5.6,134.12h128.52V5.6H5.6v128.52Z"></path>
      <path class="cls-1" d="M16.79,109.84h50.9l.12.59c1.64,7.84,8.64,13.53,16.66,13.53s15.02-5.69,16.65-13.53l.12-.59h11.07s.06,0,.09,0c3.07,0,5.97-1.35,7.96-3.69,1.93-2.28,2.74-5.27,2.23-8.21l-.15-.87h.01l-1-5.88c-1.84-10.36-10.09-18.21-20.53-19.54l-10.05-2.04c-3.46-.71-6.7-2.04-9.62-3.95l-16.9-11.01c-6.8-4.4-14.69-6.72-22.83-6.72h-24.73v5.59h24.67c7.03,0,13.86,2.03,19.76,5.87l16.96,10.89c3.55,2.32,7.45,3.91,11.58,4.75l10.21,2.14c8.01.97,14.39,6.96,15.87,14.91l1.22,6.71c.26,1.36-.11,2.75-1.02,3.81l-.02.02c-.92,1.05-2.24,1.65-3.71,1.68h-11.07l-.12-.59c-1.63-7.84-8.63-13.53-16.65-13.53s-15.02,5.69-16.65,13.53l-.12.59H16.79v5.53ZM84.48,118.41h0c-4.59-.03-8.69-2.79-10.43-7.03-1.75-4.25-.77-9.08,2.49-12.33,3.24-3.24,8.09-4.19,12.33-2.44,4.24,1.77,6.98,5.88,6.98,10.47-.03,6.25-5.13,11.33-11.37,11.33Z"></path>
    </g>
  </g>
</svg>
