<svg xmlns="http://www.w3.org/2000/svg" viewBox="0 0 2000.31 2000.31"><defs><style>.cls-1{fill:#92d400;}.cls-2{fill:#1d1d1b;}</style></defs><g id="Farbcode"><rect class="cls-1" width="2000.31" height="2000.31"/></g><g id="Idr"><path class="cls-2" d="M546.3,802H665v539.83H546.3Z"/><path class="cls-2" d="M1037,1292h-1.52c-25,42.34-68.8,60.49-118.7,60.49-117.95,0-175.41-101.32-175.41-209.43,0-105.1,58.22-202.63,173.14-202.63,46.12,0,91.49,19.66,115.68,58.22h1.51V802h107.37v539.83H1037ZM943.23,1021.3c-70.31,0-94.51,60.48-94.51,124.75,0,61.24,28,125.51,94.51,125.51,71.07,0,92.24-62,92.24-126.27C1035.47,1081.78,1012.79,1021.3,943.23,1021.3Z"/><path class="cls-2" d="M1220,951H1322v72.59h1.51c19.66-49.15,72.59-83.17,124.75-83.17a80,80,0,0,1,23.44,3.78V1044c-9.83-2.27-25.7-3.78-38.56-3.78-78.63,0-105.85,56.71-105.85,125.51v176.16H1220Z"/><path class="cls-2" d="M926.29,496.52c0-21.87-.7-39.51-1.41-55.74h27.88l1.41,29.28h.7c12.71-20.81,32.82-33.16,60.69-33.16,41.28,0,72.33,34.93,72.33,86.79,0,61.39-37.4,91.74-77.62,91.74-22.58,0-42.34-9.88-52.57-26.82H957v92.8h-30.7ZM957,542a70.36,70.36,0,0,0,1.41,12.7c5.65,21.52,24.35,36.34,46.58,36.34,32.81,0,51.86-26.81,51.86-66,0-34.22-18-63.5-50.8-63.5-21.18,0-40.93,15.17-46.93,38.45A50.3,50.3,0,0,0,957,512.76Z"/><path class="cls-2" d="M1158.81,373.74v99.5h115v-99.5h31.05V611.55h-31.05V500.05h-115v111.5h-30.7V373.74Z"/><path class="cls-2" d="M1489.41,411.14h-.71l-39.87,21.52-6-23.64,50.1-26.81h26.47V611.55h-30Z"/><path class="cls-2" d="M1755.44,494.41c0,78-28.94,121-79.74,121-44.81,0-75.16-42-75.86-117.85,0-76.91,33.16-119.25,79.74-119.25C1727.91,378.33,1755.44,421.37,1755.44,494.41Zm-124.55,3.53c0,59.62,18.34,93.5,46.57,93.5,31.75,0,46.93-37.05,46.93-95.62,0-56.45-14.47-93.5-46.58-93.5C1650.64,402.32,1630.89,435.49,1630.89,497.94Z"/></g></svg>