<svg id="Ebene_1" data-name="Ebene 1" xmlns="http://www.w3.org/2000/svg" viewBox="0 0 39.69 39.69"><defs><style>.cls-1{fill:#c53684;}.cls-2{fill:#1d1d1b;}</style></defs><rect class="cls-1" width="39.69" height="39.69"/><path class="cls-2" d="M30.85,19.07a1.83,1.83,0,0,0-1.75,1.3l0-1H27.06v7.74h2.11V23.31c0-1.5.63-2.23,1.92-2.23a3.25,3.25,0,0,1,.44,0V19.18a2,2,0,0,0-.68-.11m-8.7,8.26a3.37,3.37,0,0,0,3.59-2.92H23.67a1.5,1.5,0,0,1-1.49,1.28c-1.08,0-1.71-.87-1.71-2.45s.63-2.45,1.71-2.45A1.46,1.46,0,0,1,23.67,22h2.07a3.33,3.33,0,0,0-3.59-2.89c-2.29,0-3.72,1.6-3.72,4.09s1.43,4.09,3.72,4.09m-6.73-.25h2.74l-4.54-6.39,4.05-4.29H14.83l-3.78,4.12V16.4H8.83V27.08h2.22V23.16l1-1Z"/></svg>