<svg id="Ebene_1" data-name="Ebene 1" xmlns="http://www.w3.org/2000/svg" viewBox="0 0 39.68 39.68"><defs><style>.cls-1{fill:#009fda;}.cls-2{fill:#1d1d1b;}</style></defs><rect class="cls-1" width="39.68" height="39.68"/><path class="cls-2" d="M30.16,19.15a2.44,2.44,0,0,0-2.24,1.24l0-1.05H25.82v7.74h2.11V22.94c0-1.16.62-1.89,1.52-1.89s1.13.51,1.13,1.32v4.71h2.11V21.89a2.44,2.44,0,0,0-2.53-2.74m-9.61,1.54a1.69,1.69,0,0,1,1.71,1.71H18.83a1.69,1.69,0,0,1,1.72-1.71m3.9,2.79c0-2.72-1.68-4.33-4-4.33a3.74,3.74,0,0,0-3.81,4,3.87,3.87,0,0,0,4,4.17,3.44,3.44,0,0,0,3.56-2.51l-2.1-.15a1.47,1.47,0,0,1-1.5,1,1.78,1.78,0,0,1-1.82-1.86h5.61Zm-10.8,3.6H16.4l-4.55-6.39L15.9,16.4H13.07L9.29,20.52V16.4H7.07V27.08H9.29V23.16l1-1Z"/></svg>