<svg id="Ebene_1" data-name="Ebene 1" xmlns="http://www.w3.org/2000/svg" viewBox="0 0 39.68 39.69"><defs><style>.cls-1{fill:#009fda;}.cls-2{fill:#1d1d1b;}</style></defs><rect class="cls-1" width="39.68" height="39.69"/><path class="cls-2" d="M27.76,25.48c-1,0-1.75-.9-1.75-2.29s.72-2.29,1.75-2.29,1.74.87,1.74,2.29-.72,2.29-1.74,2.29m.61-6.33a2.7,2.7,0,0,0-2.25,1V16.41H24V27.08h1.87l.07-1a2.56,2.56,0,0,0,2.26,1.22c1.95,0,3.32-1.66,3.32-4.15s-1.4-4-3.16-4m-6-1H23V16.41H21.84a2.22,2.22,0,0,0-2.47,2.47v.51l-1.08,0V20.9l1.08,0v6.22h2.11V20.86l1.47,0V19.35l-1.47,0V19a.78.78,0,0,1,.89-.89m-7.13,9H18L13.44,20.7l4-4.29H14.66l-3.78,4.12V16.41H8.66V27.08h2.22V23.17l1-1Z"/><path class="cls-2" d="M36.22,7.59H34l-.29,2.18a4.87,4.87,0,0,1,.63,0c.91,0,1.3.42,1.31,1a1,1,0,0,1-1.08,1,2,2,0,0,1-1-.25l-.16.46a2.25,2.25,0,0,0,1.14.28,1.58,1.58,0,0,0,1.69-1.55,1.31,1.31,0,0,0-.65-1.17,1.9,1.9,0,0,0-1-.24,1.77,1.77,0,0,0-.37,0l.17-1.17h1.74ZM32.48,13a8.39,8.39,0,0,0,.66-1.7l-.68.07A10.72,10.72,0,0,1,32,13Zm-.76-.82v-.51h-2v0l.35-.33c1-.93,1.57-1.61,1.57-2.45a1.28,1.28,0,0,0-1.39-1.32A2,2,0,0,0,28.94,8l.19.44a1.52,1.52,0,0,1,1-.39.81.81,0,0,1,.9.89c0,.69-.54,1.28-1.7,2.38l-.48.47v.38ZM23.28,7.42v4.72h.61V9.93h2.28v2.21h.62V7.42h-.62v2H23.89v-2Zm-3.39,2.76a.93.93,0,0,1,0-.25,1,1,0,0,1,.93-.77c.65,0,1,.58,1,1.26s-.38,1.31-1,1.31a1,1,0,0,1-.93-.72,2,2,0,0,1,0-.25Zm-.61,3.34h.61V11.68h0a1.18,1.18,0,0,0,1,.53,1.6,1.6,0,0,0,1.54-1.82,1.53,1.53,0,0,0-1.43-1.72,1.36,1.36,0,0,0-1.21.66h0l0-.58h-.55c0,.32,0,.67,0,1.11Z"/></svg>