<svg id="Ebene_1" data-name="Ebene 1" xmlns="http://www.w3.org/2000/svg" viewBox="0 0 39.68 39.68"><defs><style>.cls-1{fill:#009fda;}.cls-2{fill:#1d1d1b;}</style></defs><rect class="cls-1" width="39.68" height="39.68"/><path class="cls-2" d="M26.5,27.07h2.11V16.4H26.5Zm-4.64-8.2v.51l-1.08,0v1.55l1.08,0v6.22H24V20.85l1.48,0V19.34l-1.48,0V19a.77.77,0,0,1,.89-.88h.59V16.4H24.33a2.22,2.22,0,0,0-2.47,2.47m-4.13,8.2h2.75l-4.55-6.39L20,16.4H17.15l-3.78,4.12V16.4H11.15V27.07h2.22V23.16l1-1Z"/><path class="cls-2" d="M33.77,10.41h0l1.12-1.55.38-.67h0c0,.24,0,.47,0,.71v1.52Zm2.08,1.72V10.89h.63v-.48h-.63V7.58h-.67l-2,2.91v.4h2.12v1.24ZM32.18,13a8.76,8.76,0,0,0,.66-1.7l-.68.07A10.72,10.72,0,0,1,31.74,13Zm-1.78-.82H31V7.58h-.53l-1,.53.12.47.79-.42h0ZM23.83,7.42v4.71h.61V9.92h2.28v2.21h.61V7.42h-.61v2H24.44v-2Zm-3.4,2.75a1.09,1.09,0,0,1,0-.25,1,1,0,0,1,.94-.76c.65,0,1,.58,1,1.26s-.37,1.31-1,1.31a1,1,0,0,1-.93-.72,1.86,1.86,0,0,1,0-.26Zm-.61,3.35h.61V11.68h0a1.19,1.19,0,0,0,1,.53A1.6,1.6,0,0,0,23,10.39,1.53,1.53,0,0,0,21.6,8.67a1.32,1.32,0,0,0-1.21.66h0l0-.58H19.8c0,.32,0,.67,0,1.1Z"/></svg>