<svg id="Ebene_1" data-name="Ebene 1" xmlns="http://www.w3.org/2000/svg" viewBox="0 0 39.68 39.69"><defs><style>.cls-1{fill:#020a0a;}.cls-2{fill:#fff;}</style></defs><rect class="cls-1" width="39.68" height="39.69"/><path class="cls-2" d="M27.57,27.36c2.08,0,3.43-.94,3.43-2.58,0-1.2-.72-1.9-2.26-2.22l-1.67-.34c-.55-.12-.87-.38-.87-.78s.45-.83,1.16-.83a1.35,1.35,0,0,1,1.47,1.08l1.9-.07c-.19-1.52-1.47-2.47-3.34-2.47s-3.15,1-3.15,2.54c0,1.19.73,2,2.25,2.27l1.53.3c.7.13,1,.36,1,.78,0,.59-.6.86-1.4.86-1,0-1.53-.44-1.65-1.21l-1.93.08c.19,1.65,1.39,2.59,3.51,2.59m-4.73-9.27h.59V16.4H22.32a2.22,2.22,0,0,0-2.48,2.47v.52l-1.08-.05V20.9l1.08,0v6.23H22V20.85l1.47,0V19.34L22,19.39V19a.77.77,0,0,1,.88-.89m-7.12,9h2.74l-4.54-6.39,4-4.29H15.13l-3.78,4.12V16.4H9.13V27.08h2.22V23.16l1-1Z"/></svg>