<svg xmlns="http://www.w3.org/2000/svg" viewBox="0 0 2000.31 2000.31"><defs><style>.cls-1{fill:#009ee2;}.cls-2{fill:#1d1d1b;}</style></defs><g id="Farbcode"><rect class="cls-1" width="2000.31" height="2000.31"/></g><g id="Kfsp"><path class="cls-2" d="M204.3,802H323v223.79L533.94,802H682.13L471.19,1015.25l231.36,326.62H553.6l-162.55-242.7L323,1168v173.89H204.3Z"/><path class="cls-2" d="M762.27,1022.81H698V951h64.27V920.74c0-68.8,43.09-118.7,130.8-118.7,18.9,0,38.56,2.27,56.7,3v80.15a331.25,331.25,0,0,0-39.31-2.27c-28.73,0-40.83,12.09-40.83,44.6V951h74.09v71.83H869.63v319.06H762.27Z"/><path class="cls-2" d="M1073.76,1214.85c.76,46.88,40.07,65.78,82.41,65.78,31,0,70.32-12.1,70.32-49.9,0-32.51-44.61-43.85-121.73-60.49-62-13.61-124-35.53-124-104.33,0-99.81,86.19-125.51,170.11-125.51,85.44,0,164.07,28.73,172.39,124.75H1221.2c-3-41.58-34.78-52.92-73.34-52.92-24.2,0-59.73,4.53-59.73,36.29,0,38.56,60.48,43.85,121.73,58.21,62.75,14.37,124,37,124,109.64,0,102.82-89.22,136.09-178.43,136.09-90.73,0-179.19-34-183.73-137.61Z"/><path class="cls-2" d="M1396.6,951h102.07v49.9h1.51c25.7-41.58,68-60.48,116.43-60.48,122.49,0,177.68,99,177.68,210.19,0,104.33-57.46,201.87-171.63,201.87-46.87,0-91.48-20.42-117.19-59H1504v186H1396.6Zm290.33,196.58c0-62-25-126.26-93.76-126.26-70.31,0-93,62.75-93,126.26s24.19,124,93.75,124C1664.25,1271.56,1686.93,1211.07,1686.93,1147.56Z"/><path class="cls-2" d="M1016.29,496.52c0-21.87-.7-39.51-1.41-55.74h27.88l1.41,29.28h.7c12.71-20.81,32.82-33.16,60.69-33.16,41.28,0,72.33,34.93,72.33,86.79,0,61.39-37.4,91.74-77.62,91.74-22.58,0-42.34-9.88-52.57-26.82H1047v92.8h-30.7ZM1047,542a70.36,70.36,0,0,0,1.41,12.7c5.65,21.52,24.35,36.34,46.58,36.34,32.81,0,51.86-26.81,51.86-66,0-34.22-18-63.5-50.8-63.5-21.17,0-40.93,15.17-46.93,38.45a50.3,50.3,0,0,0-2.12,12.71Z"/><path class="cls-2" d="M1248.81,373.74v99.5h115v-99.5h31.05V611.55h-31.05V500.05h-115v111.5h-30.7V373.74Z"/><path class="cls-2" d="M1549.42,411.14h-.71l-39.87,21.52-6-23.64,50.1-26.81h26.47V611.55h-30Z"/><path class="cls-2" d="M1617.16,655c7.41-20.82,16.93-58.57,20.81-84.33l34.58-3.53c-8.11,30-23.64,69.16-33.52,85.74Z"/><path class="cls-2" d="M1796,611.55V549.1H1689.48V528.63L1791.8,382.21h33.52V524.75h32.11V549.1h-32.11v62.45Zm0-86.8V448.19q0-18,1-36h-1c-7.06,13.41-12.71,23.29-19.06,33.87l-56.1,78v.7Z"/></g></svg>