<svg id="Ebene_1" data-name="Ebene 1" xmlns="http://www.w3.org/2000/svg" viewBox="0 0 39.68 39.68"><defs><style>.cls-1{fill:#009fda;}.cls-2{fill:#1d1d1b;}</style></defs><rect class="cls-1" width="39.68" height="39.68"/><path class="cls-2" d="M28.27,27.08h2.11V16.4H28.27Zm-3.64,0h2.51l-3.08-4.7,3-3H24.42L21.8,22.26V16.4H19.69V27.08H21.8V24.51l.78-.79Zm-8.67,0h2.75l-4.55-6.39,4.05-4.29H15.38L11.6,20.52V16.4H9.38V27.08H11.6V23.16l1-1Z"/><path class="cls-2" d="M36.39,12.13v-.51h-2l.35-.34c1-.92,1.57-1.6,1.57-2.44a1.28,1.28,0,0,0-1.39-1.32A1.91,1.91,0,0,0,33.61,8l.19.43a1.57,1.57,0,0,1,1-.38.8.8,0,0,1,.89.88c0,.69-.53,1.28-1.69,2.39l-.48.46v.38ZM28,7.41v4.72h.61V9.92h2.28v2.21h.62V7.41h-.62v2H28.56v-2Zm-3.4,2.76a1.11,1.11,0,0,1,.05-.25,1,1,0,0,1,.93-.76c.65,0,1,.58,1,1.26s-.38,1.31-1,1.31a1,1,0,0,1-.93-.72,2.06,2.06,0,0,1,0-.26ZM24,13.52h.6V11.68h0a1.19,1.19,0,0,0,1,.53,1.6,1.6,0,0,0,1.54-1.82,1.53,1.53,0,0,0-1.43-1.72,1.33,1.33,0,0,0-1.21.65h0l0-.58h-.55c0,.33,0,.68,0,1.11Z"/></svg>