<svg id="Ebene_1" data-name="Ebene 1" xmlns="http://www.w3.org/2000/svg" viewBox="0 0 39.68 39.69"><defs><style>.cls-1{fill:#009fda;}.cls-2{fill:#1d1d1b;}</style></defs><rect class="cls-1" width="39.68" height="39.69"/><path class="cls-2" d="M25.46,27.08h7.89V25.22h-5c0-.25.17-.46.94-1l1.81-1.2a4.22,4.22,0,0,0,2.17-3.53c0-2-1.54-3.36-3.86-3.36a3.49,3.49,0,0,0-3.8,3.8v.19h2.14v-.3c0-1.26.63-1.85,1.61-1.85a1.48,1.48,0,0,1,1.59,1.62,2.29,2.29,0,0,1-1.17,1.93l-2,1.5a4.59,4.59,0,0,0-2.25,4m-5.25-1.6c-1,0-1.74-.9-1.74-2.3s.72-2.28,1.74-2.28S22,21.77,22,23.18s-.72,2.3-1.74,2.3m.62-6.33a2.67,2.67,0,0,0-2.42,1.2l-.08-1H16.46v10.8h2.11V26.36a2.58,2.58,0,0,0,2.09,1c1.95,0,3.33-1.66,3.33-4.15s-1.41-4-3.16-4m-7.94,7.93h2.74l-4.54-6.39,4.05-4.29H12.3L8.52,20.53V16.4H6.31V27.08H8.52V23.17l1-1Z"/><path class="cls-2" d="M33.77,10.41h0l1.12-1.55.38-.67h0c0,.24,0,.47,0,.71v1.52Zm2.08,1.72V10.89h.63v-.48h-.63V7.58h-.67l-2,2.91v.4h2.12v1.24Zm-4,0h.59V7.58H32l-1,.53.12.47.79-.42h0ZM25.31,7.42v4.71h.6V9.92H28.2v2.21h.61V7.42H28.2v2H25.91v-2Zm-3.4,2.75a1.09,1.09,0,0,1,0-.25,1,1,0,0,1,.93-.76c.65,0,1,.58,1,1.26s-.38,1.31-1,1.31a1,1,0,0,1-.92-.72,1,1,0,0,1,0-.26Zm-.61,3.35h.61V11.68h0a1.22,1.22,0,0,0,1,.53,1.6,1.6,0,0,0,1.54-1.82,1.54,1.54,0,0,0-1.44-1.72,1.31,1.31,0,0,0-1.2.66h0l0-.58h-.56c0,.32,0,.67,0,1.1Z"/></svg>