<svg id="Ebene_1" data-name="Ebene 1" xmlns="http://www.w3.org/2000/svg" viewBox="0 0 39.68 39.69"><defs><style>.cls-1{fill:#00c7b2;}.cls-2{fill:#1d1d1b;}</style></defs><rect class="cls-1" width="39.68" height="39.69"/><path class="cls-2" d="M24.25,27.36c2.08,0,3.43-.94,3.43-2.57,0-1.21-.72-1.91-2.26-2.23l-1.67-.34c-.56-.12-.87-.38-.87-.78s.45-.83,1.16-.83a1.35,1.35,0,0,1,1.47,1.08l1.9-.07c-.2-1.52-1.47-2.47-3.34-2.47s-3.15,1-3.15,2.54c0,1.19.73,2,2.24,2.27l1.54.3c.7.13,1,.36,1,.78,0,.59-.6.86-1.4.86-1,0-1.53-.44-1.65-1.2l-1.93.07c.19,1.65,1.39,2.59,3.51,2.59M14.67,25.1V16.4H12.46V27.08h7.42v-2Z"/></svg>