<?xml version="1.0" encoding="UTF-8"?><svg xmlns="http://www.w3.org/2000/svg" viewBox="0 0 2000 2000"><defs><style>.cls-1,.cls-2,.cls-3{stroke-width:0px;}.cls-2{fill:#fff;}.cls-3{fill:#a44dc4;}</style></defs><g id="Farbcode"><rect class="cls-1" x="-.2" y=".14" width="2000.15" height="2000.15"/><rect class="cls-3" x="-.2" y=".14" width="2000.2" height="214.3"/></g><g id="Vorlage_Kopie"><path class="cls-2" d="m204.73,783.1h167.09l126.26,371.23h1.51l119.46-371.23h167.09v539.84h-111.14v-382.57h-1.51l-132.31,382.57h-91.49l-132.31-378.79h-1.51v378.79h-111.14v-539.84Z"/><path class="cls-2" d="m866.29,997.07c-3.78-120.97,65.02-213.97,192.04-213.97,96.78,0,181.46,62,181.46,165.58,0,79.39-42.34,123.24-94.51,160.29s-114.17,67.29-152.73,121.73h250.26v92.24h-388.62c.76-122.48,75.61-174.65,167.09-236.65,46.88-31.76,110.39-64.27,111.14-129.29,0-49.9-33.27-81.66-79.39-81.66-63.51,0-83.92,65.78-83.92,121.73h-102.83Z"/><path class="cls-2" d="m1412.73,1107.18c67.81,0,124.96,42.62,124.96,174.85s-57.16,177.76-124.96,177.76-124-42.62-124-177.76,57.15-174.85,124-174.85Zm0,295.94c56.19,0,56.19-82.83,56.19-121.09,0-35.36,0-118.18-56.19-118.18s-55.22,82.83-55.22,118.18c0,38.26,0,121.09,55.22,121.09Z"/><path class="cls-2" d="m1587.1,1244.26c-2.42-77.5,41.66-137.07,123.03-137.07,62,0,116.25,39.72,116.25,106.08,0,50.86-27.12,78.95-60.54,102.68-33.42,23.73-73.14,43.11-97.84,77.98h160.32v59.09h-248.96c.48-78.47,48.44-111.89,107.04-151.6,30.03-20.34,70.72-41.17,71.2-82.83,0-31.97-21.31-52.31-50.86-52.31-40.69,0-53.76,42.14-53.76,77.98h-65.87Z"/><path class="cls-2" d="m1461.8,1848.48c6.7.71,14.46,0,25.05-1.06,17.99-2.47,34.93-9.88,47.98-22.23,15.17-13.76,26.11-33.87,30.34-61.03h-1.06c-12.7,15.52-31.05,24.7-53.98,24.7-41.28,0-67.74-31.05-67.74-70.21,0-43.39,31.4-81.5,78.32-81.5s75.85,38.1,75.85,96.67c0,50.45-16.93,85.73-39.51,107.6-17.64,17.29-41.98,27.87-66.68,30.69-11.29,1.76-21.17,2.12-28.58,1.76v-25.4Zm56.09-187.69c-26.11,0-44.81,23.29-44.81,55.74,0,28.58,17.29,48.69,44.1,48.69,20.82,0,37.04-10.23,45.16-23.99,1.76-2.82,2.82-6.35,2.82-11.29,0-39.16-14.46-69.15-46.92-69.15h-.35Z"/><path class="cls-2" d="m1614.91,1913.75c7.41-20.82,16.93-58.56,20.81-84.32l34.57-3.53c-8.11,29.99-23.64,69.15-33.52,85.73l-21.87,2.12Z"/><path class="cls-2" d="m1850.22,1753.23c0,77.97-28.93,121.01-79.73,121.01-44.81,0-75.15-41.98-75.85-117.83,0-76.91,33.16-119.25,79.73-119.25s75.85,43.04,75.85,116.07Zm-124.54,3.53c0,59.62,18.35,93.49,46.57,93.49,31.75,0,46.92-37.04,46.92-95.61s-14.46-93.49-46.57-93.49c-27.17,0-46.92,33.16-46.92,95.61Z"/><path class="cls-2" d="m1443.81,611.52v-19.05l24.34-23.64c58.56-55.74,85.02-85.38,85.38-119.95,0-23.28-11.29-44.81-45.51-44.81-20.81,0-38.1,10.58-48.69,19.4l-9.88-21.87c15.88-13.41,38.46-23.28,64.92-23.28,49.39,0,70.21,33.87,70.21,66.68,0,42.34-30.69,76.56-79.03,123.13l-18.34,16.93v.71h103.02v25.75h-146.41Z"/><path class="cls-2" d="m1614.91,654.91c7.41-20.81,16.93-58.56,20.81-84.32l34.57-3.53c-8.11,29.99-23.64,69.15-33.52,85.73l-21.87,2.12Z"/><path class="cls-2" d="m1834.7,408.3h-87.49l-8.82,58.92c5.29-.71,10.23-1.41,18.7-1.41,17.64,0,35.28,3.88,49.39,12.35,17.99,10.23,32.81,29.99,32.81,58.92,0,44.81-35.63,78.32-85.38,78.32-25.05,0-46.22-7.06-57.15-14.11l7.76-23.64c9.53,5.64,28.22,12.7,49.04,12.7,29.28,0,54.33-19.05,54.33-49.74-.35-29.63-20.11-50.8-65.97-50.8-13.05,0-23.28,1.41-31.75,2.47l14.82-110.07h109.72v26.11Z"/></g></svg>