<svg id="Ebene_1" data-name="Ebene 1" xmlns="http://www.w3.org/2000/svg" viewBox="0 0 39.68 39.69"><defs><style>.cls-1{fill:#020a0a;}.cls-2{fill:#fff;}.cls-3{fill:#a44dc4;}</style></defs><rect class="cls-1" width="39.68" height="39.69"/><path class="cls-2" d="M31.75,29.7h4.94V28.39h-3.2c0-.26.15-.41.48-.59l1.5-.81a2,2,0,0,0,1.24-1.82c0-1.19-.92-2-2.5-2s-2.46.7-2.49,2.16h1.44c0-.64.36-.91,1-.91s1,.32,1,.78-.19.62-.69.89l-1.45.81c-1,.57-1.32,1.4-1.32,2.8m-4-1.12c-.75,0-1.16-.57-1.16-2s.41-2,1.16-2,1.16.56,1.16,2-.41,2-1.16,2m0,1.36c1.83,0,2.79-1.27,2.79-3.43s-1-3.36-2.79-3.36S25,24.39,25,26.51s1,3.43,2.79,3.43m-8-2.61c2.69,0,4.13-1.45,4.13-3.37a2.59,2.59,0,0,0-2.21-2.7v0A2.32,2.32,0,0,0,23.25,19c0-1.65-1.37-2.81-3.76-2.81s-3.75,1.17-3.84,3.54h2.12c.06-1.34.73-1.74,1.63-1.74S21,18.48,21,19.33s-.64,1.36-1.6,1.36h-.69v1.65h.78c1.27,0,2,.6,2,1.58s-.63,1.59-1.83,1.59a1.93,1.93,0,0,1-2.07-2.06H15.41c.05,2.19,1.37,3.88,4.31,3.88M10.54,16.4,8.9,22.67,8.42,24.8,8,22.67,6.32,16.4H3.2V27.08H5.25v-4L5,17.84,5.73,21l1.59,6.1H9.59l1.56-6,.74-3.22-.26,5.22v4H13.7V16.4Z"/><path class="cls-2" d="M34.8,33c.64,0,.93.74.93,1.86s-.3,1.9-.93,1.9-.93-.67-.93-1.86.39-1.9.93-1.9m0-.47c-.93,0-1.58.84-1.58,2.36s.61,2.34,1.5,2.34,1.58-.85,1.58-2.4-.54-2.3-1.5-2.3m-2.73,5.44a8.51,8.51,0,0,0,.66-1.7l-.68.07A11.15,11.15,0,0,1,31.67,38Zm-2.38-5c.64,0,.93.59.93,1.37a.34.34,0,0,1-.06.22,1,1,0,0,1-.89.48.88.88,0,0,1-.88-1c0-.64.37-1.1.9-1.1m-1.12,4.23a3,3,0,0,0,.56,0,2.34,2.34,0,0,0,1.33-.61,2.85,2.85,0,0,0,.78-2.13c0-1.17-.57-1.92-1.5-1.92a1.56,1.56,0,0,0-1.56,1.62,1.37,1.37,0,0,0,2.42.9h0a2,2,0,0,1-.6,1.21,1.71,1.71,0,0,1-1,.44,2.14,2.14,0,0,1-.49,0Z"/><path class="cls-2" d="M36.39,12.13v-.51h-2l.35-.34c1-.92,1.57-1.6,1.57-2.44a1.28,1.28,0,0,0-1.39-1.32A1.91,1.91,0,0,0,33.61,8l.19.43a1.57,1.57,0,0,1,1-.38.8.8,0,0,1,.89.89c0,.68-.53,1.27-1.69,2.38l-.48.46v.38ZM32.57,13a8.39,8.39,0,0,0,.66-1.7l-.68.07A10.72,10.72,0,0,1,32.13,13Zm-3.65-1a2.26,2.26,0,0,0,1.18.31c1.08,0,1.66-.64,1.66-1.37a1.18,1.18,0,0,0-1-1.16v0a1.13,1.13,0,0,0,.84-1.07c0-.55-.4-1.08-1.31-1.08a2.15,2.15,0,0,0-1.19.35l.17.44a1.69,1.69,0,0,1,.91-.3c.57,0,.8.32.8.69,0,.54-.57.77-1,.77H29.6v.46H30c.59,0,1.16.27,1.17.91,0,.38-.24.88-1,.88a2.07,2.07,0,0,1-1-.28Z"/><rect class="cls-3" width="39.68" height="4.25"/></svg>