<svg id="Ebene_1" data-name="Ebene 1" xmlns="http://www.w3.org/2000/svg" viewBox="0 0 39.68 39.69"><defs><style>.cls-1{fill:#807454;}.cls-2{fill:#1d1d1b;}.cls-3{fill:#c53684;}</style></defs><rect class="cls-1" width="39.68" height="39.69"/><path class="cls-2" d="M30.63,27.33a3.36,3.36,0,0,0,3.59-2.92H32.15a1.5,1.5,0,0,1-1.49,1.28c-1.08,0-1.71-.87-1.71-2.45s.63-2.45,1.71-2.45A1.46,1.46,0,0,1,32.15,22h2.07a3.33,3.33,0,0,0-3.59-2.89c-2.29,0-3.71,1.6-3.71,4.09s1.42,4.09,3.71,4.09m-8.86-1.85c-1,0-1.74-.87-1.74-2.3s.72-2.28,1.74-2.28,1.74.88,1.74,2.28-.72,2.3-1.74,2.3m1.64-9.08v3.72a2.76,2.76,0,0,0-2.26-1c-1.75,0-3.16,1.49-3.16,4s1.38,4.15,3.33,4.15a2.53,2.53,0,0,0,2.25-1.21l.08,1h1.87V16.4Zm-10,0-1.64,6.27-.48,2.13-.44-2.13L9.14,16.4H6V27.08H8.07v-4l-.25-5.24L8.55,21l1.59,6.1h2.27l1.56-6,.74-3.22-.26,5.22v4h2.07V16.4Z"/><path class="cls-2" d="M36.22,7.58H34l-.29,2.19a4.72,4.72,0,0,1,.63,0c.91,0,1.3.42,1.31,1a1,1,0,0,1-1.08,1,2.07,2.07,0,0,1-1-.25l-.15.47a2.24,2.24,0,0,0,1.13.28,1.58,1.58,0,0,0,1.7-1.55,1.3,1.3,0,0,0-.65-1.17,1.91,1.91,0,0,0-1-.25,2.89,2.89,0,0,0-.37,0l.17-1.17h1.74Zm-8.36-.16v4.71h.61V9.92h2.28v2.21h.62V7.42h-.62v2H28.47v-2Zm-3.4,2.75a.74.74,0,0,1,.05-.25,1,1,0,0,1,.93-.76c.65,0,1,.58,1,1.26s-.38,1.31-1,1.31a1,1,0,0,1-.93-.72,1.86,1.86,0,0,1,0-.26Zm-.6,3.35h.6V11.68h0a1.19,1.19,0,0,0,1,.53,1.6,1.6,0,0,0,1.54-1.82,1.53,1.53,0,0,0-1.43-1.72,1.32,1.32,0,0,0-1.21.66h0l0-.58h-.55c0,.32,0,.67,0,1.1Z"/><rect class="cls-3" width="39.68" height="4.25"/></svg>