<svg xmlns="http://www.w3.org/2000/svg" viewBox="0 0 2046.07 2044.05"><defs><style>.cls-1{fill:#fff;}</style></defs><g id="Farbcode"><rect x="23.04" y="22.03" width="2000.31" height="2000.31"/></g><g id="Mep"><path class="cls-1" d="M254.77,715.13H421.86l126.26,371.23h1.52L669.1,715.13H836.19V1255H725.05V872.39h-1.52L591.22,1255H499.74L367.42,876.17h-1.51V1255H254.77Z"/><path class="cls-1" d="M1017.64,1085.6c3,68.05,36.29,99.05,96,99.05,43.1,0,77.88-26.47,84.68-50.66h94.51c-30.24,92.24-94.51,131.56-183,131.56-123.24,0-199.6-84.68-199.6-205.65,0-117.2,80.9-206.41,199.6-206.41,133.07,0,197.34,111.9,189.78,232.11Zm174.66-68c-9.83-54.43-33.27-83.16-85.44-83.16-68,0-87.7,52.92-89.22,83.16Z"/><path class="cls-1" d="M1363.16,864.07h102.07V914h1.51c25.71-41.58,68-60.48,116.44-60.48,122.48,0,177.68,99,177.68,210.19,0,104.33-57.47,201.87-171.63,201.87-46.88,0-91.49-20.42-117.19-59h-1.52v186H1363.16Zm290.33,196.58c0-62-25-126.26-93.75-126.26-70.31,0-93,62.75-93,126.26s24.2,124,93.76,124C1630.81,1184.65,1653.49,1124.16,1653.49,1060.65Z"/></g></svg>