<svg id="Ebene_1" data-name="Ebene 1" xmlns="http://www.w3.org/2000/svg" viewBox="0 0 39.68 39.68"><defs><style>.cls-1{fill:#9b9b9b;}.cls-2{fill:#1d1d1b;}</style></defs><rect class="cls-1" width="39.68" height="39.68"/><path class="cls-2" d="M26.27,25.48c-1,0-1.74-.9-1.74-2.3s.72-2.28,1.74-2.28S28,21.77,28,23.18s-.72,2.3-1.74,2.3m.61-6.33a2.68,2.68,0,0,0-2.41,1.19l-.08-1H22.52v10.8h2.11V26.36a2.57,2.57,0,0,0,2.09,1c2,0,3.33-1.66,3.33-4.15s-1.41-4-3.17-4m-9.4-2.75-1.63,6.27-.49,2.13-.43-2.13L13.26,16.4H10.15V27.08h2v-4l-.26-5.23L12.68,21l1.59,6.11h2.27l1.56-6,.73-3.22-.25,5.21v4h2.06V16.4Z"/></svg>