<svg id="Ebene_1" data-name="Ebene 1" xmlns="http://www.w3.org/2000/svg" viewBox="0 0 39.68 39.68"><defs><style>.cls-1{fill:#f40034;}.cls-2{fill:#1d1d1b;}</style></defs><rect class="cls-1" width="39.68" height="39.68"/><path class="cls-2" d="M31.92,27.31a3.37,3.37,0,0,0,3.59-2.93H33.44A1.5,1.5,0,0,1,32,25.66c-1.08,0-1.71-.87-1.71-2.45s.63-2.44,1.71-2.44A1.45,1.45,0,0,1,33.44,22h2.07a3.33,3.33,0,0,0-3.59-2.89c-2.29,0-3.71,1.6-3.71,4.09s1.42,4.1,3.71,4.1m-6.5-8-.86,3.44L24.2,24.7l-.36-2L23,19.31H21.1l-.87,3.44-.36,1.95-.36-1.95-.86-3.44H16.43l2.3,7.74h2l1.11-4.3.19-1,.18,1,1.11,4.3h2l2.3-7.74ZM12.07,16.37l-1.64,6.27L10,24.77l-.43-2.13L7.85,16.37H4.73V27.05H6.78v-4l-.25-5.24L7.27,21l1.59,6.1h2.26l1.56-6,.74-3.22-.26,5.22v4h2.07V16.37Z"/><path class="cls-2" d="M36.22,7.55H34l-.29,2.19a4.87,4.87,0,0,1,.63-.05c.91,0,1.3.42,1.31,1a1,1,0,0,1-1.08,1,2,2,0,0,1-1-.25l-.16.47a2.25,2.25,0,0,0,1.14.28,1.58,1.58,0,0,0,1.69-1.55,1.3,1.3,0,0,0-.65-1.17,1.91,1.91,0,0,0-1-.25,2.89,2.89,0,0,0-.37,0l.17-1.17h1.74Zm-3.74,5.37a8.16,8.16,0,0,0,.66-1.7l-.68.07A10.72,10.72,0,0,1,32,13Zm-.93-5.37H29.37l-.29,2.19a4.87,4.87,0,0,1,.63-.05c.91,0,1.3.42,1.31,1a1,1,0,0,1-1.08,1,2.06,2.06,0,0,1-1-.25l-.16.47a2.25,2.25,0,0,0,1.14.28,1.58,1.58,0,0,0,1.69-1.55A1.3,1.3,0,0,0,31,9.46a1.91,1.91,0,0,0-1-.25,2.89,2.89,0,0,0-.37,0l.17-1.17h1.74Zm-8.36-.16V12.1h.61V9.89h2.28V12.1h.62V7.39h-.62v2H23.8v-2ZM19.8,10.14a1.09,1.09,0,0,1,0-.25,1,1,0,0,1,.93-.76c.65,0,1,.58,1,1.26s-.38,1.31-1,1.31a1,1,0,0,1-.93-.72,2,2,0,0,1,0-.25Zm-.61,3.35h.61V11.65h0a1.19,1.19,0,0,0,1,.53,1.6,1.6,0,0,0,1.54-1.82A1.53,1.53,0,0,0,21,8.64a1.33,1.33,0,0,0-1.21.66h0l0-.58h-.55c0,.32,0,.67,0,1.1Z"/></svg>