<svg id="Ebene_1" data-name="Ebene 1" xmlns="http://www.w3.org/2000/svg" viewBox="0 0 39.69 39.68"><defs><style>.cls-1{fill:#92d400;}.cls-2{fill:#1d1d1b;}</style></defs><rect class="cls-1" width="39.69" height="39.68"/><path class="cls-2" d="M31.56,19a1.83,1.83,0,0,0-1.75,1.3l0-1H27.77V27h2.11V23.23c0-1.5.63-2.24,1.92-2.24.15,0,.29,0,.44,0V19.09a2.29,2.29,0,0,0-.68-.1m-9,6.27L26.42,21V19.26H20.37V21h3.5l-4,4.31V27h6.68V25.26Zm-7.1-8.94-1.64,6.26-.48,2.13-.44-2.13-1.66-6.26H8.12V27h2.05V23l-.25-5.23.73,3.13L12.24,27h2.27l1.56-6,.74-3.22L16.55,23v4h2.07V16.32Z"/><path class="cls-2" d="M36.22,7.5H34l-.29,2.18a4.72,4.72,0,0,1,.63,0c.91,0,1.3.42,1.31,1a1,1,0,0,1-1.08,1,2.07,2.07,0,0,1-1-.25l-.15.46a2.24,2.24,0,0,0,1.13.28,1.58,1.58,0,0,0,1.7-1.55,1.31,1.31,0,0,0-.65-1.17,1.9,1.9,0,0,0-1-.24,1.77,1.77,0,0,0-.37,0L34.48,8h1.74Zm-3.74,5.37a9,9,0,0,0,.66-1.7l-.68.07A10.72,10.72,0,0,1,32,12.91Zm-.76-.82v-.51h-2v0l.35-.33c1-.93,1.57-1.61,1.57-2.45a1.28,1.28,0,0,0-1.39-1.32,2,2,0,0,0-1.28.46l.19.44a1.52,1.52,0,0,1,1-.39.81.81,0,0,1,.9.89c0,.69-.54,1.28-1.7,2.38l-.48.47v.38Zm-4.15,0h.6V7.5h-.53l-1,.53.12.47.79-.43h0ZM21,7.33v4.72h.61V9.84h2.28v2.21h.62V7.33h-.62v2H21.61v-2Zm-3.4,2.76a.66.66,0,0,1,0-.25,1,1,0,0,1,.93-.77c.65,0,1,.58,1,1.26s-.38,1.31-1,1.31a.94.94,0,0,1-.93-.72,1.9,1.9,0,0,1,0-.25ZM17,13.43h.6V11.59h0a1.17,1.17,0,0,0,1,.53A1.6,1.6,0,0,0,20.2,10.3a1.53,1.53,0,0,0-1.43-1.72,1.34,1.34,0,0,0-1.21.66h0l0-.58H17c0,.32,0,.67,0,1.11Z"/></svg>