<svg id="Ebene_1" data-name="Ebene 1" xmlns="http://www.w3.org/2000/svg" viewBox="0 0 39.68 39.68"><defs><style>.cls-1{fill:#807454;}.cls-2{fill:#ffcb00;}.cls-3{fill:#1d1d1b;}</style></defs><rect class="cls-1" width="39.68" height="39.68"/><rect class="cls-2" width="39.68" height="4.25"/><path class="cls-3" d="M29.44,25.48c-1,0-1.74-.9-1.74-2.3s.72-2.28,1.74-2.28,1.74.87,1.74,2.28-.72,2.3-1.74,2.3m.62-6.33a2.7,2.7,0,0,0-2.42,1.19l-.07-1H25.69v10.8h2.12V26.36a2.56,2.56,0,0,0,2.08,1c1.95,0,3.33-1.66,3.33-4.15s-1.41-4-3.16-4m-9.27,8.18a3.35,3.35,0,0,0,3.58-2.92H22.3a1.49,1.49,0,0,1-1.48,1.28c-1.08,0-1.71-.87-1.71-2.45s.63-2.45,1.71-2.45A1.45,1.45,0,0,1,22.3,22h2.07a3.32,3.32,0,0,0-3.58-2.89c-2.3,0-3.72,1.6-3.72,4.09s1.42,4.09,3.72,4.09M13.38,16.4v6.85L9.15,16.4H7V27.08H9.19V20.22l4.23,6.86H15.6V16.4Z"/><path class="cls-3" d="M33.72,7.58v.51h2.22v0l-2,4h.63l2-4.14V7.58ZM32.82,13a9,9,0,0,0,.66-1.7l-.69.07A9.72,9.72,0,0,1,32.38,13Zm-3.66-1a2.3,2.3,0,0,0,1.19.31c1.08,0,1.65-.64,1.65-1.37a1.19,1.19,0,0,0-1-1.17h0a1.14,1.14,0,0,0,.84-1.07c0-.55-.41-1.08-1.31-1.08a2.24,2.24,0,0,0-1.19.34l.17.45a1.64,1.64,0,0,1,.91-.3c.57,0,.8.32.8.69,0,.54-.57.77-1,.77h-.34v.46h.34c.6,0,1.17.27,1.18.91a.9.9,0,0,1-1,.88,2,2,0,0,1-1-.28ZM23.6,7.41v4.72h.61V9.92h2.28v2.21h.61V7.41h-.61v2H24.21v-2Zm-3.4,2.76a1.09,1.09,0,0,1,0-.25,1,1,0,0,1,.94-.76c.65,0,1,.58,1,1.26s-.37,1.31-1,1.31a1,1,0,0,1-.92-.72,2.06,2.06,0,0,1,0-.26Zm-.61,3.35h.61V11.68h0a1.19,1.19,0,0,0,1,.53,1.6,1.6,0,0,0,1.54-1.82,1.54,1.54,0,0,0-1.44-1.72,1.33,1.33,0,0,0-1.2.65h0l0-.58h-.55c0,.33,0,.68,0,1.11Z"/></svg>