<svg xmlns="http://www.w3.org/2000/svg" viewBox="0 0 2000.31 2000.31"><defs><style>.cls-1{fill:#009ee2;}.cls-2{fill:#1d1d1b;}</style></defs><g id="Farbcode"><rect class="cls-1" width="2000.31" height="2000.31"/></g><g id="Kfr_Kopie" data-name="Kfr Kopie"><path class="cls-2" d="M565.3,802H683.24L908.55,1164.2h1.52V802h111.14v539.83H902.5L678,980.47h-1.51v361.4H565.3Z"/><path class="cls-2" d="M1490,1316.92c0,64.27-22.68,173.14-202.63,173.14-77.12,0-167.09-36.29-172.38-125.5h106.61c9.82,40.07,42.34,53.68,80.14,53.68,59.73,0,87-40.83,86.19-96.78v-51.41h-1.51c-23.44,40.82-70.32,60.48-117.19,60.48-117.19,0-167.09-89.21-167.09-196.58,0-101.31,58.21-193.55,167.84-193.55,51.42,0,90.73,17.39,116.44,62.75h1.51V951H1490ZM1387.9,1141.51c0-63.51-21.92-120.21-91.48-120.21-60.49,0-87,52.92-87,111.14,0,56,21.17,117.19,87,117.19C1357.66,1249.63,1387.9,1197.46,1387.9,1141.51Z"/><text/></g></svg>