<svg id="Ebene_1" data-name="Ebene 1" xmlns="http://www.w3.org/2000/svg" viewBox="0 0 39.68 39.68"><defs><style>.cls-1{fill:#807454;}.cls-2{fill:#1d1d1b;}.cls-3{fill:#ffcb00;}</style></defs><rect class="cls-1" width="39.68" height="39.68"/><path class="cls-2" d="M31.82,25.48c-1,0-1.74-.9-1.74-2.3s.72-2.28,1.74-2.28,1.74.87,1.74,2.28-.72,2.3-1.74,2.3m.62-6.33A2.67,2.67,0,0,0,30,20.35l-.08-1H28.07v10.8h2.11V26.36a2.57,2.57,0,0,0,2.09,1c1.95,0,3.33-1.66,3.33-4.15s-1.41-4-3.16-4m-8.64,0a2.4,2.4,0,0,0-2.29,1.39,2.19,2.19,0,0,0-2.21-1.39,2.31,2.31,0,0,0-2.11,1.18l0-1H15.1v7.74h2.11V22.94c0-1.16.55-1.89,1.38-1.89s1,.58,1,1.27v4.76h2.11V22.94c0-1.16.55-1.89,1.38-1.89s1,.58,1,1.27v4.76h2.11V21.9c0-1.61-.87-2.75-2.47-2.75M11,16.4v6.86L6.77,16.4H4.6V27.08H6.81V20.23l4.24,6.85h2.17V16.4Z"/><path class="cls-2" d="M36.22,7.58H34l-.29,2.19a4.87,4.87,0,0,1,.63,0c.91,0,1.3.42,1.31,1a1,1,0,0,1-1.08,1,2,2,0,0,1-1-.25l-.16.47a2.25,2.25,0,0,0,1.14.28,1.58,1.58,0,0,0,1.69-1.55,1.3,1.3,0,0,0-.65-1.17,1.91,1.91,0,0,0-1-.25,2.89,2.89,0,0,0-.37,0l.17-1.17h1.74Zm-8.36-.16v4.71h.61V9.92h2.28v2.21h.62V7.42h-.62v2H28.47v-2Zm-3.4,2.75a1.11,1.11,0,0,1,.05-.25,1,1,0,0,1,.93-.76c.65,0,1,.58,1,1.26s-.38,1.31-1,1.31a1,1,0,0,1-.93-.72,1.86,1.86,0,0,1,0-.26Zm-.6,3.35h.6V11.68h0a1.19,1.19,0,0,0,1,.53,1.6,1.6,0,0,0,1.54-1.82,1.53,1.53,0,0,0-1.43-1.72,1.32,1.32,0,0,0-1.21.66h0l0-.58h-.55c0,.32,0,.67,0,1.1Z"/><rect class="cls-3" width="39.68" height="4.25"/></svg>