<svg id="Ebene_1" data-name="Ebene 1" xmlns="http://www.w3.org/2000/svg" viewBox="0 0 39.68 39.68"><defs><style>.cls-1{fill:#ffcb00;}.cls-2{fill:#1d1d1b;}</style></defs><rect class="cls-1" width="39.68" height="39.68"/><path class="cls-2" d="M31.71,27.36c2.08,0,3.43-.94,3.43-2.57,0-1.21-.72-1.91-2.26-2.23l-1.67-.34c-.55-.12-.87-.38-.87-.78s.45-.83,1.16-.83A1.35,1.35,0,0,1,33,21.69l1.9-.07c-.19-1.52-1.47-2.47-3.34-2.47s-3.15,1-3.15,2.54c0,1.19.73,2,2.25,2.27l1.53.3c.7.13,1,.36,1,.78,0,.59-.6.86-1.4.86-1,0-1.53-.44-1.65-1.2l-1.93.07c.19,1.65,1.39,2.59,3.51,2.59m-7.52-8.21a2.39,2.39,0,0,0-2.28,1.39,2.21,2.21,0,0,0-2.22-1.39,2.3,2.3,0,0,0-2.1,1.18l0-1H15.49v7.74h2.12V22.94c0-1.16.55-1.89,1.38-1.89s1,.58,1,1.27v4.76h2.12V22.94c0-1.16.55-1.89,1.38-1.89s1,.58,1,1.27v4.76h2.12V21.9c0-1.62-.87-2.75-2.48-2.75M11.4,16.4v6.85L7.17,16.4H5V27.08H7.21V20.22l4.23,6.86h2.18V16.4Z"/><path class="cls-2" d="M36.22,7.58H34l-.29,2.19a3.48,3.48,0,0,1,.63,0c.91,0,1.3.42,1.31,1a1,1,0,0,1-1.08,1,2.07,2.07,0,0,1-1-.25l-.15.47a2.24,2.24,0,0,0,1.13.28,1.59,1.59,0,0,0,1.7-1.56,1.3,1.3,0,0,0-.65-1.16,1.91,1.91,0,0,0-1-.25,2.89,2.89,0,0,0-.37,0l.17-1.17h1.74ZM32.48,13a9,9,0,0,0,.66-1.7l-.68.07A10.72,10.72,0,0,1,32,13Zm-.93-5.37H29.37l-.29,2.19a3.56,3.56,0,0,1,.63,0c.91,0,1.3.42,1.31,1a1,1,0,0,1-1.08,1,2,2,0,0,1-1-.25l-.16.47a2.25,2.25,0,0,0,1.14.28,1.58,1.58,0,0,0,1.69-1.56A1.3,1.3,0,0,0,31,9.49a1.91,1.91,0,0,0-1-.25,2.89,2.89,0,0,0-.37,0l.17-1.17h1.74Zm-8.36-.17v4.72h.61V9.92h2.28v2.21h.62V7.41h-.62v2H23.8v-2Zm-3.4,2.76a1.11,1.11,0,0,1,.05-.25,1,1,0,0,1,.93-.76c.65,0,1,.58,1,1.26s-.38,1.31-1,1.31a1,1,0,0,1-.93-.72,2.06,2.06,0,0,1,0-.26Zm-.6,3.35h.6V11.68h0a1.19,1.19,0,0,0,1,.53,1.6,1.6,0,0,0,1.54-1.82A1.53,1.53,0,0,0,21,8.67a1.33,1.33,0,0,0-1.21.65h0l0-.58h-.55c0,.33,0,.68,0,1.11Z"/></svg>