<svg xmlns="http://www.w3.org/2000/svg" viewBox="0 0 2000.2 2000.15"><defs><style>.cls-1{fill:#807454;}.cls-2{fill:#ffcb00;}.cls-3{fill:#1d1d1b;}</style></defs><g id="Farbcode_Gold" data-name="Farbcode Gold"><rect class="cls-1" width="2000.15" height="2000.15"/><rect class="cls-2" width="2000.2" height="214.3"/></g><g id="Npp"><path class="cls-3" d="M330.3,802H448.24L673.55,1164.2h1.52V802H786.21v539.83H667.5L443,980.47h-1.51v361.4H330.3Z" transform="translate(0.2 -0.14)"/><path class="cls-3" d="M879.2,951H981.27v49.9h1.52c25.7-41.58,68-60.48,116.43-60.48,122.48,0,177.68,99,177.68,210.19,0,104.33-57.46,201.87-171.63,201.87-46.88,0-91.49-20.42-117.19-59h-1.51v186H879.2Zm290.34,196.58c0-62-25-126.26-93.76-126.26-70.31,0-93,62.75-93,126.26s24.19,124,93.75,124C1146.85,1271.56,1169.54,1211.07,1169.54,1147.56Z" transform="translate(0.2 -0.14)"/><path class="cls-3" d="M1341.16,951h102.07v49.9h1.51c25.71-41.58,68-60.48,116.43-60.48,122.49,0,177.68,99,177.68,210.19,0,104.33-57.46,201.87-171.63,201.87-46.87,0-91.48-20.42-117.19-59h-1.51v186H1341.16Zm290.33,196.58c0-62-25-126.26-93.75-126.26-70.32,0-93,62.75-93,126.26s24.19,124,93.75,124C1608.81,1271.56,1631.49,1211.07,1631.49,1147.56Z" transform="translate(0.2 -0.14)"/><path class="cls-3" d="M853.29,496.52c0-21.87-.7-39.51-1.41-55.74h27.88l1.41,29.28h.7c12.71-20.81,32.82-33.16,60.69-33.16,41.28,0,72.33,34.93,72.33,86.79,0,61.39-37.4,91.74-77.62,91.74-22.58,0-42.34-9.88-52.57-26.82H884v92.8h-30.7ZM884,542a70.36,70.36,0,0,0,1.41,12.7c5.65,21.52,24.35,36.34,46.58,36.34,32.81,0,51.86-26.81,51.86-66,0-34.22-18-63.5-50.81-63.5-21.17,0-40.92,15.17-46.92,38.45A50.3,50.3,0,0,0,884,512.76Z" transform="translate(0.2 -0.14)"/><path class="cls-3" d="M1085.81,373.74v99.5h115v-99.5h31.05V611.55h-31.05V500.05h-115v111.5h-30.7V373.74Z" transform="translate(0.2 -0.14)"/><path class="cls-3" d="M1485.91,408.32h-87.5l-8.82,58.92a122,122,0,0,1,18.7-1.41c17.64,0,35.28,3.88,49.4,12.35,18,10.23,32.81,30,32.81,58.92,0,44.81-35.64,78.33-85.38,78.33-25.06,0-46.23-7.06-57.16-14.11l7.76-23.64c9.53,5.64,28.23,12.7,49,12.7,29.29,0,54.34-19.06,54.34-49.75-.35-29.64-20.11-50.81-66-50.81a237,237,0,0,0-31.76,2.47l14.82-110.08h109.73Z" transform="translate(0.2 -0.14)"/><path class="cls-3" d="M1520.13,655c7.41-20.82,16.94-58.57,20.82-84.33l34.58-3.53c-8.12,30-23.64,69.16-33.52,85.74Z" transform="translate(0.2 -0.14)"/><path class="cls-3" d="M1755.47,494.41c0,78-28.93,121-79.74,121-44.81,0-75.15-42-75.86-117.85,0-76.91,33.17-119.25,79.74-119.25C1728,378.33,1755.47,421.37,1755.47,494.41Zm-124.55,3.53c0,59.62,18.35,93.5,46.57,93.5,31.76,0,46.93-37.05,46.93-95.62,0-56.45-14.47-93.5-46.58-93.5C1650.68,402.32,1630.92,435.49,1630.92,497.94Z" transform="translate(0.2 -0.14)"/></g></svg>