<svg id="Ebene_1" data-name="Ebene 1" xmlns="http://www.w3.org/2000/svg" viewBox="0 0 39.68 39.68"><defs><style>.cls-1{fill:#807454;}.cls-2{fill:#1d1d1b;}.cls-3{fill:#eb6408;}</style></defs><rect class="cls-1" width="39.68" height="39.68"/><path class="cls-2" d="M28.51,19.34l-.85,3.43-.36,1.95-.36-2-.87-3.4H24.19l-.87,3.43L23,24.72l-.36-1.95-.85-3.43H19.53l2.29,7.74h2l1.11-4.31.2-1,.18,1,1.11,4.31h2l2.29-7.74ZM16.11,16.4v6.85L11.88,16.4H9.7V27.08h2.22V20.22l4.23,6.86h2.18V16.4Z"/><path class="cls-2" d="M36.22,7.58H34l-.29,2.19a3.56,3.56,0,0,1,.63,0c.91,0,1.3.42,1.31,1a1,1,0,0,1-1.08,1,2,2,0,0,1-1-.25l-.16.47a2.25,2.25,0,0,0,1.14.28,1.58,1.58,0,0,0,1.69-1.56,1.3,1.3,0,0,0-.65-1.16,1.91,1.91,0,0,0-1-.25,2.89,2.89,0,0,0-.37,0l.17-1.17h1.74Zm-8.36-.17v4.72h.61V9.92h2.28v2.21h.62V7.41h-.62v2H28.47v-2Zm-3.4,2.76a1.11,1.11,0,0,1,.05-.25,1,1,0,0,1,.93-.76c.65,0,1,.58,1,1.26s-.38,1.31-1,1.31a1,1,0,0,1-.93-.72,2.06,2.06,0,0,1,0-.26Zm-.6,3.35h.6V11.68h0a1.19,1.19,0,0,0,1,.53,1.6,1.6,0,0,0,1.54-1.82,1.53,1.53,0,0,0-1.43-1.72,1.33,1.33,0,0,0-1.21.65h0l0-.58h-.55c0,.33,0,.68,0,1.11Z"/><rect class="cls-3" width="39.68" height="4.25"/></svg>