<svg id="Ebene_1" data-name="Ebene 1" xmlns="http://www.w3.org/2000/svg" viewBox="0 0 39.68 39.68"><defs><style>.cls-1{fill:#ff5800;}.cls-2{fill:#1d1d1b;}</style></defs><rect class="cls-1" width="39.68" height="39.68"/><path class="cls-2" d="M25.64,25.48c-1,0-1.74-.9-1.74-2.3s.72-2.28,1.74-2.28,1.74.87,1.74,2.28-.72,2.3-1.74,2.3m.62-6.33a2.67,2.67,0,0,0-2.42,1.2l-.08-1H21.89v10.8H24V26.36a2.58,2.58,0,0,0,2.09,1c1.95,0,3.33-1.66,3.33-4.15s-1.41-4-3.16-4M15.37,25.51c-1.76,0-2.83-1.52-2.83-3.78s1.07-3.67,2.83-3.67,2.88,1.47,2.88,3.67-1.13,3.78-2.88,3.78m0,1.91c2.85,0,5.09-2.23,5.09-5.69s-2.24-5.58-5.09-5.58-5,2.12-5,5.58,2.18,5.69,5,5.69"/></svg>