<?xml version="1.0" encoding="UTF-8"?><svg xmlns="http://www.w3.org/2000/svg" viewBox="0 0 2000 2000"><defs><style>.cls-1{fill:#fff;}.cls-2{fill:#92d400;}</style></defs><g id="Farbcode"><rect x="-.2" y=".14" width="2000.15" height="2000.15"/><rect class="cls-2" x="-.2" y=".14" width="2000.2" height="214.3"/></g><g id="P1.03"><path class="cls-1" d="m266.73,783.1h243.46c134.58,0,186.75,85.44,186.75,173.14s-52.17,173.14-186.75,173.14h-124.75v193.55h-118.7v-539.84Zm118.7,254.04h92.24c55.19,0,104.34-12.1,104.34-80.9s-49.15-80.9-104.34-80.9h-92.24v161.8Z"/><path class="cls-1" d="m1015.24,1322.93h-107.36v-343.26h-133.07v-80.9c74.85,1.51,143.65-24.19,155-105.09h85.44v529.25Z"/><path class="cls-1" d="m1340.73,1107.18c67.81,0,124.96,42.62,124.96,174.85s-57.16,177.76-124.96,177.76-124-42.62-124-177.76,57.15-174.85,124-174.85Zm0,295.94c56.19,0,56.19-82.83,56.19-121.09,0-35.36,0-118.18-56.19-118.18s-55.22,82.83-55.22,118.18c0,38.26,0,121.09,55.22,121.09Z"/><path class="cls-1" d="m1607.61,1251.04c29.55,2.42,72.17-3.39,72.17-42.14,0-28.58-22.76-45.05-47.95-45.05-34.39,0-52.8,25.67-52.31,60.54h-65.39c2.42-69.26,47.47-117.21,117.22-117.21,54.25,0,113.82,33.42,113.82,93.97,0,31.97-15.98,60.54-47.47,69.26v.97c37.29,8.23,60.06,39.23,60.06,77.01,0,71.2-59.58,111.4-125.93,111.4-76.04,0-127.39-45.53-125.93-123.51h65.39c1.45,36.81,19.86,66.84,59.58,66.84,31,0,55.22-21.31,55.22-53.28,0-51.34-45.05-50.37-78.47-50.37v-48.44Z"/><path class="cls-1" d="m1461.8,1848.48c6.7.71,14.46,0,25.05-1.06,17.99-2.47,34.93-9.88,47.98-22.23,15.17-13.76,26.11-33.87,30.34-61.03h-1.06c-12.7,15.52-31.05,24.7-53.98,24.7-41.28,0-67.74-31.05-67.74-70.21,0-43.39,31.4-81.5,78.32-81.5s75.85,38.1,75.85,96.67c0,50.45-16.93,85.73-39.51,107.6-17.64,17.29-41.98,27.87-66.68,30.69-11.29,1.76-21.17,2.12-28.58,1.76v-25.4Zm56.09-187.69c-26.11,0-44.81,23.29-44.81,55.74,0,28.58,17.29,48.69,44.1,48.69,20.82,0,37.04-10.23,45.16-23.99,1.76-2.82,2.82-6.35,2.82-11.29,0-39.16-14.46-69.15-46.92-69.15h-.35Z"/><path class="cls-1" d="m1614.91,1913.75c7.41-20.82,16.93-58.56,20.81-84.32l34.57-3.53c-8.11,29.99-23.64,69.15-33.52,85.73l-21.87,2.12Z"/><path class="cls-1" d="m1834.7,1667.15h-87.49l-8.82,58.92c5.29-.71,10.23-1.41,18.7-1.41,17.64,0,35.28,3.88,49.39,12.35,17.99,10.23,32.81,29.99,32.81,58.92,0,44.81-35.63,78.32-85.38,78.32-25.05,0-46.22-7.06-57.15-14.11l7.76-23.64c9.53,5.65,28.22,12.7,49.04,12.7,29.28,0,54.33-19.05,54.33-49.74-.35-29.64-20.11-50.8-65.97-50.8-13.05,0-23.28,1.41-31.75,2.47l14.82-110.07h109.72v26.11Z"/><path class="cls-1" d="m1511.19,411.13h-.71l-39.87,21.52-6-23.64,50.1-26.81h26.46v229.32h-29.99v-200.39Z"/><path class="cls-1" d="m1614.91,654.91c7.41-20.81,16.93-58.56,20.81-84.32l34.57-3.53c-8.11,29.99-23.64,69.15-33.52,85.73l-21.87,2.12Z"/><path class="cls-1" d="m1850.22,494.39c0,77.97-28.93,121.01-79.73,121.01-44.81,0-75.15-41.98-75.85-117.83,0-76.91,33.16-119.25,79.73-119.25s75.85,43.04,75.85,116.07Zm-124.54,3.53c0,59.62,18.35,93.49,46.57,93.49,31.75,0,46.92-37.04,46.92-95.61s-14.46-93.49-46.57-93.49c-27.17,0-46.92,33.16-46.92,95.61Z"/></g></svg>