<svg xmlns="http://www.w3.org/2000/svg" viewBox="0 0 2000.2 2000.15"><defs><style>.cls-1{fill:#807454;}.cls-2{fill:#c53684;}.cls-3{fill:#1d1d1b;}.cls-4{fill:#92d400;}.cls-5{fill:#fff;}</style></defs><g id="Farbcode_Gold" data-name="Farbcode Gold"><rect class="cls-1" width="2000.15" height="2000.15"/><rect class="cls-2" width="2000.2" height="214.3"/></g><g id="Tdg"><path class="cls-3" d="M485.76,901.84H324V802h442.3v99.8H604.46v440H485.76Z" transform="translate(0.2 -0.14)"/><path class="cls-3" d="M1095.9,1292h-1.51c-25,42.34-68.8,60.49-118.7,60.49-118,0-175.41-101.32-175.41-209.43,0-105.1,58.21-202.63,173.14-202.63,46.12,0,91.48,19.66,115.68,58.22h1.51V802H1198v539.83H1095.9Zm-93.75-270.67c-70.32,0-94.51,60.48-94.51,124.75,0,61.24,28,125.51,94.51,125.51,71.07,0,92.24-62,92.24-126.27C1094.39,1081.78,1071.71,1021.3,1002.15,1021.3Z" transform="translate(0.2 -0.14)"/><path class="cls-3" d="M1654.63,1316.92c0,64.27-22.68,173.14-202.63,173.14-77.11,0-167.09-36.29-172.38-125.5h106.61c9.83,40.07,42.34,53.68,80.14,53.68,59.73,0,87-40.83,86.19-96.78v-51.41h-1.51c-23.44,40.82-70.31,60.48-117.19,60.48-117.19,0-167.09-89.21-167.09-196.58,0-101.31,58.21-193.55,167.85-193.55,51.41,0,90.72,17.39,116.43,62.75h1.51V951h102.07Zm-102.07-175.41c0-63.51-21.92-120.21-91.48-120.21-60.49,0-86.95,52.92-86.95,111.14,0,56,21.17,117.19,86.95,117.19C1522.32,1249.63,1552.56,1197.46,1552.56,1141.51Z" transform="translate(0.2 -0.14)"/><path class="cls-3" d="M853.29,496.52c0-21.87-.7-39.51-1.41-55.74h27.88l1.41,29.28h.7c12.71-20.81,32.82-33.16,60.69-33.16,41.28,0,72.33,34.93,72.33,86.79,0,61.39-37.4,91.74-77.62,91.74-22.58,0-42.34-9.88-52.57-26.82H884v92.8h-30.7ZM884,542a70.36,70.36,0,0,0,1.41,12.7c5.65,21.52,24.35,36.34,46.58,36.34,32.81,0,51.86-26.81,51.86-66,0-34.22-18-63.5-50.81-63.5-21.17,0-40.92,15.17-46.92,38.45A50.3,50.3,0,0,0,884,512.76Z" transform="translate(0.2 -0.14)"/><path class="cls-3" d="M1085.81,373.74v99.5h115v-99.5h31.05V611.55h-31.05V500.05h-115v111.5h-30.7V373.74Z" transform="translate(0.2 -0.14)"/><path class="cls-3" d="M1497.91,382.21v20.46l-99.85,208.88H1366l99.5-202.88V408h-112.2V382.21Z" transform="translate(0.2 -0.14)"/><path class="cls-3" d="M1520.13,655c7.41-20.82,16.94-58.57,20.82-84.33l34.58-3.53c-8.12,30-23.64,69.16-33.52,85.74Z" transform="translate(0.2 -0.14)"/><path class="cls-3" d="M1755.47,494.41c0,78-28.93,121-79.74,121-44.81,0-75.15-42-75.86-117.85,0-76.91,33.17-119.25,79.74-119.25C1728,378.33,1755.47,421.37,1755.47,494.41Zm-124.55,3.53c0,59.62,18.35,93.5,46.57,93.5,31.76,0,46.93-37.05,46.93-95.62,0-56.45-14.47-93.5-46.58-93.5C1650.68,402.32,1630.92,435.49,1630.92,497.94Z" transform="translate(0.2 -0.14)"/></g><g id="Farbcode"><rect width="2000.15" height="2000.15"/><rect class="cls-4" width="2000.2" height="214.3"/></g><g id="P2.03"><path class="cls-5" d="M266.73,783.1H510.19c134.58,0,186.75,85.44,186.75,173.14s-52.17,173.14-186.75,173.14H385.44v193.55H266.73Zm118.71,254h92.24c55.19,0,104.34-12.1,104.34-80.9s-49.15-80.9-104.34-80.9H385.44Z" transform="translate(0.2 -0.14)"/><path class="cls-5" d="M746.83,997.07c-3.78-121,65-214,192-214,96.77,0,181.45,62,181.45,165.58,0,79.39-42.34,123.24-94.51,160.29s-114.16,67.29-152.72,121.72h250.26v92.24H734.74c.75-122.48,75.6-174.65,167.09-236.65C948.71,1054.53,1012.21,1022,1013,957c0-49.91-33.27-81.66-79.39-81.66-63.51,0-83.92,65.78-83.92,121.73Z" transform="translate(0.2 -0.14)"/><path class="cls-5" d="M1340.73,1107.18c67.81,0,125,42.63,125,174.86,0,135.13-57.16,177.76-125,177.76-66.84,0-124-42.63-124-177.76C1216.74,1149.81,1273.89,1107.18,1340.73,1107.18Zm0,296c56.19,0,56.19-82.83,56.19-121.09,0-35.36,0-118.19-56.19-118.19-55.22,0-55.22,82.83-55.22,118.19C1285.51,1320.3,1285.51,1403.13,1340.73,1403.13Z" transform="translate(0.2 -0.14)"/><path class="cls-5" d="M1607.61,1251c29.55,2.42,72.17-3.39,72.17-42.14,0-28.58-22.76-45.05-48-45.05-34.39,0-52.8,25.67-52.31,60.55h-65.39c2.42-69.27,47.47-117.22,117.22-117.22,54.24,0,113.82,33.42,113.82,94,0,32-16,60.54-47.47,69.26v1c37.3,8.24,60.06,39.23,60.06,77,0,71.2-59.57,111.41-125.93,111.41-76,0-127.39-45.53-125.93-123.51h65.39c1.45,36.81,19.85,66.84,59.57,66.84,31,0,55.22-21.32,55.22-53.28,0-51.35-45-50.38-78.47-50.38Z" transform="translate(0.2 -0.14)"/><path class="cls-5" d="M1461.8,1848.48c6.7.71,14.46,0,25-1,18-2.47,34.92-9.88,48-22.23,15.17-13.76,26.1-33.87,30.34-61h-1.06c-12.7,15.52-31,24.69-54,24.69-41.28,0-67.74-31-67.74-70.21,0-43.39,31.4-81.49,78.33-81.49s75.85,38.1,75.85,96.66c0,50.45-16.94,85.73-39.52,107.61-17.64,17.28-42,27.87-66.67,30.69a144.44,144.44,0,0,1-28.58,1.77Zm56.09-187.69c-26.1,0-44.8,23.29-44.8,55.75,0,28.57,17.29,48.68,44.1,48.68,20.81,0,37-10.23,45.16-24,1.76-2.82,2.82-6.35,2.82-11.29,0-39.16-14.47-69.15-46.92-69.15Z" transform="translate(0.2 -0.14)"/><path class="cls-5" d="M1614.91,1913.75c7.41-20.81,16.93-58.56,20.82-84.32l34.57-3.52c-8.11,30-23.64,69.14-33.52,85.72Z" transform="translate(0.2 -0.14)"/><path class="cls-5" d="M1705.22,1834.72c8.82,5.65,29.29,14.47,50.81,14.47,39.86,0,52.21-25.4,51.86-44.45-.35-32.11-29.28-45.87-59.27-45.87h-17.29v-23.28h17.29c22.58,0,51.15-11.64,51.15-38.81,0-18.34-11.64-34.57-40.22-34.57-18.34,0-36,8.11-45.86,15.17l-8.11-22.58c12-8.82,35.28-17.64,60-17.64,45.16,0,65.62,26.81,65.62,54.68,0,23.64-14.11,43.75-42.33,54v.71c28.22,5.64,51.15,26.81,51.15,58.91,0,36.69-28.57,68.8-83.61,68.8-25.76,0-48.33-8.12-59.62-15.53Z" transform="translate(0.2 -0.14)"/><path class="cls-5" d="M1443.81,611.52V592.46l24.34-23.63c58.56-55.75,85-85.38,85.38-120,0-23.29-11.29-44.81-45.52-44.81-20.81,0-38.1,10.58-48.68,19.4l-9.88-21.87a100.62,100.62,0,0,1,64.92-23.28c49.39,0,70.2,33.86,70.2,66.67,0,42.34-30.69,76.56-79,123.13l-18.34,16.94v.7h103v25.76Z" transform="translate(0.2 -0.14)"/><path class="cls-5" d="M1614.91,654.91c7.41-20.82,16.93-58.57,20.82-84.32l34.57-3.53c-8.11,30-23.64,69.15-33.52,85.73Z" transform="translate(0.2 -0.14)"/><path class="cls-5" d="M1850.22,494.39c0,78-28.93,121-79.73,121-44.8,0-75.15-42-75.85-117.84,0-76.91,33.16-119.24,79.73-119.24C1822.71,378.32,1850.22,421.36,1850.22,494.39Zm-124.53,3.52c0,59.63,18.34,93.5,46.56,93.5,31.76,0,46.93-37,46.93-95.61,0-56.45-14.47-93.49-46.57-93.49C1745.44,402.31,1725.69,435.47,1725.69,497.91Z" transform="translate(0.2 -0.14)"/></g></svg>