<svg id="Ebene_1" data-name="Ebene 1" xmlns="http://www.w3.org/2000/svg" viewBox="0 0 39.68 39.69"><defs><style>.cls-1{fill:#020a0a;}.cls-2{fill:#fff;}.cls-3{fill:#a44dc4;}.cls-4{fill:none;stroke:#92d400;stroke-width:1.2px;}</style></defs><rect class="cls-1" width="39.68" height="39.69"/><path class="cls-2" d="M32.39,29.7h1.5V23.3H32.5v.14c0,.66-.56,1-1.25,1H30.8v1.12h1.59Zm-5.23-1.12c-.75,0-1.16-.57-1.16-2s.41-2,1.16-2,1.15.56,1.15,2-.4,2-1.15,2m0,1.36C29,29.94,30,28.67,30,26.51s-1-3.36-2.79-3.36-2.79,1.24-2.79,3.36,1,3.43,2.79,3.43M19.1,27.33c2.7,0,4.14-1.45,4.14-3.37A2.59,2.59,0,0,0,21,21.26v0A2.32,2.32,0,0,0,22.64,19c0-1.65-1.38-2.8-3.76-2.8S15.13,17.33,15,19.7h2.11c.06-1.34.74-1.74,1.64-1.74s1.62.52,1.62,1.36-.65,1.37-1.61,1.37h-.69v1.65h.78c1.28,0,2,.6,2,1.57a1.6,1.6,0,0,1-1.83,1.6A1.92,1.92,0,0,1,17,23.45H14.8c0,2.19,1.36,3.88,4.3,3.88M9.73,21.49H8.09V18.27H10a1.54,1.54,0,0,1,1.74,1.59c0,1-.66,1.63-2,1.63m.39-5.09H5.87V27.08H8.09V23.36H9.92c2.57,0,3.92-1.35,3.92-3.53s-1.41-3.43-3.72-3.43"/><path class="cls-2" d="M36.22,32.56H34l-.29,2.18a4.72,4.72,0,0,1,.63-.05c.91,0,1.3.42,1.31,1a1,1,0,0,1-1.08,1,2,2,0,0,1-1-.26l-.15.47a2.24,2.24,0,0,0,1.13.28,1.58,1.58,0,0,0,1.7-1.55,1.3,1.3,0,0,0-.65-1.17,1.9,1.9,0,0,0-1-.24l-.37,0,.17-1.17h1.74Zm-3.74,5.36a7.94,7.94,0,0,0,.66-1.7l-.68.07A11.15,11.15,0,0,1,32,38ZM30.1,33c.64,0,.93.59.93,1.37a.42.42,0,0,1-.05.22,1,1,0,0,1-.9.48.88.88,0,0,1-.88-1c0-.64.37-1.1.9-1.1M29,37.18a3.14,3.14,0,0,0,.57,0,2.31,2.31,0,0,0,1.32-.61,2.85,2.85,0,0,0,.78-2.13c0-1.17-.57-1.92-1.5-1.92A1.55,1.55,0,0,0,28.6,34.1a1.32,1.32,0,0,0,1.34,1.39A1.33,1.33,0,0,0,31,35h0a2,2,0,0,1-.6,1.21,1.71,1.71,0,0,1-.95.44,2.24,2.24,0,0,1-.5,0Z"/><path class="cls-2" d="M36.39,12.13v-.51h-2l.35-.34c1-.92,1.57-1.6,1.57-2.44a1.28,1.28,0,0,0-1.39-1.32A1.93,1.93,0,0,0,33.61,8l.19.43a1.57,1.57,0,0,1,1-.38.81.81,0,0,1,.9.89c0,.68-.54,1.27-1.7,2.38l-.48.46v.38ZM32.57,13a9,9,0,0,0,.67-1.7l-.69.07A10.72,10.72,0,0,1,32.13,13Zm-3.65-1a2.26,2.26,0,0,0,1.18.31c1.09,0,1.66-.64,1.66-1.37a1.18,1.18,0,0,0-1-1.16v0a1.13,1.13,0,0,0,.84-1.07c0-.55-.4-1.08-1.3-1.08a2.1,2.1,0,0,0-1.19.35l.16.44a1.69,1.69,0,0,1,.91-.3c.57,0,.8.32.8.69,0,.54-.57.77-1,.77H29.6v.46H30c.59,0,1.17.27,1.17.91,0,.38-.24.88-1,.88a2,2,0,0,1-1-.28Z"/><rect class="cls-3" width="39.68" height="4.25"/><line class="cls-4" y1="4.33" x2="39.69" y2="4.33"/></svg>