<?xml version="1.0" encoding="UTF-8"?><svg xmlns="http://www.w3.org/2000/svg" viewBox="0 0 2000 2000"><defs><style>.cls-1{fill:#92d400;}.cls-1,.cls-2,.cls-3,.cls-4{stroke-width:0px;}.cls-3{fill:#fff;}.cls-4{fill:#ee6302;}</style></defs><g id="Farbcode"><rect class="cls-2" x="-.2" y=".14" width="2000.15" height="2000.15"/><rect class="cls-4" x="-.2" y=".14" width="2000.2" height="122.86"/><rect class="cls-1" x="-.38" y="123" width="2000.2" height="90.88"/></g><g id="P6.02"><path class="cls-3" d="m266.73,783.1h243.46c134.58,0,186.75,85.44,186.75,173.14s-52.17,173.14-186.75,173.14h-124.75v193.55h-118.7v-539.84Zm118.7,254.04h92.24c55.19,0,104.34-12.1,104.34-80.9s-49.15-80.9-104.34-80.9h-92.24v161.8Z"/><path class="cls-3" d="m1012.21,929.78c-6.8-35.54-34.02-65.78-71.07-65.78-77.88,0-98.29,102.07-101.31,161.04l1.51,1.51c29.49-41.58,68.05-58.97,119.46-58.97,45.36,0,91.48,21.17,121.73,54.44,27.97,32.51,40.83,76.36,40.83,117.95,0,108.12-74.85,193.55-185.24,193.55-160.29,0-203.38-139.87-203.38-273.7s57.46-276.72,207.92-276.72c91.48,0,159.53,53.68,171.63,146.68h-102.07Zm-162.56,216.99c0,49.14,31.75,98.29,85.44,98.29s80.9-49.14,80.9-96.78-25.71-99.8-80.9-99.8-85.44,46.12-85.44,98.29Z"/><path class="cls-3" d="m1340.73,1107.18c67.81,0,124.96,42.62,124.96,174.85s-57.16,177.76-124.96,177.76-124-42.62-124-177.76,57.15-174.85,124-174.85Zm0,295.94c56.19,0,56.19-82.83,56.19-121.09,0-35.36,0-118.18-56.19-118.18s-55.22,82.83-55.22,118.18c0,38.26,0,121.09,55.22,121.09Z"/><path class="cls-3" d="m1515.1,1244.26c-2.42-77.5,41.66-137.07,123.03-137.07,62,0,116.25,39.72,116.25,106.08,0,50.86-27.12,78.95-60.54,102.68-33.42,23.73-73.14,43.11-97.84,77.98h160.32v59.09h-248.96c.48-78.47,48.44-111.89,107.04-151.6,30.03-20.34,70.72-41.17,71.2-82.83,0-31.97-21.31-52.31-50.86-52.31-40.69,0-53.76,42.14-53.76,77.98h-65.87Z"/><path class="cls-3" d="m1486.14,1749.7c-25.4-12-36.34-31.75-36.34-51.51,0-36.34,30.69-61.03,70.91-61.03,44.45,0,66.68,27.87,66.68,56.45,0,19.4-9.53,40.22-37.75,53.62v1.06c28.58,11.29,46.22,31.4,46.22,59.27,0,39.87-34.22,66.68-77.97,66.68-47.98,0-76.91-28.58-76.91-62.09,0-28.93,17.29-49.39,45.51-61.39l-.35-1.06Zm78.32,61.03c0-27.87-19.4-41.28-50.45-50.1-26.81,7.76-41.28,25.4-41.28,47.28-1.06,23.29,16.58,43.75,45.86,43.75s45.86-17.64,45.86-40.92Zm-85.38-114.66c0,22.93,17.29,35.28,43.75,42.34,19.76-6.7,34.93-20.82,34.93-41.63,0-18.34-10.94-37.4-38.81-37.4-25.75,0-39.87,16.93-39.87,36.69Z"/><path class="cls-3" d="m1614.91,1913.75c7.41-20.82,16.93-58.56,20.81-84.32l34.57-3.53c-8.11,29.99-23.64,69.15-33.52,85.73l-21.87,2.12Z"/><path class="cls-3" d="m1850.22,1753.23c0,77.97-28.93,121.01-79.73,121.01-44.81,0-75.15-41.98-75.85-117.83,0-76.91,33.16-119.25,79.73-119.25s75.85,43.04,75.85,116.07Zm-124.54,3.53c0,59.62,18.35,93.49,46.57,93.49,31.75,0,46.92-37.04,46.92-95.61s-14.46-93.49-46.57-93.49c-27.17,0-46.92,33.16-46.92,95.61Z"/><path class="cls-3" d="m1574.69,404.07c-6.35-.35-14.46,0-23.28,1.41-48.69,8.11-74.44,43.75-79.73,81.5h1.06c10.94-14.46,29.99-26.46,55.39-26.46,40.57,0,69.15,29.28,69.15,74.09,0,41.98-28.58,80.79-76.21,80.79s-81.14-38.1-81.14-97.73c0-45.16,16.23-80.79,38.81-103.37,19.05-18.7,44.45-30.34,73.38-33.87,9.17-1.41,16.93-1.76,22.58-1.76v25.4Zm-53.27,187.34c26.46,0,44.45-22.23,44.45-55.04s-18.7-52.57-47.28-52.57c-18.7,0-35.99,11.64-44.45,28.22-2.12,3.53-3.53,8.11-3.53,13.76.71,37.75,17.99,65.62,50.45,65.62h.35Z"/><path class="cls-3" d="m1614.91,654.91c7.41-20.81,16.93-58.56,20.81-84.32l34.57-3.53c-8.11,29.99-23.64,69.15-33.52,85.73l-21.87,2.12Z"/><path class="cls-3" d="m1850.22,494.39c0,77.97-28.93,121.01-79.73,121.01-44.81,0-75.15-41.98-75.85-117.83,0-76.91,33.16-119.25,79.73-119.25s75.85,43.04,75.85,116.07Zm-124.54,3.53c0,59.62,18.35,93.49,46.57,93.49,31.75,0,46.92-37.04,46.92-95.61s-14.46-93.49-46.57-93.49c-27.17,0-46.92,33.16-46.92,95.61Z"/></g></svg>