<svg id="Ebene_1" data-name="Ebene 1" xmlns="http://www.w3.org/2000/svg" viewBox="0 0 39.68 39.68"><defs><style>.cls-1{fill:#9b9b9b;}.cls-2{fill:#1d1d1b;}</style></defs><rect class="cls-1" width="39.68" height="39.68"/><path class="cls-2" d="M26.2,25.28c-1,0-1.75-.84-1.75-2.22s.72-2.22,1.75-2.22,1.74.87,1.74,2.22-.72,2.22-1.74,2.22m1.87-5.94-.07,1a2.58,2.58,0,0,0-2.27-1.15c-1.91,0-3.31,1.45-3.31,3.91s1.37,4,3.31,4a2.6,2.6,0,0,0,2.1-.95V27.2c0,1-.39,1.55-1.62,1.55-.92,0-1.44-.32-1.56-1H22.7c.15,1.62,1.33,2.61,3.56,2.61s3.68-1.11,3.68-3.15V19.34Zm-9.16,7.74H21V16.4H18.91Zm-5.24-5.59H12V18.27H13.9a1.54,1.54,0,0,1,1.74,1.59c0,1-.66,1.63-2,1.63m.39-5.09H9.82V27.08H12V23.36h1.84c2.56,0,3.91-1.35,3.91-3.53s-1.41-3.43-3.72-3.43"/></svg>