<svg id="Ebene_1" data-name="Ebene 1" xmlns="http://www.w3.org/2000/svg" viewBox="0 0 39.68 39.69"><defs><style>.cls-1{fill:#020a0a;}.cls-2{fill:#fff;}</style></defs><rect class="cls-1" width="39.68" height="39.69"/><path class="cls-2" d="M26.47,27.36c2.09,0,3.44-.94,3.44-2.57,0-1.2-.72-1.91-2.27-2.22L26,22.22c-.56-.12-.87-.37-.87-.78s.45-.83,1.15-.83a1.34,1.34,0,0,1,1.47,1.09l1.91-.08c-.2-1.51-1.47-2.47-3.35-2.47s-3.15,1-3.15,2.55c0,1.18.74,2,2.25,2.26l1.53.3c.71.14,1,.36,1,.78,0,.59-.6.86-1.39.86-1,0-1.53-.44-1.65-1.2L23,24.77c.2,1.65,1.4,2.59,3.51,2.59m-7.15-.28h2.11V16.4H19.32Zm-5.24-5.59H12.45V18.27h1.86a1.54,1.54,0,0,1,1.74,1.6c0,1-.66,1.62-2,1.62m.39-5.09H10.23V27.08h2.22V23.36h1.83c2.56,0,3.91-1.35,3.91-3.52s-1.41-3.44-3.72-3.44"/></svg>