<svg id="Ebene_1" data-name="Ebene 1" xmlns="http://www.w3.org/2000/svg" viewBox="0 0 39.68 39.68"><defs><style>.cls-1{fill:#92d400;}.cls-2{fill:#1d1d1b;}</style></defs><rect class="cls-1" width="39.68" height="39.68"/><path class="cls-2" d="M24.4,25.69c-1.18,0-1.92-1-1.92-2.45s.74-2.45,1.92-2.45,1.92,1,1.92,2.45-.73,2.45-1.92,2.45m0,1.64a3.89,3.89,0,0,0,4-4.09,4,4,0,1,0-7.92,0,3.9,3.9,0,0,0,4,4.09m-8.71-5.84H14.05V18.27h1.86a1.54,1.54,0,0,1,1.74,1.59c0,1-.66,1.63-2,1.63m.39-5.09H11.83V27.08h2.22V23.36h1.83c2.57,0,3.92-1.35,3.92-3.53s-1.41-3.43-3.72-3.43"/><path class="cls-2" d="M33.72,7.58v.51h2.22v0l-2,4h.63l2-4.14V7.58ZM28.2,7.41v4.72h.6V9.92h2.29v2.21h.61V7.41h-.61v2H28.8v-2Zm-3.4,2.76a1.09,1.09,0,0,1,0-.25,1,1,0,0,1,.93-.76c.66,0,1,.58,1,1.26s-.38,1.31-1,1.31a1,1,0,0,1-.92-.72,1.09,1.09,0,0,1,0-.26Zm-.61,3.35h.61V11.68h0a1.22,1.22,0,0,0,1.05.53,1.6,1.6,0,0,0,1.54-1.82A1.54,1.54,0,0,0,26,8.67a1.33,1.33,0,0,0-1.2.65h0l0-.58h-.56c0,.33,0,.68,0,1.11Z"/></svg>