<svg id="Ebene_1" data-name="Ebene 1" xmlns="http://www.w3.org/2000/svg" viewBox="0 0 39.68 39.68"><defs><style>.cls-1{fill:#ffcb00;}.cls-2{fill:#1d1d1b;}</style></defs><rect class="cls-1" width="39.68" height="39.68"/><path class="cls-2" d="M32.13,19.34l-.85,3.43-.36,1.95-.36-2-.87-3.4H27.81l-.87,3.43-.36,1.95-.36-1.95-.85-3.43H23.15l2.29,7.74h2l1.11-4.31.2-1,.18,1,1.11,4.31h2l2.29-7.74ZM18.65,25.69c-1.19,0-1.92-1-1.92-2.45s.73-2.45,1.92-2.45,1.92,1,1.92,2.45-.73,2.45-1.92,2.45m0,1.64a3.89,3.89,0,0,0,4-4.09,4,4,0,1,0-7.92,0,3.89,3.89,0,0,0,4,4.09M9.93,21.49H8.3V18.27h1.86a1.54,1.54,0,0,1,1.74,1.59c0,1-.66,1.63-2,1.63m.39-5.09H6.08V27.08H8.3V23.36h1.83C12.69,23.36,14,22,14,19.83s-1.41-3.43-3.72-3.43"/><path class="cls-2" d="M36.22,7.58H34l-.29,2.19a4.72,4.72,0,0,1,.63,0c.91,0,1.3.42,1.31,1a1,1,0,0,1-1.08,1,2.07,2.07,0,0,1-1-.25l-.15.47a2.24,2.24,0,0,0,1.13.28,1.58,1.58,0,0,0,1.7-1.55,1.3,1.3,0,0,0-.65-1.17,1.91,1.91,0,0,0-1-.25,2.89,2.89,0,0,0-.37,0l.17-1.17h1.74ZM32.48,13a8.76,8.76,0,0,0,.66-1.7l-.68.07A10.72,10.72,0,0,1,32,13ZM30.1,8c.64,0,.93.6.93,1.38a.34.34,0,0,1-.06.22,1,1,0,0,1-.89.48.88.88,0,0,1-.88-1c0-.64.37-1.11.9-1.11M29,12.2a3,3,0,0,0,.57,0,2.31,2.31,0,0,0,1.32-.61,2.89,2.89,0,0,0,.78-2.14c0-1.16-.57-1.91-1.5-1.91a1.56,1.56,0,0,0-1.56,1.61,1.33,1.33,0,0,0,1.35,1.4A1.36,1.36,0,0,0,31,10h0a2,2,0,0,1-.6,1.21,1.78,1.78,0,0,1-.95.44,3.08,3.08,0,0,1-.5,0ZM22.79,7.42v4.71h.61V9.92h2.28v2.21h.62V7.42h-.62v2H23.4v-2ZM19.4,10.17a1.09,1.09,0,0,1,0-.25,1,1,0,0,1,.93-.76c.65,0,1,.58,1,1.26s-.38,1.31-1,1.31a1,1,0,0,1-.93-.72,2,2,0,0,1,0-.26Zm-.61,3.35h.61V11.68h0a1.19,1.19,0,0,0,1,.53A1.6,1.6,0,0,0,22,10.39a1.53,1.53,0,0,0-1.43-1.72,1.33,1.33,0,0,0-1.21.66h0l0-.58h-.55c0,.32,0,.67,0,1.1Z"/></svg>