<svg xmlns="http://www.w3.org/2000/svg" viewBox="0 0 2000.31 2000.31"><defs><style>.cls-1{fill:#ff5800;}.cls-2{fill:#1d1d1b;}</style></defs><g id="Farbcode"><rect class="cls-1" width="2000.31" height="2000.31"/></g><g id="Pps"><path class="cls-2" d="M384.3,802H627.75c134.58,0,186.75,85.43,186.75,173.14s-52.17,173.14-186.75,173.14H503v193.55H384.3Zm118.7,254h92.24c55.19,0,104.34-12.1,104.34-80.9s-49.15-80.9-104.34-80.9H503Z"/><path class="cls-2" d="M877.25,951H979.32v49.9h1.51c25.71-41.58,68.05-60.48,116.44-60.48,122.48,0,177.67,99,177.67,210.19,0,104.33-57.46,201.87-171.62,201.87-46.88,0-91.49-20.42-117.2-59h-1.51v186H877.25Zm290.33,196.58c0-62-24.95-126.26-93.75-126.26-70.32,0-93,62.75-93,126.26s24.2,124,93.75,124C1144.9,1271.56,1167.58,1211.07,1167.58,1147.56Z"/><path class="cls-2" d="M1422.37,1214.85c.76,46.88,40.07,65.78,82.41,65.78,31,0,70.32-12.1,70.32-49.9,0-32.51-44.61-43.85-121.73-60.49-62-13.61-124-35.53-124-104.33,0-99.81,86.19-125.51,170.11-125.51,85.44,0,164.07,28.73,172.39,124.75H1569.81c-3-41.58-34.78-52.92-73.34-52.92-24.2,0-59.73,4.53-59.73,36.29,0,38.56,60.48,43.85,121.72,58.21,62.76,14.37,124,37,124,109.64,0,102.82-89.22,136.09-178.43,136.09-90.73,0-179.19-34-183.73-137.61Z"/><text/></g></svg>