<svg id="Ebene_1" data-name="Ebene 1" xmlns="http://www.w3.org/2000/svg" viewBox="0 0 39.68 39.69"><defs><style>.cls-1{fill:#9b9b9b;}.cls-2{fill:#1d1d1b;}</style></defs><rect class="cls-1" width="39.68" height="39.69"/><path class="cls-2" d="M28.32,22.06a1.89,1.89,0,0,1-2-2,1.86,1.86,0,0,1,1.92-2,1.93,1.93,0,0,1,2,2,1.87,1.87,0,0,1-2,1.94m3.26-4.42a4.32,4.32,0,0,0-3.32-1.37,3.8,3.8,0,0,0-4.12,3.82,3.54,3.54,0,0,0,3.73,3.72,3.36,3.36,0,0,0,2.79-1.33c-.07,2.27-.9,3.19-2.26,3.19a1.68,1.68,0,0,1-1.74-1.19H24.53c.24,1.77,1.66,3,3.87,3,2.8,0,4.41-2,4.41-5.73a6.18,6.18,0,0,0-1.23-4.07m-12,9.72c2.08,0,3.43-.94,3.43-2.57,0-1.21-.72-1.91-2.26-2.23l-1.67-.34c-.56-.12-.87-.38-.87-.78s.45-.83,1.16-.83a1.35,1.35,0,0,1,1.47,1.08l1.9-.07c-.2-1.52-1.47-2.47-3.34-2.47s-3.15,1-3.15,2.54c0,1.19.73,2,2.24,2.27l1.54.3c.7.13,1,.36,1,.78,0,.59-.6.86-1.4.86-1,0-1.53-.44-1.65-1.2l-1.93.07c.19,1.65,1.39,2.59,3.51,2.59m-8.48-5.87H9.45V18.27h1.87a1.54,1.54,0,0,1,1.74,1.59c0,1-.66,1.63-2,1.63m.39-5.09H7.24V27.08H9.45V23.36h1.84c2.56,0,3.91-1.35,3.91-3.53s-1.41-3.43-3.72-3.43"/></svg>