<svg id="Ebene_1" data-name="Ebene 1" xmlns="http://www.w3.org/2000/svg" viewBox="0 0 39.68 39.68"><defs><style>.cls-1{fill:#9b9b9b;}.cls-2{fill:#1d1d1b;}</style></defs><rect class="cls-1" width="39.68" height="39.68"/><path class="cls-2" d="M24.52,27.36c2.08,0,3.43-.94,3.43-2.57,0-1.2-.72-1.91-2.26-2.22L24,22.22c-.56-.12-.87-.37-.87-.78s.45-.83,1.16-.83a1.35,1.35,0,0,1,1.47,1.09l1.9-.08c-.2-1.51-1.47-2.47-3.34-2.47s-3.15,1-3.15,2.55c0,1.18.73,2,2.24,2.26l1.54.3c.7.14,1,.36,1,.78,0,.59-.6.86-1.4.86-1,0-1.53-.44-1.65-1.2L21,24.77c.19,1.65,1.39,2.59,3.51,2.59M16,21.49H14.4V18.27h1.87A1.54,1.54,0,0,1,18,19.87c0,1-.66,1.62-2,1.62m.39-5.09H12.19V27.08H14.4V23.36h1.84c2.56,0,3.91-1.35,3.91-3.52s-1.41-3.44-3.72-3.44"/></svg>