<svg id="Ebene_1" data-name="Ebene 1" xmlns="http://www.w3.org/2000/svg" viewBox="0 0 39.68 39.69"><defs><style>.cls-1{fill:#807454;}.cls-2{fill:#1d1d1b;}.cls-3{fill:#eb6408;}</style></defs><rect class="cls-1" width="39.68" height="39.69"/><path class="cls-2" d="M27.81,19.34,27,22.78l-.36,1.95-.36-2-.87-3.41H23.49l-.87,3.44-.36,1.95-.36-1.95L21,19.34H18.82l2.3,7.74h2l1.11-4.3.19-1,.18,1,1.11,4.3h2L30,19.34ZM14.26,21.49H12.63V18.27h1.86a1.54,1.54,0,0,1,1.74,1.6c0,1-.66,1.62-2,1.62m.39-5.09H10.41V27.08h2.22V23.36h1.83c2.56,0,3.91-1.35,3.91-3.52S17,16.4,14.65,16.4"/><path class="cls-2" d="M36.22,7.58H34l-.29,2.19a4.87,4.87,0,0,1,.63,0c.91,0,1.3.42,1.31,1a1,1,0,0,1-1.08,1,2,2,0,0,1-1-.25l-.16.47a2.25,2.25,0,0,0,1.14.28,1.58,1.58,0,0,0,1.69-1.55,1.3,1.3,0,0,0-.65-1.17,1.91,1.91,0,0,0-1-.25,2.89,2.89,0,0,0-.37,0l.17-1.17h1.74ZM32.48,13a8.16,8.16,0,0,0,.66-1.7l-.68.07A10.72,10.72,0,0,1,32,13Zm-3.37-2.54h0l1.11-1.55c.13-.21.23-.41.38-.67h0c0,.24,0,.47,0,.71v1.52Zm2.07,1.72V10.89h.63v-.48h-.63V7.58h-.67l-2,2.91v.4H30.6v1.24ZM22.89,7.42v4.71h.61V9.92h2.28v2.21h.62V7.42h-.62v2H23.5v-2Zm-3.4,2.75a1.11,1.11,0,0,1,.05-.25,1,1,0,0,1,.93-.76c.65,0,1,.58,1,1.26s-.38,1.31-1,1.31a1,1,0,0,1-.93-.72,1.86,1.86,0,0,1,0-.26Zm-.6,3.35h.6V11.68h0a1.19,1.19,0,0,0,1,.53,1.6,1.6,0,0,0,1.54-1.82,1.53,1.53,0,0,0-1.43-1.72,1.32,1.32,0,0,0-1.21.66h0l0-.58h-.55c0,.32,0,.67,0,1.1Z"/><rect class="cls-3" width="39.68" height="4.25"/></svg>