<?xml version="1.0" encoding="UTF-8"?><svg xmlns="http://www.w3.org/2000/svg" viewBox="0 0 2000 2000"><defs><style>.cls-1{fill:#c53684;}.cls-1,.cls-2,.cls-3{stroke-width:0px;}.cls-2{fill:#807454;}.cls-3{fill:#1d1d1b;}</style></defs><g id="Farbcode_Gold"><rect class="cls-2" x="-.2" y=".14" width="2000.15" height="2000.15"/><rect class="cls-1" x="-.2" y=".14" width="2000.2" height="214.3"/></g><g id="Qds"><path class="cls-3" d="m797.4,1392.53l-76.36-69.56c-35.54,20.41-80.14,31.75-130.8,31.75-167.09,0-265.38-124.75-265.38-280.5s98.29-285.04,265.38-285.04,265.38,124.75,265.38,285.04c0,77.88-24.95,147.43-70.31,198.85l67.29,61.24-55.19,58.22Zm-155-250.26l61.24,55.95c19.66-27.22,33.27-68.05,33.27-124,0-94.51-40.07-185.24-146.68-185.24s-146.68,90.73-146.68,185.24,40.07,180.7,146.68,180.7c17.39,0,39.32,0,47.63-7.56l-50.66-46.12,55.19-58.97Z"/><path class="cls-3" d="m1204.17,1291.97h-1.51c-24.95,42.34-68.8,60.49-118.7,60.49-117.95,0-175.41-101.31-175.41-209.43s58.22-202.63,173.14-202.63c46.12,0,91.49,19.66,115.68,58.22h1.51v-196.58h107.36v539.84h-102.07v-49.9Zm-93.75-270.67c-70.31,0-94.51,60.49-94.51,124.75s27.97,125.51,94.51,125.51c71.07,0,92.24-62,92.24-126.26s-22.68-124-92.24-124Z"/><path class="cls-3" d="m1470.3,1214.85c.76,46.88,40.07,65.78,82.41,65.78,31,0,70.31-12.1,70.31-49.9,0-32.51-44.61-43.85-121.73-60.49-62-13.61-124-35.54-124-104.34,0-99.8,86.19-125.51,170.12-125.51s164.07,28.73,172.38,124.75h-102.07c-3.02-41.58-34.78-52.92-73.34-52.92-24.19,0-59.73,4.54-59.73,36.29,0,38.56,60.49,43.85,121.73,58.22,62.75,14.37,124,37.05,124,109.63,0,102.83-89.22,136.09-178.43,136.09s-179.19-34.02-183.73-137.61h102.07Z"/><path class="cls-3" d="m853.29,496.52c0-21.88-.71-39.52-1.41-55.75h27.87l1.41,29.28h.71c12.7-20.82,32.81-33.17,60.69-33.17,41.28,0,72.33,34.93,72.33,86.8,0,61.39-37.4,91.74-77.62,91.74-22.58,0-42.34-9.88-52.57-26.82h-.71v92.79h-30.7v-184.88Zm30.7,45.52c0,4.59.71,8.82,1.41,12.7,5.65,21.52,24.35,36.34,46.57,36.34,32.81,0,51.87-26.82,51.87-65.98,0-34.22-17.99-63.51-50.81-63.51-21.17,0-40.93,15.17-46.93,38.46-1.06,3.88-2.12,8.47-2.12,12.7v29.28Z"/><path class="cls-3" d="m1085.81,373.74v99.5h115.02v-99.5h31.05v237.81h-31.05v-111.49h-115.02v111.49h-30.7v-237.81h30.7Z"/><path class="cls-3" d="m1444.98,611.55v-62.45h-106.55v-20.46l102.32-146.42h33.52v142.54h32.11v24.35h-32.11v62.45h-29.29Zm0-86.8v-76.56c0-12,.35-23.99,1.06-35.99h-1.06c-7.06,13.41-12.7,23.29-19.05,33.87l-56.1,77.98v.71h75.15Z"/><path class="cls-3" d="m1520.13,654.95c7.41-20.82,16.94-58.57,20.82-84.33l34.58-3.53c-8.12,29.99-23.64,69.15-33.52,85.74l-21.88,2.12Z"/><path class="cls-3" d="m1730.42,408.32h-87.5l-8.82,58.92c5.29-.71,10.23-1.41,18.7-1.41,17.64,0,35.28,3.88,49.4,12.35,17.99,10.23,32.81,29.99,32.81,58.92,0,44.81-35.64,78.33-85.38,78.33-25.05,0-46.22-7.06-57.16-14.11l7.76-23.64c9.53,5.65,28.23,12.7,49.04,12.7,29.29,0,54.34-19.05,54.34-49.75-.35-29.64-20.11-50.81-65.98-50.81-13.05,0-23.29,1.41-31.75,2.47l14.82-110.08h109.73v26.11Z"/></g></svg>