<svg xmlns="http://www.w3.org/2000/svg" viewBox="0 0 2000.2 2000.15"><defs><style>.cls-1{fill:#adafaf;}.cls-2{fill:#fff;}</style></defs><g id="Farbcode"><rect width="2000.15" height="2000.15"/><rect class="cls-1" width="2000.2" height="214.3"/></g><g id="Qf"><path class="cls-2" d="M1084.84,1373.59,1008.48,1304c-35.54,20.42-80.15,31.76-130.8,31.76-167.1,0-265.39-124.75-265.39-280.5,0-160.29,98.29-285,265.39-285s265.38,124.75,265.38,285c0,77.87-25,147.43-70.32,198.84l67.29,61.24Zm-155-250.26,61.25,56c19.66-27.22,33.26-68,33.26-124,0-94.51-40.07-185.24-146.67-185.24S731,960.78,731,1055.29c0,90,40.07,180.7,146.68,180.7,17.39,0,39.31,0,47.63-7.56l-50.66-46.13Z" transform="translate(0.2 -0.14)"/><path class="cls-2" d="M1236.05,1003.87h-64.26V932.05h64.26V901.8c0-68.8,43.1-118.7,130.8-118.7,18.91,0,38.57,2.27,56.71,3v80.15a331.42,331.42,0,0,0-39.32-2.27c-28.73,0-40.82,12.1-40.82,44.61v23.44h74.09v71.82h-74.09v319.06H1236.05Z" transform="translate(0.2 -0.14)"/><text x="0.2" y="-0.14"/><text x="0.2" y="-0.14"/></g></svg>