<svg xmlns="http://www.w3.org/2000/svg" viewBox="0 0 2000.2 2000.15"><defs><style>.cls-1{fill:#adafaf;}.cls-2{fill:#fff;}</style></defs><g id="Farbcode"><rect width="2000.15" height="2000.15"/><rect class="cls-1" width="2000.2" height="214.3"/></g><g id="Qs"><path class="cls-2" d="M1031.84,1373.59,955.48,1304c-35.54,20.42-80.15,31.76-130.8,31.76-167.1,0-265.39-124.75-265.39-280.5,0-160.29,98.29-285,265.39-285s265.38,124.75,265.38,285c0,77.87-25,147.43-70.32,198.84l67.29,61.24Zm-155-250.26,61.25,56c19.65-27.22,33.26-68,33.26-124,0-94.51-40.07-185.24-146.67-185.24S678,960.78,678,1055.29c0,90,40.07,180.7,146.68,180.7,17.39,0,39.31,0,47.63-7.56l-50.66-46.13Z" transform="translate(0.2 -0.14)"/><path class="cls-2" d="M1242.78,1195.91c.76,46.88,40.08,65.78,82.42,65.78,31,0,70.31-12.09,70.31-49.9,0-32.51-44.61-43.85-121.73-60.48-62-13.61-124-35.54-124-104.34,0-99.8,86.19-125.51,170.11-125.51,85.44,0,164.07,28.73,172.39,124.75H1390.22c-3-41.58-34.78-52.92-73.34-52.92-24.2,0-59.73,4.53-59.73,36.29,0,38.56,60.49,43.85,121.73,58.22,62.75,14.36,124,37,124,109.63,0,102.82-89.21,136.09-178.43,136.09-90.73,0-179.19-34-183.73-137.61Z" transform="translate(0.2 -0.14)"/><text x="0.2" y="-0.14"/><text x="0.2" y="-0.14"/></g></svg>