<svg id="Ebene_1" data-name="Ebene 1" xmlns="http://www.w3.org/2000/svg" viewBox="0 0 39.68 39.69"><defs><style>.cls-1{fill:#9b9b9b;}.cls-2{fill:#1d1d1b;}</style></defs><rect class="cls-1" width="39.68" height="39.69"/><path class="cls-2" d="M27.45,27.36c2.09,0,3.44-.94,3.44-2.58,0-1.2-.72-1.9-2.26-2.22L27,22.22c-.56-.12-.87-.38-.87-.78s.45-.83,1.15-.83a1.35,1.35,0,0,1,1.48,1.08l1.9-.07c-.2-1.52-1.47-2.47-3.35-2.47s-3.14,1-3.14,2.54c0,1.19.73,2,2.24,2.27l1.53.3c.71.13,1,.36,1,.78,0,.59-.6.86-1.4.86-1,0-1.53-.44-1.65-1.21L24,24.77c.19,1.65,1.39,2.59,3.5,2.59m-4.72-9.27h.58V16.4H22.2a2.22,2.22,0,0,0-2.47,2.47v.52l-1.08-.05V20.9l1.08,0v6.23h2.11V20.85l1.47,0V19.34l-1.47.05V19a.78.78,0,0,1,.89-.89M11.46,21.14V18.26h2.43c1.1,0,1.54.6,1.54,1.38s-.5,1.5-1.84,1.5Zm4.1.81a2.48,2.48,0,0,0,2-2.61c0-1.52-.83-2.94-3.37-2.94h-5V27.08h2.21V22.94h2c1.16,0,1.53.48,1.62,1.39l.26,2.75h2.27l-.43-3.39A1.79,1.79,0,0,0,15.56,22"/></svg>