<svg id="Ebene_1" data-name="Ebene 1" xmlns="http://www.w3.org/2000/svg" viewBox="0 0 39.68 39.68"><defs><style>.cls-1{fill:#ff5800;}.cls-2{fill:#1d1d1b;}</style></defs><rect class="cls-1" width="39.68" height="39.68"/><path class="cls-2" d="M29.38,25.48c-1,0-1.75-.91-1.75-2.3s.72-2.28,1.75-2.28,1.74.87,1.74,2.28-.72,2.3-1.74,2.3M30,19.15a2.7,2.7,0,0,0-2.25,1V16.4H25.63V27.08H27.5l.07-1a2.56,2.56,0,0,0,2.26,1.21c2,0,3.32-1.66,3.32-4.15s-1.4-4-3.16-4m-8,7.93H24.5l-3.08-4.7,3-3H21.78l-2.62,2.92V16.4H17.05V27.08h2.11V24.51l.78-.79ZM9.26,21.14V18.26h2.43c1.1,0,1.53.6,1.53,1.38s-.49,1.5-1.83,1.5Zm4.1.81a2.47,2.47,0,0,0,2-2.61c0-1.52-.82-2.94-3.37-2.94H7V27.08H9.26V22.94h2c1.15,0,1.53.48,1.62,1.39l.25,2.75h2.28L15,23.69A1.79,1.79,0,0,0,13.36,22"/></svg>