<svg id="Ebene_1" data-name="Ebene 1" xmlns="http://www.w3.org/2000/svg" viewBox="0 0 39.68 39.68"><defs><style>.cls-1{fill:#ff5800;}.cls-2{fill:#1d1d1b;}</style></defs><rect class="cls-1" width="39.68" height="39.68"/><path class="cls-2" d="M31,19.07a1.84,1.84,0,0,0-1.75,1.31l0-1H27.24v7.74h2.11V23.32c0-1.51.63-2.24,1.92-2.24a3.25,3.25,0,0,1,.44,0V19.18a2,2,0,0,0-.68-.11m-7.42,8h2.5L23,22.39l3-3.05H23.4l-2.63,2.93V16.4H18.66V27.08h2.11V24.52l.78-.8ZM10.87,21.14V18.26H13.3c1.1,0,1.53.6,1.53,1.38s-.49,1.5-1.83,1.5ZM15,22a2.48,2.48,0,0,0,2-2.61c0-1.52-.83-2.94-3.38-2.94h-5V27.08h2.22V22.94h2c1.15,0,1.53.48,1.62,1.39l.25,2.75H17l-.43-3.39A1.8,1.8,0,0,0,15,22"/></svg>