<svg xmlns="http://www.w3.org/2000/svg" viewBox="0 0 2000.31 2000.31"><defs><style>.cls-1{fill:#f30034;}.cls-2{fill:#1d1d1b;}</style></defs><g id="Farbcode"><rect class="cls-1" width="2000.31" height="2000.31"/></g><g id="Rrr"><path class="cls-2" d="M459.3,802H750.38c96.78,0,158,67.29,158,148.94,0,63.51-25.7,111.15-85.43,135.34v1.51c58.22,15.12,74.85,71.83,78.63,126.27,2.27,34,1.51,97.53,22.68,127.77H805.58c-14.37-34-12.86-86.19-18.9-129.29-8.32-56.7-30.25-81.65-90-81.65H578v210.94H459.3ZM578,1046.25H708c52.93,0,81.66-22.68,81.66-77.12C789.7,917,761,894.28,708,894.28H578Z"/><path class="cls-2" d="M993.83,951H1095.9v72.59h1.51c19.66-49.15,72.58-83.17,124.75-83.17a80,80,0,0,1,23.44,3.78V1044c-9.83-2.27-25.71-3.78-38.56-3.78-78.63,0-105.85,56.71-105.85,125.51v176.16H993.83Z"/><path class="cls-2" d="M1287.93,951H1390v72.59h1.52c19.65-49.15,72.58-83.17,124.75-83.17a80,80,0,0,1,23.44,3.78V1044c-9.83-2.27-25.71-3.78-38.56-3.78-78.63,0-105.85,56.71-105.85,125.51v176.16H1287.93Z"/><path class="cls-2" d="M853.29,496.52c0-21.87-.7-39.51-1.41-55.74h27.88l1.41,29.28h.7c12.71-20.81,32.82-33.16,60.69-33.16,41.28,0,72.33,34.93,72.33,86.79,0,61.39-37.4,91.74-77.62,91.74-22.58,0-42.34-9.88-52.57-26.82H884v92.8h-30.7ZM884,542a70.36,70.36,0,0,0,1.41,12.7c5.65,21.52,24.35,36.34,46.58,36.34,32.81,0,51.86-26.81,51.86-66,0-34.22-18-63.5-50.81-63.5-21.17,0-40.92,15.17-46.92,38.45A50.3,50.3,0,0,0,884,512.76Z"/><path class="cls-2" d="M1085.81,373.74v99.5h115v-99.5h31.05V611.55h-31.05V500.05h-115v111.5h-30.7V373.74Z"/><path class="cls-2" d="M1497.91,382.21v20.46l-99.85,208.88H1366l99.5-202.88V408h-112.2V382.21Z"/><path class="cls-2" d="M1520.13,655c7.41-20.82,16.94-58.57,20.82-84.33l34.58-3.53c-8.12,30-23.64,69.16-33.52,85.74Z"/><path class="cls-2" d="M1739.94,408.32h-87.5l-8.82,58.92a122,122,0,0,1,18.7-1.41c17.64,0,35.28,3.88,49.4,12.35,18,10.23,32.81,30,32.81,58.92,0,44.81-35.64,78.33-85.38,78.33-25.06,0-46.23-7.06-57.16-14.11l7.76-23.64c9.53,5.64,28.23,12.7,49,12.7,29.29,0,54.34-19.06,54.34-49.75-.35-29.64-20.11-50.81-66-50.81a237,237,0,0,0-31.76,2.47l14.82-110.08h109.73Z"/></g></svg>