<?xml version="1.0" encoding="UTF-8"?><svg xmlns="http://www.w3.org/2000/svg" viewBox="0 0 2000 2000"><defs><style>.cls-1{fill:#ffcb04;}.cls-1,.cls-2{stroke-width:0px;}.cls-2{fill:#1d1d1b;}</style></defs><g id="Farbcode"><rect class="cls-1" x="-3" width="2000.31" height="2000.31"/></g><g id="Rrw"><path class="cls-2" d="m348.3,802.04h291.09c96.78,0,158.02,67.29,158.02,148.95,0,63.51-25.71,111.14-85.44,135.34v1.51c58.22,15.12,74.85,71.83,78.63,126.26,2.27,34.02,1.51,97.53,22.68,127.78h-118.7c-14.37-34.02-12.85-86.19-18.9-129.29-8.32-56.71-30.24-81.66-89.97-81.66h-118.7v210.94h-118.7v-539.84Zm118.7,244.21h130.04c52.93,0,81.66-22.68,81.66-77.12s-28.73-74.85-81.66-74.85h-130.04v151.97Z"/><path class="cls-2" d="m882.83,950.98h102.07v72.58h1.51c19.66-49.15,72.58-83.17,124.75-83.17,7.56,0,16.63,1.51,23.44,3.78v99.8c-9.83-2.27-25.71-3.78-38.56-3.78-78.63,0-105.85,56.71-105.85,125.51v176.17h-107.36v-390.89Z"/><path class="cls-2" d="m1623.77,1341.87h-110.39l-69.56-262.36h-1.51l-66.54,262.36h-111.14l-124-390.89h113.41l71.83,265.38h1.51l65.02-265.38h104.34l66.54,264.62h1.51l71.83-264.62h110.39l-123.24,390.89Z"/><path class="cls-2" d="m853.29,496.52c0-21.88-.71-39.52-1.41-55.75h27.87l1.41,29.28h.71c12.7-20.82,32.81-33.17,60.69-33.17,41.28,0,72.33,34.93,72.33,86.8,0,61.39-37.4,91.74-77.62,91.74-22.58,0-42.34-9.88-52.57-26.82h-.71v92.79h-30.7v-184.88Zm30.7,45.52c0,4.59.71,8.82,1.41,12.7,5.65,21.52,24.35,36.34,46.57,36.34,32.81,0,51.87-26.82,51.87-65.98,0-34.22-17.99-63.51-50.81-63.51-21.17,0-40.93,15.17-46.93,38.46-1.06,3.88-2.12,8.47-2.12,12.7v29.28Z"/><path class="cls-2" d="m1085.81,373.74v99.5h115.02v-99.5h31.05v237.81h-31.05v-111.49h-115.02v111.49h-30.7v-237.81h30.7Z"/><path class="cls-2" d="m1444.98,611.55v-62.45h-106.55v-20.46l102.32-146.42h33.52v142.54h32.11v24.35h-32.11v62.45h-29.29Zm0-86.8v-76.56c0-12,.35-23.99,1.06-35.99h-1.06c-7.06,13.41-12.7,23.29-19.05,33.87l-56.1,77.98v.71h75.15Z"/><path class="cls-2" d="m1520.13,654.95c7.41-20.82,16.94-58.57,20.82-84.33l34.58-3.53c-8.12,29.99-23.64,69.15-33.52,85.74l-21.88,2.12Z"/><path class="cls-2" d="m1755.47,494.41c0,77.98-28.93,121.02-79.74,121.02-44.81,0-75.15-41.99-75.86-117.85,0-76.92,33.17-119.26,79.74-119.26s75.86,43.04,75.86,116.08Zm-124.55,3.53c0,59.63,18.35,93.5,46.57,93.5,31.75,0,46.93-37.05,46.93-95.62s-14.47-93.5-46.57-93.5c-27.17,0-46.93,33.17-46.93,95.62Z"/></g></svg>