<?xml version="1.0" encoding="UTF-8"?><svg xmlns="http://www.w3.org/2000/svg" viewBox="0 0 2046.07 2044.05"><defs><style>.cls-1{fill:#ffcb00;}.cls-2{fill:#1d1d1b;}</style></defs><g id="Farbcode"><rect class="cls-1" x="23.04" y="22.03" width="2000.31" height="2000.31"/></g><g id="Vorlage_Kopie"><path class="cls-2" d="m624.33,824.06h291.09c96.78,0,158.02,67.29,158.02,148.95,0,63.51-25.71,111.14-85.44,135.34v1.51c58.22,15.12,74.85,71.83,78.63,126.26,2.27,34.02,1.51,97.53,22.68,127.78h-118.7c-14.37-34.02-12.85-86.19-18.9-129.29-8.32-56.71-30.24-81.66-89.97-81.66h-118.7v210.94h-118.7v-539.84Zm118.7,244.21h130.04c52.93,0,81.66-22.68,81.66-77.12s-28.73-74.85-81.66-74.85h-130.04v151.97Z"/><path class="cls-2" d="m1242.03,1236.88c.76,46.88,40.07,65.78,82.41,65.78,31,0,70.31-12.1,70.31-49.9,0-32.51-44.61-43.85-121.73-60.49-62-13.61-124-35.54-124-104.34,0-99.8,86.19-125.51,170.12-125.51s164.07,28.73,172.38,124.75h-102.07c-3.02-41.58-34.78-52.92-73.34-52.92-24.19,0-59.73,4.54-59.73,36.29,0,38.56,60.49,43.85,121.73,58.22,62.75,14.37,124,37.05,124,109.63,0,102.83-89.22,136.09-178.43,136.09s-179.19-34.02-183.73-137.61h102.07Z"/><path class="cls-2" d="m876.33,518.55c0-21.88-.71-39.52-1.41-55.75h27.87l1.41,29.28h.71c12.7-20.82,32.81-33.17,60.69-33.17,41.28,0,72.33,34.93,72.33,86.8,0,61.39-37.4,91.74-77.62,91.74-22.58,0-42.34-9.88-52.57-26.82h-.71v92.79h-30.7v-184.88Zm30.7,45.52c0,4.59.71,8.82,1.41,12.7,5.65,21.52,24.35,36.34,46.57,36.34,32.81,0,51.87-26.82,51.87-65.98,0-34.22-17.99-63.51-50.81-63.51-21.17,0-40.93,15.17-46.93,38.46-1.06,3.88-2.12,8.47-2.12,12.7v29.28Z"/><path class="cls-2" d="m1108.84,395.77v99.5h115.02v-99.5h31.05v237.81h-31.05v-111.49h-115.02v111.49h-30.7v-237.81h30.7Z"/><path class="cls-2" d="m1409.45,433.17h-.71l-39.87,21.52-6-23.64,50.1-26.81h26.46v229.34h-29.99v-200.41Z"/><path class="cls-2" d="m1477.19,676.97c7.41-20.82,16.94-58.57,20.82-84.33l34.58-3.53c-8.12,29.99-23.64,69.15-33.52,85.74l-21.88,2.12Z"/><path class="cls-2" d="m1712.52,516.44c0,77.98-28.93,121.02-79.74,121.02-44.81,0-75.15-41.99-75.86-117.85,0-76.92,33.17-119.26,79.74-119.26s75.86,43.04,75.86,116.08Zm-124.55,3.53c0,59.63,18.35,93.5,46.57,93.5,31.75,0,46.93-37.05,46.93-95.62s-14.47-93.5-46.57-93.5c-27.17,0-46.93,33.17-46.93,95.62Z"/></g></svg>