<?xml version="1.0" encoding="UTF-8"?><svg xmlns="http://www.w3.org/2000/svg" viewBox="0 0 2046.07 2044.05"><defs><style>.cls-1{fill:#fff;}.cls-2{fill:#adafaf;}</style></defs><g id="Farbcode"><rect x="22.83" y="22.17" width="2000.15" height="2000.15"/><rect class="cls-2" x="22.83" y="22.17" width="2000.2" height="214.3"/></g><g id="S0.03"><g><g><path class="cls-1" d="m370.67,1165.77c0,71.83,55.95,99.8,119.46,99.8,41.58,0,105.09-12.1,105.09-67.29,0-58.22-80.9-68.05-160.29-89.22-80.14-21.17-161.04-52.17-161.04-153.48,0-110.39,104.34-163.31,201.87-163.31,112.66,0,216.24,49.15,216.24,173.9h-114.92c-3.78-65.02-49.9-81.66-106.61-81.66-37.8,0-81.66,15.88-81.66,61.24,0,41.58,25.71,46.88,161.04,81.66,39.32,9.83,160.29,34.78,160.29,157.26,0,99.04-77.88,173.14-224.55,173.14-119.46,0-231.36-58.97-229.85-192.04h114.92Z"/><path class="cls-1" d="m937.71,805.13c105.85,0,195.07,66.53,195.07,272.94s-89.22,277.48-195.07,277.48-193.55-66.53-193.55-277.48,89.22-272.94,193.55-272.94Zm0,461.96c87.7,0,87.7-129.29,87.7-189.02,0-55.19,0-184.48-87.7-184.48s-86.19,129.29-86.19,184.48c0,59.73,0,189.02,86.19,189.02Z"/></g><g><path class="cls-1" d="m1363.77,1129.21c67.81,0,124.96,42.62,124.96,174.85s-57.16,177.76-124.96,177.76-124-42.62-124-177.76,57.15-174.85,124-174.85Zm0,295.94c56.19,0,56.19-82.83,56.19-121.09,0-35.36,0-118.18-56.19-118.18s-55.22,82.83-55.22,118.18c0,38.26,0,121.09,55.22,121.09Z"/><path class="cls-1" d="m1630.65,1273.07c29.55,2.42,72.17-3.39,72.17-42.14,0-28.58-22.76-45.05-47.95-45.05-34.39,0-52.8,25.67-52.31,60.54h-65.39c2.42-69.26,47.47-117.21,117.22-117.21,54.25,0,113.82,33.42,113.82,93.97,0,31.97-15.98,60.54-47.47,69.26v.97c37.29,8.23,60.06,39.23,60.06,77.01,0,71.2-59.58,111.4-125.93,111.4-76.04,0-127.39-45.53-125.93-123.51h65.39c1.45,36.81,19.86,66.84,59.58,66.84,31,0,55.22-21.31,55.22-53.28,0-51.34-45.05-50.37-78.47-50.37v-48.44Z"/></g></g><g><path class="cls-1" d="m1484.83,1870.51c6.7.71,14.46,0,25.05-1.06,17.99-2.47,34.93-9.88,47.98-22.23,15.17-13.76,26.11-33.87,30.34-61.03h-1.06c-12.7,15.52-31.05,24.7-53.98,24.7-41.28,0-67.74-31.05-67.74-70.21,0-43.39,31.4-81.5,78.32-81.5s75.85,38.1,75.85,96.67c0,50.45-16.93,85.73-39.51,107.6-17.64,17.29-41.98,27.87-66.68,30.69-11.29,1.76-21.17,2.12-28.58,1.76v-25.4Zm56.09-187.69c-26.11,0-44.81,23.29-44.81,55.74,0,28.58,17.29,48.69,44.1,48.69,20.82,0,37.04-10.23,45.16-23.99,1.76-2.82,2.82-6.35,2.82-11.29,0-39.16-14.46-69.15-46.92-69.15h-.35Z"/><path class="cls-1" d="m1637.95,1935.78c7.41-20.82,16.93-58.56,20.81-84.32l34.57-3.53c-8.11,29.99-23.64,69.15-33.52,85.73l-21.87,2.12Z"/><path class="cls-1" d="m1720.85,1892.38v-19.05l24.34-23.64c58.56-55.74,85.02-85.38,85.38-119.95,0-23.29-11.29-44.81-45.51-44.81-20.81,0-38.1,10.58-48.69,19.4l-9.88-21.87c15.88-13.41,38.46-23.29,64.92-23.29,49.39,0,70.21,33.87,70.21,66.68,0,42.33-30.69,76.56-79.03,123.13l-18.34,16.93v.71h103.02v25.75h-146.41Z"/></g><g><path class="cls-1" d="m1619.25,516.41c0,77.97-28.93,121.01-79.73,121.01-44.81,0-75.15-41.98-75.85-117.83,0-76.91,33.16-119.25,79.73-119.25s75.85,43.04,75.85,116.07Zm-124.54,3.53c0,59.62,18.35,93.49,46.57,93.49,31.75,0,46.92-37.04,46.92-95.61s-14.46-93.49-46.57-93.49c-27.17,0-46.92,33.16-46.92,95.61Z"/><path class="cls-1" d="m1637.95,676.94c7.41-20.81,16.93-58.56,20.81-84.32l34.57-3.53c-8.11,29.99-23.64,69.15-33.52,85.73l-21.87,2.12Z"/><path class="cls-1" d="m1873.26,516.41c0,77.97-28.93,121.01-79.73,121.01-44.81,0-75.15-41.98-75.85-117.83,0-76.91,33.16-119.25,79.73-119.25s75.85,43.04,75.85,116.07Zm-124.54,3.53c0,59.62,18.35,93.49,46.57,93.49,31.75,0,46.92-37.04,46.92-95.61s-14.46-93.49-46.57-93.49c-27.17,0-46.92,33.16-46.92,95.61Z"/></g></g></svg>