<?xml version="1.0" encoding="UTF-8"?>
<svg xmlns="http://www.w3.org/2000/svg" viewBox="0 0 5554.55 3164.12">
  <defs>
    <style>
      .cls-1 {
        fill: #807454;
      }

      .cls-2 {
        fill: #b2b2b2;
        stroke: #1d1d1b;
        stroke-miterlimit: 10;
        stroke-width: 5px;
      }
    </style>
  </defs>
  <g id="Farbcode">
    <rect class="cls-2" x="2816.09" y="1142.1" width="2000.31" height="2000.31"/>
  </g>
  <g id="Farbcode-2" data-name="Farbcode">
    <rect class="cls-1" x="2815.89" y="1142.24" width="2000.2" height="214.3"/>
    <g>
      <path d="M4382.1,1654.84h0v.06h.03s-.04,0-.04,0v-.07Z"/>
      <path d="M4382.21,1654.89s-.01.03-.03.03c-.01,0-.03-.01-.03-.03,0-.02.01-.03.03-.03.02,0,.03.01.03.03ZM4382.16,1654.89s0,.02.02.02.02,0,.02-.02c0,0,0-.02-.02-.02-.01,0-.02.01-.02.02Z"/>
      <path d="M4382.22,1654.88v-.02h0s0,.01,0,.01c0,0,0-.01.01-.01h0s0,0,0,0c0,0-.01,0-.01.01h0v.03h0v-.04Z"/>
      <path d="M4382.27,1654.89s0,.02.02.02c0,0,.01,0,.01,0h0s0,0-.02,0c-.02,0-.03-.01-.03-.03s0-.03.02-.03c.02,0,.02.01.02.02h0s-.04,0-.04,0ZM4382.3,1654.89s0-.02-.01-.02c0,0-.01,0-.01.02h.03Z"/>
      <path d="M4382.33,1654.88h0s0-.01,0-.01h0s0,0,0,0c0,0,0,0,.02,0s.01,0,.01.01h0s0,0,0,0c0,0,0,0,.01,0,0,0,.02,0,.02.02v.03h0v-.03s0-.02-.01-.02c0,0,0,0-.01,0h0v.04h0v-.03s0-.01-.01-.01c0,0,0,0-.01,0,0,0,0,0,0,0v.03h0v-.04Z"/>
      <path d="M4382.47,1654.85s0,0,0,0c0,0,0,0,0,0,0,0,0,0,0,0,0,0,0,0,0,0ZM4382.46,1654.92v-.05h0v.05h0Z"/>
      <path d="M4382.49,1654.88v-.02h0s0,0,.02,0c.01,0,.02.01.02.03,0,.02-.01.03-.02.03,0,0-.01,0-.02,0h0v.03h0v-.06ZM4382.5,1654.9s0,0,0,0c0,0,0,.01.01.01.01,0,.02,0,.02-.02,0-.01,0-.02-.01-.02,0,0-.01,0-.01.01,0,0,0,0,0,0h0Z"/>
      <path d="M4382.55,1654.91s0,0,.01,0c0,0,.01,0,.01,0s0,0,0,0c0,0-.01,0-.01-.01,0,0,0-.02.02-.02,0,0,0,0,.01,0h0s0,0-.01,0c0,0,0,0,0,0s0,0,0,0c0,0,.01,0,.01.02,0,0,0,.02-.02.02,0,0-.01,0-.01,0h0Z"/>
      <path d="M4382.65,1654.9s0,.01,0,.01h0s0,0,0,0c0,0,0,0-.02,0,0,0-.02,0-.02-.02v-.03h0v.03s0,.02.01.02c0,0,.01,0,.01,0,0,0,0,0,0,0v-.03h0v.04Z"/>
      <path d="M4382.67,1654.88h0s0-.01,0-.01h0s0,0,0,0c0,0,0,0,.02,0s.01,0,.01.01h0s0,0,0,0c0,0,0,0,.01,0,0,0,.02,0,.02.02v.03h0v-.03s0-.02-.01-.02c0,0,0,0-.01,0h0v.04h0v-.03s0-.01-.01-.01c0,0,0,0-.01,0,0,0,0,0,0,0v.03h0v-.04Z"/>
      <path d="M4382.85,1654.84v.06h0s0,.01,0,.01h0s0,0-.02,0c-.01,0-.02-.01-.02-.03,0-.02.01-.03.02-.03,0,0,.01,0,.02,0v-.03h0ZM4382.84,1654.89h0s0-.01-.01-.01c0,0-.02,0-.02.02,0,.01,0,.02.02.02,0,0,.01,0,.01-.01h0Z"/>
      <path d="M4382.92,1654.89s-.01.03-.03.03c-.01,0-.03-.01-.03-.03,0-.02.01-.03.03-.03.02,0,.03.01.03.03ZM4382.87,1654.89s0,.02.02.02.02,0,.02-.02c0,0,0-.02-.02-.02-.01,0-.02.01-.02.02Z"/>
      <path d="M4382.93,1654.84h0v.08h0v-.08Z"/>
      <path d="M4383.01,1654.89s-.01.03-.03.03c-.01,0-.03-.01-.03-.03,0-.02.01-.03.03-.03.02,0,.03.01.03.03ZM4382.97,1654.89s0,.02.02.02.02,0,.02-.02c0,0,0-.02-.02-.02-.01,0-.02.01-.02.02Z"/>
      <path d="M4383.03,1654.88v-.02h0s0,.01,0,.01c0,0,0-.01.01-.01h0s0,0,0,0c0,0-.01,0-.01.01h0v.03h0v-.04Z"/>
      <path d="M4383.1,1654.91s0,0,.01,0c0,0,.01,0,.01,0s0,0,0,0c0,0-.01,0-.01-.01,0,0,0-.02.02-.02,0,0,0,0,.01,0h0s0,0-.01,0c0,0,0,0,0,0s0,0,0,0c0,0,.01,0,.01.02,0,0,0,.02-.02.02,0,0-.01,0-.01,0h0Z"/>
      <path d="M4383.17,1654.85s0,0,0,0c0,0,0,0,0,0,0,0,0,0,0,0,0,0,0,0,0,0ZM4383.16,1654.92v-.05h0v.05h0Z"/>
      <path d="M4383.2,1654.85h0s.01.01.01.01h0s-.01,0-.01,0v.03s0,0,0,0c0,0,0,0,0,0h0s0,0,0,0,0,0,0,0c0,0,0,0,0-.01v-.03h0s0,0,0,0h0s0-.01,0-.01Z"/>
      <path d="M4383.29,1654.92h0s0,0,0,0c0,0,0,0-.02,0-.01,0-.02,0-.02-.01,0-.01.01-.02.03-.02h0s0-.01-.01-.01c0,0,0,0-.01,0h0s0-.01.02-.01c.02,0,.02.01.02.02v.02s0,0,0,.01h0ZM4383.29,1654.89s-.02,0-.02.01c0,0,0,0,0,0,0,0,.01,0,.01,0,0,0,0,0,0,0h0Z"/>
      <path d="M4383.33,1654.88h0s0-.01,0-.01h0s0,0,0,0c0,0,0,0,.02,0s.01,0,.01.01h0s0,0,0,0c0,0,0,0,.01,0,0,0,.02,0,.02.02v.03h0v-.03s0-.02-.01-.02c0,0,0,0-.01,0h0v.04h0v-.03s0-.01-.01-.01c0,0,0,0-.01,0,0,0,0,0,0,0v.03h0v-.04Z"/>
      <path d="M4383.43,1654.89s0,.02.02.02c0,0,.01,0,.01,0h0s0,0-.02,0c-.02,0-.03-.01-.03-.03s0-.03.02-.03c.02,0,.02.01.02.02h0s-.04,0-.04,0ZM4383.46,1654.89s0-.02-.01-.02c0,0-.01,0-.01.02h.03Z"/>
      <path d="M4383.5,1654.85h0s.01.01.01.01h0s-.01,0-.01,0v.03s0,0,0,0c0,0,0,0,0,0h0s0,0,0,0,0,0,0,0c0,0,0,0,0-.01v-.03h0s0,0,0,0h0s0-.01,0-.01Z"/>
      <path d="M4383.52,1654.93s0-.02,0-.03h.01s0,.02,0,.02h0Z"/>
      <path d="M4383.63,1654.91s0,0-.01,0c-.02,0-.03-.01-.03-.03s.01-.03.03-.03c0,0,0,0,.01,0h0s0,0-.01,0c-.01,0-.02,0-.02.02,0,.01,0,.02.02.02,0,0,0,0,.01,0h0Z"/>
      <path d="M4383.7,1654.89s-.01.03-.03.03c-.01,0-.03-.01-.03-.03,0-.02.01-.03.03-.03.02,0,.03.01.03.03ZM4383.66,1654.89s0,.02.02.02.02,0,.02-.02c0,0,0-.02-.02-.02-.01,0-.02.01-.02.02Z"/>
      <path d="M4383.72,1654.88h0s0-.01,0-.01h0s0,0,.02,0,.02,0,.02.02v.03h0v-.03s0-.02-.01-.02c0,0-.01,0-.01,0h0v.04h0v-.04Z"/>
      <path d="M4383.78,1654.91s0,0,.01,0c0,0,.01,0,.01,0s0,0,0,0c0,0-.01,0-.01-.01,0,0,0-.02.02-.02,0,0,0,0,.01,0h0s0,0-.01,0c0,0,0,0,0,0s0,0,0,0c0,0,.01,0,.01.02,0,0,0,.02-.02.02,0,0-.01,0-.01,0h0Z"/>
      <path d="M4383.85,1654.89s0,.02.02.02c0,0,.01,0,.01,0h0s0,0-.02,0c-.02,0-.03-.01-.03-.03s0-.03.02-.03c.02,0,.02.01.02.02h0s-.04,0-.04,0ZM4383.87,1654.89s0-.02-.01-.02c0,0-.01,0-.01.02h.03Z"/>
      <path d="M4383.94,1654.91s0,0-.01,0c-.02,0-.03-.01-.03-.03s.01-.03.03-.03c0,0,0,0,.01,0h0s0,0-.01,0c-.01,0-.02,0-.02.02,0,.01,0,.02.02.02,0,0,0,0,.01,0h0Z"/>
      <path d="M4383.98,1654.85h0s.01.01.01.01h0s-.01,0-.01,0v.03s0,0,0,0c0,0,0,0,0,0h0s0,0,0,0,0,0,0,0c0,0,0,0,0-.01v-.03h0s0,0,0,0h0s0-.01,0-.01Z"/>
      <path d="M4384.01,1654.89s0,.02.02.02c0,0,.01,0,.01,0h0s0,0-.02,0c-.02,0-.03-.01-.03-.03s0-.03.02-.03c.02,0,.02.01.02.02h0s-.04,0-.04,0ZM4384.04,1654.89s0-.02-.01-.02c0,0-.01,0-.01.02h.03Z"/>
      <path d="M4384.08,1654.85h0s.01.01.01.01h0s-.01,0-.01,0v.03s0,0,0,0c0,0,0,0,0,0h0s0,0,0,0,0,0,0,0c0,0,0,0,0-.01v-.03h0s0,0,0,0h0s0-.01,0-.01Z"/>
      <path d="M4384.15,1654.9s0,.01,0,.01h0s0,0,0,0c0,0,0,0-.02,0,0,0-.02,0-.02-.02v-.03h0v.03s0,.02.01.02c0,0,.01,0,.01,0,0,0,0,0,0,0v-.03h0v.04Z"/>
      <path d="M4384.18,1654.89s0,.02.02.02c0,0,.01,0,.01,0h0s0,0-.02,0c-.02,0-.03-.01-.03-.03s0-.03.02-.03c.02,0,.02.01.02.02h0s-.04,0-.04,0ZM4384.21,1654.89s0-.02-.01-.02c0,0-.01,0-.01.02h.03Z"/>
      <path d="M4384.24,1654.88v-.02h0s0,.01,0,.01c0,0,0-.01.01-.01h0s0,0,0,0c0,0-.01,0-.01.01h0v.03h0v-.04Z"/>
      <path d="M4384.34,1654.92h0s0,0,0,0c0,0,0,0-.02,0-.01,0-.02,0-.02-.01,0-.01.01-.02.03-.02h0s0-.01-.01-.01c0,0,0,0-.01,0h0s0-.01.02-.01c.02,0,.02.01.02.02v.02s0,0,0,.01h0ZM4384.34,1654.89s-.02,0-.02.01c0,0,0,0,0,0,0,0,.01,0,.01,0,0,0,0,0,0,0h0Z"/>
      <path d="M4384.42,1654.84v.06h0s0,.01,0,.01h0s0,0-.02,0c-.01,0-.02-.01-.02-.03,0-.02.01-.03.02-.03,0,0,.01,0,.02,0v-.03h0ZM4384.41,1654.89h0s0-.01-.01-.01c0,0-.02,0-.02.02,0,.01,0,.02.02.02,0,0,.01,0,.01-.01h0Z"/>
      <path d="M4384.45,1654.85s0,0,0,0c0,0,0,0,0,0,0,0,0,0,0,0,0,0,0,0,0,0ZM4384.44,1654.92v-.05h0v.05h0Z"/>
      <path d="M4384.47,1654.88v-.02h0s0,0,.02,0c.01,0,.02.01.02.03,0,.02-.01.03-.02.03,0,0-.01,0-.02,0v.03h0v-.06ZM4384.48,1654.9h0s0,.01.01.01c.01,0,.02,0,.02-.02,0-.01,0-.02-.01-.02,0,0-.01,0-.01.01h0Z"/>
      <path d="M4384.55,1654.85s0,0,0,0c0,0,0,0,0,0,0,0,0,0,0,0,0,0,0,0,0,0ZM4384.54,1654.92v-.05h0v.05h0Z"/>
      <path d="M4384.57,1654.91s0,0,.01,0c0,0,.01,0,.01,0s0,0,0,0c0,0-.01,0-.01-.01,0,0,0-.02.02-.02,0,0,0,0,.01,0h0s0,0-.01,0c0,0,0,0,0,0s0,0,0,0c0,0,.01,0,.01.02,0,0,0,.02-.02.02,0,0-.01,0-.01,0h0Z"/>
      <path d="M4384.66,1654.91s0,0-.01,0c-.02,0-.03-.01-.03-.03s.01-.03.03-.03c0,0,0,0,.01,0h0s0,0-.01,0c-.01,0-.02,0-.02.02,0,.01,0,.02.02.02,0,0,0,0,.01,0h0Z"/>
      <path d="M4384.7,1654.85s0,0,0,0c0,0,0,0,0,0,0,0,0,0,0,0,0,0,0,0,0,0ZM4384.69,1654.92v-.05h0v.05h0Z"/>
      <path d="M4384.72,1654.88h0s0-.01,0-.01h0s0,0,.02,0,.02,0,.02.02v.03h0v-.03s0-.02-.01-.02c0,0-.01,0-.01,0h0v.04h0v-.04Z"/>
      <path d="M4384.83,1654.86s0,0,0,.01v.03s0,.02,0,.02c0,0-.01,0-.02,0,0,0-.01,0-.02,0h0s0,0,.02,0c0,0,.02,0,.02-.02h0s0,0-.02,0c-.01,0-.02-.01-.02-.03,0-.02.01-.03.02-.03,0,0,.01,0,.02,0h0s0,0,0,0ZM4384.82,1654.88s0,0,0,0c0,0,0,0-.01,0,0,0-.02,0-.02.02,0,.01,0,.02.02.02,0,0,.01,0,.01,0,0,0,0,0,0,0h0Z"/>
      <path d="M4384.88,1654.89s0,.02.02.02c0,0,.01,0,.01,0h0s0,0-.02,0c-.02,0-.03-.01-.03-.03s0-.03.02-.03c.02,0,.02.01.02.02h0s-.04,0-.04,0ZM4384.91,1654.89s0-.02-.01-.02c0,0-.01,0-.01.02h.03Z"/>
      <path d="M4384.94,1654.84h0v.08h0v-.08Z"/>
      <path d="M4384.98,1654.85s0,0,0,0c0,0,0,0,0,0,0,0,0,0,0,0,0,0,0,0,0,0ZM4384.97,1654.92v-.05h0v.05h0Z"/>
      <path d="M4385.02,1654.85h0s.01.01.01.01h0s-.01,0-.01,0v.03s0,0,0,0c0,0,0,0,0,0h0s0,0,0,0,0,0,0,0c0,0,0,0,0-.01v-.03h0s0,0,0,0h0s0-.01,0-.01Z"/>
      <path d="M4385.04,1654.93s0-.02,0-.03h.01s0,.02,0,.02h0Z"/>
      <path d="M4385.11,1654.91s0,0,.01,0c0,0,.01,0,.01,0s0,0,0,0c0,0-.01,0-.01-.01,0,0,0-.02.02-.02,0,0,0,0,.01,0h0s0,0-.01,0c0,0,0,0,0,0s0,0,0,0c0,0,.01,0,.01.02,0,0,0,.02-.02.02,0,0-.01,0-.01,0h0Z"/>
      <path d="M4385.17,1654.89s0,.02.02.02c0,0,.01,0,.01,0h0s0,0-.02,0c-.02,0-.03-.01-.03-.03s0-.03.02-.03c.02,0,.02.01.02.02h0s-.04,0-.04,0ZM4385.2,1654.89s0-.02-.01-.02c0,0-.01,0-.01.02h.03Z"/>
      <path d="M4385.28,1654.84v.06h0s0,.01,0,.01h0s0,0-.02,0c-.01,0-.02-.01-.02-.03,0-.02.01-.03.02-.03,0,0,.01,0,.02,0v-.03h0ZM4385.27,1654.89h0s0-.01-.01-.01c0,0-.02,0-.02.02,0,.01,0,.02.02.02,0,0,.01,0,.01-.01h0Z"/>
      <path d="M4385.38,1654.84v.06h0s0,.01,0,.01h0s0,0-.02,0c-.01,0-.02-.01-.02-.03,0-.02.01-.03.02-.03,0,0,.01,0,.02,0v-.03h0ZM4385.37,1654.89h0s0-.01-.01-.01c0,0-.02,0-.02.02,0,.01,0,.02.02.02,0,0,.01,0,.01-.01h0Z"/>
      <path d="M4385.41,1654.85s0,0,0,0c0,0,0,0,0,0,0,0,0,0,0,0,0,0,0,0,0,0ZM4385.4,1654.92v-.05h0v.05h0Z"/>
      <path d="M4385.45,1654.92h0s0,0,0,0c0,0,0,0-.02,0-.01,0-.02,0-.02-.01,0-.01.01-.02.03-.02h0s0-.01-.01-.01c0,0,0,0-.01,0h0s0-.01.02-.01c.02,0,.02.01.02.02v.02s0,0,0,.01h0ZM4385.45,1654.89s-.02,0-.02.01c0,0,0,0,0,0,0,0,.01,0,.01,0,0,0,0,0,0,0h0Z"/>
      <path d="M4385.49,1654.88h0s0-.01,0-.01h0s0,0,0,0c0,0,0,0,.02,0s.01,0,.01.01h0s0,0,0,0c0,0,0,0,.01,0,0,0,.02,0,.02.02v.03h0v-.03s0-.02-.01-.02c0,0,0,0-.01,0h0v.04h0v-.03s0-.01-.01-.01c0,0,0,0-.01,0,0,0,0,0,0,0v.03h0v-.04Z"/>
      <path d="M4382.1,1655h0s0-.01,0-.01h0s0,0,.02,0,.02,0,.02.02v.03h0v-.03s0-.02-.01-.02c0,0-.01,0-.01,0h0v.04h0v-.04Z"/>
      <path d="M4382.21,1655.01s-.01.03-.03.03c-.01,0-.03-.01-.03-.03,0-.02.01-.03.03-.03.02,0,.03.01.03.03ZM4382.17,1655.01s0,.02.02.02.02,0,.02-.02c0,0,0-.02-.02-.02-.01,0-.02.01-.02.02Z"/>
      <path d="M4382.22,1655h0s0-.01,0-.01h0s0,0,.02,0,.02,0,.02.02v.03h0v-.03s0-.02-.01-.02c0,0-.01,0-.01,0h0v.04h0v-.04Z"/>
      <path d="M4382.33,1655.02s0,.01,0,.01h0s0,0,0,0c0,0,0,0-.02,0,0,0-.02,0-.02-.02v-.03h0v.03s0,.02.01.02c0,0,.01,0,.01,0,0,0,0,0,0,0v-.03h0v.04Z"/>
      <path d="M4382.35,1655h0s0-.01,0-.01h0s0,0,0,0c0,0,0,0,.02,0s.01,0,.01.01h0s0,0,0,0c0,0,0,0,.01,0,0,0,.02,0,.02.02v.03h0v-.03s0-.02-.01-.02c0,0,0,0-.01,0h0v.04h0v-.03s0-.01-.01-.01c0,0,0,0-.01,0,0,0,0,0,0,0v.03h0v-.04Z"/>
      <path d="M4382.45,1655h0s0-.01,0-.01h0s0,0,0,0c0,0,0,0,.02,0s.01,0,.01.01h0s0,0,0,0c0,0,0,0,.01,0,0,0,.02,0,.02.02v.03h0v-.03s0-.02-.01-.02c0,0,0,0-.01,0h0v.04h0v-.03s0-.01-.01-.01c0,0,0,0-.01,0,0,0,0,0,0,0v.03h0v-.04Z"/>
      <path d="M4382.55,1654.98v.03s.01,0,.01.01h0s0,0,0-.01v-.03h.02v.04s-.03.03-.03.03c0,0,0,0-.01,0h0s0,0,0-.01c0,0,0,0,0-.01,0,0,0,0,0,0h0s-.02-.05-.02-.05h0Z"/>
      <path d="M4382.63,1655h0s0-.01,0-.01h0s0,0,.02,0,.02,0,.02.02v.03h0v-.03s0-.02-.01-.02c0,0-.01,0-.01,0h0v.04h0v-.04Z"/>
      <path d="M4382.71,1654.97s0,0,0,0c0,0,0,0,0,0,0,0,0,0,0,0,0,0,0,0,0,0ZM4382.7,1655.04v-.05h0v.05h0Z"/>
      <path d="M4382.73,1655.04h0v-.08h0v.03h0s0,0,.02,0c.01,0,.02.01.02.03,0,.02-.01.03-.02.03,0,0-.01,0-.02,0h0s0,0,0,0ZM4382.74,1655.02s0,0,0,0c0,0,0,.01.01.01,0,0,.02,0,.02-.02,0-.01,0-.02-.01-.02,0,0-.01,0-.01.01,0,0,0,0,0,0h0Z"/>
      <path d="M4382.79,1654.96h0v.03s0,0,0,0,0,0,0,0c0,0,.02,0,.02.02v.03h0v-.03s0-.02-.01-.02c0,0-.01,0-.01,0h0v.04h0v-.08Z"/>
      <path d="M4382.9,1655.01s0,.02.02.02c0,0,.01,0,.01,0h0s0,0-.02,0c-.02,0-.03-.01-.03-.03s0-.03.02-.03c.02,0,.02.01.02.02h0s-.04,0-.04,0ZM4382.93,1655.01s0-.02-.01-.02c0,0-.01,0-.01.02h.03Z"/>
      <path d="M4383,1655.02s0,.01,0,.01h0s0,0,0,0c0,0,0,0-.02,0,0,0-.02,0-.02-.02v-.03h0v.03s0,.02.01.02c0,0,.01,0,.01,0,0,0,0,0,0,0v-.03h0v.04Z"/>
      <path d="M4383.03,1654.97s0,0,0,0c0,0,0,0,0,0,0,0,0,0,0,0,0,0,0,0,0,0ZM4383.02,1655.04v-.05h0v.05h0Z"/>
      <path d="M4383.05,1655.03s0,0,.01,0c0,0,.01,0,.01,0s0,0,0,0c0,0-.01,0-.01-.01,0,0,0-.02.02-.02,0,0,0,0,.01,0h0s0,0-.01,0c0,0,0,0,0,0s0,0,0,0c0,0,.01,0,.01.02,0,0,0,.02-.02.02,0,0-.01,0-.01,0h0Z"/>
      <path d="M4383.11,1655h0s0-.01,0-.01h0s0,0,0,0c0,0,0,0,.02,0s.01,0,.01.01h0s0,0,0,0c0,0,0,0,.01,0,0,0,.02,0,.02.02v.03h0v-.03s0-.02-.01-.02c0,0,0,0-.01,0h0v.04h0v-.03s0-.01-.01-.01c0,0,0,0-.01,0,0,0,0,0,0,0v.03h0v-.04Z"/>
      <path d="M4383.25,1655.01s-.01.03-.03.03c-.01,0-.03-.01-.03-.03,0-.02.01-.03.03-.03.02,0,.03.01.03.03ZM4383.21,1655.01s0,.02.02.02.02,0,.02-.02c0,0,0-.02-.02-.02-.01,0-.02.01-.02.02Z"/>
      <path d="M4383.31,1654.96v.06h0s0,.01,0,.01h0s0,0-.02,0c-.01,0-.02-.01-.02-.03,0-.02.01-.03.02-.03,0,0,.01,0,.02,0v-.03h0ZM4383.3,1655.01h0s0-.01-.01-.01c0,0-.02,0-.02.02,0,.01,0,.02.02.02,0,0,.01,0,.01-.01h0Z"/>
      <path d="M4383.38,1654.97h0s.01.01.01.01h0s-.01,0-.01,0v.03s0,0,0,0c0,0,0,0,0,0h0s0,0,0,0,0,0,0,0c0,0,0,0,0-.01v-.03h0s0,0,0,0h0s0-.01,0-.01Z"/>
      <path d="M4383.42,1654.97s0,0,0,0c0,0,0,0,0,0,0,0,0,0,0,0,0,0,0,0,0,0ZM4383.41,1655.04v-.05h0v.05h0Z"/>
      <path d="M4383.44,1655h0s0-.01,0-.01h0s0,0,.02,0,.02,0,.02.02v.03h0v-.03s0-.02-.01-.02c0,0-.01,0-.01,0h0v.04h0v-.04Z"/>
      <path d="M4383.54,1655.03s0,0-.01,0c-.02,0-.03-.01-.03-.03s.01-.03.03-.03c0,0,0,0,.01,0h0s0,0-.01,0c-.01,0-.02,0-.02.02,0,.01,0,.02.02.02,0,0,0,0,.01,0h0Z"/>
      <path d="M4383.57,1654.97s0,0,0,0c0,0,0,0,0,0,0,0,0,0,0,0,0,0,0,0,0,0ZM4383.56,1655.04v-.05h0v.05h0Z"/>
      <path d="M4383.64,1654.96v.06h0s0,.01,0,.01h0s0,0-.02,0c-.01,0-.02-.01-.02-.03,0-.02.01-.03.02-.03,0,0,.01,0,.02,0v-.03h0ZM4383.63,1655.01h0s0-.01-.01-.01c0,0-.02,0-.02.02,0,.01,0,.02.02.02,0,0,.01,0,.01-.01h0Z"/>
      <path d="M4383.7,1655.02s0,.01,0,.01h0s0,0,0,0c0,0,0,0-.02,0,0,0-.02,0-.02-.02v-.03h0v.03s0,.02.01.02c0,0,.01,0,.01,0,0,0,0,0,0,0v-.03h0v.04Z"/>
      <path d="M4383.72,1655h0s0-.01,0-.01h0s0,0,.02,0,.02,0,.02.02v.03h0v-.03s0-.02-.01-.02c0,0-.01,0-.01,0h0v.04h0v-.04Z"/>
      <path d="M4383.8,1654.97h0s.01.01.01.01h0s-.01,0-.01,0v.03s0,0,0,0c0,0,0,0,0,0h0s0,0,0,0,0,0,0,0c0,0,0,0,0-.01v-.03h0s0,0,0,0h0s0-.01,0-.01Z"/>
      <path d="M4383.91,1655.02s0,.01,0,.01h0s0,0,0,0c0,0,0,0-.02,0,0,0-.02,0-.02-.02v-.03h0v.03s0,.02.01.02c0,0,.01,0,.01,0,0,0,0,0,0,0v-.03h0v.04Z"/>
      <path d="M4383.94,1654.97h0s.01.01.01.01h0s-.01,0-.01,0v.03s0,0,0,0c0,0,0,0,0,0h0s0,0,0,0,0,0,0,0c0,0,0,0,0-.01v-.03h0s0,0,0,0h0s0-.01,0-.01Z"/>
      <path d="M4384,1654.96h0v.08h0v-.08Z"/>
      <path d="M4384.06,1655.04h0s0,0,0,0c0,0,0,0-.02,0-.01,0-.02,0-.02-.01,0-.01.01-.02.03-.02h0s0-.01-.01-.01c0,0,0,0-.01,0h0s0-.01.02-.01c.02,0,.02.01.02.02v.02s0,0,0,.01h0ZM4384.06,1655.01s-.02,0-.02.01c0,0,0,0,0,0,0,0,.01,0,.01,0,0,0,0,0,0,0h0Z"/>
      <path d="M4384.14,1655.01s-.01.03-.03.03c-.01,0-.03-.01-.03-.03,0-.02.01-.03.03-.03.02,0,.03.01.03.03ZM4384.1,1655.01s0,.02.02.02.02,0,.02-.02c0,0,0-.02-.02-.02-.01,0-.02.01-.02.02Z"/>
      <path d="M4384.16,1655v-.02h0s0,.01,0,.01c0,0,0-.01.01-.01h0s0,0,0,0c0,0-.01,0-.01.01h0v.03h0v-.04Z"/>
      <path d="M4384.2,1655.01s0,.02.02.02c0,0,.01,0,.01,0h0s0,0-.02,0c-.02,0-.03-.01-.03-.03s0-.03.02-.03c.02,0,.02.01.02.02h0s-.04,0-.04,0ZM4384.23,1655.01s0-.02-.01-.02c0,0-.01,0-.01.02h.03Z"/>
      <path d="M4384.27,1655.01s0,.02.02.02c0,0,.01,0,.01,0h0s0,0-.02,0c-.02,0-.03-.01-.03-.03s0-.03.02-.03c.02,0,.02.01.02.02h0s-.04,0-.04,0ZM4384.3,1655.01s0-.02-.01-.02c0,0-.01,0-.01.02h.03Z"/>
      <path d="M4384.34,1654.97h0s.01.01.01.01h0s-.01,0-.01,0v.03s0,0,0,0c0,0,0,0,0,0h0s0,0,0,0,0,0,0,0c0,0,0,0,0-.01v-.03h0s0,0,0,0h0s0-.01,0-.01Z"/>
      <path d="M4384.44,1654.96v.06h0s0,.01,0,.01h0s0,0-.02,0c-.01,0-.02-.01-.02-.03,0-.02.01-.03.02-.03,0,0,.01,0,.02,0v-.03h0ZM4384.43,1655.01h0s0-.01-.01-.01c0,0-.02,0-.02.02,0,.01,0,.02.02.02,0,0,.01,0,.01-.01h0Z"/>
      <path d="M4384.51,1655.01s-.01.03-.03.03c-.01,0-.03-.01-.03-.03,0-.02.01-.03.03-.03.02,0,.03.01.03.03ZM4384.47,1655.01s0,.02.02.02.02,0,.02-.02c0,0,0-.02-.02-.02-.01,0-.02.01-.02.02Z"/>
      <path d="M4384.53,1654.96h0v.08h0v-.08Z"/>
      <path d="M4384.6,1655.01s-.01.03-.03.03c-.01,0-.03-.01-.03-.03,0-.02.01-.03.03-.03.02,0,.03.01.03.03ZM4384.56,1655.01s0,.02.02.02.02,0,.02-.02c0,0,0-.02-.02-.02-.01,0-.02.01-.02.02Z"/>
      <path d="M4384.62,1655v-.02h0s0,.01,0,.01c0,0,0-.01.01-.01h0s0,0,0,0c0,0-.01,0-.01.01h0v.03h0v-.04Z"/>
      <path d="M4384.67,1655.01s0,.02.02.02c0,0,.01,0,.01,0h0s0,0-.02,0c-.02,0-.03-.01-.03-.03s0-.03.02-.03c.02,0,.02.01.02.02h0s-.04,0-.04,0ZM4384.69,1655.01s0-.02-.01-.02c0,0-.01,0-.01.02h.03Z"/>
      <path d="M4384.76,1655h0s0-.01,0-.01h0s0,0,0,0c0,0,0,0,.02,0s.01,0,.01.01h0s0,0,0,0c0,0,0,0,.01,0,0,0,.02,0,.02.02v.03h0v-.03s0-.02-.01-.02c0,0,0,0-.01,0h0v.04h0v-.03s0-.01-.01-.01c0,0,0,0-.01,0,0,0,0,0,0,0v.03h0v-.04Z"/>
      <path d="M4384.88,1655.04h0s0,0,0,0c0,0,0,0-.02,0-.01,0-.02,0-.02-.01,0-.01.01-.02.03-.02h0s0-.01-.01-.01c0,0,0,0-.01,0h0s0-.01.02-.01c.02,0,.02.01.02.02v.02s0,0,0,.01h0ZM4384.88,1655.01s-.02,0-.02.01c0,0,0,0,0,0,0,0,.01,0,.01,0,0,0,0,0,0,0h0Z"/>
      <path d="M4384.96,1654.98s0,0,0,.01v.03s0,.02,0,.02c0,0-.01,0-.02,0,0,0-.01,0-.02,0h0s0,0,.02,0c0,0,.02,0,.02-.02h0s0,0-.02,0c-.01,0-.02-.01-.02-.03,0-.02.01-.03.02-.03,0,0,.01,0,.02,0h0s0,0,0,0ZM4384.95,1655s0,0,0,0c0,0,0,0-.01,0,0,0-.02,0-.02.02,0,.01,0,.02.02.02,0,0,.01,0,.01,0,0,0,0,0,0,0h0Z"/>
      <path d="M4384.98,1655h0s0-.01,0-.01h0s0,0,.02,0,.02,0,.02.02v.03h0v-.03s0-.02-.01-.02c0,0-.01,0-.01,0h0v.04h0v-.04Z"/>
      <path d="M4385.07,1655.04h0s0,0,0,0c0,0,0,0-.02,0-.01,0-.02,0-.02-.01,0-.01.01-.02.03-.02h0s0-.01-.01-.01c0,0,0,0-.01,0h0s0-.01.02-.01c.02,0,.02.01.02.02v.02s0,0,0,.01h0ZM4385.07,1655.01s-.02,0-.02.01c0,0,0,0,0,0,0,0,.01,0,.01,0,0,0,0,0,0,0h0Z"/>
      <path d="M4385.17,1655.04h0s0,0,0,0c0,0,0,0-.02,0-.01,0-.02,0-.02-.01,0-.01.01-.02.03-.02h0s0-.01-.01-.01c0,0,0,0-.01,0h0s0-.01.02-.01c.02,0,.02.01.02.02v.02s0,0,0,.01h0ZM4385.17,1655.01s-.02,0-.02.01c0,0,0,0,0,0,0,0,.01,0,.01,0,0,0,0,0,0,0h0Z"/>
      <path d="M4385.2,1654.96h0v.08h0v-.08Z"/>
      <path d="M4385.24,1654.97s0,0,0,0c0,0,0,0,0,0,0,0,0,0,0,0,0,0,0,0,0,0ZM4385.23,1655.04v-.05h0v.05h0Z"/>
      <path d="M4385.3,1655.03s0,0-.02,0c-.01,0-.02-.01-.02-.03,0-.02.01-.03.02-.03,0,0,.01,0,.02,0h0s0,0,0,0h0v.07h0v-.03ZM4385.3,1655.01h0s0-.01-.01-.01c0,0-.02,0-.02.02,0,.01,0,.02.02.02,0,0,.01,0,.01-.01,0,0,0,0,0,0h0Z"/>
      <path d="M4385.37,1655.02s0,.01,0,.01h0s0,0,0,0c0,0,0,0-.02,0,0,0-.02,0-.02-.02v-.03h0v.03s0,.02.01.02c0,0,.01,0,.01,0,0,0,0,0,0,0v-.03h0v.04Z"/>
      <path d="M4385.42,1655.04h0s0,0,0,0c0,0,0,0-.02,0-.01,0-.02,0-.02-.01,0-.01.01-.02.03-.02h0s0-.01-.01-.01c0,0,0,0-.01,0h0s0-.01.02-.01c.02,0,.02.01.02.02v.02s0,0,0,.01h0ZM4385.42,1655.01s-.02,0-.02.01c0,0,0,0,0,0,0,0,.01,0,.01,0,0,0,0,0,0,0h0Z"/>
      <path d="M4385.45,1655h0s0-.01,0-.01h0s0,0,0,0c0,0,0,0,.02,0s.01,0,.01.01h0s0,0,0,0c0,0,0,0,.01,0,0,0,.02,0,.02.02v.03h0v-.03s0-.02-.01-.02c0,0,0,0-.01,0h0v.04h0v-.03s0-.01-.01-.01c0,0,0,0-.01,0,0,0,0,0,0,0v.03h0v-.04Z"/>
    </g>
  </g>
  <g id="Scf">
    <g>
      <path d="M3429.68,2262.93c0,59.2,46.11,82.25,98.46,82.25,34.27,0,86.62-9.97,86.62-55.46,0-47.98-66.68-56.08-132.11-73.53-66.05-17.45-132.73-43-132.73-126.5,0-90.98,85.99-134.6,166.38-134.6,92.85,0,178.22,40.5,178.22,143.32h-94.72c-3.12-53.59-41.13-67.3-87.86-67.3-31.16,0-67.3,13.09-67.3,50.47,0,34.27,21.19,38.63,132.73,67.3,32.4,8.1,132.11,28.66,132.11,129.61,0,81.63-64.18,142.7-185.07,142.7-98.46,0-190.68-48.61-189.43-158.28h94.72Z"/>
      <path d="M3977.41,2201.86c-5.61-36.14-28.66-55.46-65.43-55.46-56.71,0-75.4,57.33-75.4,104.69s18.07,101.57,73.53,101.57c41.13,0,64.81-26.17,70.42-65.43h85.37c-11.22,85.37-70.42,132.11-155.16,132.11-97.21,0-162.64-68.54-162.64-165.13s59.82-174.48,164.51-174.48c76.02,0,145.81,39.88,151.42,122.14h-86.62Z"/>
      <path d="M4135.06,2147.64h-52.97v-59.2h52.97v-24.93c0-56.71,35.52-97.83,107.8-97.83,15.58,0,31.78,1.87,46.74,2.49v66.05c-10.59-1.25-21.19-1.87-32.4-1.87-23.68,0-33.65,9.97-33.65,36.77v19.32h61.07v59.2h-61.07v262.96h-88.49v-262.96Z"/>
    </g>
    <g>
      <path d="M4321.12,1582.86l22.58,86.79c4.94,19.05,9.53,36.69,12.7,54.33h1.06c3.88-17.29,9.53-35.63,15.17-53.98l27.87-87.14h26.11l26.46,85.38c6.35,20.46,11.29,38.46,15.17,55.74h1.06c2.82-17.29,7.41-35.28,13.05-55.39l24.34-85.73h30.69l-55.04,170.75h-28.22l-26.11-81.5c-6-19.05-10.94-35.99-15.17-56.09h-.71c-4.23,20.46-9.53,38.1-15.52,56.45l-27.52,81.14h-28.22l-51.51-170.75h31.75Z"/>
      <path d="M4567.02,1753.61c.71-11.64,1.41-28.93,1.41-44.1v-206.39h30.69v107.25h.71c10.94-19.05,30.69-31.4,58.21-31.4,42.34,0,72.32,35.28,71.97,87.14,0,61.03-38.46,91.38-76.56,91.38-24.7,0-44.45-9.53-57.15-32.1h-1.06l-1.41,28.22h-26.81ZM4599.13,1685.17c0,3.88.71,7.76,1.41,11.29,6,21.52,23.99,36.34,46.57,36.34,32.46,0,51.86-26.46,51.86-65.62,0-34.22-17.64-63.5-50.8-63.5-21.17,0-40.92,14.46-47.27,38.1-.71,3.53-1.76,7.76-1.76,12.7v30.69Z"/>
    </g>
    <g>
      <path d="M4465.6,2766.89v20.46l-99.84,208.86h-32.1l99.49-202.86v-.71h-112.19v-25.75h144.65Z"/>
      <path d="M4487.47,3039.6c7.76-20.82,17.29-58.56,21.17-84.32l34.57-3.53c-8.11,29.99-23.64,69.15-33.52,85.73l-22.23,2.12Z"/>
      <path d="M4707.61,2792.99h-87.49l-8.82,58.92c5.29-.71,10.23-1.41,18.7-1.41,17.64,0,35.28,3.88,49.39,12.35,17.99,10.23,32.81,29.99,32.81,58.92,0,44.81-35.63,78.32-85.38,78.32-25.05,0-46.22-7.06-57.15-14.11l7.76-23.64c9.53,5.64,28.22,12.7,49.04,12.7,29.28,0,54.33-19.05,54.33-49.75-.35-29.63-20.11-50.8-65.97-50.8-13.05,0-23.28,1.41-31.75,2.47l14.82-110.07h109.72v26.11Z"/>
    </g>
  </g>
</svg>