<svg id="Ebene_1" data-name="Ebene 1" xmlns="http://www.w3.org/2000/svg" viewBox="0 0 39.68 39.68"><defs><style>.cls-1{fill:#ffcb00;}.cls-2{fill:#1d1d1b;}</style></defs><rect class="cls-1" width="39.68" height="39.68"/><path class="cls-2" d="M26.6,18.09h.58V16.4H26.07a2.22,2.22,0,0,0-2.47,2.47v.52l-1.08-.05V20.9l1.08,0v6.23h2.11V20.85l1.47,0V19.34l-1.47.05V19a.78.78,0,0,1,.89-.89m-9.14,9.33c2.64,0,4.25-1.29,4.25-3.36,0-1.78-1.25-2.67-2.91-3.07l-2.13-.53c-.83-.21-1.25-.61-1.25-1.2S16.05,18,17.19,18a2,2,0,0,1,2.18,1.7h2.16c-.14-2.1-1.77-3.51-4.35-3.51-2.75,0-4,1.63-4,3.34a3,3,0,0,0,2.62,3l2,.5c1,.25,1.64.54,1.64,1.31s-.75,1.33-2,1.33c-1.41,0-2.28-.66-2.34-1.85H12.94c.06,2.31,1.81,3.66,4.52,3.66"/><path class="cls-2" d="M36.39,12.13v-.51h-2l.35-.34c1-.92,1.57-1.6,1.57-2.44a1.28,1.28,0,0,0-1.39-1.32A1.91,1.91,0,0,0,33.61,8l.19.43a1.57,1.57,0,0,1,1-.38.8.8,0,0,1,.89.88c0,.69-.53,1.28-1.69,2.39l-.48.46v.38Zm-4.15,0h.6V7.58h-.53l-1,.53.12.47.79-.42h0ZM25.67,7.41v4.72h.61V9.92h2.28v2.21h.61V7.41h-.61v2H26.28v-2Zm-3.4,2.76a1.09,1.09,0,0,1,0-.25,1,1,0,0,1,.94-.76c.65,0,1,.58,1,1.26s-.37,1.31-1,1.31A1,1,0,0,1,22.3,11a2.06,2.06,0,0,1,0-.26Zm-.61,3.35h.61V11.68h0a1.19,1.19,0,0,0,1,.53,1.6,1.6,0,0,0,1.54-1.82,1.53,1.53,0,0,0-1.43-1.72,1.33,1.33,0,0,0-1.21.65h0l0-.58h-.55c0,.33,0,.68,0,1.11Z"/></svg>