<svg xmlns="http://www.w3.org/2000/svg" viewBox="0 0 2046.07 2044.05"><defs><style>.cls-1{fill:#ffcb04;}.cls-2{fill:#1d1d1b;}</style></defs><g id="Farbcode"><rect class="cls-1" x="20.04" y="22.03" width="2000.31" height="2000.31"/></g><g id="Sff"><path class="cls-2" d="M610.23,1184.71c0,71.83,55.95,99.8,119.46,99.8,41.58,0,105.1-12.09,105.1-67.29,0-58.22-80.9-68-160.29-89.21-80.15-21.17-161-52.17-161-153.49,0-110.38,104.34-163.31,201.88-163.31,112.65,0,216.23,49.15,216.23,173.9H816.64c-3.78-65-49.9-81.66-106.61-81.66-37.8,0-81.65,15.88-81.65,61.24,0,41.59,25.7,46.88,161,81.66,39.32,9.83,160.29,34.78,160.29,157.26,0,99.05-77.88,173.14-224.56,173.14-119.46,0-231.35-59-229.84-192Z"/><path class="cls-2" d="M1032.11,1044.84H967.84V973h64.27V942.77c0-68.81,43.1-118.71,130.8-118.71,18.9,0,38.56,2.27,56.71,3v80.14A333.68,333.68,0,0,0,1180.3,905c-28.73,0-40.83,12.1-40.83,44.61V973h74.1v71.83h-74.1V1363.9H1032.11Z"/><path class="cls-2" d="M1283.88,1044.84h-64.27V973h64.27V942.77c0-68.81,43.09-118.71,130.8-118.71,18.9,0,38.56,2.27,56.7,3v80.14a333.38,333.38,0,0,0-39.31-2.27c-28.73,0-40.83,12.1-40.83,44.61V973h74.09v71.83h-74.09V1363.9H1283.88Z"/><path class="cls-2" d="M804.33,518.55c0-21.87-.71-39.51-1.41-55.74h27.87l1.41,29.28h.71c12.7-20.82,32.81-33.17,60.69-33.17,41.28,0,72.33,34.93,72.33,86.8,0,61.39-37.4,91.74-77.63,91.74-22.58,0-42.34-9.88-52.57-26.82H835v92.79h-30.7ZM835,564.07a69.57,69.57,0,0,0,1.41,12.7c5.64,21.52,24.34,36.34,46.57,36.34,32.81,0,51.87-26.82,51.87-66,0-34.22-18-63.51-50.81-63.51-21.17,0-40.93,15.17-46.93,38.46a50.74,50.74,0,0,0-2.11,12.7Z"/><path class="cls-2" d="M1036.84,395.77v99.5h115v-99.5h31.05v237.8h-31.05V522.08h-115V633.57h-30.69V395.77Z"/><path class="cls-2" d="M1367.44,433.17h-.71l-39.86,21.52-6-23.64,50.1-26.81h26.46V633.57h-30Z"/><path class="cls-2" d="M1548.44,433.17h-.71l-39.87,21.52-6-23.64,50.1-26.81h26.46V633.57h-30Z"/><path class="cls-2" d="M1652.17,677c7.41-20.81,16.93-58.57,20.82-84.32l34.57-3.53c-8.11,30-23.64,69.15-33.52,85.74Z"/><path class="cls-2" d="M1887.5,516.44c0,78-28.93,121-79.74,121-44.81,0-75.15-42-75.86-117.85,0-76.92,33.17-119.26,79.74-119.26C1860,400.35,1887.5,443.4,1887.5,516.44ZM1763,520c0,59.63,18.35,93.5,46.58,93.5,31.75,0,46.92-37,46.92-95.61,0-56.46-14.46-93.5-46.57-93.5C1782.71,424.35,1763,457.51,1763,520Z"/></g></svg>