<svg id="Ebene_1" data-name="Ebene 1" xmlns="http://www.w3.org/2000/svg" viewBox="0 0 39.68 39.69"><defs><style>.cls-1{fill:#ffcb00;}.cls-2{fill:#1d1d1b;}</style></defs><rect class="cls-1" width="39.68" height="39.69"/><path class="cls-2" d="M28.24,19.15A2.43,2.43,0,0,0,26,20.39l0-1.05H23.9v7.74H26V22.94c0-1.16.62-1.89,1.52-1.89.75,0,1.13.51,1.13,1.32v4.71h2.11V21.89a2.44,2.44,0,0,0-2.53-2.74m-6-1.06h.59V16.4H21.74a2.22,2.22,0,0,0-2.47,2.48v.51l-1.08-.05V20.9l1.08,0v6.23h2.11V20.85l1.47,0V19.34l-1.47.05V19a.77.77,0,0,1,.88-.89m-9.13,9.33c2.64,0,4.24-1.28,4.24-3.35,0-1.79-1.24-2.67-2.9-3.08l-2.14-.52c-.82-.21-1.24-.62-1.24-1.21S11.72,18,12.86,18A2,2,0,0,1,15,19.67h2.15c-.13-2.1-1.76-3.51-4.35-3.51-2.74,0-4,1.63-4,3.34a3,3,0,0,0,2.62,3l2,.49c1,.26,1.64.54,1.64,1.31s-.75,1.33-2,1.33c-1.41,0-2.28-.66-2.34-1.84H8.6c.06,2.31,1.81,3.65,4.53,3.65"/><path class="cls-2" d="M36.39,12.13v-.51h-2l.35-.34c1-.92,1.57-1.6,1.57-2.44a1.28,1.28,0,0,0-1.39-1.32A1.91,1.91,0,0,0,33.61,8l.19.43a1.57,1.57,0,0,1,1-.38.8.8,0,0,1,.89.89c0,.68-.53,1.27-1.69,2.38l-.48.47v.37Zm-4.15,0h.6V7.58h-.53l-1,.53.12.47.79-.42h0ZM25.67,7.42v4.71h.61V9.92h2.28v2.21h.61V7.42h-.61v2H26.28v-2Zm-3.4,2.75a1.09,1.09,0,0,1,0-.25,1,1,0,0,1,.94-.76c.65,0,1,.58,1,1.26s-.37,1.31-1,1.31A1,1,0,0,1,22.3,11a1.86,1.86,0,0,1,0-.26Zm-.61,3.35h.61V11.68h0a1.19,1.19,0,0,0,1,.53,1.6,1.6,0,0,0,1.54-1.82,1.53,1.53,0,0,0-1.43-1.72,1.32,1.32,0,0,0-1.21.66h0l0-.58h-.55c0,.32,0,.67,0,1.1Z"/></svg>