<?xml version="1.0" encoding="UTF-8"?><svg xmlns="http://www.w3.org/2000/svg" viewBox="0 0 2046.07 2044.05"><defs><style>.cls-1{fill:#807454;}.cls-2{fill:#1d1d1b;}.cls-3{fill:#ff5800;}</style></defs><g id="Farbcode_Gold"><rect class="cls-1" x="22.83" y="22.17" width="2000.15" height="2000.15"/><rect class="cls-3" x="22.83" y="22.17" width="2000.2" height="214.3"/></g><g id="Sgw"><g><path class="cls-2" d="m380.23,1184.71c0,71.83,55.95,99.8,119.46,99.8,41.58,0,105.09-12.1,105.09-67.29,0-58.22-80.9-68.05-160.29-89.22-80.14-21.17-161.04-52.17-161.04-153.48,0-110.39,104.34-163.31,201.87-163.31,112.66,0,216.24,49.15,216.24,173.9h-114.92c-3.78-65.02-49.9-81.66-106.61-81.66-37.8,0-81.66,15.88-81.66,61.24,0,41.58,25.71,46.88,161.04,81.66,39.32,9.83,160.29,34.78,160.29,157.26,0,99.04-77.88,173.14-224.55,173.14-119.46,0-231.36-58.97-229.85-192.04h114.92Z"/><path class="cls-2" d="m1154.44,1338.95c0,64.27-22.68,173.14-202.63,173.14-77.12,0-167.09-36.29-172.38-125.51h106.61c9.83,40.07,42.34,53.68,80.14,53.68,59.73,0,86.95-40.83,86.19-96.78v-51.41h-1.51c-23.44,40.83-70.32,60.49-117.19,60.49-117.19,0-167.09-89.22-167.09-196.58,0-101.31,58.22-193.55,167.85-193.55,51.41,0,90.73,17.39,116.44,62.75h1.51v-52.17h102.07v365.94Zm-102.07-175.41c0-63.51-21.93-120.22-91.48-120.22-60.49,0-86.95,52.93-86.95,111.14s21.17,117.19,86.95,117.19c61.24,0,91.48-52.17,91.48-108.12Z"/><path class="cls-2" d="m1687.47,1363.9h-110.39l-69.56-262.36h-1.51l-66.54,262.36h-111.14l-124-390.89h113.41l71.83,265.38h1.51l65.02-265.38h104.34l66.54,264.62h1.51l71.83-264.62h110.39l-123.24,390.89Z"/></g><g><path class="cls-2" d="m876.33,518.55c0-21.88-.71-39.52-1.41-55.75h27.87l1.41,29.28h.71c12.7-20.82,32.81-33.17,60.69-33.17,41.28,0,72.33,34.93,72.33,86.8,0,61.39-37.4,91.74-77.62,91.74-22.58,0-42.34-9.88-52.57-26.82h-.71v92.79h-30.7v-184.88Zm30.7,45.52c0,4.59.71,8.82,1.41,12.7,5.65,21.52,24.35,36.34,46.57,36.34,32.81,0,51.87-26.82,51.87-65.98,0-34.22-17.99-63.51-50.81-63.51-21.17,0-40.93,15.17-46.93,38.46-1.06,3.88-2.12,8.47-2.12,12.7v29.28Z"/><path class="cls-2" d="m1108.84,395.77v99.5h115.02v-99.5h31.05v237.81h-31.05v-111.49h-115.02v111.49h-30.7v-237.81h30.7Z"/><path class="cls-2" d="m1468.02,633.57v-62.45h-106.55v-20.46l102.32-146.42h33.52v142.54h32.11v24.35h-32.11v62.45h-29.29Zm0-86.8v-76.56c0-12,.35-23.99,1.06-35.99h-1.06c-7.06,13.41-12.7,23.29-19.05,33.87l-56.1,77.98v.71h75.15Z"/><path class="cls-2" d="m1543.17,676.97c7.41-20.82,16.94-58.57,20.82-84.33l34.58-3.53c-8.12,29.99-23.64,69.15-33.52,85.74l-21.88,2.12Z"/><path class="cls-2" d="m1762.98,430.34h-87.5l-8.82,58.92c5.29-.71,10.23-1.41,18.7-1.41,17.64,0,35.28,3.88,49.4,12.35,17.99,10.23,32.81,29.99,32.81,58.92,0,44.81-35.64,78.33-85.38,78.33-25.05,0-46.22-7.06-57.16-14.11l7.76-23.64c9.53,5.65,28.23,12.7,49.04,12.7,29.29,0,54.34-19.05,54.34-49.75-.35-29.64-20.11-50.81-65.98-50.81-13.05,0-23.29,1.41-31.75,2.47l14.82-110.08h109.73v26.11Z"/></g></g></svg>