<svg id="Ebene_1" data-name="Ebene 1" xmlns="http://www.w3.org/2000/svg" viewBox="0 0 39.68 39.69"><defs><style>.cls-1{fill:#ff5800;}.cls-2{fill:#1d1d1b;}</style></defs><rect class="cls-1" width="39.68" height="39.69"/><path class="cls-2" d="M25.72,27.08h2.11V16.4H25.72Zm-3.92,0h2.11V19.34H21.8Zm0-8.76h2.11V16.4H21.8Zm-5.73,9.1c2.64,0,4.24-1.28,4.24-3.35,0-1.79-1.24-2.67-2.9-3.08l-2.13-.52c-.83-.21-1.25-.62-1.25-1.21S14.66,18,15.8,18A2,2,0,0,1,18,19.67h2.15c-.13-2.1-1.76-3.51-4.34-3.51-2.75,0-4,1.63-4,3.34a3,3,0,0,0,2.62,3l2,.49c1,.26,1.63.54,1.63,1.31s-.75,1.33-2,1.33c-1.42,0-2.29-.66-2.35-1.84H11.54c.06,2.31,1.82,3.65,4.53,3.65"/></svg>