<?xml version="1.0" encoding="UTF-8"?><svg xmlns="http://www.w3.org/2000/svg" viewBox="0 0 2000 2000"><defs><style>.cls-1{fill:#fff;stroke:#1d1d1b;stroke-miterlimit:10;stroke-width:5px;}.cls-2{fill:#1d1d1b;stroke-width:0px;}</style></defs><g id="Farbcode"><rect class="cls-1" width="2000.31" height="2000.31"/></g><g id="St0.01"><path class="cls-2" d="m294.63,1143.75c0,71.83,55.95,99.8,119.46,99.8,41.58,0,105.09-12.1,105.09-67.29,0-58.22-80.9-68.05-160.29-89.22-80.14-21.17-161.04-52.17-161.04-153.48,0-110.39,104.34-163.31,201.87-163.31,112.66,0,216.24,49.15,216.24,173.9h-114.92c-3.78-65.02-49.9-81.66-106.61-81.66-37.8,0-81.66,15.88-81.66,61.24,0,41.58,25.71,46.88,161.04,81.66,39.32,9.83,160.29,34.78,160.29,157.26,0,99.04-77.88,173.14-224.55,173.14-119.46,0-231.36-58.97-229.85-192.04h114.92Z"/><path class="cls-2" d="m829.17,932.05h78.63v71.83h-78.63v193.55c0,36.29,9.07,45.36,45.36,45.36,11.34,0,21.93-.76,33.27-3.02v83.92c-18.15,3.02-41.58,3.78-62.75,3.78-65.78,0-123.24-15.12-123.24-93v-230.6h-65.02v-71.83h65.02v-117.19h107.36v117.19Z"/><path class="cls-2" d="m1127.81,783.1c105.85,0,195.07,66.53,195.07,272.94s-89.22,277.48-195.07,277.48-193.55-66.53-193.55-277.48,89.22-272.94,193.55-272.94Zm0,461.96c87.7,0,87.7-129.29,87.7-189.02,0-55.19,0-184.48-87.7-184.48s-86.19,129.29-86.19,184.48c0,59.73,0,189.02,86.19,189.02Z"/><path class="cls-2" d="m1475.73,1107.18c67.81,0,124.96,42.62,124.96,174.85s-57.16,177.76-124.96,177.76-124-42.62-124-177.76,57.15-174.85,124-174.85Zm0,295.94c56.19,0,56.19-82.83,56.19-121.09,0-35.36,0-118.18-56.19-118.18s-55.22,82.83-55.22,118.18c0,38.26,0,121.09,55.22,121.09Z"/><path class="cls-2" d="m1822.05,1453.02h-68.78v-219.9h-85.25v-51.83c47.95.97,92.03-15.5,99.29-67.33h54.73v339.05Z"/></g></svg>