<svg id="Ebene_1" data-name="Ebene 1" xmlns="http://www.w3.org/2000/svg" viewBox="0 0 39.68 39.69"><defs><style>.cls-1{fill:#f40034;}.cls-2{fill:#1d1d1b;}</style></defs><rect class="cls-1" width="39.68" height="39.69"/><path class="cls-2" d="M23.11,25.79c-.78,0-1.21-.38-1.21-.93s.36-.84,1-1l2-.42V24a1.65,1.65,0,0,1-1.77,1.76m4.1,1.33a3.16,3.16,0,0,1-.3-1.62V22.08c0-1.9-1.13-2.88-3.35-2.88s-3.15.8-3.3,2.49l1.94,0c.1-.72.51-1,1.38-1s1.3.27,1.3.84v.57l-2.7.54c-1.56.32-2.35,1.11-2.35,2.34a2.39,2.39,0,0,0,2.68,2.36,3,3,0,0,0,2.39-1c0,.27.1.51.16.78ZM20.8,16.44H12.18v2h3.21v8.7h2.22v-8.7H20.8Z"/><path class="cls-2" d="M33.49,11.94a2.33,2.33,0,0,0,1.19.31c1.08,0,1.66-.63,1.66-1.36a1.19,1.19,0,0,0-1-1.17v0a1.14,1.14,0,0,0,.84-1.07c0-.55-.4-1.08-1.31-1.08a2.15,2.15,0,0,0-1.19.35l.17.45A1.7,1.7,0,0,1,34.74,8c.57,0,.8.33.8.69,0,.54-.57.77-1,.77h-.34V10h.34c.6,0,1.17.28,1.18.91a.9.9,0,0,1-1,.89,2.06,2.06,0,0,1-1-.29ZM32.55,13a8.76,8.76,0,0,0,.66-1.7l-.68.07A11.15,11.15,0,0,1,32.11,13ZM30.2,8c.64,0,.93.74.93,1.86s-.3,1.9-.93,1.9-.93-.68-.93-1.86S29.66,8,30.2,8m0-.47c-.93,0-1.58.84-1.58,2.36s.61,2.34,1.5,2.34,1.58-.85,1.58-2.4-.54-2.3-1.5-2.3m-5.71,3.06h3.08v-.42H24.53ZM18.81,7.46v4.71h.6V10H21.7v2.21h.61V7.46H21.7v2H19.41v-2Zm-3.4,2.76a1.09,1.09,0,0,1,0-.26,1,1,0,0,1,.93-.76c.66,0,1,.58,1,1.26s-.38,1.31-1,1.31a.94.94,0,0,1-.92-.72,1,1,0,0,1,0-.25Zm-.61,3.34h.61V11.72h0a1.2,1.2,0,0,0,1,.53A1.6,1.6,0,0,0,18,10.43a1.54,1.54,0,0,0-1.44-1.72,1.31,1.31,0,0,0-1.2.66h0l0-.58h-.56c0,.32,0,.67,0,1.1Z"/></svg>