<svg xmlns="http://www.w3.org/2000/svg" viewBox="0 0 2000.2 2000.15"><defs><style>.cls-1{fill:#807454;}.cls-2{fill:#c53684;}.cls-3{fill:#1d1d1b;}</style></defs><g id="Farbcode_Gold" data-name="Farbcode Gold"><rect class="cls-1" width="2000.15" height="2000.15"/><rect class="cls-2" width="2000.2" height="214.3"/></g><g id="Tdg"><path class="cls-3" d="M485.76,901.84H324V802h442.3v99.8H604.46v440H485.76Z" transform="translate(0.2 -0.14)"/><path class="cls-3" d="M1095.9,1292h-1.51c-25,42.34-68.8,60.49-118.7,60.49-118,0-175.41-101.32-175.41-209.43,0-105.1,58.21-202.63,173.14-202.63,46.12,0,91.48,19.66,115.68,58.22h1.51V802H1198v539.83H1095.9Zm-93.75-270.67c-70.32,0-94.51,60.48-94.51,124.75,0,61.24,28,125.51,94.51,125.51,71.07,0,92.24-62,92.24-126.27C1094.39,1081.78,1071.71,1021.3,1002.15,1021.3Z" transform="translate(0.2 -0.14)"/><path class="cls-3" d="M1654.63,1316.92c0,64.27-22.68,173.14-202.63,173.14-77.11,0-167.09-36.29-172.38-125.5h106.61c9.83,40.07,42.34,53.68,80.14,53.68,59.73,0,87-40.83,86.19-96.78v-51.41h-1.51c-23.44,40.82-70.31,60.48-117.19,60.48-117.19,0-167.09-89.21-167.09-196.58,0-101.31,58.21-193.55,167.85-193.55,51.41,0,90.72,17.39,116.43,62.75h1.51V951h102.07Zm-102.07-175.41c0-63.51-21.92-120.21-91.48-120.21-60.49,0-86.95,52.92-86.95,111.14,0,56,21.17,117.19,86.95,117.19C1522.32,1249.63,1552.56,1197.46,1552.56,1141.51Z" transform="translate(0.2 -0.14)"/><path class="cls-3" d="M853.29,496.52c0-21.87-.7-39.51-1.41-55.74h27.88l1.41,29.28h.7c12.71-20.81,32.82-33.16,60.69-33.16,41.28,0,72.33,34.93,72.33,86.79,0,61.39-37.4,91.74-77.62,91.74-22.58,0-42.34-9.88-52.57-26.82H884v92.8h-30.7ZM884,542a70.36,70.36,0,0,0,1.41,12.7c5.65,21.52,24.35,36.34,46.58,36.34,32.81,0,51.86-26.81,51.86-66,0-34.22-18-63.5-50.81-63.5-21.17,0-40.92,15.17-46.92,38.45A50.3,50.3,0,0,0,884,512.76Z" transform="translate(0.2 -0.14)"/><path class="cls-3" d="M1085.81,373.74v99.5h115v-99.5h31.05V611.55h-31.05V500.05h-115v111.5h-30.7V373.74Z" transform="translate(0.2 -0.14)"/><path class="cls-3" d="M1497.91,382.21v20.46l-99.85,208.88H1366l99.5-202.88V408h-112.2V382.21Z" transform="translate(0.2 -0.14)"/><path class="cls-3" d="M1520.13,655c7.41-20.82,16.94-58.57,20.82-84.33l34.58-3.53c-8.12,30-23.64,69.16-33.52,85.74Z" transform="translate(0.2 -0.14)"/><path class="cls-3" d="M1755.47,494.41c0,78-28.93,121-79.74,121-44.81,0-75.15-42-75.86-117.85,0-76.91,33.17-119.25,79.74-119.25C1728,378.33,1755.47,421.37,1755.47,494.41Zm-124.55,3.53c0,59.62,18.35,93.5,46.57,93.5,31.76,0,46.93-37.05,46.93-95.62,0-56.45-14.47-93.5-46.58-93.5C1650.68,402.32,1630.92,435.49,1630.92,497.94Z" transform="translate(0.2 -0.14)"/></g></svg>