<svg id="Ebene_1" data-name="Ebene 1" xmlns="http://www.w3.org/2000/svg" viewBox="0 0 39.68 39.69"><defs><style>.cls-1{fill:#ff5800;}.cls-2{fill:#1d1d1b;}</style></defs><rect class="cls-1" width="39.68" height="39.69"/><path class="cls-2" d="M27.49,25.72c-.79,0-1.22-.38-1.22-.93s.36-.84,1-1l2-.42V24a1.66,1.66,0,0,1-1.77,1.76m4.09,1.33a3.16,3.16,0,0,1-.3-1.62V22c0-1.9-1.12-2.88-3.34-2.88s-3.15.8-3.3,2.49l1.93,0c.1-.72.51-1,1.38-1s1.31.27,1.31.84V22l-2.71.54c-1.55.32-2.35,1.11-2.35,2.34a2.39,2.39,0,0,0,2.68,2.36,3,3,0,0,0,2.39-1c.05.27.11.51.17.78ZM19.46,20.66a1.69,1.69,0,0,1,1.71,1.71H17.73a1.71,1.71,0,0,1,1.73-1.71m3.9,2.79c0-2.71-1.68-4.33-4-4.33a3.74,3.74,0,0,0-3.8,4,3.87,3.87,0,0,0,4,4.17,3.42,3.42,0,0,0,3.55-2.5l-2.1-.15a1.46,1.46,0,0,1-1.5,1,1.77,1.77,0,0,1-1.81-1.86h5.61Zm-6.93-7.08H7.81v2H11v8.7h2.21v-8.7h3.2Z"/></svg>