<svg id="Ebene_1" data-name="Ebene 1" xmlns="http://www.w3.org/2000/svg" viewBox="0 0 39.69 39.69"><defs><style>.cls-1{fill:#ff5800;}.cls-2{fill:#1d1d1b;}</style></defs><rect class="cls-1" width="39.69" height="39.69"/><path class="cls-2" d="M31.74,27.08,29,23l2.49-3.66H29.26L28,21.51l-1.2-2.17H24.34L26.83,23,24,27.08h2.37l1.54-2.54,1.4,2.54ZM19.68,20.69a1.69,1.69,0,0,1,1.71,1.71H18a1.7,1.7,0,0,1,1.73-1.71m3.9,2.79c0-2.72-1.68-4.33-4-4.33a3.74,3.74,0,0,0-3.81,4,3.87,3.87,0,0,0,4,4.17,3.42,3.42,0,0,0,3.55-2.51l-2.1-.15a1.46,1.46,0,0,1-1.5,1A1.77,1.77,0,0,1,18,23.84h5.61ZM16.65,16.4H8v2h3.21v8.7h2.22v-8.7h3.2Z"/></svg>