<svg id="Ebene_1" data-name="Ebene 1" xmlns="http://www.w3.org/2000/svg" viewBox="0 0 39.68 39.69"><defs><style>.cls-1{fill:#00c7b2;}.cls-2{fill:#1d1d1b;}</style></defs><rect class="cls-1" width="39.68" height="39.69"/><path class="cls-2" d="M23.72,27.36c2.09,0,3.43-.94,3.43-2.57,0-1.21-.71-1.91-2.26-2.23l-1.66-.34c-.56-.12-.88-.38-.88-.78s.45-.83,1.16-.83A1.34,1.34,0,0,1,25,21.69l1.9-.07c-.19-1.52-1.46-2.47-3.34-2.47s-3.15,1-3.15,2.54c0,1.19.74,2,2.25,2.27l1.53.3c.71.13,1,.36,1,.78,0,.59-.6.86-1.39.86-1,0-1.54-.44-1.66-1.2l-1.93.07c.2,1.65,1.4,2.59,3.51,2.59m-2.79-11H12.31v2h3.21v8.7h2.21v-8.7h3.2Z"/></svg>