<svg id="Ebene_1" data-name="Ebene 1" xmlns="http://www.w3.org/2000/svg" viewBox="0 0 39.68 39.69"><defs><style>.cls-1{fill:#ffcb00;}.cls-2{fill:#1d1d1b;}</style></defs><rect class="cls-1" width="39.68" height="39.69"/><path class="cls-2" d="M27.31,19.34l-.85,3.43-.36,1.95-.36-2-.87-3.4H23l-.87,3.43-.36,1.95-.36-1.95-.85-3.43H18.33l2.29,7.74h2l1.11-4.31.2-1,.18,1,1.11,4.31h2l2.29-7.74ZM18.85,16.4H10.23v2h3.21v8.7h2.22v-8.7h3.19Z"/><path class="cls-2" d="M34.81,8a.7.7,0,0,1,.77.74.89.89,0,0,1-.69.82c-.53-.14-.87-.38-.87-.84A.72.72,0,0,1,34.81,8m0,3.81a.84.84,0,0,1-.91-.87,1,1,0,0,1,.82-.94c.62.18,1,.45,1,1a.82.82,0,0,1-.91.81m0,.45a1.4,1.4,0,0,0,1.55-1.32,1.26,1.26,0,0,0-.92-1.18v0a1.13,1.13,0,0,0-.58-2.18,1.27,1.27,0,0,0-1.4,1.21,1.12,1.12,0,0,0,.72,1v0A1.31,1.31,0,0,0,33.26,11c0,.66.58,1.23,1.53,1.23m-7.3-4.8v4.72h.61V9.92h2.28v2.21H31V7.41h-.61v2H28.1v-2Zm-3.4,2.76a1.09,1.09,0,0,1,0-.25,1,1,0,0,1,.94-.76c.65,0,1,.58,1,1.26s-.37,1.31-1,1.31a1,1,0,0,1-.93-.72,2.06,2.06,0,0,1,0-.26Zm-.61,3.35h.61V11.68h0a1.19,1.19,0,0,0,1,.53,1.6,1.6,0,0,0,1.54-1.82,1.53,1.53,0,0,0-1.43-1.72,1.33,1.33,0,0,0-1.21.65h0l0-.58h-.55c0,.33,0,.68,0,1.11Z"/></svg>