<svg id="Ebene_1" data-name="Ebene 1" xmlns="http://www.w3.org/2000/svg" viewBox="0 0 39.68 39.69"><defs><style>.cls-1{fill:#92d400;}.cls-2{fill:#1d1d1b;}</style></defs><rect class="cls-1" width="39.68" height="39.69"/><path class="cls-2" d="M24.91,25.48c-1,0-1.75-.9-1.75-2.3s.72-2.28,1.75-2.28,1.74.87,1.74,2.28-.72,2.3-1.74,2.3m.61-6.33a2.72,2.72,0,0,0-2.25,1V16.4H21.16V27.08H23l.07-1a2.56,2.56,0,0,0,2.26,1.21c1.95,0,3.32-1.66,3.32-4.15s-1.4-4-3.16-4M17.9,16.4l-1.38,4.65-.91,3.52-.92-3.52L13.27,16.4H10.91l3.62,10.68h2.1L20.26,16.4Z"/><path class="cls-2" d="M35.37,12.13H36V7.58h-.53l-1,.53.12.47.79-.42h0ZM33.42,13a9,9,0,0,0,.66-1.7l-.68.07A10.72,10.72,0,0,1,33,13Zm-3.66-1a2.33,2.33,0,0,0,1.19.31c1.08,0,1.66-.64,1.66-1.37a1.2,1.2,0,0,0-1-1.17h0a1.14,1.14,0,0,0,.84-1.07c0-.55-.41-1.08-1.31-1.08a2.24,2.24,0,0,0-1.19.34l.17.45A1.69,1.69,0,0,1,31,8c.57,0,.8.32.8.69,0,.54-.57.77-1,.77h-.34v.46h.34c.6,0,1.17.27,1.18.91,0,.38-.25.88-1,.88a2.07,2.07,0,0,1-1-.28Zm-1.27.23h.59V7.58h-.52l-1,.53.12.47.79-.42h0ZM21.92,7.41v4.72h.61V9.92h2.28v2.21h.61V7.41h-.61v2H22.53v-2Zm-3.4,2.76a1.09,1.09,0,0,1,0-.25,1,1,0,0,1,.94-.76c.65,0,1,.58,1,1.26s-.37,1.31-1,1.31a1,1,0,0,1-.92-.72,2.06,2.06,0,0,1,0-.26Zm-.61,3.35h.61V11.68h0a1.19,1.19,0,0,0,1,.53,1.6,1.6,0,0,0,1.54-1.82,1.54,1.54,0,0,0-1.44-1.72,1.33,1.33,0,0,0-1.2.65h0l0-.58h-.55c0,.33,0,.68,0,1.11Z"/></svg>