<svg xmlns="http://www.w3.org/2000/svg" viewBox="0 0 2000.2 2000.15"><defs><style>.cls-1{fill:#adafaf;}.cls-2{fill:#fff;}</style></defs><g id="Farbcode"><rect width="2000.15" height="2000.15"/><rect class="cls-1" width="2000.2" height="214.3"/></g><g id="W0.01"><path class="cls-2" d="M752.86,1322.93H634.92L543.43,955.48h-1.51l-90,367.45H331.73L188.83,783.1H307.54L393,1150.55h1.51L488.24,783.1H599.38l92.24,372h1.51l88.46-372H898Z" transform="translate(0.2 -0.14)"/><path class="cls-2" d="M1109.72,783.1c105.85,0,195.06,66.53,195.06,272.94,0,211-89.21,277.48-195.06,277.48-104.34,0-193.56-66.53-193.56-277.48C916.16,849.63,1005.38,783.1,1109.72,783.1Zm0,462c87.7,0,87.7-129.29,87.7-189,0-55.19,0-184.48-87.7-184.48-86.19,0-86.19,129.29-86.19,184.48C1023.53,1115.77,1023.53,1245.06,1109.72,1245.06Z" transform="translate(0.2 -0.14)"/><path class="cls-2" d="M1468.69,1107.18c67.81,0,125,42.63,125,174.86,0,135.13-57.16,177.76-125,177.76-66.84,0-124-42.63-124-177.76C1344.7,1149.81,1401.85,1107.18,1468.69,1107.18Zm0,296c56.19,0,56.19-82.83,56.19-121.09,0-35.36,0-118.19-56.19-118.19-55.21,0-55.21,82.83-55.21,118.19C1413.48,1320.3,1413.48,1403.13,1468.69,1403.13Z" transform="translate(0.2 -0.14)"/><path class="cls-2" d="M1815,1453h-68.78v-219.9H1661v-51.83c48,1,92-15.5,99.3-67.33H1815Z" transform="translate(0.2 -0.14)"/><path class="cls-2" d="M1461.8,1848.48c6.7.71,14.46,0,25-1,18-2.47,34.92-9.88,48-22.23,15.17-13.76,26.1-33.87,30.34-61h-1.06c-12.7,15.52-31,24.69-54,24.69-41.28,0-67.74-31-67.74-70.21,0-43.39,31.4-81.49,78.33-81.49s75.85,38.1,75.85,96.66c0,50.45-16.94,85.73-39.52,107.61-17.64,17.28-42,27.87-66.67,30.69a144.44,144.44,0,0,1-28.58,1.77Zm56.09-187.69c-26.1,0-44.8,23.29-44.8,55.75,0,28.57,17.29,48.68,44.1,48.68,20.81,0,37-10.23,45.16-24,1.76-2.82,2.82-6.35,2.82-11.29,0-39.16-14.47-69.15-46.92-69.15Z" transform="translate(0.2 -0.14)"/><path class="cls-2" d="M1614.91,1913.75c7.41-20.81,16.93-58.56,20.82-84.32l34.57-3.52c-8.11,30-23.64,69.14-33.52,85.72Z" transform="translate(0.2 -0.14)"/><path class="cls-2" d="M1715.81,1848.48c6.7.71,14.46,0,25-1,18-2.47,34.92-9.88,48-22.23,15.17-13.76,26.1-33.87,30.34-61h-1.06c-12.7,15.52-31,24.69-54,24.69-41.28,0-67.74-31-67.74-70.21,0-43.39,31.4-81.49,78.32-81.49s75.86,38.1,75.86,96.66c0,50.45-16.94,85.73-39.52,107.61-17.64,17.28-42,27.87-66.68,30.69a144.35,144.35,0,0,1-28.57,1.77Zm56.09-187.69c-26.11,0-44.8,23.29-44.8,55.75,0,28.57,17.28,48.68,44.1,48.68,20.81,0,37-10.23,45.15-24,1.77-2.82,2.83-6.35,2.83-11.29,0-39.16-14.47-69.15-46.93-69.15Z" transform="translate(0.2 -0.14)"/><path class="cls-2" d="M1599.21,494.39c0,78-28.92,121-79.73,121-44.8,0-75.14-42-75.85-117.84,0-76.91,33.16-119.24,79.73-119.24C1571.7,378.32,1599.21,421.36,1599.21,494.39Zm-124.53,3.52c0,59.63,18.34,93.5,46.57,93.5,31.75,0,46.92-37,46.92-95.61,0-56.45-14.47-93.49-46.57-93.49C1494.43,402.31,1474.68,435.47,1474.68,497.91Z" transform="translate(0.2 -0.14)"/><path class="cls-2" d="M1617.91,654.91c7.41-20.82,16.93-58.57,20.82-84.32l34.57-3.53c-8.11,30-23.64,69.15-33.52,85.73Z" transform="translate(0.2 -0.14)"/><path class="cls-2" d="M1853.22,494.39c0,78-28.93,121-79.73,121-44.8,0-75.15-42-75.85-117.84,0-76.91,33.16-119.24,79.73-119.24C1825.71,378.32,1853.22,421.36,1853.22,494.39Zm-124.53,3.52c0,59.63,18.34,93.5,46.56,93.5,31.76,0,46.93-37,46.93-95.61,0-56.45-14.47-93.49-46.57-93.49C1748.44,402.31,1728.69,435.47,1728.69,497.91Z" transform="translate(0.2 -0.14)"/></g></svg>