<svg xmlns="http://www.w3.org/2000/svg" viewBox="0 0 2000.2 2000.15"><defs><style>.cls-1{fill:#adafaf;}.cls-2{fill:#fff;}</style></defs><g id="Farbcode"><rect width="2000.15" height="2000.15"/><rect class="cls-1" width="2000.2" height="214.3"/></g><g id="Wf"><path class="cls-2" d="M1096.86,1322.93H978.91L887.43,955.48h-1.51l-90,367.45H675.73L532.83,783.1H651.54L737,1150.55h1.51L832.24,783.1H943.38l92.24,372h1.51l88.46-372H1242Z" transform="translate(0.2 -0.14)"/><path class="cls-2" d="M1308.55,1003.87h-64.26V932.05h64.26V901.8c0-68.8,43.1-118.7,130.8-118.7,18.9,0,38.56,2.27,56.71,3v80.15a331.55,331.55,0,0,0-39.32-2.27c-28.73,0-40.83,12.1-40.83,44.61v23.44H1490v71.82h-74.1v319.06H1308.55Z" transform="translate(0.2 -0.14)"/><text x="0.2" y="-0.14"/><text x="0.2" y="-0.14"/></g></svg>