<svg id="Ebene_1" data-name="Ebene 1" xmlns="http://www.w3.org/2000/svg" viewBox="0 0 39.68 39.69"><defs><style>.cls-1{fill:#ffcb00;}.cls-2{fill:#1d1d1b;}</style></defs><rect class="cls-1" width="39.68" height="39.69"/><path class="cls-2" d="M30.66,27.36c2.09,0,3.44-.94,3.44-2.57,0-1.21-.72-1.91-2.26-2.23l-1.67-.34c-.56-.12-.87-.38-.87-.78s.45-.83,1.15-.83a1.35,1.35,0,0,1,1.48,1.08l1.9-.07c-.2-1.52-1.47-2.47-3.35-2.47s-3.14,1-3.14,2.54c0,1.19.73,2,2.24,2.27l1.53.3c.71.13,1,.36,1,.78,0,.59-.61.86-1.4.86-1,0-1.53-.44-1.65-1.2l-1.93.07c.19,1.65,1.39,2.59,3.5,2.59m-8.1,0c2.09,0,3.44-.94,3.44-2.57,0-1.21-.72-1.91-2.26-2.23l-1.67-.34c-.56-.12-.87-.38-.87-.78s.45-.83,1.15-.83a1.35,1.35,0,0,1,1.48,1.08l1.9-.07c-.2-1.52-1.47-2.47-3.35-2.47s-3.14,1-3.14,2.54c0,1.19.73,2,2.24,2.27l1.53.3c.71.13,1,.36,1,.78,0,.59-.6.86-1.4.86-1,0-1.53-.44-1.65-1.2l-1.93.07c.19,1.65,1.39,2.59,3.5,2.59M17,16.4l-1.38,5.34-.51,2.14-.44-2.14L13.47,16.4H11.28l-1.17,5.34-.43,2.14-.51-2.14L7.79,16.4H5.43L8.55,27.08h2.16l1.65-7.29L14,27.08h2.13L19.25,16.4Z"/><path class="cls-2" d="M36.22,7.58H34l-.29,2.19a3.48,3.48,0,0,1,.63,0c.91,0,1.3.42,1.31,1a1,1,0,0,1-1.08,1,2.07,2.07,0,0,1-1-.25l-.15.47a2.24,2.24,0,0,0,1.13.28,1.59,1.59,0,0,0,1.7-1.56,1.3,1.3,0,0,0-.65-1.16,1.91,1.91,0,0,0-1-.25,2.89,2.89,0,0,0-.37,0l.17-1.17h1.74ZM32.48,13a9,9,0,0,0,.66-1.7l-.68.07A10.72,10.72,0,0,1,32,13ZM30.1,8c.64,0,.93.6.93,1.38a.38.38,0,0,1-.06.22,1,1,0,0,1-.89.48.88.88,0,0,1-.88-1c0-.64.37-1.11.9-1.11M29,12.2a3,3,0,0,0,.57,0,2.31,2.31,0,0,0,1.32-.61,2.89,2.89,0,0,0,.78-2.14c0-1.16-.57-1.91-1.5-1.91a1.56,1.56,0,0,0-1.56,1.61,1.32,1.32,0,0,0,1.35,1.39A1.35,1.35,0,0,0,31,10h0a2,2,0,0,1-.6,1.21,1.78,1.78,0,0,1-.95.44,3.08,3.08,0,0,1-.5,0ZM22.79,7.41v4.72h.61V9.92h2.28v2.21h.62V7.41h-.62v2H23.4v-2ZM19.4,10.17a1.09,1.09,0,0,1,0-.25,1,1,0,0,1,.93-.76c.65,0,1,.58,1,1.26s-.38,1.31-1,1.31a1,1,0,0,1-.93-.72,2.11,2.11,0,0,1,0-.26Zm-.61,3.35h.61V11.68h0a1.19,1.19,0,0,0,1,.53A1.6,1.6,0,0,0,22,10.39a1.53,1.53,0,0,0-1.43-1.72,1.34,1.34,0,0,0-1.21.65h0l0-.58h-.55c0,.33,0,.68,0,1.11Z"/></svg>